<?xml version="1.0" encoding="utf-8"?>
<!-- Generator: Adobe Illustrator 25.4.1, SVG Export Plug-In . SVG Version: 6.00 Build 0)  -->
<svg version="1.1" id="Layer_1" xmlns="http://www.w3.org/2000/svg" xmlns:xlink="http://www.w3.org/1999/xlink" x="0px" y="0px"
	 viewBox="0 0 200 350" style="enable-background:new 0 0 200 350;" xml:space="preserve">
<style type="text/css">
	.st0{fill:#D7D5F7;stroke:#08060A;stroke-miterlimit:10;}
</style>
<path class="st0" d="M36.1,227.2c-0.1-0.1-0.1-0.1-0.2-0.1c-0.2-1.2-0.4-2.3-0.7-3.4c7.9,4.2,15.4,10.4,22.9,16.3
	c1.6,1.2,3.1,2.4,4.7,3.6c-0.8,1.1-1.6,2.2-2.4,3.3c-3.9-4.1-8.1-7.2-12.4-10.3C43.9,233.6,40.1,230.1,36.1,227.2z"/>
<path class="st0" d="M57,251.1c-0.8,1-1.6,2.1-2.4,3.1c-2.8-1.9-5.4-4.3-8.3-6c-2.4-1.5-4.8-4-7.4-4.6c-0.3-1.8-0.6-3.6-0.9-5.4
	c2.9,2.3,6.1,4.2,9,6.4C50.2,247,53.6,249.3,57,251.1z"/>
<path class="st0" d="M1.3,143.4c7.4-5.1,15.3-7.6,23.2-10.2c8.4-2.7,16.7-6.7,24.9-10.5c16.7-7.8,33.4-15.9,50.3-23
	c6.2-2.6,12.4-5.2,18.7-7.7c2.4,2.2,4.9,4.2,7.5,5.6c0.6,0.3,1-1.2,0.4-1.7c-1.9-1.3-3.6-3.2-5.3-5c0.7-0.3,1.4-0.6,2.1-0.9
	c1.4,1.1,2.8,2.2,4,3.5c0.7,0.6,1.2-1,0.6-1.6c-0.8-0.9-1.7-1.8-2.5-2.7c8.5-3.5,16.9-6.9,25.4-10.4c8.1-3.4,16.2-7.1,24.1-11.2
	c7.3-3.7,14.9-9,22.6-9.8c-9.8,3.4-22.6,14.5-32.7,23c-12.1,10.3-24.4,20.3-36.7,30.2c-1.2-0.5-2.6-0.4-3.8-0.5
	c-0.5,0-0.5,1.1,0,1.1c0.7,0.1,1.4,0.3,2.1,0.4c0.1,0,0.2,0,0.3,0.1c-0.7,0.5-1.3,1.1-2,1.6c-1.4-0.2-2.8-0.5-4.2-1.1
	c-0.5-0.2-0.7,1-0.2,1.2c1,0.5,2,0.8,3,1.1c-0.6,0.5-1.1,0.9-1.7,1.4c-2.3-0.3-4.6-0.7-6.9-0.9c-0.4,0-0.4,0.8,0,0.9
	c1.8,0.4,3.6,0.9,5.3,1.3c-0.6,0.5-1.2,0.9-1.7,1.4c-0.3,0.2-0.6,0.5-0.9,0.7c-3.3-0.7-6.7-1.6-10-2.3c-0.4-0.1-0.4,0.8,0,0.9
	c2.9,0.8,5.7,1.9,8.6,2.5c-1,0.8-2,1.6-3,2.3c-3.4-1.2-7-1.7-10.4-2.6c-0.3-0.1-0.4,0.8-0.1,0.9c3,0.9,6,2.1,9.1,2.8
	c-0.8,0.6-1.5,1.2-2.3,1.8c-4.2-0.9-8.3-2.1-12.4-3.2c-0.5-0.1-0.5,1,0,1.1c3.7,1,7.4,2.3,11.1,3.2c-0.9,0.7-1.8,1.4-2.6,2.1
	c-4.8-1.2-9.6-2-14.2-4.1c-0.5-0.2-0.7,1-0.2,1.2c4.2,1.9,8.6,3,12.9,4.1c-1.1,0.9-2.2,1.7-3.3,2.6c-5.3-1.7-10.5-4-15.9-5
	c-0.4-0.1-0.4,0.8,0,0.9c4.8,1.2,9.5,3.7,14.3,5.3c-1.1,0.8-2.2,1.7-3.3,2.5l-0.1-0.1c-2.9-1.4-6-2.1-8.9-3.3
	c-2.8-1.1-5.5-2-8.4-2.1c-0.4,0-0.4,0.9,0,0.9c5.5,0.4,10.7,3.9,16.1,5.5c-0.9,0.7-1.9,1.5-2.8,2.2c-6.3-1.5-12.7-4.4-19.1-5
	c-0.1,0-0.2,0.3,0,0.4c5.6,2.8,11.6,4.7,17.4,5.9c-1.4,1.1-2.8,2.2-4.2,3.2c-6.4-2-12.8-3.2-19.2-5.3c-0.3-0.1-0.4,0.5-0.1,0.7
	c5.6,2.9,11.7,4.8,17.7,5.9c-1.3,1-2.6,2-3.9,3c-6.1-1.6-12.1-3.7-18.2-4.8c-0.2,0-0.2,0.4-0.1,0.5c5.6,1.7,11.1,3.9,16.7,5.5
	c-1.1,0.8-2.2,1.6-3.2,2.5c-2.8-0.8-5.6-2-8.5-2.6c-3.2-0.7-6.5-1.3-9.6-2.7c-0.2-0.1-0.3,0.4-0.1,0.6c3.2,1.7,6.4,2.7,9.7,3.6
	c2.3,0.6,4.6,1.6,7,2.3c-1.5,1.1-3,2.3-4.5,3.4c-5.3-1.4-10.7-2.8-16-4.4c-0.3-0.1-0.5,0.6-0.2,0.8c3.4,1.8,7.2,2.2,10.7,3.3
	c1.4,0.4,2.8,0.9,4.2,1.4c-14.7,11-29.6,21.5-44.8,31c-0.2,0.1-0.3,0.2-0.4,0.4c-6.4-16.1-16.7-28-21.5-45.6
	C0.9,143.6,1.1,143.5,1.3,143.4z M34.8,177.7c-1.8-3.5-3.3-7.4-5.2-10.9c-0.3-0.5-0.8,0.2-0.6,0.7c1,2.1,1.9,4.3,2.9,6.4
	c0.7,1.6,1.3,3.4,2.1,4.9C34.6,179.7,35.2,178.5,34.8,177.7z M32.8,179.7c-1.1-3.9-3.4-7.3-5.1-10.6c-0.5-1-1.9-4.8-2.9-5
	c-0.1,0-0.1,0.1-0.1,0.2c1.7,6.1,5.3,10.4,7.1,16.3C32.2,181.6,33,180.7,32.8,179.7z M31.1,180.4c-1-3.4-3.1-6.4-4.7-9.1
	c-2-3.4-4-6.5-6.2-9.5c-0.4-0.5-0.9,0.3-0.5,0.9c2.1,3.2,4.1,6.4,6,9.9c1.5,2.8,3.3,5.6,4.4,8.8C30.5,182.4,31.4,181.4,31.1,180.4z
	 M28.4,182.9c-2.2-5-4.4-9.9-7-14.4c-1.5-2.7-3.8-7.9-6.1-8.9c-0.1-0.1-0.3,0.3-0.2,0.4c4.9,6.2,8.6,15.8,12.2,23.9
	C27.8,184.9,28.9,183.9,28.4,182.9z M26.3,183.8c-3.9-10.2-9.5-18.7-14.8-27c-0.3-0.5-0.7,0.3-0.5,0.7c5,8.6,10.3,17.3,14.3,27.2
	C25.7,185.8,26.7,184.9,26.3,183.8z M7,154.8c1.9,5.4,5.1,9.5,7.6,14.3c2.9,5.4,5.9,11.5,8.2,17.7c0.4,1.1,1.4,0.1,1-1
	c-1.9-5.2-4.4-10.4-6.8-14.9c-3-5.6-6.9-10.4-9.4-16.6C7.4,153.7,6.8,154.2,7,154.8z"/>
<path class="st0" d="M38.9,220.3c5.5-4,10.6-9.7,15.5-15.2c6.9-7.8,13.9-15.5,21-22.7c13.7-13.9,28-25.6,42.1-38.2
	c14.4-12.9,28.4-27.2,42.1-41.9c12.5-13.4,25.3-26.3,37.5-40.4c-7,16.7-14.9,32.5-21.4,49.7c-7.5,19.6-15,39.1-22.1,59
	c-6.7,18.8-13.6,37.8-19.4,57.3c-2.8,9.4-5.1,19.1-7.3,28.9c-2,8.8-3.3,18.1-6.3,26.3c-5.1-6.1-11.1-10.2-16.9-14.4
	c-7.6-5.5-15-11.4-22.5-17c-8-6-16-11.8-23.9-18.1C51.3,228.9,45.2,224.1,38.9,220.3z M163.7,103.8c9.2-7.8,17.1-18.9,25.8-28
	c1-1,0-3.5-0.9-2.5c-8.7,9.1-16.3,20.9-25.3,29.3C162.8,103.1,163.2,104.3,163.7,103.8z M70.1,238.9c-4.8-3.8-9.7-7.3-14.5-11.1
	c-3.3-2.7-6.4-5.9-9.8-8.2c8.1-6.2,14.7-16.4,22-24.4c0.4-0.5,0-1.4-0.4-1.1c-8.6,6.7-15.3,18.9-24.4,24.5c-1,0.6-0.5,3.2,0.5,2.6
	c0.2-0.1,0.3-0.2,0.5-0.3c0.1,0.4,0.3,0.7,0.5,0.8c4.4,2.6,8.5,6.8,12.9,10c4.1,3,8.3,5.7,12.5,8.3
	C70.2,240.3,70.5,239.2,70.1,238.9z"/>
<path class="st0" d="M53.9,255.1c-0.8,1-1.6,2.1-2.4,3.1l-0.1,0.1c-3.9-2.1-7.8-5-11.5-7.8c-0.2-1.3-0.4-2.6-0.6-3.8
	c2.5,1.1,5.2,3.1,7.6,4.5C49.3,252.4,51.5,253.9,53.9,255.1z"/>
<path class="st0" d="M59.7,247.6c-0.7,0.9-1.5,1.9-2.2,2.8c-6.9-4.3-13.6-10.3-20.1-15.7l-0.1-0.1c-0.3-1.4-0.5-2.7-0.8-4.1
	c4,3,7.8,6.4,11.9,9C52.2,242,56,244.5,59.7,247.6z"/>
<path class="st0" d="M23.6,194c15.8-8.4,31.1-20.1,46.1-31.7c15.4-11.9,30.8-24,46.1-36.4c15.8-12.7,31.4-25.7,46.9-39.3
	c5.7-5,12.3-8.9,18-14.2c4.5-4.2,8.4-8.1,13.2-11.2c-12.2,11.4-23.9,24.9-35.7,37.2c-13.5,14-27.1,27.8-41.2,40.3
	s-28.5,24.1-42.2,37.8c-7.1,7.2-14.2,14.7-21.1,22.5c-5.9,6.6-12.2,13.9-19.1,17.8c-0.4,0.2-0.7,0.6-0.9,1c-1.3,0.5-1.6,4.1,0,5
	c1,8.2,1.8,16.5,2.7,24.7c-1.4-4.9-2.9-9.7-4.2-14.5c-3.5-12.7-6.7-25.4-9.2-38.7c0-0.1,0.1-0.1,0.1-0.2
	C23.2,194.1,23.4,194.1,23.6,194z"/>
<path class="st0" d="M50.4,259.8c-0.8,1.2-1.5,2.4-2.2,3.6c-2.5-1.7-4.9-3.5-7.4-5.1c-0.1-1.4-0.3-2.9-0.5-4.3c1.6,1,3.3,1.9,5,2.9
	C47,258,48.6,259.1,50.4,259.8z"/>
<path class="st0" d="M42.6,271.8c-0.3-1.5-0.6-3-1-4.6c1,0.8,2,1.5,3.1,2C44.1,270.1,43.4,271,42.6,271.8z"/>
<path class="st0" d="M47.3,265c-0.5,0.9-1,1.8-1.6,2.7c-1.6-1-2.9-2.5-4.4-3.8c-0.1-0.8-0.1-1.6-0.2-2.4c0.9,0.6,1.9,1,2.8,1.5
	C45,263.7,46.2,264.4,47.3,265z"/>
</svg>
