<?xml version="1.0" encoding="utf-8"?>
<!-- Generator: Adobe Illustrator 25.4.1, SVG Export Plug-In . SVG Version: 6.00 Build 0)  -->
<svg version="1.1" id="Layer_1" xmlns="http://www.w3.org/2000/svg" xmlns:xlink="http://www.w3.org/1999/xlink" x="0px" y="0px"
	 viewBox="0 0 200 350" style="enable-background:new 0 0 200 350;" xml:space="preserve">
<style type="text/css">
	.st0{stroke:#000000;stroke-miterlimit:10;}
	.st1{fill:#F3DED3;stroke:#000000;stroke-miterlimit:10;}
</style>
<path class="st0" d="M98.37,17.16c0.18,0,0.35-0.01,0.54-0.02c0.17,0.01,0.35,0.02,0.53,0.02c42.59,0.74,77.24,39.43,77.24,86.25
	c0,57.24-55.66,115.21-77.77,135.98c-1.48-1.39-3.12-2.96-4.87-4.68c-0.03-0.03-0.06-0.05-0.08-0.08
	c-24.48-23.9-72.81-77.87-72.81-131.23C21.13,56.58,55.79,17.9,98.37,17.16L98.37,17.16z"/>
<path class="st1" d="M140.34,95.75c0,24.71-18.22,44.73-40.7,44.73c-22.47,0-40.69-20.02-40.69-44.73
	c0-24.7,18.22-44.73,40.69-44.73C122.12,51.02,140.34,71.05,140.34,95.75L140.34,95.75z M140.34,95.75"/>
<path class="st0" d="M100,320.11c-46.61,0-93.81-14.69-93.81-42.78c0-19.71,23.24-32.81,53.2-38.88c5.8,6.4,11.28,12.05,16.1,16.76
	c-32.63,4.01-51.81,15.36-51.81,22.12c0,8.3,28.97,23.56,76.33,23.56c47.35,0,76.33-15.26,76.33-23.56c0-6.9-19.99-18.54-53.8-22.33
	c4.86-4.76,10.38-10.45,16.23-16.93c30.85,5.9,55.06,19.14,55.06,39.26C193.81,305.41,146.62,320.11,100,320.11L100,320.11z"/>
</svg>
