<?xml version="1.0" encoding="utf-8"?>
<!-- Generator: Adobe Illustrator 25.4.1, SVG Export Plug-In . SVG Version: 6.00 Build 0)  -->
<svg version="1.1" xmlns="http://www.w3.org/2000/svg" xmlns:xlink="http://www.w3.org/1999/xlink" x="0px" y="0px"
	 viewBox="0 0 500 500" style="enable-background:new 0 0 500 500;" xml:space="preserve">
<style type="text/css">
	.st0{fill:#F3DED3;}
	.st1{font-family:'Montserrat-Medium';}
	.st2{font-size:13.8582px;}
	.st3{letter-spacing:4;}
	.st4{fill:#EFF0F0;}
	.st5{fill-rule:evenodd;clip-rule:evenodd;fill:#FFFFFF;}
	.st6{fill:#FFFFFF;}
	.st7{fill:#222221;}
</style>
<g id="BACKGROUND">
	<rect class="st0" width="500" height="500"/>
</g>
<g id="OBJECTS">
	<g>
		<text transform="matrix(1 0 0 1 133.1496 41.4881)" class="st1 st2 st3">Black Social media</text>
		<text transform="matrix(1 0 0 1 210.7233 60.8621)" class="st1 st2 st3">Logos</text>
	</g>
	<g>
		<circle cx="387.77" cy="119.8" r="32.44"/>
		<g>
			<g>
				<path class="st4" d="M389.81,126.85c-1.9-0.15-2.71-1.09-4.2-2c-0.82,4.31-1.82,8.44-4.8,10.6c-0.92-6.51,1.35-11.4,2.4-16.59
					c-1.79-3.02,0.22-9.09,4-7.6c4.65,1.84-4.03,11.22,1.8,12.4c6.09,1.22,8.57-10.56,4.8-14.4c-5.45-5.53-15.88-0.13-14.59,7.8
					c0.31,1.94,2.31,2.52,0.8,5.2c-3.49-0.77-4.53-3.53-4.4-7.2c0.22-6.01,5.4-10.21,10.6-10.8c6.57-0.74,12.74,2.41,13.6,8.6
					C400.76,119.84,396.84,127.4,389.81,126.85L389.81,126.85z"/>
			</g>
		</g>
	</g>
	<g>
		<circle cx="195.74" cy="213.85" r="32.44"/>
		<g id="XMLID_19_" transform="translate(-1)">
			<g id="XMLID_28_">
				<polygon class="st4" points="181.08,205.58 188.91,210.57 196.74,205.58 188.91,200.59 				"/>
			</g>
			<g id="XMLID_26_">
				<polygon class="st4" points="196.73,205.58 204.56,210.57 212.39,205.58 204.56,200.59 				"/>
			</g>
			<g id="XMLID_24_">
				<polygon class="st4" points="181.08,215.48 188.91,220.47 196.74,215.48 188.91,210.5 				"/>
			</g>
			<g id="XMLID_22_">
				<polygon class="st4" points="204.56,210.5 196.73,215.48 204.56,220.47 212.39,215.48 				"/>
			</g>
			<g id="XMLID_20_">
				<polygon class="st4" points="188.96,222.13 196.79,227.12 204.62,222.13 196.79,217.14 				"/>
			</g>
		</g>
	</g>
	<g>
		<ellipse transform="matrix(0.2123 -0.9772 0.9772 0.2123 -238.9944 508.1951)" cx="195.74" cy="402.35" rx="32.44" ry="32.44"/>
		<g>
			<path class="st4" d="M205.16,397.04c-7.94,0-7.95,7.91-7.95,7.95c0,0-0.54,7.92,7.95,7.92c0,0,7.08,0.4,7.08-5.51h-3.64
				c0,0,0.12,2.23-3.32,2.23c0,0-3.64,0.24-3.64-3.6h10.72C212.37,406.03,213.54,397.04,205.16,397.04z M201.61,403.26
				c0,0,0.44-3.18,3.64-3.18c3.2,0,3.15,3.18,3.15,3.18H201.61z M192.52,401.22c0,0,3.15-0.23,3.15-3.94c0-3.7-2.58-5.51-5.85-5.51
				h-10.77v20.7h10.77c0,0,6.58,0.2,6.58-6.11C196.4,406.36,196.68,401.22,192.52,401.22z M183.8,395.45h6.02c0,0,1.46,0,1.46,2.16
				c0,2.16-0.86,2.47-1.83,2.47h-5.65V395.45z M189.52,408.8h-5.72v-5.54h6.02c0,0,2.19-0.02,2.18,2.85
				C192,408.53,190.37,408.78,189.52,408.8z M200.71,392.99v2.55h8.54v-2.55H200.71z"/>
		</g>
	</g>
	<g>
		<circle cx="99.46" cy="213.85" r="32.44"/>
		<g>
			<path class="st4" d="M114.27,217.05V228h-6.35v-10.22c0-2.57-0.92-4.32-3.22-4.32c-1.75,0-2.8,1.18-3.26,2.32
				c-0.17,0.41-0.21,0.97-0.21,1.55V228h-6.35c0,0,0.09-17.3,0-19.09h6.35v2.71c-0.01,0.02-0.03,0.04-0.04,0.06h0.04v-0.06
				c0.84-1.3,2.35-3.15,5.72-3.15C111.13,208.46,114.27,211.19,114.27,217.05L114.27,217.05z M88.24,199.7
				c-2.17,0-3.59,1.43-3.59,3.3c0,1.83,1.38,3.3,3.51,3.3h0.04c2.21,0,3.59-1.47,3.59-3.3C91.75,201.13,90.42,199.7,88.24,199.7
				L88.24,199.7z M85.03,228h6.35v-19.1h-6.35V228z"/>
		</g>
	</g>
	<g>
		<circle cx="291.39" cy="308.26" r="32.44"/>
		<g id="XMLID_1786_">
			<path id="XMLID_1788_" class="st5" d="M306.84,307.46c-0.21-8.34-7.08-15.04-15.54-15.04c-8.36,0-15.17,6.54-15.53,14.75
				c-0.01,0.23-0.01,0.45-0.01,0.68c0,2.92,0.81,5.64,2.23,7.97l-2.8,8.28l8.61-2.74c2.23,1.22,4.79,1.92,7.51,1.92
				c8.59,0,15.55-6.91,15.55-15.43C306.85,307.72,306.85,307.59,306.84,307.46z M291.3,320.82c-2.66,0-5.12-0.79-7.19-2.15
				l-5.02,1.6l1.63-4.82c-1.56-2.14-2.49-4.77-2.49-7.61c0-0.42,0.02-0.84,0.07-1.26c0.64-6.57,6.23-11.71,13.01-11.71
				c6.86,0,12.5,5.28,13.03,11.96c0.03,0.34,0.04,0.67,0.04,1.01C304.37,315,298.51,320.82,291.3,320.82z"/>
			<path id="XMLID_1787_" class="st5" d="M298.43,310.96c-0.39-0.19-2.26-1.11-2.61-1.23c-0.35-0.13-0.6-0.19-0.86,0.19
				c-0.25,0.38-0.99,1.23-1.21,1.48c-0.23,0.25-0.44,0.28-0.83,0.09c-0.38-0.19-1.61-0.58-3.06-1.88c-1.13-1-1.9-2.23-2.12-2.61
				c-0.22-0.38-0.02-0.58,0.17-0.77c0.17-0.17,0.38-0.44,0.57-0.66c0.05-0.07,0.09-0.12,0.14-0.18c0.09-0.14,0.15-0.27,0.24-0.45
				c0.13-0.25,0.07-0.47-0.03-0.66c-0.09-0.19-0.86-2.05-1.18-2.81c-0.31-0.76-0.63-0.63-0.86-0.63c-0.22,0-0.47-0.04-0.73-0.04
				s-0.67,0.09-1.02,0.47c-0.35,0.38-1.33,1.3-1.33,3.16c0,0.44,0.08,0.87,0.2,1.29c0.39,1.33,1.22,2.43,1.36,2.62
				c0.19,0.25,2.63,4.19,6.51,5.71c3.88,1.51,3.88,1,4.58,0.94c0.7-0.06,2.26-0.91,2.57-1.8c0.32-0.88,0.32-1.64,0.23-1.8
				C299.06,311.25,298.81,311.15,298.43,310.96z"/>
		</g>
	</g>
	<g>
		<circle cx="99.46" cy="308.26" r="32.44"/>
		<path class="st6" d="M108.35,297.49H90.56c-3.49,0-6.32,2.83-6.32,6.32v8.89c0,3.49,2.83,6.32,6.32,6.32h17.79
			c3.49,0,6.32-2.83,6.32-6.32v-8.89C114.68,300.32,111.85,297.49,108.35,297.49z M104.08,308.69l-8.32,3.97
			c-0.22,0.11-0.48-0.06-0.48-0.3v-8.19c0-0.25,0.26-0.41,0.49-0.3l8.32,4.22C104.33,308.21,104.33,308.57,104.08,308.69z"/>
	</g>
	<g>
		<circle cx="291.39" cy="213.85" r="32.44"/>
		<path id="XMLID_1_" class="st6" d="M277.4,213.86c0,7.71,6.25,13.97,13.97,13.97c0.9,0,1.77-0.09,2.62-0.25
			c1.23,0.74,2.67,1.17,4.21,1.17c4.5,0,8.15-3.65,8.15-8.15c0-1.58-0.45-3.05-1.23-4.3c0.14-0.79,0.22-1.61,0.22-2.44
			c0-7.72-6.26-13.97-13.97-13.97c-0.88,0-1.74,0.08-2.57,0.24c-1.23-0.75-2.68-1.18-4.23-1.18c-4.5,0-8.15,3.65-8.15,8.15
			c0,1.57,0.45,3.03,1.21,4.28C277.48,212.19,277.4,213.02,277.4,213.86z M291.52,203.94c4.51,0.26,7.14,2.25,7.4,4.1
			c0.13,1.21-0.68,2.15-2.07,2.15c-2.04,0-2.25-2.72-5.76-2.72c-1.58,0-2.92,0.66-2.92,2.09c0,2.98,11.24,1.25,11.24,7.82
			c0,3.79-3.03,6.27-7.55,6.27c-3.98,0-7.98-1.8-7.96-4.91c0.01-0.94,0.71-1.8,1.64-1.8c2.34,0,2.32,3.48,6.05,3.48
			c2.62,0,3.51-1.43,3.51-2.42c0-3.59-11.31-1.39-11.31-8.15C283.8,206.18,286.8,203.66,291.52,203.94z"/>
	</g>
	<g>
		<circle cx="195.74" cy="308.26" r="32.44"/>
		<g id="XMLID_17_">
			<path id="XMLID_18_" class="st6" d="M180.18,318.03c2.83,1.81,6.18,2.87,9.79,2.87c11.85,0,18.55-10.01,18.15-18.99
				c1.25-0.9,2.33-2.02,3.19-3.31c-1.15,0.51-2.38,0.85-3.67,1c1.32-0.79,2.33-2.04,2.81-3.53c-1.23,0.73-2.6,1.26-4.05,1.55
				c-1.17-1.24-2.82-2.02-4.66-2.02c-4.12,0-7.15,3.85-6.22,7.84c-5.31-0.27-10.01-2.81-13.16-6.67c-1.67,2.87-0.87,6.62,1.98,8.52
				c-1.05-0.03-2.03-0.32-2.89-0.8c-0.07,2.96,2.05,5.72,5.12,6.34c-0.9,0.24-1.88,0.3-2.88,0.11c0.81,2.54,3.17,4.38,5.96,4.43
				C186.95,317.49,183.56,318.43,180.18,318.03z"/>
		</g>
	</g>
	<g>
		<circle cx="387.77" cy="213.85" r="32.44"/>
		<g id="XMLID_30_">
			<path id="XMLID_31_" class="st5" d="M402.95,221.45L402.95,221.45c-0.01-0.01-0.01-0.01-0.03-0.03c0,0,0,0-0.01,0l0,0
				c-0.37-0.23-0.75-0.27-0.98-0.36c-0.01,0-0.01,0-0.01-0.01c-1.61-0.51-3-1.6-4.04-2.94c-0.58-0.75-1.06-1.55-1.38-2.41
				c0-0.01,0-0.01,0-0.01c-0.13-0.37-0.14-0.78,0.05-1.03c0,0,0.01,0,0.01-0.01c0.29-0.41,0.83-0.68,1.39-0.88c0.01,0,0.01,0,0.01,0
				c0.63-0.22,1.32-0.47,1.88-0.97c0.01,0,0.01-0.01,0.01-0.01c0.09-0.08,0.19-0.18,0.27-0.35c0.01-0.04,0.04-0.08,0.04-0.13
				c0.04-0.15,0.04-0.33-0.04-0.49c0-0.01,0-0.01,0-0.01c-0.16-0.33-0.44-0.51-0.65-0.63h-0.01c-0.35-0.21-0.76-0.22-1.12-0.1l0,0
				h-0.01c-0.38,0.11-0.7,0.26-1,0.29c-0.01,0-0.01,0-0.02,0.01c-0.41,0.07-0.82,0.09-1.13-0.03c-0.01-0.04-0.01-0.14-0.02-0.25
				h0.01c-0.03-0.68,0.04-1.39,0.04-2.12c0,0,0,0,0-0.01c0.04-1.11,0.08-2.25-0.09-3.4c0-0.01,0-0.01,0-0.01
				c-0.36-1.94-1.61-3.62-3.19-4.73c-1.15-0.81-2.51-1.26-3.9-1.39l0,0c-0.48-0.04-0.94-0.06-1.4-0.06
				c-1.87,0.01-3.82,0.51-5.33,1.69c-1.14,0.89-2.04,2.07-2.6,3.39v0.01c-0.54,1.35-0.49,2.8-0.42,4.14l0,0
				c0.04,0.94,0.15,1.85,0.06,2.72c-0.01,0.03-0.01,0.04-0.01,0.06c-0.42,0.08-0.88,0.05-1.34-0.04h-0.01
				c-0.31-0.05-0.65-0.18-1.02-0.29c-0.01,0-0.01,0-0.02-0.01c-0.36-0.08-0.73,0.02-1,0.23c-0.01,0-0.01,0-0.01,0.01
				c-0.01,0.01-0.01,0.01-0.01,0.01c-0.23,0.14-0.53,0.39-0.55,0.82c-0.01,0.03,0,0.05,0,0.08c0.01,0,0,0.01,0.01,0.01
				c0.04,0.25,0.2,0.43,0.34,0.56c0.14,0.12,0.27,0.2,0.35,0.26c0.01,0,0.01,0.01,0.02,0.01c0.68,0.46,1.44,0.65,2.1,0.91l0,0
				c0.46,0.2,0.85,0.51,0.94,0.9c0.11,0.49-0.1,1.06-0.37,1.61v0.01c-0.74,1.45-1.84,2.72-3.19,3.65c-0.71,0.48-1.51,0.85-2.34,1.07
				c-0.01,0-0.02,0.01-0.04,0.01c-0.17,0.06-0.58,0.1-0.83,0.48c-0.01,0.03-0.03,0.06-0.04,0.09c-0.09,0.24,0.01,0.51,0.14,0.65
				c0.11,0.14,0.24,0.22,0.36,0.28c0.01,0,0.01,0.01,0.02,0.01c0.7,0.41,1.47,0.58,2.16,0.75c0.01,0,0.01,0.01,0.01,0.01
				c0.51,0.11,0.98,0.17,1.35,0.33c0.01,0.03,0.06,0.16,0.14,0.37c0.13,0.38,0.19,0.83,0.33,1.31c0.04,0.13,0.16,0.23,0.29,0.26
				c0.32,0.07,0.49-0.04,0.52-0.04c0.01,0,0.03,0,0.04,0c1.17-0.21,2.34-0.38,3.42-0.12l0,0c1.12,0.3,2.11,1.07,3.21,1.74v0.01l0,0
				c0.73,0.46,1.58,0.9,2.56,0.94l0,0c0,0,0,0,0.01,0c0.74,0.04,1.46-0.01,2.17-0.05c0.01,0,0.01,0,0.01,0
				c0.6-0.06,1.19-0.26,1.71-0.58c0.01-0.01,0.01-0.01,0.02-0.01c1.16-0.66,2.19-1.45,3.32-1.95h0.01c0.36-0.13,0.83-0.12,1.33-0.16
				c0.01,0,0.01,0,0.01,0c0.94-0.03,1.87,0.02,2.8,0.14c0.03,0.01,0.06,0.01,0.09,0c0.13-0.01,0.26-0.1,0.32-0.18
				c0.07-0.08,0.09-0.15,0.1-0.2c0.03-0.09,0.05-0.14,0.01-0.06c0.01-0.03,0.03-0.05,0.04-0.08c0.17-0.56,0.26-1.07,0.54-1.38
				c0.12-0.12,0.34-0.18,0.58-0.18c0.01,0,0.04,0,0.05,0c0.81-0.09,1.54-0.38,2.23-0.63c0.01-0.01,0.02-0.01,0.03-0.01
				c0.26-0.11,0.64-0.24,0.9-0.61c0,0,0,0,0-0.01l0,0C403.37,222.05,403.26,221.63,402.95,221.45L402.95,221.45z"/>
		</g>
	</g>
	<g>
		<ellipse transform="matrix(0.9207 -0.3904 0.3904 0.9207 -133.9435 145.6691)" cx="291.39" cy="402.35" rx="32.44" ry="32.44"/>
		<g>
			<path class="st6" d="M282.81,410.92h2.14v-13.49c-0.8,0.23-1.53,0.64-2.14,1.18C282.81,398.61,282.81,410.92,282.81,410.92z
				 M278.53,401.79v9.11l0.14,0.01h2v-9.14h-2C278.67,401.77,278.53,401.79,278.53,401.79z M274.24,406.34c0,1.66,0.86,3.1,2.14,3.9
				v-7.8C275.11,403.25,274.24,404.69,274.24,406.34z M287.1,410.92h2.14v-12.9c-0.64-0.4-1.37-0.66-2.14-0.76V410.92z
				 M304.1,401.77h-1.21c0.06-0.37,0.1-0.75,0.1-1.14c0-3.79-2.97-6.86-6.64-6.86c-1.99,0-3.76,0.92-4.98,2.35v14.79h12.72
				c2.44,0,4.42-2.05,4.42-4.57C308.53,403.82,306.55,401.77,304.1,401.77z"/>
		</g>
	</g>
	<g>
		<circle cx="387.77" cy="308.26" r="32.44"/>
		<g id="XMLID_11_">
			<path id="XMLID_12_" class="st6" d="M387.77,292.47c-8.72,0-15.78,7.07-15.78,15.78c0,8.72,7.07,15.78,15.78,15.78
				c8.72,0,15.78-7.07,15.78-15.78C403.56,299.54,396.49,292.47,387.77,292.47z M395.03,315.28c-0.32,0.47-0.87,0.63-1.34,0.32
				c-3.71-2.29-8.36-2.76-13.89-1.5c-0.55,0.16-1.03-0.24-1.18-0.71c-0.16-0.55,0.24-1.03,0.71-1.18c6-1.34,11.21-0.79,15.31,1.74
				C395.19,314.17,395.27,314.81,395.03,315.28z M396.93,310.94c-0.39,0.55-1.1,0.79-1.66,0.39c-4.26-2.6-10.73-3.39-15.7-1.82
				c-0.63,0.16-1.34-0.16-1.5-0.79c-0.16-0.63,0.16-1.34,0.79-1.5c5.76-1.74,12.86-0.87,17.76,2.13
				C397.08,309.6,397.32,310.39,396.93,310.94z M397.08,306.52c-5.05-3-13.49-3.31-18.31-1.82c-0.79,0.24-1.58-0.24-1.82-0.95
				c-0.24-0.79,0.24-1.58,0.95-1.82c5.6-1.66,14.84-1.34,20.67,2.13c0.71,0.39,0.95,1.34,0.55,2.05
				C398.74,306.68,397.79,306.91,397.08,306.52z"/>
		</g>
	</g>
	<g>
		<circle cx="195.74" cy="119.8" r="32.44"/>
		<path id="XMLID_42_" class="st6" d="M191.69,135.85h6.46v-16.18h4.51l0.48-5.42h-4.99c0,0,0-2.02,0-3.09
			c0-1.28,0.26-1.78,1.49-1.78c0.99,0,3.5,0,3.5,0v-5.62c0,0-3.69,0-4.47,0c-4.81,0-6.98,2.12-6.98,6.17c0,3.53,0,4.32,0,4.32h-3.36
			v5.49h3.36V135.85z"/>
	</g>
	<g>
		<circle cx="99.46" cy="115.31" r="32.44"/>
		<g id="XMLID_47_">
			<path id="XMLID_52_" class="st6" d="M99.46,102.79c4.08,0,4.56,0.02,6.17,0.09c1.49,0.07,2.3,0.32,2.84,0.53
				c0.71,0.28,1.22,0.61,1.76,1.14c0.53,0.53,0.87,1.04,1.14,1.76c0.21,0.54,0.46,1.35,0.53,2.84c0.07,1.61,0.09,2.09,0.09,6.17
				c0,4.08-0.02,4.56-0.09,6.17c-0.07,1.49-0.32,2.3-0.53,2.84c-0.28,0.71-0.61,1.22-1.14,1.76c-0.53,0.53-1.04,0.87-1.76,1.14
				c-0.54,0.21-1.35,0.46-2.84,0.53c-1.61,0.07-2.09,0.09-6.17,0.09c-4.08,0-4.56-0.02-6.17-0.09c-1.49-0.07-2.3-0.32-2.84-0.53
				c-0.71-0.28-1.22-0.61-1.76-1.14c-0.53-0.53-0.87-1.04-1.14-1.76c-0.21-0.54-0.46-1.35-0.53-2.84c-0.07-1.61-0.09-2.09-0.09-6.17
				c0-4.08,0.02-4.56,0.09-6.17c0.07-1.49,0.32-2.3,0.53-2.84c0.28-0.71,0.61-1.22,1.14-1.76c0.53-0.53,1.04-0.87,1.76-1.14
				c0.54-0.21,1.35-0.46,2.84-0.53C94.9,102.8,95.38,102.79,99.46,102.79 M99.46,100.03c-4.15,0-4.67,0.02-6.3,0.09
				c-1.63,0.07-2.74,0.33-3.71,0.71c-1.01,0.39-1.86,0.91-2.71,1.76c-0.85,0.85-1.37,1.7-1.76,2.71c-0.38,0.97-0.64,2.08-0.71,3.71
				c-0.07,1.63-0.09,2.15-0.09,6.3s0.02,4.67,0.09,6.3c0.07,1.63,0.33,2.74,0.71,3.71c0.39,1,0.91,1.86,1.76,2.71
				c0.85,0.85,1.7,1.37,2.71,1.76c0.97,0.38,2.08,0.64,3.71,0.71c1.63,0.07,2.15,0.09,6.3,0.09s4.67-0.02,6.3-0.09
				c1.63-0.07,2.74-0.33,3.71-0.71c1.01-0.39,1.86-0.91,2.71-1.76c0.85-0.85,1.37-1.7,1.76-2.71c0.38-0.97,0.64-2.08,0.71-3.71
				c0.07-1.63,0.09-2.15,0.09-6.3s-0.02-4.67-0.09-6.3c-0.07-1.63-0.33-2.74-0.71-3.71c-0.39-1-0.91-1.86-1.76-2.71
				c-0.85-0.85-1.7-1.37-2.71-1.76c-0.97-0.38-2.08-0.64-3.71-0.71C104.13,100.05,103.61,100.03,99.46,100.03"/>
			<path id="XMLID_49_" class="st6" d="M99.46,107.47c-4.33,0-7.85,3.51-7.85,7.85s3.51,7.85,7.85,7.85c4.33,0,7.85-3.51,7.85-7.85
				S103.79,107.47,99.46,107.47 M99.46,120.41c-2.81,0-5.09-2.28-5.09-5.09c0-2.81,2.28-5.09,5.09-5.09c2.81,0,5.09,2.28,5.09,5.09
				C104.55,118.13,102.27,120.41,99.46,120.41"/>
			<path id="XMLID_48_" class="st6" d="M109.45,107.16c0,1.01-0.82,1.83-1.83,1.83c-1.01,0-1.83-0.82-1.83-1.83
				c0-1.01,0.82-1.83,1.83-1.83C108.63,105.32,109.45,106.14,109.45,107.16"/>
		</g>
	</g>
	<g>
		<ellipse transform="matrix(0.9277 -0.3733 0.3733 0.9277 -142.9932 66.2042)" cx="99.46" cy="402.35" rx="32.44" ry="32.44"/>
		<path id="XMLID_67_" class="st6" d="M93.11,410.71c0,1.47,0.15,2.58,0.46,3.35c0.31,0.77,0.86,1.5,1.65,2.18
			c0.79,0.68,1.75,1.21,2.88,1.58c1.13,0.37,2.42,0.56,3.89,0.56c1.29,0,2.49-0.13,3.6-0.39c1.11-0.26,2.35-0.71,3.72-1.36v-5.04
			c-1.61,1.06-3.22,1.58-4.85,1.58c-0.91,0-1.73-0.21-2.43-0.64c-0.54-0.31-0.9-0.74-1.1-1.26c-0.2-0.53-0.29-1.72-0.29-3.58v-8.23
			h7.62v-5.03h-7.62v-8.12H96.1c-0.21,1.65-0.58,3.01-1.12,4.08c-0.54,1.07-1.26,1.99-2.15,2.75c-0.89,0.76-1.97,1.35-3.22,1.76
			v4.57h3.51V410.71z"/>
	</g>
	<g>
		<circle cx="291.39" cy="119.8" r="32.44"/>
		<path id="XMLID_66_" class="st6" d="M301.49,107.47c-3.95-0.13-6.63,2.1-8.03,6.7c0.72-0.31,1.43-0.47,2.11-0.47
			c1.45,0,2.09,0.82,1.92,2.45c-0.08,0.98-0.73,2.42-1.92,4.31c-1.2,1.89-2.09,2.83-2.69,2.83c-0.77,0-1.47-1.45-2.11-4.36
			c-0.22-0.85-0.6-3.03-1.15-6.54c-0.51-3.25-1.88-4.77-4.1-4.55c-0.94,0.09-2.35,0.94-4.23,2.56c-1.37,1.24-2.75,2.48-4.16,3.71
			l1.34,1.73c1.28-0.89,2.02-1.34,2.24-1.34c0.98,0,1.89,1.54,2.75,4.61c0.77,2.81,1.54,5.63,2.3,8.44c1.15,3.07,2.55,4.6,4.22,4.6
			c2.68,0,5.96-2.52,9.84-7.56c3.75-4.83,5.69-8.63,5.81-11.4C305.8,109.46,304.42,107.56,301.49,107.47z"/>
	</g>
	<g>
		<ellipse transform="matrix(0.9315 -0.3637 0.3637 0.9315 -119.7758 168.5848)" cx="387.77" cy="402.35" rx="32.44" ry="32.44"/>
		<path id="XMLID_33_" class="st6" d="M387.77,386.89c-8.53,0-15.45,6.92-15.45,15.45c0,8.53,6.92,15.45,15.45,15.45
			c8.53,0,15.45-6.92,15.45-15.45C403.23,393.81,396.31,386.89,387.77,386.89z M387.77,389.58c2.93,0,5.63,1,7.78,2.67
			c-1.55,2-3.69,3.58-6.42,4.74c-1.31-2.4-2.8-4.73-4.49-7C385.65,389.73,386.69,389.58,387.77,389.58z M382.01,390.97
			c1.71,2.24,3.23,4.56,4.55,6.93c-3.13,0.92-6.86,1.39-11.18,1.42C376.28,395.67,378.74,392.64,382.01,390.97z M375.01,402.35
			c0-0.11,0.02-0.22,0.02-0.33c4.95-0.01,9.23-0.58,12.81-1.7c0.3,0.61,0.59,1.23,0.86,1.84c-4.35,1.36-7.94,4.15-10.73,8.34
			C376.12,408.29,375.01,405.45,375.01,402.35z M387.77,415.11c-2.95,0-5.67-1.02-7.83-2.71c2.53-3.98,5.77-6.57,9.78-7.76
			c1.19,3.12,2.07,6.32,2.63,9.61C390.93,414.8,389.39,415.11,387.77,415.11z M394.86,412.96c-0.56-3.03-1.39-5.99-2.47-8.88
			c2.41-0.34,5.07-0.25,7.98,0.25C399.81,407.92,397.76,411.02,394.86,412.96z M391.36,401.53c-0.31-0.73-0.64-1.45-0.99-2.16
			c2.97-1.29,5.36-3.04,7.14-5.26c1.74,2.05,2.83,4.66,2.99,7.51C397.19,401.08,394.14,401.05,391.36,401.53z"/>
	</g>
</g>
<g id="DESIGNED_BY_FREEPIK">
	<g>
		<g id="XMLID_319_">
			<g id="XMLID_338_">
				<path id="XMLID_346_" class="st7" d="M260.1,465.47c-0.43,0.44-0.8,0.93-1.11,1.45l-0.47-0.24c-0.07-0.3-0.35-0.5-0.66-0.47
					c-0.33,0.04-0.57,0.34-0.53,0.67s0.34,0.57,0.67,0.53c0.07-0.01,0.13-0.03,0.18-0.05l0.45,0.23c-0.25,0.55-0.43,1.14-0.54,1.74
					l0.75,0.13c0.23-1.31,0.85-2.51,1.79-3.47L260.1,465.47z"/>
				<path id="XMLID_345_" class="st7" d="M265.59,463.16c-0.17,0-0.34,0.01-0.51,0.02l-0.07-0.63c0.19-0.15,0.3-0.39,0.27-0.64
					c-0.05-0.39-0.4-0.67-0.8-0.63s-0.67,0.4-0.63,0.8c0.03,0.25,0.19,0.46,0.4,0.56l0.07,0.62c-0.71,0.12-1.4,0.33-2.06,0.65
					l0.33,0.68c0.93-0.45,1.94-0.67,3-0.67c0.5,0,0.99,0.05,1.48,0.16l0.16-0.74C266.69,463.22,266.14,463.16,265.59,463.16z"/>
				<path id="XMLID_344_" class="st7" d="M272.19,465.71c0.33-0.04,0.57-0.34,0.53-0.67c-0.04-0.33-0.34-0.57-0.67-0.53
					c-0.31,0.04-0.54,0.3-0.53,0.61l-0.42,0.36c-0.42-0.43-0.89-0.81-1.41-1.14l-0.4,0.64c1.13,0.71,2.02,1.73,2.56,2.93l0.69-0.31
					c-0.25-0.55-0.57-1.07-0.94-1.55l0.4-0.35C272.06,465.72,272.13,465.72,272.19,465.71z"/>
				<path id="XMLID_343_" class="st7" d="M265.04,473.37c-0.39,0.02-0.77,0.03-1.16,0.03c-0.88,0-1.73-0.06-2.48-0.18
					c-0.39-0.06-0.85-0.15-1.27-0.29c1.05,1.86,3.07,3.12,5.39,3.12c2.86,0,5.26-1.92,5.95-4.5c-0.68,0.45-1.51,0.83-2.46,1.12
					C267.84,473.05,266.46,473.29,265.04,473.37z"/>
				<path id="XMLID_339_" class="st7" d="M265.59,464.68c-3.35,0-6.08,2.67-6.08,5.94c0,0.43,0.05,0.85,0.14,1.26
					c0.67,0.48,2.71,0.89,5.35,0.73c2.88-0.17,5.3-0.96,6.67-2.16c-0.01-0.19-0.02-0.39-0.05-0.58
					C271.24,466.91,268.65,464.68,265.59,464.68z M263.43,471.19c-1.02,0-1.85-0.83-1.85-1.85c0-1.02,0.83-1.85,1.85-1.85
					c1.02,0,1.85,0.83,1.85,1.85C265.28,470.36,264.45,471.19,263.43,471.19z M268.17,470.29c-0.75,0-1.36-0.61-1.36-1.36
					s0.61-1.36,1.36-1.36c0.75,0,1.36,0.61,1.36,1.36S268.92,470.29,268.17,470.29z"/>
			</g>
			<path id="XMLID_336_" class="st7" d="M281.6,466.55c-0.29-0.12-0.81-0.31-1.38-0.24c-0.55,0.07-0.84,0.34-0.84,1.01v0.87h2.23
				v1.72h-2.23v5.45h-1.93v-5.45h-1.34v-1.72h1.34v-0.89c0-1.68,0.9-2.78,2.57-2.78c0.64,0,1.16,0.12,1.59,0.31L281.6,466.55z"/>
			<path id="XMLID_334_" class="st7" d="M286.3,469.88c-0.18-0.03-0.36-0.05-0.53-0.05c-0.9,0-1.51,0.55-1.51,1.61v3.91h-1.93v-7.17
				h1.87v0.78c0.45-0.67,1.14-0.98,2.02-0.98c0.41,0,0.85,0.13,1.09,0.34L286.3,469.88z"/>
			<path id="XMLID_331_" class="st7" d="M293.97,471.76c0,0.22-0.01,0.49-0.04,0.65h-5.08c0.21,1.04,0.93,1.49,1.84,1.49
				c0.62,0,1.3-0.25,1.81-0.69l1.13,1.24c-0.81,0.75-1.85,1.09-3.06,1.09c-2.2,0-3.72-1.5-3.72-3.75c0-2.26,1.48-3.8,3.63-3.8
				C292.54,467.99,293.96,469.52,293.97,471.76z M288.85,471.09h3.18c-0.18-0.92-0.73-1.44-1.56-1.44
				C289.55,469.65,289.02,470.2,288.85,471.09z"/>
			<path id="XMLID_328_" class="st7" d="M301.62,471.76c0,0.22-0.02,0.49-0.04,0.65h-5.08c0.21,1.04,0.93,1.49,1.84,1.49
				c0.62,0,1.3-0.25,1.81-0.69l1.13,1.24c-0.81,0.75-1.85,1.09-3.06,1.09c-2.2,0-3.72-1.5-3.72-3.75c0-2.26,1.48-3.8,3.63-3.8
				C300.2,467.99,301.61,469.52,301.62,471.76z M296.5,471.09h3.18c-0.18-0.92-0.73-1.44-1.56-1.44
				C297.21,469.65,296.67,470.2,296.5,471.09z"/>
			<path id="XMLID_325_" class="st7" d="M309.96,471.76c0,2.15-1.5,3.77-3.47,3.77c-0.96,0-1.64-0.38-2.11-0.93v3.71h-1.92v-10.13
				h1.89v0.79c0.47-0.58,1.15-0.98,2.14-0.98C308.47,467.99,309.96,469.61,309.96,471.76z M304.29,471.76
				c0,1.13,0.75,1.98,1.84,1.98c1.14,0,1.85-0.88,1.85-1.98c0-1.1-0.71-1.98-1.85-1.98C305.03,469.79,304.29,470.63,304.29,471.76z"
				/>
			<path id="XMLID_322_" class="st7" d="M313.07,465.84c0,0.7-0.54,1.23-1.24,1.23c-0.7,0-1.23-0.53-1.23-1.23
				c0-0.7,0.53-1.24,1.23-1.24C312.53,464.59,313.07,465.14,313.07,465.84z M312.81,475.35h-1.93v-7.17h1.93V475.35z"/>
			<path id="XMLID_320_" class="st7" d="M316.03,470.74l2.7-2.55h2.37l-3.48,3.38l3.5,3.8h-2.38l-2.72-2.9v2.9h-1.93V464.7h1.93
				V470.74z"/>
		</g>
		<g>
			<path class="st7" d="M184.41,475.29v-1.05c-0.53,0.72-1.39,1.23-2.39,1.23c-1.85,0-3.15-1.41-3.15-3.71
				c0-2.26,1.29-3.72,3.15-3.72c0.95,0,1.82,0.47,2.39,1.25v-3.76h1.1v9.77H184.41z M184.41,473.37v-3.21
				c-0.4-0.62-1.24-1.14-2.12-1.14c-1.42,0-2.27,1.17-2.27,2.74c0,1.57,0.85,2.72,2.27,2.72
				C183.17,474.48,184.02,473.99,184.41,473.37z"/>
			<path class="st7" d="M186.93,471.74c0-2.05,1.46-3.71,3.49-3.71c2.14,0,3.4,1.67,3.4,3.79v0.28h-5.73
				c0.09,1.33,1.03,2.45,2.55,2.45c0.81,0,1.63-0.32,2.18-0.89l0.53,0.72c-0.7,0.7-1.65,1.08-2.81,1.08
				C188.44,475.46,186.93,473.96,186.93,471.74z M190.4,468.95c-1.51,0-2.26,1.27-2.31,2.36h4.64
				C192.72,470.25,192.01,468.95,190.4,468.95z"/>
			<path class="st7" d="M194.61,474.35l0.57-0.79c0.47,0.54,1.36,1.01,2.33,1.01c1.08,0,1.67-0.51,1.67-1.22
				c0-1.71-4.38-0.66-4.38-3.28c0-1.1,0.95-2.04,2.64-2.04c1.2,0,2.05,0.45,2.62,1.03l-0.51,0.76c-0.42-0.51-1.2-0.89-2.11-0.89
				c-0.97,0-1.57,0.48-1.57,1.11c0,1.55,4.38,0.53,4.38,3.28c0,1.19-0.95,2.14-2.78,2.14C196.31,475.46,195.32,475.11,194.61,474.35
				z"/>
			<path class="st7" d="M201.48,466.47c0-0.41,0.34-0.75,0.73-0.75c0.41,0,0.75,0.34,0.75,0.75c0,0.41-0.34,0.73-0.75,0.73
				C201.81,467.2,201.48,466.88,201.48,466.47z M201.67,475.29v-7.07h1.1v7.07H201.67z"/>
			<path class="st7" d="M204.58,477.11l0.56-0.82c0.59,0.7,1.29,0.97,2.3,0.97c1.17,0,2.27-0.57,2.27-2.12v-1.01
				c-0.51,0.72-1.38,1.26-2.37,1.26c-1.85,0-3.15-1.38-3.15-3.66c0-2.27,1.29-3.68,3.15-3.68c0.95,0,1.8,0.47,2.37,1.25v-1.07h1.1
				v6.87c0,2.34-1.64,3.08-3.37,3.08C206.24,478.16,205.42,477.93,204.58,477.11z M209.71,473.25v-3.09
				c-0.38-0.62-1.23-1.14-2.11-1.14c-1.42,0-2.27,1.13-2.27,2.7c0,1.55,0.85,2.7,2.27,2.7
				C208.48,474.41,209.33,473.87,209.71,473.25z"/>
			<path class="st7" d="M217.41,475.29v-4.63c0-1.24-0.63-1.64-1.58-1.64c-0.86,0-1.68,0.53-2.09,1.1v5.17h-1.1v-7.07h1.1v1.03
				c0.5-0.59,1.46-1.2,2.52-1.2c1.48,0,2.26,0.75,2.26,2.29v4.97H217.41z"/>
			<path class="st7" d="M219.93,471.74c0-2.05,1.46-3.71,3.49-3.71c2.14,0,3.4,1.67,3.4,3.79v0.28h-5.73
				c0.09,1.33,1.03,2.45,2.55,2.45c0.81,0,1.63-0.32,2.18-0.89l0.53,0.72c-0.7,0.7-1.66,1.08-2.81,1.08
				C221.44,475.46,219.93,473.96,219.93,471.74z M223.4,468.95c-1.51,0-2.26,1.27-2.31,2.36h4.64
				C225.72,470.25,225.02,468.95,223.4,468.95z"/>
			<path class="st7" d="M233.35,475.29v-1.05c-0.53,0.72-1.39,1.23-2.39,1.23c-1.85,0-3.15-1.41-3.15-3.71
				c0-2.26,1.29-3.72,3.15-3.72c0.95,0,1.82,0.47,2.39,1.25v-3.76h1.1v9.77H233.35z M233.35,473.37v-3.21
				c-0.4-0.62-1.25-1.14-2.12-1.14c-1.42,0-2.27,1.17-2.27,2.74c0,1.57,0.85,2.72,2.27,2.72
				C232.1,474.48,232.95,473.99,233.35,473.37z"/>
			<path class="st7" d="M239.69,475.29v-9.77h1.1v3.76c0.57-0.78,1.42-1.25,2.39-1.25c1.85,0,3.15,1.46,3.15,3.72
				c0,2.3-1.3,3.71-3.15,3.71c-1,0-1.86-0.51-2.39-1.23v1.05H239.69z M242.9,474.48c1.44,0,2.29-1.16,2.29-2.72
				c0-1.57-0.85-2.74-2.29-2.74c-0.86,0-1.73,0.53-2.11,1.14v3.21C241.17,473.99,242.04,474.48,242.9,474.48z"/>
			<path class="st7" d="M247.53,477.06c0.16,0.07,0.43,0.12,0.6,0.12c0.48,0,0.81-0.16,1.05-0.75l0.47-1.07l-2.96-7.15h1.19
				l2.36,5.8l2.34-5.8h1.2l-3.54,8.51c-0.42,1.03-1.14,1.42-2.08,1.44c-0.23,0-0.6-0.04-0.81-0.1L247.53,477.06z"/>
		</g>
	</g>
</g>
</svg>
