<?xml version="1.0" standalone="no"?>
<!DOCTYPE svg PUBLIC "-//W3C//DTD SVG 1.1//EN" "http://www.w3.org/Graphics/SVG/1.1/DTD/svg11.dtd" >
<svg xmlns="http://www.w3.org/2000/svg" xmlns:xlink="http://www.w3.org/1999/xlink" version="1.1">
<metadata>
Created by FontForge 20170731 at Fri Mar 22 00:06:53 2019
 By Aleksey,,,
2019
</metadata>
<defs>
<font id="Chistoso-Regular" horiz-adv-x="0" >
  <font-face 
    font-family="Chistoso"
    font-weight="700"
    font-stretch="normal"
    units-per-em="1000"
    panose-1="0 0 8 0 0 0 0 0 0 0"
    ascent="700"
    descent="-300"
    x-height="435"
    cap-height="700"
    bbox="-572 -305 1893 992"
    underline-thickness="50"
    underline-position="-150"
    unicode-range="U+0020-25CA"
  />
<missing-glyph horiz-adv-x="500" 
d="M410 -300h-317v1000h317v-1000zM168 633v-33h65v-37h-66v-33h166v33h-66v37h66v33h-165zM167 504v-104h166v34h-66v70h-100zM233 434h-33v36h33v-36zM167 373v-33h66v-37h-66v-33h100v70h66v33h-166zM300 313v-66h-133v-34h166v100h-33zM233 191v-56h34v23h33v-47h-100
v80h-33v-113h166v113h-100zM167 18v-113h166v113h-166zM300 -62h-100v47h100v-47zM167 -118v-33h70l-70 -47v-33h166v33h-102l70 47h32v33h-166z" />
    <glyph glyph-name="f_f" unicode="ff" horiz-adv-x="799" 
d="M39 12q0 13 21 13q44 0 44 55v308q0 21 -40 22q-20 1 -25.5 3.5t-5.5 8.5q0 7 4.5 10t17.5 3q49 0 49 70q0 97 58.5 151t183.5 54q108 0 127 -61q73 61 165 61q129 0 129 -76q0 -10 -2.5 -13.5t-9.5 -3.5q-10 0 -14 4t-4 18q0 35 -46 35q-76 0 -76 -148q0 -91 54 -91
q11 0 15 -2.5t4 -9.5t-6 -10t-23 -4q-43 -2 -43 -21v-308q0 -55 44 -55q21 0 21 -13q0 -12 -15 -12h-612q-15 0 -15 12zM396 505q0 64 51 119q-2 4 -2 15q0 35 -46 35q-73 0 -73 -148q0 -91 35 -91t35 70zM396 80v278q0 50 -32 50h-1q-37 0 -37 -50v-278q0 -53 34 -53
q36 0 36 53z" />
    <glyph glyph-name="f_f_i" unicode="ffi" horiz-adv-x="1000" 
d="M39 12q0 6 5.5 9.5t15.5 3.5q20 0 32 15t12 40v308q0 8 -11 14.5t-29 7.5q-19 1 -25 4t-6 8q0 7 4.5 10t17.5 3q22 0 35.5 19.5t13.5 50.5q0 61 30 107.5t85 72t127 25.5q49 0 83.5 -16.5t43.5 -44.5q33 28 78.5 44.5t86.5 16.5q58 0 93.5 -21t35.5 -55q0 -10 -3 -13.5
t-9 -3.5q-10 0 -14 4t-4 18q0 16 -12.5 25.5t-33.5 9.5q-34 0 -55 -40.5t-21 -107.5q0 -41 15 -66t39 -25h214q9 0 14.5 -4t5.5 -11v-340q0 -25 12 -40t32 -15q10 0 15.5 -3.5t5.5 -9.5q0 -5 -4 -8.5t-11 -3.5h-899q-7 0 -11 3.5t-4 8.5zM396 505q0 29 14 61.5t37 57.5
q-2 4 -2 15q0 16 -12.5 25.5t-33.5 9.5q-34 0 -55 -40.5t-21 -107.5q0 -41 10.5 -66t27.5 -25q16 0 25.5 19.5t9.5 50.5zM396 80v275q0 24 -9 38.5t-24 14.5h-1q-17 0 -27.5 -14.5t-10.5 -38.5v-275q0 -24 10 -38.5t26 -14.5t26 14.5t10 38.5zM683 80v275q0 24 -9 38.5
t-24 14.5t-24.5 -14.5t-9.5 -38.5v-275q0 -23 9.5 -37.5t24.5 -14.5t24 14.5t9 37.5z" />
    <glyph glyph-name="f_f_l" unicode="ffl" horiz-adv-x="1000" 
d="M39 12q0 6 5.5 9.5t15.5 3.5q20 0 32 15t12 40v308q0 8 -11 14.5t-29 7.5q-19 1 -25 4t-6 8q0 7 4.5 10t17.5 3q22 0 35.5 19.5t13.5 50.5q0 61 30 107.5t85 72t127 25.5q47 0 82 -16.5t44 -43.5q34 27 79 43.5t85 16.5q33 0 65 -10h177q11 0 18 -7t7 -18v-595
q0 -25 12 -40t32 -15q10 0 15.5 -3.5t5.5 -9.5q0 -5 -4 -8.5t-11 -3.5h-899q-7 0 -11 3.5t-4 8.5zM394 505q0 29 14.5 62t37.5 58l-1 14q0 16 -12.5 25.5t-33.5 9.5q-34 0 -55 -40.5t-21 -107.5q0 -37 10 -60t27 -23q15 0 24.5 17t9.5 45zM683 485v135q0 22 -4.5 35.5
t-12.5 13.5q-24 0 -38.5 -39t-14.5 -104q0 -41 11 -66t28 -25q14 0 22.5 13.5t8.5 36.5zM683 80v307q0 10 -8 16.5t-22 6.5h-1q-17 0 -27.5 -6.5t-10.5 -16.5v-307q0 -23 9.5 -37.5t25.5 -14.5q15 0 24.5 14.5t9.5 37.5zM394 80v298q0 13 -9.5 21.5t-24.5 8.5q-16 0 -26 -8
t-10 -22v-298q0 -24 9.5 -38.5t25.5 -14.5t25.5 14.5t9.5 38.5z" />
    <glyph glyph-name="f_i" unicode="fi" horiz-adv-x="708" 
d="M39 12q0 7 3.5 10t17.5 3q23 0 33.5 12.5t10.5 42.5v308q0 11 -7 16t-33 6q-19 1 -25 3.5t-6 8.5q0 7 4.5 10t17.5 3q22 0 35.5 19t13.5 51q0 51 34.5 98.5t90.5 77t117 29.5q55 0 92 -22t37 -54q0 -10 -2 -13.5t-10 -3.5q-12 0 -15 4t-3 18q0 13 -14.5 24t-31.5 11
q-37 0 -56.5 -41.5t-19.5 -106.5q0 -44 14 -67.5t40 -23.5h214q7 0 13.5 -5t6.5 -10v-340q0 -30 10.5 -42.5t33.5 -12.5q14 0 17.5 -3t3.5 -10t-3 -9.5t-12 -2.5h-607q-9 0 -12 2.5t-3 9.5zM391 80v275q0 29 -6.5 41t-26.5 12q-21 0 -27.5 -12t-6.5 -41v-275q0 -29 8 -40.5
t26 -11.5t25.5 11.5t7.5 40.5z" />
    <glyph glyph-name="f_l" unicode="fl" horiz-adv-x="710" 
d="M39 12q0 7 3.5 10t17.5 3q23 0 33.5 12.5t10.5 42.5v308q0 11 -7 15.5t-33 6.5q-20 1 -25.5 3.5t-5.5 8.5q0 7 4.5 10t17.5 3q22 0 35.5 19t13.5 51q0 51 34.5 98.5t90.5 77t117 29.5q33 0 65 -10h177q25 0 25 -25v-595q0 -30 10.5 -42.5t33.5 -12.5q14 0 17.5 -3
t3.5 -10t-3 -9.5t-12 -2.5h-609q-9 0 -12 2.5t-3 9.5zM393 485v135q0 25 -3 37t-14 12q-25 0 -39 -43t-14 -100q0 -49 7.5 -70t31.5 -21q31 0 31 50zM393 80v307q0 11 -7.5 17t-22.5 6h-1q-38 0 -38 -23v-307q0 -27 8 -39.5t27 -12.5q18 0 26 12.5t8 39.5z" />
    <glyph glyph-name=".notdef" horiz-adv-x="500" 
d="M410 -300h-317v1000h317v-1000zM168 633v-33h65v-37h-66v-33h166v33h-66v37h66v33h-165zM167 504v-104h166v34h-66v70h-100zM233 434h-33v36h33v-36zM167 373v-33h66v-37h-66v-33h100v70h66v33h-166zM300 313v-66h-133v-34h166v100h-33zM233 191v-56h34v23h33v-47h-100
v80h-33v-113h166v113h-100zM167 18v-113h166v113h-166zM300 -62h-100v47h100v-47zM167 -118v-33h70l-70 -47v-33h166v33h-102l70 47h32v33h-166z" />
    <glyph glyph-name=".null" 
 />
    <glyph glyph-name="nonmarkingreturn" horiz-adv-x="333" 
 />
    <glyph glyph-name="space" unicode=" " horiz-adv-x="210" 
 />
    <glyph glyph-name="exclam" unicode="!" horiz-adv-x="353" 
d="M150 297q-13 127 -40 324q-4 28 -17.5 41t-37.5 13q-14 0 -17.5 3t-3.5 10t3 9.5t12 2.5h257q9 0 12 -2.5t3 -9.5t-3.5 -10t-17.5 -3q-24 0 -36.5 -13t-15.5 -42l-34 -323q-1 -14 -16 -14h-32q-15 0 -16 14zM169 0q0 52 -22 75.5t-69 23.5q-15 0 -18 1t-3 6t3.5 6.5
t17.5 1.5q47 0 69.5 24t22.5 76q0 8 1.5 10t5.5 2q5 0 6.5 -2t1.5 -10q0 -53 21.5 -76.5t73.5 -23.5q11 0 14 -1.5t3 -6.5q0 -4 -3 -5.5t-14 -1.5q-53 0 -74.5 -23t-21.5 -76q0 -10 -1.5 -12.5t-5.5 -2.5q-5 0 -6.5 2.5t-1.5 12.5z" />
    <glyph glyph-name="quotedbl" unicode="&#x22;" horiz-adv-x="257" 
d="M20 709h88l-18 -182h-55zM150 709h88l-18 -182h-55z" />
    <glyph glyph-name="numbersign" unicode="#" horiz-adv-x="638" 
d="M143 100h-78l40 85h78l26 58h-78l40 85h78l41 88h89l-41 -88h74l41 88h89l-41 -88h78l-40 -85h-78l-26 -58h78l-40 -85h-78l-41 -88h-89l41 88h-74l-41 -88h-89zM346 185l26 58h-74l-26 -58h74z" />
    <glyph glyph-name="dollar" unicode="$" horiz-adv-x="696" 
d="M637 234q0 -63 -32 -114.5t-90.5 -84.5t-135.5 -41v-43l-30 -20v60h-30v-40l-30 -20v61q-80 2 -145 16q-7 1 -12 2.5t-10 1.5q-8 0 -21.5 -3t-21.5 -8q-10 0 -10 16v184q0 5 4 7.5t11 2.5t11 -4.5t4 -12.5q0 -76 52 -123.5t138 -49.5v262q-101 40 -162.5 101t-61.5 122
q0 60 28 106t79 72t117 27v53l30 20v-74l30 -3v57l30 20v-81l35 -2h27q17 0 32 6q7 1 10 2t3 2q5 0 5 -6v-116q0 -8 -4 -13t-11 -5t-11 6.5t-4 17.5q0 30 -22.5 52t-59.5 28v-164l105 -43q69 -33 111 -97.5t42 -136.5zM349 678h-10l-20 -1v-142l30 -12v155zM289 669
q-17 -7 -27.5 -25t-10.5 -39q0 -15 10.5 -30t27.5 -26v120zM349 259q-15 7 -19.5 8.5t-10.5 4.5v-251q27 3 30 4v234zM430 148q0 27 -14 52.5t-37 41.5v-207q23 11 37 42t14 71z" />
    <glyph glyph-name="percent" unicode="%" horiz-adv-x="823" 
d="M33 525q0 81 48.5 130.5t127.5 49.5q78 0 126 -53t48 -140q0 -84 -45 -135.5t-118 -51.5q-84 0 -135.5 55t-51.5 145zM612 700h92l-490 -700h-92zM276 520q0 58 -17.5 93.5t-45.5 35.5t-44.5 -35.5t-16.5 -93.5q0 -60 16.5 -97t44.5 -37t45.5 37t17.5 97zM441 195
q0 81 48.5 130.5t127.5 49.5q78 0 126 -53t48 -140q0 -84 -45 -135.5t-118 -51.5q-84 0 -135.5 55t-51.5 145zM684 190q0 58 -17.5 93.5t-45.5 35.5t-44.5 -35.5t-16.5 -93.5q0 -60 16.5 -97t44.5 -37t45.5 37t17.5 97z" />
    <glyph glyph-name="ampersand" unicode="&#x26;" horiz-adv-x="918" 
d="M65 208q0 54 36 98.5t94 63.5q-49 27 -78.5 65.5t-29.5 76.5q0 59 34 104t95 69.5t140 24.5q66 0 116.5 -20.5t78.5 -57.5t28 -86q0 -38 -33 -61t-86 -23q-33 0 -70.5 16t-64.5 42q36 -6 49 -6q30 0 48.5 11t18.5 28q0 16 -11 31t-29 24q-16 9 -44 9q-39 0 -62.5 -29
t-23.5 -76q0 -54 47 -86.5t125 -32.5q36 0 93.5 55t114.5 144q4 9 8 9q8 0 8 -14v-145q0 -22 22 -36.5t57 -14.5q57 0 84 19t31 61q2 30 -17 53t-50 23q-28 0 -49.5 -17t-21.5 -44q0 -21 16 -37t39 -16q19 0 30.5 12t11.5 31q0 14 -9 24.5t-17 10.5q-11 0 -24 -5
q-8 -4 -12 -4q-5 0 -9 5l-2 6q0 7 8 11q22 11 38 11q23 0 38.5 -18.5t15.5 -43.5q0 -30 -20 -47.5t-49 -17.5q-35 0 -58 23.5t-23 55.5q0 37 28.5 62t66.5 25q41 0 67.5 -28t26.5 -68q0 -55 -44 -85t-113 -30q-27 0 -44 -6.5t-17 -17.5v-189q0 -29 18 -48t47 -19q23 0 53 15
q8 6 11 6q2 0 3 -2t1 -4l-9 -21q-25 -39 -74.5 -63t-104.5 -24q-27 0 -56 8.5t-49 21.5q-28 -13 -66.5 -21.5t-72.5 -8.5q-90 0 -159 27.5t-107 77t-38 113.5zM458 131v192q-91 0 -146.5 -31.5t-55.5 -84.5q0 -52 31.5 -84t83.5 -32q39 0 63 11t24 29z" />
    <glyph glyph-name="quotesingle" unicode="'" horiz-adv-x="127" 
d="M20 709h88l-18 -182h-55z" />
    <glyph glyph-name="parenleft" unicode="(" horiz-adv-x="448" 
d="M462 -128q-3 1 -3 4q0 1 1.5 2.5t4.5 1.5q19 0 27.5 7.5t8.5 19.5q0 14 -10.5 24t-27.5 10q-198 2 -298 103.5t-100 298.5q0 123 51.5 216t140 143t196.5 50q16 0 32 10.5t16 22.5t-8.5 19.5t-27.5 7.5q-6 0 -6 4q0 3 3 4q6 3 21 3q18 0 29 -13t11 -28q0 -23 -23.5 -37.5
t-46.5 -14.5q-39 0 -70.5 -29t-49 -72.5t-17.5 -83.5v-398q0 -39 20 -82.5t54 -73t73 -29.5q22 0 41 -14.5t19 -37.5q0 -15 -11 -28t-29 -13q-15 0 -21 3z" />
    <glyph glyph-name="parenright" unicode=")" horiz-adv-x="442" 
d="M-75 -90q0 23 19 37.5t41 14.5q39 0 73 29.5t54 73t20 82.5v398q0 40 -17.5 83.5t-49 72.5t-70.5 29q-23 0 -46.5 14.5t-23.5 37.5q0 15 11 28t29 13q15 0 21 -3q3 -1 3 -4q0 -4 -6 -4q-19 0 -27.5 -7.5t-8.5 -19.5t16 -22.5t32 -10.5q108 0 196.5 -50t140 -143
t51.5 -216q0 -197 -100 -298.5t-298 -103.5q-17 0 -27.5 -10t-10.5 -24q0 -12 8.5 -19.5t27.5 -7.5q3 0 4.5 -1.5t1.5 -2.5q0 -3 -3 -4q-6 -3 -21 -3q-18 0 -29 13t-11 28z" />
    <glyph glyph-name="asterisk" unicode="*" horiz-adv-x="449" 
d="M221 391q0 43 -19 79q-38 -9 -70 -41q-11 -11 -16.5 -12.5t-9.5 2.5t-4 6q0 7 13 17q33 35 42 72q-35 20 -79 20q-15 0 -18.5 2t-3.5 9q0 6 3.5 8t18.5 2q44 0 79 20q-8 34 -42 71q-10 9 -11 13.5t4 7.5q2 6 7 6t17 -12q33 -35 68 -42q21 32 21 80q0 13 2.5 17t10.5 4
q4 0 6 -3.5t2 -17.5q0 -45 21 -80q33 7 70 42q11 11 15 11q5 0 8 -5q4 -2 4 -6q0 -5 -11 -15q-35 -37 -42 -71q32 -20 77 -20q15 0 18.5 -2t3.5 -8t-4.5 -8.5t-22.5 -2.5q-39 0 -74 -20q10 -37 44 -70q9 -10 9 -15q0 -4 -4 -8h-3q-6 0 -23 9q-31 33 -66 40q-20 -38 -20 -79
q0 -14 -2 -18t-6 -4q-8 0 -10.5 4t-2.5 18z" />
    <glyph glyph-name="plus" unicode="+" horiz-adv-x="377" 
d="M151 227h-118v75h118v118h76v-118h118v-75h-118v-119h-76v119z" />
    <glyph glyph-name="comma" unicode="," horiz-adv-x="225" 
d="M70 -139q0 4 1 7.5t2 5.5l19 18q21 20 33 36.5t12 35.5q0 12 -4 16q-9 7 -34 9q-17 2 -34 6q-17 5 -24.5 12.5t-7.5 19.5v75q0 30 20 32q29 0 62 -22.5t55.5 -58.5t22.5 -74q0 -31 -27.5 -65.5t-60.5 -63.5q-6 -8 -17 -8q-8 0 -13 5t-5 14z" />
    <glyph glyph-name="hyphen" unicode="-" horiz-adv-x="275" 
d="M15 325h245v-70h-245v70z" />
    <glyph glyph-name="period" unicode="." horiz-adv-x="315" 
d="M145 0q0 49 -20.5 71.5t-65.5 22.5q-16 0 -21 2.5t-5 9.5q0 8 5.5 10.5t20.5 2.5q45 0 66 23t21 72q0 9 2.5 13t9.5 4t10 -3.5t3 -13.5q0 -52 20 -73.5t70 -21.5q13 0 17.5 -2.5t4.5 -10.5q0 -7 -4.5 -9.5t-17.5 -2.5q-50 0 -70.5 -21t-20.5 -73q0 -11 -2.5 -15.5
t-9.5 -4.5q-8 0 -10.5 4t-2.5 16z" />
    <glyph glyph-name="slash" unicode="/" horiz-adv-x="652" 
d="M525 700h92l-490 -700h-92z" />
    <glyph glyph-name="zero" unicode="0" horiz-adv-x="784" 
d="M65 367q0 102 41 180t116.5 120.5t173.5 42.5t172.5 -43t115.5 -120.5t41 -179.5q0 -112 -41 -197.5t-115.5 -132.5t-172.5 -47t-173.5 47t-116.5 132.5t-41 197.5zM536 367q0 79 -17.5 139.5t-49 94t-73.5 33.5t-74 -33.5t-49.5 -94t-17.5 -139.5q0 -90 17.5 -158
t49.5 -105.5t74 -37.5t73.5 37.5t49 105.5t17.5 158z" />
    <glyph glyph-name="one" unicode="1" horiz-adv-x="595" 
d="M76 13q0 10 22 10q75 0 75 71v367q0 33 -49 33h-59v22q68 0 123.5 41t93.5 130q7 13 18 13h58q15 0 15 -15v-590q0 -72 58 -72q34 0 34 -9q0 -14 -16 -14h-358q-15 0 -15 13z" />
    <glyph glyph-name="two" unicode="2" horiz-adv-x="705" 
d="M345 333q55 51 88 100.5t33 80.5q0 48 -29.5 77t-77.5 29q-41 0 -66.5 -21t-25.5 -55q0 -25 15.5 -40t41.5 -15q13 0 30.5 4t32.5 11q-18 -40 -46 -64.5t-55 -24.5q-71 0 -114 38.5t-43 101.5q0 46 31 81t88 54.5t132 19.5q82 0 144.5 -25.5t97 -72.5t34.5 -108
q0 -50 -37.5 -108.5t-98.5 -104.5q-50 -37 -100.5 -87t-83.5 -95h30q95 0 165.5 15t90.5 39q10 11 15.5 29.5t5.5 38.5q0 10 4 17t10 7q7 0 11 -4t4 -11v-240h-555q0 56 62.5 147.5t165.5 185.5z" />
    <glyph glyph-name="three" unicode="3" horiz-adv-x="700" 
d="M123 153q0 58 37 93t98 35q44 0 84 -23.5t62 -62.5q-51 14 -71 14q-29 0 -47 -14.5t-18 -38.5q0 -29 25.5 -46.5t67.5 -17.5q52 0 83.5 32t31.5 85q0 42 -31.5 71.5t-83.5 34.5l-90 10v66l76 20q52 14 83.5 41.5t31.5 59.5q0 48 -27.5 77.5t-71.5 29.5q-36 0 -59.5 -18.5
t-23.5 -46.5q0 -23 32 -42t84 -26q-26 -24 -61 -38.5t-67 -14.5q-57 0 -91.5 32t-34.5 84q0 48 27.5 84.5t78 56.5t116.5 20q84 0 148 -24.5t99.5 -69.5t35.5 -104q0 -37 -30 -75.5t-79 -65.5q59 -19 94.5 -63t35.5 -98q0 -65 -38 -114.5t-107.5 -77t-160.5 -27.5
q-71 0 -125 20t-84 57t-30 85z" />
    <glyph glyph-name="four" unicode="4" horiz-adv-x="769" 
d="M305 13q0 5 6.5 8.5t16.5 3.5q37 0 59 40.5t22 107.5h-344v97q0 26 54 103.5t142 176.5q63 69 150 114.5t167 45.5v-427q49 0 79.5 19t30.5 50q0 11 10 11q12 0 12 -11v-246q0 -6 -3.5 -9.5t-8.5 -3.5q-10 0 -10 13q0 28 -30 46t-80 20q0 -66 22 -106.5t58 -40.5
q16 0 16 -11q0 -6 -5 -10t-12 -4h-328q-11 0 -17.5 3.5t-6.5 9.5zM410 283v271l-205 -271h205z" />
    <glyph glyph-name="five" unicode="5" horiz-adv-x="775" 
d="M123 149q0 56 37.5 89.5t98.5 33.5q43 0 78.5 -20.5t49.5 -53.5q-32 13 -62 13q-28 0 -44.5 -16.5t-16.5 -44.5q0 -29 22 -46t59 -17q55 0 88 47.5t33 125.5q0 68 -33.5 109.5t-89.5 41.5q-24 0 -44 -9.5t-29 -24.5q-8 -14 -25 -23t-36 -9q-37 0 -52 5l64 360
q54 -13 120.5 -20.5t120.5 -7.5q53 0 100 5.5t71 14.5q5 3 7 3q3 0 3 -4l-1 -4q-2 -14 -14 -33t-31 -35q-29 -28 -92 -44.5t-141 -18.5q-1 1 -31 1l-32 1l-19 -86q18 9 43.5 14.5t48.5 5.5q87 0 154 -32.5t103.5 -91.5t36.5 -136q0 -75 -40 -132t-112 -88.5t-167 -31.5
q-67 0 -118.5 20t-79.5 56t-28 83z" />
    <glyph glyph-name="six" unicode="6" horiz-adv-x="775" 
d="M115 338q0 110 37 194.5t104 131t155 46.5q98 0 158 -35.5t60 -94.5q0 -40 -25 -68t-65 -33q-12 -1 -19 -2.5t-8 -1.5q-25 0 -54 19t-52 50h46q22 0 35.5 8t13.5 21q0 8 -7.5 17.5t-19.5 16.5q-27 10 -54 10q-28 0 -53 -13.5t-38 -35.5q-10 -21 -19.5 -63t-14.5 -91
q24 19 57 31t63 12q73 0 128.5 -28t86 -79t30.5 -117q0 -72 -33.5 -127t-94.5 -85.5t-141 -30.5q-82 0 -144.5 43.5t-97 122.5t-34.5 182zM489 220q0 68 -26.5 109.5t-70.5 41.5q-29 0 -54 -17.5t-35 -45.5q-7 -15 -11.5 -39t-4.5 -48q0 -59 29.5 -95.5t77.5 -36.5
q43 0 69 36t26 95z" />
    <glyph glyph-name="seven" unicode="7" horiz-adv-x="775" 
d="M422 572l4 10q0 4 -2.5 6.5t-6.5 2.5h-21q-73 0 -129 -14.5t-87 -40t-31 -59.5q0 -13 -4.5 -20.5t-11.5 -7.5q-8 0 -13 3.5t-5 8.5v214q0 11 8 18t21 7h516q-107 -155 -172.5 -347.5t-65.5 -352.5h-195q0 125 53.5 282.5t141.5 289.5z" />
    <glyph glyph-name="eight" unicode="8" horiz-adv-x="775" 
d="M123 177q0 40 42.5 87t111.5 84q-51 27 -82.5 76.5t-31.5 103.5t29.5 95.5t82.5 64t123 22.5t123 -22.5t82.5 -64t29.5 -95.5q0 -22 -12 -45.5t-32 -40.5l-68 -51q66 -41 106.5 -93.5t40.5 -96.5q0 -63 -35.5 -111t-99.5 -74t-148 -26q-78 0 -137.5 23.5t-92 66
t-32.5 97.5zM486 532q0 39 -24 62.5t-64 23.5q-46 0 -74 -23t-28 -60q0 -43 28 -69t74 -26q36 0 60 25.5t28 66.5zM514 183q0 22 -27.5 49.5t-71.5 49.5q-50 19 -56 19q-11 0 -24 -10.5t-24 -27.5q-13 -21 -21 -42.5t-8 -35.5q0 -43 31 -69t82 -26q53 0 86 25.5t33 67.5z
" />
    <glyph glyph-name="nine" unicode="9" horiz-adv-x="646" 
d="M80 128q0 44 30.5 70.5t79.5 26.5q26 0 56 -19t53 -50h-46q-22 0 -35.5 -8.5t-13.5 -21.5q0 -19 22 -31t58 -12q28 0 53.5 13.5t38.5 35.5q10 21 19.5 63t14.5 91q-24 -19 -57.5 -31t-64.5 -12q-72 0 -127 28t-85.5 79t-30.5 117q0 72 33.5 127t94 85.5t140.5 30.5
q82 0 145 -43.5t97.5 -122.5t34.5 -182q0 -110 -36 -194.5t-101 -131t-150 -46.5q-101 0 -162 38t-61 100zM418 480q0 59 -29.5 95t-78.5 36q-42 0 -68 -36t-26 -94q0 -68 26 -110t68 -42q49 0 78.5 41.5t29.5 109.5z" />
    <glyph glyph-name="colon" unicode=":" horiz-adv-x="342" 
d="M145 329q0 49 -20.5 71.5t-65.5 22.5q-16 0 -21 2.5t-5 9.5q0 8 5.5 10.5t20.5 2.5q45 0 66 23t21 72q0 9 2.5 13t9.5 4t10 -3.5t3 -13.5q0 -52 20 -73.5t70 -21.5q13 0 17.5 -2.5t4.5 -10.5q0 -7 -4.5 -9.5t-17.5 -2.5q-50 0 -70.5 -21t-20.5 -73q0 -11 -2.5 -15.5
t-9.5 -4.5q-8 0 -10.5 4t-2.5 16zM145 0q0 49 -20.5 71.5t-65.5 22.5q-16 0 -21 2.5t-5 9.5q0 8 5.5 10.5t20.5 2.5q45 0 66 23t21 72q0 9 2.5 13t9.5 4t10 -3.5t3 -13.5q0 -52 20 -73.5t70 -21.5q13 0 17.5 -2.5t4.5 -10.5q0 -7 -4.5 -9.5t-17.5 -2.5q-50 0 -70.5 -21
t-20.5 -73q0 -11 -2.5 -15.5t-9.5 -4.5q-8 0 -10.5 4t-2.5 16z" />
    <glyph glyph-name="semicolon" unicode=";" horiz-adv-x="332" 
d="M135 329q0 49 -20.5 71.5t-65.5 22.5q-16 0 -21 2.5t-5 9.5q0 8 5.5 10.5t20.5 2.5q45 0 66 23t21 72q0 9 2.5 13t9.5 4t10 -3.5t3 -13.5q0 -52 20 -73.5t70 -21.5q13 0 17.5 -2.5t4.5 -10.5q0 -7 -4.5 -9.5t-17.5 -2.5q-50 0 -70.5 -21t-20.5 -73q0 -11 -2.5 -15.5
t-9.5 -4.5q-8 0 -10.5 4t-2.5 16zM105 -103q0 4 1 7.5t2 5.5l19 18q21 20 33 36.5t12 35.5q0 12 -4 16q-9 7 -34 9q-17 2 -34 6q-17 5 -24.5 12.5t-7.5 19.5v75q0 30 20 32q29 0 62 -22.5t55.5 -58.5t22.5 -74q0 -31 -27.5 -65.5t-60.5 -63.5q-6 -8 -17 -8q-8 0 -13 5t-5 14
z" />
    <glyph glyph-name="less" unicode="&#x3c;" horiz-adv-x="433" 
d="M33 224v73l340 113l28 -74l-232 -70l227 -78l-27 -74z" />
    <glyph glyph-name="equal" unicode="=" horiz-adv-x="399" 
d="M33 390h334v-80h-334v80zM33 270h334v-80h-334v80z" />
    <glyph glyph-name="greater" unicode="&#x3e;" horiz-adv-x="433" 
d="M38 188l227 78l-232 70l28 74l340 -113v-73l-336 -110z" />
    <glyph glyph-name="question" unicode="?" horiz-adv-x="449" 
d="M203 333l1 22q0 32 12 59t33 58q10 15 20 39t10 48q0 28 -18 48t-45 20q-26 0 -42 -13.5t-16 -34.5q0 -16 9.5 -27.5t25.5 -11.5q10 0 22 5t20 13q-8 -35 -25 -52.5t-50 -17.5q-25 0 -47 14t-35 36t-13 44q0 60 44 94t131 34q64 0 107 -33t43 -89q0 -40 -30 -84t-71 -89
q-25 -28 -36.5 -44.5t-16.5 -37.5q-2 -8 -4.5 -22.5t-5.5 -22t-8 -7.5q-15 0 -15 52zM216 0q0 52 -22 75.5t-69 23.5q-15 0 -18 1t-3 6t3.5 6.5t17.5 1.5q47 0 69.5 24t22.5 76q0 8 1.5 10t5.5 2q5 0 6.5 -2t1.5 -10q0 -53 21.5 -76.5t73.5 -23.5q11 0 14 -1.5t3 -6.5
q0 -4 -3 -5.5t-14 -1.5q-53 0 -74.5 -23t-21.5 -76q0 -10 -1.5 -12.5t-5.5 -2.5q-5 0 -6.5 2.5t-1.5 12.5z" />
    <glyph glyph-name="at" unicode="@" horiz-adv-x="680" 
d="M30 357q0 90 38.5 159t109 106.5t163.5 37.5q92 0 162.5 -38t109 -106.5t38.5 -158.5t-38.5 -159t-109 -107t-162.5 -38t-163 38t-109.5 107t-38.5 159zM577 357q0 72 -29.5 126.5t-83 84.5t-123.5 30t-124 -30t-83.5 -84.5t-29.5 -126.5t29.5 -127t83.5 -85t124 -30
t123.5 30t83 85t29.5 127zM146 323q0 44 30.5 70.5t80.5 26.5q17 0 43.5 -6.5t53.5 -16.5q3 0 3 12q0 37 -14 59.5t-37 22.5q-9 0 -22.5 -6t-26.5 -16q-16 -14 -24 -14q-7 0 -7 4q0 6 14 20q15 15 42 24.5t57 9.5q65 0 105 -33t40 -88v-114q0 -10 22 -17q7 -2 12 -5.5
t5 -6.5q0 -6 -8 -6h-157l-8 16q0 8 -3 8q-4 0 -18 -7q-19 -10 -41 -16.5t-39 -6.5q-47 0 -75 23.5t-28 62.5zM356 316v39q0 17 -10 27.5t-27 10.5q-18 0 -29 -12t-11 -32v-51q0 -10 9.5 -16t25.5 -6q19 0 30.5 11t11.5 29z" />
    <glyph glyph-name="A" unicode="A" horiz-adv-x="917" 
d="M902 12q0 -7 -3 -9.5t-12 -2.5h-364q-9 0 -12 2.5t-3 9.5t3.5 10t17.5 3q12 0 17 2.5t5 8.5q0 9 -14 35l-76 148h-231l-15 -27l-64 -119l-1 -2q-14 -26 -14 -35q0 -6 5 -8.5t17 -2.5q14 0 17.5 -3t3.5 -10t-3 -9.5t-12 -2.5h-134q-9 0 -12 2.5t-3 9.5t3.5 10t17.5 3
q58 0 81 46q174 324 346 639l337 -639q23 -46 81 -46q14 0 17.5 -3t3.5 -10zM445 249l-97 186l-102 -186h199z" />
    <glyph glyph-name="B" unicode="B" horiz-adv-x="751" 
d="M15 12q0 7 3.5 10t17.5 3q23 0 33.5 12.5t10.5 42.5v540q0 30 -10.5 42.5t-33.5 12.5q-14 0 -17.5 3t-3.5 10t3 9.5t12 2.5h405q104 0 162 -35.5t58 -111.5q0 -49 -23.5 -75.5t-46 -39.5t-22.5 -15q0 -3 20 -16q55 -35 96 -80.5t41 -117.5q0 -99 -75 -154t-236 -55h-379
q-9 0 -12 2.5t-3 9.5zM450 490v125q0 60 -76 60q-69 0 -69 -60v-125q0 -55 69 -55q76 0 76 55zM450 80v270q0 60 -76 60q-69 0 -69 -60v-270q0 -55 69 -55q76 0 76 55z" />
    <glyph glyph-name="C" unicode="C" horiz-adv-x="697" 
d="M69 330q0 113 44.5 199t125 133.5t185.5 47.5l114 -10l87 10q6 0 9.5 -4t3.5 -11v-146q0 -8 -3.5 -13t-9.5 -5q-8 0 -12.5 10.5t-4.5 26.5q0 52 -35.5 84t-94.5 32q-67 0 -108 -40t-41 -105v-400q0 -53 35 -85.5t92 -32.5q35 0 85.5 16.5t96.5 43.5q13 10 27 10q5 0 8 -3
q6 -6 0.5 -15t-19.5 -17q-39 -30 -102 -48t-128 -18q-105 0 -185.5 42.5t-125 119.5t-44.5 178z" />
    <glyph glyph-name="D" unicode="D" horiz-adv-x="836" 
d="M15 12q0 7 3.5 10t17.5 3q23 0 33.5 12.5t10.5 42.5v540q0 30 -10.5 42.5t-33.5 12.5q-14 0 -17.5 3t-3.5 10t3 9.5t12 2.5h387q108 0 190.5 -41t128 -116t45.5 -173q0 -110 -48 -194t-135.5 -130t-202.5 -46h-365q-9 0 -12 2.5t-3 9.5zM536 161v392q0 55 -33 88.5
t-87 33.5q-48 0 -77 -23.5t-29 -62.5v-469q0 -41 29 -65.5t77 -24.5q54 0 87 36t33 95z" />
    <glyph glyph-name="E" unicode="E" horiz-adv-x="714" 
d="M65 12q0 7 3.5 10t17.5 3q23 0 33.5 12.5t10.5 42.5v540q0 30 -10.5 42.5t-33.5 12.5q-14 0 -17.5 3t-3.5 10t3 9.5t12 2.5h579v-161q0 -8 -4.5 -13t-12.5 -5q-6 0 -9.5 9t-3.5 23q0 52 -45 84.5t-119 32.5q-47 0 -76 -13.5t-29 -36.5v-540q0 -22 29 -36t76 -14
q74 0 119 32.5t45 84.5q0 14 3.5 23t9.5 9q8 0 12.5 -5t4.5 -13v-161h-579q-9 0 -12 2.5t-3 9.5zM505 329q0 49 -20.5 71.5t-65.5 22.5q-16 0 -21 2.5t-5 9.5q0 8 5.5 10.5t20.5 2.5q45 0 66 23t21 72q0 9 2.5 13t9.5 4t10 -3.5t3 -13.5q0 -52 20 -73.5t70 -21.5
q13 0 17.5 -2.5t4.5 -10.5q0 -7 -4.5 -9.5t-17.5 -2.5q-50 0 -70.5 -21t-20.5 -73q0 -11 -2.5 -15.5t-9.5 -4.5q-8 0 -10.5 4t-2.5 16z" />
    <glyph glyph-name="F" unicode="F" horiz-adv-x="692" 
d="M55 12q0 7 3.5 10t17.5 3q23 0 33.5 12.5t10.5 42.5v540q0 30 -10.5 42.5t-33.5 12.5q-14 0 -17.5 3t-3.5 10t3 9.5t12 2.5h577v-161q0 -8 -4 -13t-11 -5t-11 9.5t-4 25.5q0 51 -49 82.5t-128 31.5q-40 0 -65 -13.5t-25 -36.5v-540q0 -30 10.5 -42.5t33.5 -12.5
q14 0 17.5 -3t3.5 -10t-3 -9.5t-12 -2.5h-330q-9 0 -12 2.5t-3 9.5zM505 329q0 49 -20.5 71.5t-65.5 22.5q-16 0 -21 2.5t-5 9.5q0 8 5.5 10.5t20.5 2.5q45 0 66 23t21 72q0 9 2.5 13t9.5 4t10 -3.5t3 -13.5q0 -52 20 -73.5t70 -21.5q13 0 17.5 -2.5t4.5 -10.5
q0 -7 -4.5 -9.5t-17.5 -2.5q-50 0 -70.5 -21t-20.5 -73q0 -11 -2.5 -15.5t-9.5 -4.5q-8 0 -10.5 4t-2.5 16z" />
    <glyph glyph-name="G" unicode="G" horiz-adv-x="874" 
d="M65 335q0 111 51 196t143.5 131.5t213.5 46.5q17 0 80 -9q9 0 37 4q23 4 35 4q15 0 24 -6.5t9 -17.5v-156q0 -16 -16 -16q-6 0 -10 8t-4 21q0 62 -41 100t-108 38q-69 0 -111.5 -53.5t-42.5 -140.5v-350q0 -52 36.5 -83.5t96.5 -31.5q53 0 85.5 29t32.5 77v193
q0 13 -11 18q-26 14 -45 19.5t-40 5.5q-46 0 -73 -23t-27 -62q0 -34 21.5 -56t54.5 -22q30 0 50 17t20 43q0 24 -16 42t-38 18q-18 0 -33 -12.5t-15 -28.5q0 -15 11 -27.5t28 -12.5h11q16 0 16 -10q0 -8 -9.5 -12t-23.5 -4q-25 0 -43 18.5t-18 44.5q0 29 23 50.5t54 21.5
q34 0 57.5 -25.5t23.5 -61.5q0 -38 -27.5 -63t-70.5 -25q-46 0 -75 27.5t-29 71.5q0 32 16 59.5t42.5 44t56.5 16.5q28 0 80 -8q94 -16 140 -16q24 0 55.5 7.5t59.5 20.5q11 0 11 -16q0 -23 -18 -75q-14 -44 -14 -67q0 -20 9 -47.5t23 -54.5q7 -12 11.5 -22.5t4.5 -16.5
q0 -4 -5.5 -7t-13.5 -3q-11 0 -28.5 4t-24.5 5q-18 0 -45.5 -11t-53.5 -28q-44 -30 -97.5 -48t-95.5 -18q-119 0 -209.5 43t-140.5 121.5t-50 180.5z" />
    <glyph glyph-name="H" unicode="H" horiz-adv-x="973" 
d="M65 12q0 7 3.5 10t17.5 3q23 0 33.5 12.5t10.5 42.5v540q0 30 -10.5 42.5t-33.5 12.5q-14 0 -17.5 3t-3.5 10t3 9.5t12 2.5h330q9 0 12 -2.5t3 -9.5t-3.5 -10t-17.5 -3q-23 0 -33.5 -12.5t-10.5 -42.5v-540q0 -30 10.5 -42.5t33.5 -12.5q14 0 17.5 -3t3.5 -10t-3 -9.5
t-12 -2.5h-330q-9 0 -12 2.5t-3 9.5zM564 12q0 7 3.5 10t17.5 3q23 0 33.5 12.5t10.5 42.5v540q0 30 -10.5 42.5t-33.5 12.5q-14 0 -17.5 3t-3.5 10t3 9.5t12 2.5h320q9 0 12 -2.5t3 -9.5t-3.5 -10t-17.5 -3q-23 0 -33.5 -12.5t-10.5 -42.5v-540q0 -30 10.5 -42.5
t33.5 -12.5q14 0 17.5 -3t3.5 -10t-3 -9.5t-12 -2.5h-320q-9 0 -12 2.5t-3 9.5zM487 329q0 52 -22 75.5t-69 23.5q-15 0 -18 1t-3 6t3.5 6.5t17.5 1.5q47 0 69.5 24t22.5 76q0 8 1.5 10t5.5 2q5 0 6.5 -2t1.5 -10q0 -53 21.5 -76.5t73.5 -23.5q11 0 14 -1.5t3 -6.5
q0 -4 -3 -5.5t-14 -1.5q-53 0 -74.5 -23t-21.5 -76q0 -10 -1.5 -12.5t-5.5 -2.5q-5 0 -6.5 2.5t-1.5 12.5z" />
    <glyph glyph-name="I" unicode="I" horiz-adv-x="484" 
d="M65 12q0 7 3.5 10t17.5 3q23 0 33.5 12.5t10.5 42.5v540q0 30 -10.5 42.5t-33.5 12.5q-14 0 -17.5 3t-3.5 10t3 9.5t12 2.5h330q9 0 12 -2.5t3 -9.5t-3.5 -10t-17.5 -3q-23 0 -33.5 -12.5t-10.5 -42.5v-540q0 -30 10.5 -42.5t33.5 -12.5q14 0 17.5 -3t3.5 -10t-3 -9.5
t-12 -2.5h-330q-9 0 -12 2.5t-3 9.5z" />
    <glyph glyph-name="J" unicode="J" horiz-adv-x="611" 
d="M0 -46q0 10 4 15.5t10 5.5q7 0 11 -4t4 -11q0 -39 28 -62.5t74 -23.5q65 0 104.5 58t39.5 152v536q0 30 -10.5 42.5t-33.5 12.5q-14 0 -17.5 3t-3.5 10t3 9.5t12 2.5h330q9 0 12 -2.5t3 -9.5t-3.5 -10t-17.5 -3q-23 0 -33.5 -12.5t-10.5 -42.5v-536q0 -89 -29.5 -156.5
t-83 -104.5t-123.5 -37q-80 0 -141 21t-94.5 59t-33.5 88z" />
    <glyph glyph-name="K" unicode="K" horiz-adv-x="919" 
d="M65 12q0 7 3.5 10t17.5 3q23 0 33.5 12.5t10.5 42.5v540q0 30 -10.5 42.5t-33.5 12.5q-14 0 -17.5 3t-3.5 10t3 9.5t12 2.5h329q9 0 12 -2.5t3 -9.5t-3.5 -10t-17.5 -3q-23 0 -33.5 -12.5t-10.5 -42.5v-165q0 -10 8.5 -16t21.5 -6q28 0 62.5 22t62.5 57q49 62 113 112.5
t119 69.5q19 8 33 8q11 0 13 -11q2 -5 -7.5 -11.5t-28.5 -13.5q-48 -17 -91 -51t-65 -72q-3 -7 -3 -15q0 -12 6 -27l193 -428q22 -48 77 -48q14 0 17.5 -3t3.5 -10t-3 -9.5t-12 -2.5h-356q-9 0 -12 2.5t-3 9.5t3.5 10t17.5 3q24 0 24 13q0 8 -12 35l-130 296q-9 9 -18 14.5
t-14 5.5q-8 0 -13.5 -4t-5.5 -11v-294q0 -30 10.5 -42.5t33.5 -12.5q14 0 17.5 -3t3.5 -10t-3 -9.5t-12 -2.5h-330q-9 0 -12 2.5t-3 9.5z" />
    <glyph glyph-name="L" unicode="L" horiz-adv-x="709" 
d="M65 12q0 7 3.5 10t17.5 3q23 0 33.5 12.5t10.5 42.5v540q0 30 -10.5 42.5t-33.5 12.5q-14 0 -17.5 3t-3.5 10t3 9.5t12 2.5h330q9 0 12 -2.5t3 -9.5t-3.5 -10t-17.5 -3q-23 0 -33.5 -12.5t-10.5 -42.5v-540q0 -22 35 -36t92 -14q64 0 103 34t39 89q0 12 4.5 19t11.5 7
q6 0 10 -5t4 -13v-161h-579q-9 0 -12 2.5t-3 9.5z" />
    <glyph glyph-name="M" unicode="M" horiz-adv-x="1009" 
d="M65 12q0 7 3.5 10t17.5 3q23 0 33.5 12.5t10.5 42.5v540q0 30 -10.5 42.5t-33.5 12.5q-14 0 -17.5 3t-3.5 10t3 9.5t12 2.5h235l225 -228l197 228h198q9 0 12 -2.5t3 -9.5t-3.5 -10t-17.5 -3q-23 0 -33.5 -12.5t-10.5 -42.5v-540q0 -30 10.5 -42.5t33.5 -12.5
q14 0 17.5 -3t3.5 -10t-3 -9.5t-12 -2.5h-330q-9 0 -12 2.5t-3 9.5t3.5 10t17.5 3q23 0 33.5 12.5t10.5 42.5v454q0 10 -7 10q-3 0 -8 -5l-220 -245q-9 8 -98 99q-50 52 -147 149l-8 4q-7 0 -7 -11v-455q0 -30 10.5 -42.5t33.5 -12.5q14 0 17.5 -3t3.5 -10t-3 -9.5t-12 -2.5
h-130q-9 0 -12 2.5t-3 9.5z" />
    <glyph glyph-name="N" unicode="N" horiz-adv-x="860" 
d="M524 180q-241 215 -349 312q-6 4 -8 4q-7 0 -7 -11v-405q0 -30 10.5 -42.5t33.5 -12.5q14 0 17.5 -3t3.5 -10t-3 -9.5t-12 -2.5h-130q-9 0 -12 2.5t-3 9.5t3.5 10t17.5 3q23 0 33.5 12.5t10.5 42.5v540q0 30 -10.5 42.5t-33.5 12.5q-14 0 -17.5 3t-3.5 10t3 9.5t12 2.5
h158q18 0 44.5 -10t39.5 -22l369 -330l8 -4q7 0 7 11v275q0 30 -10.5 42.5t-33.5 12.5q-14 0 -17.5 3t-3.5 10t3 9.5t12 2.5h130q9 0 12 -2.5t3 -9.5t-3.5 -10t-17.5 -3q-23 0 -33.5 -12.5t-10.5 -42.5v-630q0 2 -212 190z" />
    <glyph glyph-name="O" unicode="O" horiz-adv-x="936" 
d="M65 341q0 109 52.5 192.5t144.5 130t208 46.5q121 0 213 -43.5t143 -123t51 -183.5q0 -110 -51 -194t-143 -130t-213 -46q-199 0 -302 94t-103 257zM627 155v394q0 64 -43 102.5t-114 38.5q-65 0 -105 -38.5t-40 -102.5v-394q0 -65 40 -105t105 -40q71 0 114 40t43 105z
" />
    <glyph glyph-name="P" unicode="P" horiz-adv-x="836" 
d="M65 12q0 7 3.5 10t17.5 3q23 0 33.5 12.5t10.5 42.5v540q0 30 -10.5 42.5t-33.5 12.5q-14 0 -17.5 3t-3.5 10t3 9.5t12 2.5h414q92 0 163 -30t109.5 -84t38.5 -125q0 -82 -37.5 -144t-105.5 -96.5t-158 -34.5q-36 0 -75.5 13t-68.5 34v-153q0 -30 10.5 -42.5t33.5 -12.5
q14 0 17.5 -3t3.5 -10t-3 -9.5t-12 -2.5h-330q-9 0 -12 2.5t-3 9.5zM565 376v184q0 50 -27 80t-71 30q-48 0 -77.5 -30.5t-29.5 -79.5v-184q0 -71 29.5 -114.5t77.5 -43.5q44 0 71 43.5t27 114.5z" />
    <glyph glyph-name="Q" unicode="Q" horiz-adv-x="970" 
d="M556 -33l-15 26q-19 -3 -55 -3q-125 0 -220.5 43.5t-148 123t-52.5 183.5q0 110 55 194t155 130t231 46q110 0 194.5 -43.5t131 -123t46.5 -183.5q0 -94 -47.5 -179.5t-124.5 -132.5q30 -13 69 -47t72 -77q10 -13 20.5 -20.5t18.5 -7.5q15 0 33 16q11 9 14 9q5 -3 5 -15
q0 -43 -48 -69.5t-127 -26.5q-52 0 -109 43t-98 114zM526 17q25 9 46.5 23.5t30.5 28.5q11 17 18 38t7 38v414q0 59 -41.5 95t-109.5 36t-109.5 -36t-41.5 -95v-414q0 -60 41 -96.5t109 -36.5q18 0 50 5z" />
    <glyph glyph-name="R" unicode="R" horiz-adv-x="903" 
d="M529 91q-42 76 -81.5 122t-61.5 46q-12 0 -19.5 -4t-7.5 -11v-164q0 -30 10.5 -42.5t33.5 -12.5q14 0 17.5 -3t3.5 -10t-3 -9.5t-12 -2.5h-329q-9 0 -12 2.5t-3 9.5t3.5 10t17.5 3q23 0 33.5 12.5t10.5 42.5v540q0 30 -10.5 42.5t-33.5 12.5q-14 0 -17.5 3t-3.5 10t3 9.5
t12 2.5h413q93 0 163.5 -26t109.5 -74t39 -110q0 -64 -31 -115t-88 -82t-132 -37q55 -7 105.5 -34.5t78.5 -66.5q26 -36 47.5 -58t30.5 -22q14 0 39 30l10 7q3 0 5 -4t2 -11q0 -48 -44.5 -77.5t-117.5 -29.5q-56 0 -106 27.5t-75 73.5zM565 390v162q0 55 -29 89t-76 34
q-45 0 -72.5 -34t-27.5 -89v-162q0 -56 27.5 -90t72.5 -34q47 0 76 34t29 90z" />
    <glyph glyph-name="S" unicode="S" horiz-adv-x="696" 
d="M144 7q-24 4 -30 4q-11 0 -35 -11q-10 0 -10 16v184q0 5 4 7.5t11 2.5t11 -4.5t4 -12.5q0 -78 55.5 -125.5t147.5 -47.5q58 0 93 35t35 92q0 30 -36.5 61t-96.5 51q-104 40 -168 110t-64 146q0 61 28.5 107.5t80.5 72t120 25.5l64 -5q32 -5 54 -5h29q7 0 23 4.5t22 5.5
q5 0 5 -6v-116q0 -8 -4 -13t-11 -5t-11 6.5t-4 17.5q0 37 -33.5 60t-88.5 23q-40 0 -64 -20t-24 -53q0 -21 15.5 -39t40.5 -26l177 -62q69 -33 111 -103t42 -151q0 -72 -38.5 -127t-108.5 -85.5t-162 -30.5q-46 0 -97 4.5t-87 12.5z" />
    <glyph glyph-name="T" unicode="T" horiz-adv-x="879" 
d="M260 12q0 7 3.5 10t17.5 3q23 0 33.5 12.5t10.5 42.5v540q0 27 -25.5 38.5t-79.5 11.5q-88 0 -126.5 -27t-38.5 -84q0 -24 -3.5 -31t-13.5 -7q-8 0 -10.5 4t-2.5 14v161h829v-161q0 -10 -3 -14t-11 -4q-9 0 -12 6t-3 26q0 62 -40 89.5t-125 27.5q-56 0 -80.5 -12
t-24.5 -38v-540q0 -30 10.5 -42.5t33.5 -12.5q14 0 17.5 -3t3.5 -10t-3 -9.5t-12 -2.5h-330q-9 0 -12 2.5t-3 9.5z" />
    <glyph glyph-name="U" unicode="U" horiz-adv-x="836" 
d="M132 265l-1 355q-1 30 -11.5 42.5t-33.5 12.5q-14 0 -17.5 3t-3.5 10t3 9.5t12 2.5h331q9 0 12 -2.5t3 -9.5t-3.5 -10t-17.5 -3q-23 0 -33.5 -12.5t-10.5 -42.5v-365q0 -92 45.5 -148t120.5 -56q82 0 132 51t50 135v383q0 30 -10.5 42.5t-33.5 12.5q-14 0 -17.5 3
t-3.5 10t3 9.5t12 2.5h130q9 0 12 -2.5t3 -9.5t-3.5 -10t-17.5 -3q-23 0 -33.5 -12.5t-10.5 -42.5v-385q0 -73 -33 -129t-93 -86.5t-139 -30.5q-102 0 -179.5 34.5t-120 97t-42.5 144.5z" />
    <glyph glyph-name="V" unicode="V" horiz-adv-x="874" 
d="M101 629q-10 21 -32 33.5t-48 12.5q-10 0 -15.5 3.5t-5.5 9.5q0 5 4 8.5t11 3.5h359q7 0 11 -3.5t4 -8.5q0 -6 -5.5 -9.5t-15.5 -3.5t-16 -3t-6 -7q0 -7 16 -36q133 -257 191 -361l188 358q14 30 14 37q0 11 -23 11q-10 0 -15.5 3.5t-5.5 9.5q0 5 4 8.5t11 3.5h133
q7 0 11 -3.5t4 -8.5q0 -6 -5.5 -9.5t-15.5 -3.5q-24 0 -46 -13t-32 -34l-335 -637z" />
    <glyph glyph-name="W" unicode="W" horiz-adv-x="1154" 
d="M116 629q-23 46 -80 46q-14 0 -17.5 3t-3.5 10t3 9.5t12 2.5h804q9 0 12 -2.5t3 -9.5t-3.5 -10t-17.5 -3q-56 0 -78 -48l-24 -53q104 -200 153 -288l158 341q14 32 14 37q0 11 -23 11q-14 0 -17.5 3t-3.5 10t3 9.5t12 2.5h132q9 0 12 -2.5t3 -9.5t-3.5 -10t-17.5 -3
q-56 0 -78 -48l-295 -637l-171 322l-83 -178l-66 -144zM717 627q14 32 14 37q0 11 -25 11q-24 0 -24 -10q0 -8 15 -36l11 -21zM586 345l-150 284q-20 40 -64 45q-10 -1 -10 -9t15 -36q49 -94 100 -189.5t82 -153.5zM808 545q0 29 18.5 49t46.5 20q25 0 42.5 -16t17.5 -38
q0 -13 -6 -25t-17 -20q-4 -4 -8 -4h-2q-5 0 -8 3t-3 7q0 10 9 14q11 9 11 23q0 13 -10.5 22t-25.5 9q-17 0 -29 -12.5t-12 -31.5q0 -21 15 -36t36 -15q25 0 43.5 20.5t18.5 46.5q0 27 -20 46t-48 19q-25 0 -47.5 -15.5t-32.5 -40.5q-7 -16 -15 -16q-4 0 -8 4t-4 8q0 2 4 13
q16 32 43.5 51.5t59.5 19.5q39 0 66 -26t27 -63t-26 -64.5t-61 -27.5q-31 0 -53 22t-22 54z" />
    <glyph glyph-name="X" unicode="X" horiz-adv-x="767" 
d="M24 12q0 7 3.5 10t17.5 3q60 0 87 42l144 224l-161 337q-23 47 -79 47q-14 0 -17.5 3t-3.5 10t3 9.5t12 2.5h355q9 0 12 -2.5t3 -9.5t-3.5 -10t-17.5 -3q-23 0 -23 -11q0 -8 13 -36l92 -193q38 54 144 200q6 9 14 20t8 14q0 4 -4 5t-15 1q-14 0 -17.5 3t-3.5 10t3 9.5
t12 2.5h135q9 0 12 -2.5t3 -9.5t-3.5 -10t-17.5 -3q-61 0 -91 -40l-164 -230l159 -333q22 -47 78 -47q14 0 17.5 -3t3.5 -10t-3 -9.5t-12 -2.5h-354q-9 0 -12 2.5t-3 9.5t3.5 10t17.5 3q23 0 23 11q0 10 -14 36l-89 186l-125 -191l-11 -16.5t-9 -18.5q0 -7 20 -7
q14 0 17.5 -3t3.5 -10t-3 -9.5t-12 -2.5h-133q-9 0 -12 2.5t-3 9.5z" />
    <glyph glyph-name="Y" unicode="Y" horiz-adv-x="947" 
d="M314 12q0 7 3.5 10t17.5 3q23 0 33.5 12.5t10.5 42.5v51l-262 498q-23 46 -81 46q-14 0 -17.5 3t-3.5 10t3 9.5t12 2.5h358q9 0 12 -2.5t3 -9.5t-3.5 -10t-17.5 -3q-12 0 -17 -2t-5 -7q0 -6 7.5 -19t9.5 -17l1 -2l210 -400l209 400q14 28 14 36q0 5 -6 8t-16 3
q-12 0 -16.5 3t-4.5 10q0 6 3 9t12 3h134q15 0 15 -12q0 -7 -4 -10t-17 -3q-26 0 -48 -12.5t-32 -34.5q-13 -25 -40 -76.5t-63 -122.5q-106 -200 -128 -244v-105q0 -30 10.5 -42.5t33.5 -12.5q14 0 17.5 -3t3.5 -10t-3 -9.5t-12 -2.5h-321q-9 0 -12 2.5t-3 9.5zM508 564
q0 32 21.5 54.5t52.5 22.5q28 0 47.5 -18t19.5 -43q0 -14 -7 -27.5t-19 -22.5q-4 -5 -9 -5h-2q-5 0 -8.5 3.5t-3.5 8.5q0 11 10 15q12 12 12 26q0 15 -11.5 25t-28.5 10q-20 0 -33.5 -14t-13.5 -35q0 -24 17 -41t41 -17q28 0 49 23t21 53t-22.5 51.5t-54.5 21.5
q-28 0 -53 -17.5t-37 -45.5q-4 -10 -8 -14t-9 -4t-9 4t-4 9q0 3 4 15q18 36 49.5 58t66.5 22q44 0 74.5 -29.5t30.5 -70.5q0 -42 -29.5 -73t-68.5 -31q-35 0 -60 25t-25 61z" />
    <glyph glyph-name="Z" unicode="Z" horiz-adv-x="700" 
d="M306 0h-228q-8 0 -11 5t0 13l168 377h-91q-23 0 -37 5.5t-14 13.5q0 10 14 15.5t37 5.5h107q80 188 80 171q0 31 -31 50t-82 19t-82.5 -21t-31.5 -55q0 -18 12.5 -29t32.5 -11q17 0 33 16q6 6 9 6q4 0 2 -9q-5 -19 -21 -30t-37 -11q-30 0 -48.5 19t-18.5 50
q0 49 42.5 79.5t111.5 30.5q39 0 65 -11t27 -11q36 -10 74 -16t65 -6l123 29q18 5 30 5q11 0 14 -5q3 -3 -115 -260h80q25 0 40.5 -5.5t15.5 -14.5t-15.5 -14.5t-40.5 -5.5h-97l-154 -345q22 -12 47.5 -19t45.5 -7q82 0 132.5 38.5t50.5 100.5q0 8 4 12.5t11 4.5t11 -2.5
t4 -7.5v-154q0 -16 -10 -16q-20 11 -35 11q-10 0 -30 -4q-23 -6 -61.5 -9.5t-79.5 -3.5h-43q-43 0 -75 6z" />
    <glyph glyph-name="bracketleft" unicode="[" horiz-adv-x="364" 
d="M244 -108q-3 1 -3 4q0 4 3 4q19 0 29 8t10 19q0 20 -38 33l-165 30q-15 3 -15 15v690q0 12 15 15l165 30q15 2 26.5 11.5t11.5 21.5q0 11 -10 19t-29 8q-3 0 -3 4q0 3 3 4q6 3 21 3q18 0 29 -13t11 -28q0 -19 -19.5 -32t-40.5 -20v-736q20 -7 39.5 -19.5t19.5 -32.5
q0 -14 -12 -27.5t-27 -13.5t-21 3z" />
    <glyph glyph-name="backslash" unicode="\" horiz-adv-x="706" 
d="M65 700h92l490 -700h-92z" />
    <glyph glyph-name="bracketright" unicode="]" horiz-adv-x="364" 
d="M66 -70q0 20 19.5 32.5t39.5 19.5v736q-21 7 -40.5 20t-19.5 32q0 15 11 28t29 13q15 0 21 -3q3 -1 3 -4q0 -4 -3 -4q-19 0 -29 -8t-10 -19q0 -12 11.5 -21.5t26.5 -11.5h165q7 0 11 -4t4 -11v-750q0 -7 -4 -11t-11 -4h-165q-38 -13 -38 -33q0 -11 10 -19t29 -8q3 0 3 -4
q0 -3 -3 -4q-6 -3 -21 -3t-27 13.5t-12 27.5z" />
    <glyph glyph-name="asciicircum" unicode="^" horiz-adv-x="346" 
d="M65 516l116 133l106 -133l-44 -38l-62 61l-70 -61z" />
    <glyph glyph-name="underscore" unicode="_" horiz-adv-x="448" 
d="M65 -50h324v-70h-324v70z" />
    <glyph glyph-name="grave" unicode="`" horiz-adv-x="385" 
d="M103 645l83 57l103 -173l-58 -41z" />
    <glyph glyph-name="a" unicode="a" horiz-adv-x="687" 
d="M33 139q0 68 50.5 110t133.5 42q24 0 57 -7t65 -18l36 -13q5 0 5 6q0 66 -22 106.5t-57 40.5q-18 0 -46 -11t-55 -29q-13 -7 -23 -7q-8 0 -8 7q0 10 19 26q31 24 74.5 38.5t83.5 14.5q75 0 132.5 -25t89 -70.5t31.5 -104.5v-165q0 -30 10.5 -42.5t33.5 -12.5
q14 0 17.5 -3t3.5 -10t-3 -9.5t-12 -2.5h-256q-7 0 -11 4.5t-3 11.5v16q0 7 -5 7q5 0 -28 -14q-44 -16 -83 -25.5t-59 -9.5q-77 0 -124 41t-47 108zM379 111v74q0 28 -18.5 44.5t-49.5 16.5q-26 0 -42 -19.5t-16 -51.5v-84q0 -22 16 -35t42 -13q31 0 49.5 18.5t18.5 49.5z
" />
    <glyph glyph-name="b" unicode="b" horiz-adv-x="740" 
d="M318 43v-18q0 -11 -7 -18t-18 -7h-245q-9 0 -12 2.5t-3 9.5t3.5 10t17.5 3q23 0 33.5 12.5t10.5 42.5v540q0 30 -10.5 42.5t-33.5 12.5q-14 0 -17.5 3t-3.5 10t3 9.5t12 2.5h245q11 0 18 -7t7 -18v-281q29 30 70.5 40t95.5 10q66 0 117 -28.5t79 -80t28 -119.5
q0 -67 -29.5 -118.5t-83 -79.5t-123.5 -28q-52 0 -94.5 14.5t-59.5 38.5zM468 94v240q0 27 -19 43.5t-51 16.5q-36 0 -58 -17t-22 -45v-233q0 -27 22 -43.5t58 -16.5q32 0 51 15t19 40z" />
    <glyph glyph-name="c" unicode="c" horiz-adv-x="494" 
d="M33 230q0 64 33.5 112.5t95 75.5t141.5 27q59 0 95.5 -23.5t36.5 -61.5q0 -19 -11 -30.5t-28 -11.5q-14 0 -23 8.5t-9 21.5q0 10 5.5 18t14.5 11q6 2 9 5.5t2 7.5q-3 12 -19.5 19t-41.5 7q-36 0 -58 -51t-22 -135q0 -94 26 -151t68 -57q13 0 37.5 10t52.5 27q7 5 13.5 6
t9.5 -3q1 -1 1 -3q0 -3 -4.5 -9t-11.5 -12q-25 -22 -63 -35t-76 -13q-81 0 -143.5 30t-96.5 84.5t-34 125.5z" />
    <glyph glyph-name="d" unicode="d" horiz-adv-x="740" 
d="M33 216q0 68 28 119.5t79 80t117 28.5q58 0 97.5 -8.5t68.5 -41.5v226q0 30 -10.5 42.5t-33.5 12.5q-14 0 -17.5 3t-3.5 10t3 9.5t12 2.5h249q8 0 13.5 -4t6.5 -11h1v-605q0 -30 10.5 -42.5t33.5 -12.5q14 0 17.5 -3t3.5 -10t-3 -9.5t-12 -2.5h-245q-11 0 -18 7t-7 18v18
q-17 -24 -59.5 -38.5t-94.5 -14.5q-70 0 -123.5 28t-83 79.5t-29.5 118.5zM423 98v245q0 51 -80 51q-31 0 -50.5 -16.5t-19.5 -43.5v-240q0 -25 19.5 -40t50.5 -15q36 0 58 16.5t22 42.5z" />
    <glyph glyph-name="e" unicode="e" horiz-adv-x="570" 
d="M33 203q0 89 38.5 144t99 79t128.5 24q70 0 124.5 -20t84.5 -56t30 -81q0 -10 -4 -15.5t-10 -5.5h-236q-11 0 -18 -7t-7 -18v-161q0 -28 26 -44.5t69 -16.5q29 0 59 12.5t51 33.5q16 16 24 16t8 -5q0 -9 -18 -27q-26 -29 -77 -47t-107 -18q-67 0 -128 28t-99 77t-38 108z
M328 295q7 0 11 4t4 11v73q0 17 -10 27.5t-27 10.5q-20 0 -31.5 -10.5t-11.5 -27.5v-73q0 -7 4 -11t11 -4h50z" />
    <glyph glyph-name="f" unicode="f" horiz-adv-x="490" 
d="M39 12q0 7 3.5 10t17.5 3q23 0 33.5 12.5t10.5 42.5v308q0 9 -11 15t-29 7q-19 1 -25 4t-6 8q0 7 4.5 10t17.5 3q22 0 35.5 19.5t13.5 50.5q0 61 30 107.5t85 72t127 25.5q58 0 93.5 -21t35.5 -55q0 -17 -14 -17q-9 0 -12.5 4t-3.5 18q0 16 -12.5 25.5t-33.5 9.5
q-34 0 -55 -40.5t-21 -107.5q0 -41 15 -66t39 -25q19 0 19 -12q0 -7 -6 -10t-23 -4q-19 -1 -31 -7t-12 -14v-308q0 -30 10.5 -42.5t33.5 -12.5q14 0 17.5 -3t3.5 -10t-3 -9.5t-12 -2.5h-320q-9 0 -12 2.5t-3 9.5z" />
    <glyph glyph-name="g" unicode="g" horiz-adv-x="757" 
d="M209 -135q0 32 18.5 50.5t54.5 18.5q22 0 35.5 -8.5t13.5 -24.5q0 -10 -9 -10q-4 0 -9 6q-10 10 -26 10q-18 0 -28.5 -7.5t-10.5 -22.5q0 -18 17 -28.5t50 -10.5q59 0 92.5 27.5t33.5 81.5v89q-33 -22 -82.5 -34t-108.5 -12q-102 0 -161 55t-59 164q0 110 66 173t195 63
q47 0 86.5 -13.5t62.5 -39.5v28q0 15 15 15h255q9 0 12 -2.5t3 -9.5t-3.5 -10t-17.5 -3q-23 0 -33.5 -12.5t-10.5 -42.5v-304q0 -126 -71 -198.5t-210 -72.5q-79 0 -124.5 21.5t-45.5 63.5zM440 94v235q0 30 -20.5 47.5t-59.5 17.5q-33 0 -51.5 -15t-18.5 -45v-240
q0 -26 17.5 -40.5t52.5 -14.5q37 0 58.5 14t21.5 41z" />
    <glyph glyph-name="h" unicode="h" horiz-adv-x="772" 
d="M33 12q0 7 3.5 10t17.5 3q23 0 33.5 12.5t10.5 42.5v540q0 30 -10.5 42.5t-33.5 12.5q-14 0 -17.5 3t-3.5 10t3 9.5t12 2.5h248q9 0 14.5 -4t5.5 -11v-302q40 28 88 45t87 17q83 0 133.5 -49.5t50.5 -130.5v-185q0 -30 10.5 -42.5t33.5 -12.5q14 0 17.5 -3t3.5 -10
t-3 -9.5t-12 -2.5h-304q-9 0 -12 2.5t-3 9.5t3.5 10t17.5 3q23 0 33.5 12.5t10.5 42.5v185q0 52 -22.5 84t-59.5 32q-32 0 -51.5 -16t-19.5 -42v-243q0 -30 10.5 -42.5t33.5 -12.5q14 0 17.5 -3t3.5 -10t-3 -9.5t-12 -2.5h-320q-9 0 -12 2.5t-3 9.5z" />
    <glyph glyph-name="i" unicode="i" horiz-adv-x="415" 
d="M33 12q0 7 3.5 10t17.5 3q23 0 33.5 12.5t10.5 42.5v275q0 30 -10.5 42.5t-33.5 12.5q-14 0 -17.5 3t-3.5 10t3 9.5t12 2.5h250q9 0 14.5 -4t5.5 -11v-340q0 -30 10.5 -42.5t33.5 -12.5q14 0 17.5 -3t3.5 -10t-3 -9.5t-12 -2.5h-320q-9 0 -12 2.5t-3 9.5zM174 495
q0 50 -20.5 72.5t-65.5 22.5q-16 0 -21 2.5t-5 9.5q0 8 5.5 10.5t20.5 2.5q45 0 66 23t21 72q0 9 2.5 13t9.5 4t10 -3.5t3 -13.5q0 -52 20 -73.5t70 -21.5q13 0 17.5 -2.5t4.5 -10.5q0 -7 -4.5 -9.5t-17.5 -2.5q-50 0 -70.5 -21.5t-20.5 -73.5q0 -11 -2.5 -15.5t-9.5 -4.5
q-8 0 -10.5 4t-2.5 16z" />
    <glyph glyph-name="j" unicode="j" horiz-adv-x="388" 
d="M20 -81q-10 15 -10 22q0 5 4 5t11 -5q23 -14 46 -14q29 0 47 23.5t18 62.5v342q0 30 -10.5 42.5t-33.5 12.5q-14 0 -17.5 3t-3.5 10t3 9.5t12 2.5h250q9 0 14.5 -4t5.5 -11v-454q0 -55 -40.5 -89t-106.5 -34q-63 0 -115 21t-74 55zM208 495q0 50 -20.5 72.5t-65.5 22.5
q-16 0 -21 2.5t-5 9.5q0 8 5.5 10.5t20.5 2.5q45 0 66 23t21 72q0 9 2.5 13t9.5 4t10 -3.5t3 -13.5q0 -52 20 -73.5t70 -21.5q13 0 17.5 -2.5t4.5 -10.5q0 -7 -4.5 -9.5t-17.5 -2.5q-50 0 -70.5 -21.5t-20.5 -73.5q0 -11 -2.5 -15.5t-9.5 -4.5q-8 0 -10.5 4t-2.5 16z" />
    <glyph glyph-name="k" unicode="k" horiz-adv-x="784" 
d="M33 12q0 7 3.5 10t17.5 3q23 0 33.5 12.5t10.5 42.5v490q0 30 -10.5 42.5t-33.5 12.5q-14 0 -17.5 3t-3.5 10t3 9.5t12 2.5h253q17 0 17 -15v-246q0 -35 30 -35q16 0 52 39q120 132 209 132q33 0 62 -19q13 -10 13 -18q0 -12 -15 -13q-8 0 -14 5q-22 15 -49 15
q-95 0 -95 -91q0 -25 8 -41l151 -292q25 -46 81 -46q14 0 17.5 -3t3.5 -10t-3 -9.5t-12 -2.5h-325q-9 0 -12 2.5t-3 9.5t3.5 10t17.5 3q22 0 22 10q0 8 -15 36q-28 53 -41 77l-55 104q-9 18 -17 18q-14 0 -14 -41v-149q0 -30 10.5 -42.5t33.5 -12.5q14 0 17.5 -3t3.5 -10
t-3 -9.5t-12 -2.5h-320q-9 0 -12 2.5t-3 9.5z" />
    <glyph glyph-name="l" unicode="l" horiz-adv-x="392" 
d="M21 12q0 7 3.5 10t17.5 3q23 0 33.5 12.5t10.5 42.5v540q0 30 -10.5 42.5t-33.5 12.5q-14 0 -17.5 3t-3.5 10t3 9.5t12 2.5h245q25 0 25 -25v-595q0 -30 10.5 -42.5t33.5 -12.5q14 0 17.5 -3t3.5 -10t-3 -9.5t-12 -2.5h-320q-9 0 -12 2.5t-3 9.5z" />
    <glyph glyph-name="m" unicode="m" horiz-adv-x="1138" 
d="M33 12q0 7 3.5 10t17.5 3q23 0 33.5 12.5t10.5 42.5v275q0 30 -10.5 42.5t-33.5 12.5q-14 0 -17.5 3t-3.5 10t3 9.5t12 2.5h248q22 0 22 -15v-37q85 62 173 62q117 0 186 -62q87 62 174 62q183 0 190 -180v-185q0 -30 10.5 -42.5t33.5 -12.5q14 0 17.5 -3t3.5 -10
t-3 -9.5t-12 -2.5h-310q-9 0 -12 2.5t-3 9.5t3.5 10t17.5 3q23 0 33.5 12.5t10.5 42.5v185q0 116 -82 116q-72 0 -72 -58v-243q0 -30 10.5 -42.5t33.5 -12.5q14 0 17.5 -3t3.5 -10t-3 -9.5t-12 -2.5h-305q-9 0 -12 2.5t-3 9.5t3.5 10t17.5 3q23 0 33.5 12.5t10.5 42.5v185
q0 116 -83 116q-71 0 -71 -58v-243q0 -30 10.5 -42.5t33.5 -12.5q14 0 17.5 -3t3.5 -10t-3 -9.5t-12 -2.5h-320q-9 0 -12 2.5t-3 9.5z" />
    <glyph glyph-name="n" unicode="n" horiz-adv-x="773" 
d="M34 12q0 7 3.5 10t17.5 3q23 0 33.5 12.5t10.5 42.5l-1 275q0 30 -10.5 42.5t-33.5 12.5q-14 0 -17.5 3t-3.5 10t3 9.5t12 2.5h249q20 0 20 -15v-37q89 62 175 62q87 0 135.5 -43t48.5 -137v-185q0 -30 10.5 -42.5t33.5 -12.5q14 0 17.5 -3t3.5 -10t-3 -9.5t-12 -2.5
h-304q-9 0 -12 2.5t-3 9.5t3.5 10t17.5 3q23 0 33.5 12.5t10.5 42.5v185q0 116 -82 116q-71 0 -71 -56v-245q0 -30 10.5 -42.5t33.5 -12.5q14 0 17.5 -3t3.5 -10t-3 -9.5t-12 -2.5h-320q-9 0 -12 2.5t-3 9.5z" />
    <glyph glyph-name="o" unicode="o" horiz-adv-x="662" 
d="M33 233q0 57 30.5 105t96 77.5t165.5 29.5q134 0 208.5 -51.5t74.5 -161.5q0 -115 -68 -178.5t-215 -63.5q-140 0 -216 63t-76 180zM383 104v241q0 80 -58 80q-62 0 -62 -80v-241q0 -92 60 -92t60 92z" />
    <glyph glyph-name="p" unicode="p" horiz-adv-x="752" 
d="M98 -172v527q0 30 -10.5 42.5t-33.5 12.5q-14 0 -17.5 3t-3.5 10t3 9.5t12 2.5h245q11 0 18 -7t7 -18v-18q17 24 59 38.5t94 14.5q70 0 123.5 -28t83 -79.5t29.5 -118.5q0 -68 -28 -119.5t-79 -80t-117 -28.5q-116 0 -165 49v-105q0 -9 -7 -16.5t-18 -9.5h-1
q-43 -8 -72 -23q-31 -18 -45 -31q-8 -7 -36 -20.5t-36 -13.5q-5 0 -5 7zM467 101v240q0 22 -19.5 38t-50.5 16q-35 0 -57 -16.5t-22 -40.5v-240q0 -27 22 -43t57 -16q70 0 70 62z" />
    <glyph glyph-name="q" unicode="q" horiz-adv-x="754" 
d="M597 -145q-19 16 -45 31q-23 14 -72 23h-1q-11 2 -18 9t-7 17v101q-31 -20 -76 -32.5t-89 -12.5q-66 0 -117 28.5t-79 80t-28 119.5q0 67 29.5 118.5t83 79.5t123.5 28q54 0 96.5 -12t56.5 -32v9q0 11 7 18t18 7h245q9 0 12 -2.5t3 -9.5t-3.5 -10t-17.5 -3
q-23 0 -33.5 -12.5t-10.5 -42.5v-527q0 -4 -2.5 -6.5t-6.5 -0.5q-23 9 -42 18.5t-26 15.5zM454 90v260q0 21 -22 33.5t-57 12.5q-32 0 -51 -15t-19 -40v-240q0 -27 19.5 -43.5t50.5 -16.5q35 0 57 13.5t22 35.5z" />
    <glyph glyph-name="r" unicode="r" horiz-adv-x="516" 
d="M33 12q0 7 3.5 10t17.5 3q23 0 33.5 12.5t10.5 42.5v275q0 30 -10.5 42.5t-33.5 12.5q-14 0 -17.5 3t-3.5 10t3 9.5t12 2.5h270q35 10 78 10q47 0 76 -20t29 -52q0 -22 -13 -35t-34 -13q-9 0 -21 4.5t-22 13.5q-6 6 -3 11l4 2q3 0 10 -5q8 -6 18 -6q14 0 22.5 6.5
t8.5 19.5q0 20 -20 32t-52 12q-37 0 -59 -11.5t-22 -31.5v-292q0 -30 10.5 -42.5t33.5 -12.5q14 0 17.5 -3t3.5 -10t-3 -9.5t-12 -2.5h-320q-9 0 -12 2.5t-3 9.5z" />
    <glyph glyph-name="s" unicode="s" horiz-adv-x="504" 
d="M71 0v143q0 13 8 13q10 0 10 -13q0 -53 30 -85.5t79 -32.5q28 0 44.5 11.5t16.5 31.5q0 22 -15.5 41t-41.5 28q-62 21 -99.5 60t-37.5 82q0 75 54 120.5t143 45.5h50l21 5q12 5 24 5q7 0 7 -10v-92q0 -4 -2 -6.5t-5 -2.5q-4 0 -6.5 4t-2.5 11q0 28 -21.5 44.5t-56.5 16.5
q-26 0 -42.5 -10.5t-16.5 -27.5q0 -14 10 -24.5t27 -13.5q89 -17 143 -70t54 -123q0 -68 -48 -109.5t-127 -41.5h-149l-42 -10q-8 0 -8 10z" />
    <glyph glyph-name="t" unicode="t" horiz-adv-x="455" 
d="M96 113v284q0 6 -7 9.5t-19 3.5q-24 0 -30.5 3t-6.5 9q0 7 4.5 10t21.5 3q53 0 118.5 58t121.5 152q3 8 8 8q8 0 8 -13v-166q0 -17 15 -28t39 -11q17 0 21.5 -3t4.5 -10t-7.5 -10t-34.5 -3q-16 0 -26.5 -3.5t-10.5 -8.5v-259q0 -29 16.5 -46.5t44.5 -17.5q26 0 50 14
q8 5 11 5q2 0 2 -3q0 -6 -8 -22q-21 -35 -67.5 -56.5t-102.5 -21.5q-75 0 -120.5 33.5t-45.5 89.5z" />
    <glyph glyph-name="u" unicode="u" horiz-adv-x="774" 
d="M98 170v185q0 30 -10.5 42.5t-33.5 12.5q-14 0 -17.5 3t-3.5 10t3 9.5t12 2.5h305q9 0 12 -2.5t3 -9.5t-3.5 -10t-17.5 -3q-23 0 -33.5 -12.5t-10.5 -42.5v-185q0 -116 82 -116q73 0 73 36l-2 265q0 29 -10 41.5t-32 12.5q-16 0 -20 3t-4 10t3 9.5t12 2.5l100 1h222
q9 0 12 -2.5t3 -9.5t-3.5 -10t-17.5 -3q-23 0 -33.5 -12.5t-10.5 -42.5v-275q0 -30 10.5 -42.5t33.5 -12.5q14 0 17.5 -3t3.5 -10t-3 -9.5t-12 -2.5h-249q-20 0 -20 27v21q-83 -58 -175 -58q-88 0 -136.5 43t-48.5 137z" />
    <glyph glyph-name="v" unicode="v" horiz-adv-x="638" 
d="M122 367q-27 43 -86 43q-14 0 -17.5 3t-3.5 10t3 9.5t12 2.5h359q9 0 12 -2.5t3 -9.5t-3.5 -10t-17.5 -3q-12 0 -16.5 -2t-4.5 -7q0 -6 17 -35l62 -108l50 105q14 26 14 36q0 11 -23 11q-14 0 -17.5 3t-3.5 10t3 9.5t12 2.5h135q9 0 12 -2.5t3 -9.5t-3.5 -10t-17.5 -3
q-56 0 -80 -47l-185 -373q-125 223 -218 377z" />
    <glyph glyph-name="w" unicode="w" horiz-adv-x="1053" 
d="M1021 423q0 -7 -3.5 -10t-17.5 -3q-55 0 -76 -47l-189 -373l-208 373l-189 -373q-118 210 -203 374q-25 46 -81 46q-14 0 -17.5 3t-3.5 10t3 9.5t12 2.5h347q9 0 12 -2.5t3 -9.5t-3.5 -10t-17.5 -3q-12 0 -17 -2t-5 -7t6.5 -17t9.5 -19l57 -107l54 106q15 28 15 36
q0 10 -22 10q-14 0 -17.5 3t-3.5 10t3 9.5t12 2.5h308q9 0 12 -2.5t3 -9.5t-3.5 -10t-17.5 -3q-12 0 -17 -2t-5 -7q0 -6 7.5 -19t9.5 -17l59 -107l53 105q13 28 13 36q0 11 -23 11q-14 0 -17.5 3t-3.5 10t3 9.5t12 2.5h132q9 0 12 -2.5t3 -9.5zM924 362v1l2 3z" />
    <glyph glyph-name="x" unicode="x" horiz-adv-x="712" 
d="M34 12q0 7 3.5 10t17.5 3q63 0 91 39l90 122q-66 121 -99 179q-24 45 -83 45q-14 0 -17.5 3t-3.5 10t3 9.5t12 2.5h335q9 0 12 -2.5t3 -9.5t-3.5 -10t-17.5 -3q-12 0 -17 -2t-5 -7q0 -6 7.5 -19t9.5 -17l48 -88l79 96q6 7 15.5 18t9.5 14q0 5 -18 5q-14 0 -17.5 3
t-3.5 10t3 9.5t12 2.5h138q9 0 12 -2.5t3 -9.5t-3.5 -10t-17.5 -3q-64 0 -95 -37l-100 -122l101 -181q26 -45 83 -45q14 0 17.5 -3t3.5 -10t-3 -9.5t-12 -2.5h-335q-9 0 -12 2.5t-3 9.5t3.5 10t17.5 3q12 0 17 2t5 7q0 6 -7.5 19t-9.5 17l-50 90l-71 -96q-4 -5 -13.5 -17
t-9.5 -17t19 -5q14 0 17.5 -3t3.5 -10t-3 -9.5t-12 -2.5h-135q-9 0 -12 2.5t-3 9.5z" />
    <glyph glyph-name="y" unicode="y" horiz-adv-x="637" 
d="M622 435q0 -9 -15 -20q-30 -21 -63 -60.5t-56 -82.5q-29 -53 -39 -94q-25 -96 -63.5 -167t-74.5 -89q-20 -10 -52 -16t-65 -6q-19 0 -54 8q-6 1 -9.5 5t-3.5 9q0 4 5.5 7t14.5 3q14 0 22 -1l29 -1q23 0 43.5 3.5t30.5 9.5q14 8 23 24t9 33q0 19 -178 364q-25 46 -81 46
q-14 0 -17.5 3t-3.5 10t3 9.5t12 2.5h347q9 0 12 -2.5t3 -9.5t-3.5 -10t-17.5 -3q-11 0 -16 -2t-5 -6t7 -18l-8 13l81 -153q46 84 80 128q15 19 38 37.5t45 30.5q6 3 11 3t8 -3q1 -1 1 -5zM376 366q-9 16 -10 18z" />
    <glyph glyph-name="z" unicode="z" horiz-adv-x="582" 
d="M504 0h-405q-5 0 -8 2.5t-3 5.5q0 2 1.5 3.5t1.5 3.5l98 211h-58q-18 0 -22 2.5t-4 11.5q0 8 4 9.5t22 1.5h69l52 113q6 12 6 18q0 8 -7 15q-10 10 -34.5 17t-46.5 7q-30 0 -52.5 -14.5t-22.5 -35.5q0 -13 8.5 -20.5t22.5 -7.5q10 0 20 8q5 4 8 4.5t5 -1.5t2 -3
q0 -2 -6 -8q-17 -20 -43 -20q-20 0 -33.5 13.5t-13.5 36.5q0 32 30.5 52t77.5 20q42 0 78 -10q17 -4 63.5 -10t71.5 -6q47 0 122 16q8 2 11 -2q2 -2 3 -5t-1 -7l-78 -171h57q17 0 21 -2t4 -10q0 -9 -4 -11t-21 -2h-70q-44 -99 -80 -173q0 -8 9 -12q18 -10 59 -10
q50 0 78 14.5t28 40.5q0 11 2.5 14t10.5 3t10.5 -2t2.5 -8v-92q0 -10 -11 -10q-15 0 -35 10z" />
    <glyph glyph-name="braceleft" unicode="{" horiz-adv-x="603" 
d="M497 -148q-3 1 -3 4q0 4 6 4q19 0 27.5 7.5t8.5 19.5q0 13 -10.5 23t-27.5 10q-79 0 -167 39t-148.5 113.5t-60.5 174.5l-54 93q-3 6 -3 10q0 6 3 10l54 87q0 79 61.5 157t151 128t163.5 50q15 0 26.5 10.5t11.5 22.5t-9 19.5t-28 7.5q-5 0 -5 4q0 3 3 4q6 3 21 3
q18 0 29 -13t11 -28q0 -23 -19 -37.5t-41 -14.5q-39 0 -85.5 -37t-79 -88.5t-32.5 -89.5v-398q0 -38 32.5 -86.5t79 -83.5t85.5 -35q22 0 41 -14.5t19 -37.5q0 -15 -11 -28t-29 -13q-15 0 -21 3z" />
    <glyph glyph-name="bar" unicode="|" horiz-adv-x="204" 
d="M65 705h80v-710h-80v710z" />
    <glyph glyph-name="braceright" unicode="}" horiz-adv-x="518" 
d="M-34 -110q0 23 19 37.5t41 14.5q39 0 85.5 35t79 83.5t32.5 86.5v398q0 38 -32.5 89.5t-79 88.5t-85.5 37q-22 0 -41 14.5t-19 37.5q0 15 11 28t29 13q15 0 21 -3q3 -1 3 -4q0 -4 -5 -4q-19 0 -28 -7.5t-9 -19.5t11.5 -22.5t26.5 -10.5q74 0 163.5 -50t151 -128
t61.5 -157l54 -87q3 -4 3 -10q0 -4 -3 -10l-54 -93q0 -100 -60.5 -174.5t-148.5 -113.5t-167 -39q-17 0 -27.5 -10t-10.5 -23q0 -12 8.5 -19.5t27.5 -7.5q6 0 6 -4q0 -3 -3 -4q-6 -3 -21 -3q-18 0 -29 13t-11 28z" />
    <glyph glyph-name="asciitilde" unicode="~" horiz-adv-x="450" 
d="M175 324q38 0 56.5 -10t35.5 -28q9 -11 16 -16t19 -5q46 0 73 16.5t24 42.5h19q1 -78 -42.5 -126.5t-114.5 -48.5q-28 0 -42.5 12t-30.5 35q-12 18 -21.5 27t-25.5 9q-42 0 -66.5 -22.5t-22.5 -60.5h-19q-1 78 38 126.5t104 48.5z" />
    <glyph glyph-name="exclamdown" unicode="&#xa1;" horiz-adv-x="339" 
d="M160 480q0 47 -27.5 75t-72.5 28q-14 0 -17.5 1.5t-3.5 6.5t3.5 6.5t17.5 1.5q45 0 72.5 27.5t27.5 73.5q0 9 1.5 11t6.5 2q4 0 5.5 -2.5t1.5 -10.5q0 -46 26.5 -73.5t70.5 -27.5q12 0 14.5 -1.5t2.5 -6.5t-2.5 -6.5t-14.5 -1.5q-44 0 -70.5 -28t-26.5 -75q0 -8 -1.5 -10
t-6.5 -2q-4 0 -5.5 2t-1.5 10zM28 12q0 7 3.5 10t17.5 3q24 0 36.5 13t15.5 42l35 323q1 14 16 14h32q15 0 16 -14l34 -323q3 -29 15.5 -42t36.5 -13q14 0 17.5 -3t3.5 -10t-3 -9.5t-12 -2.5h-249q-9 0 -12 2.5t-3 9.5z" />
    <glyph glyph-name="cent" unicode="&#xa2;" horiz-adv-x="645" 
d="M388 -10h-10q-81 0 -143.5 30t-96.5 84.5t-34 125.5q0 64 33.5 112.5t95 75.5t141.5 27h14v34l30 20v-57q40 -4 64 -27t24 -55q0 -19 -11 -30.5t-28 -11.5q-14 0 -23 8.5t-9 21.5q0 10 5.5 18t14.5 11q6 2 9 5.5t2 7.5q-3 10 -16 17t-32 9v-394h1q12 0 36.5 10t53.5 27
q11 7 15 7.5t8 -3.5l2 -4q0 -5 -17 -21q-20 -20 -47 -30.5t-52 -14.5v-43l-30 -20v60zM388 414q-28 -7 -45.5 -58t-17.5 -126q0 -82 17.5 -137.5t45.5 -65.5v387z" />
    <glyph glyph-name="sterling" unicode="&#xa3;" horiz-adv-x="731" 
d="M343 30q-34 14 -61 22.5t-38 8.5q-20 0 -50 -16.5t-61 -44.5l-68 75l135 99q20 14 32.5 33t12.5 36q0 34 -12 54.5t-31 20.5h-135v70h77q6 0 10 3t4 7q0 -6 -14 45q-8 23 -13 45.5t-5 36.5q0 55 32 97t90 65t134 23q84 0 161 -44t118 -117q-48 -31 -77 -51l-20 -13
q-27 49 -72.5 78.5t-93.5 29.5q-39 0 -63 -26.5t-24 -69.5q0 -49 49.5 -79t131.5 -30v-70h-116q4 -22 4 -35q0 -23 -16.5 -51t-43.5 -51l28 -5q29 -4 64.5 -14t65.5 -22q40 -14 64 -14q21 0 45 9.5t42 25.5l43 -84q0 -8 -22 -30q-29 -26 -72 -41.5t-83 -15.5q-22 0 -63 11
t-89 29z" />
    <glyph glyph-name="currency" unicode="&#xa4;" horiz-adv-x="664" 
d="M64 88l66 63q-29 26 -46.5 68t-17.5 85q0 35 16.5 73.5t42.5 64.5l-61 58l55 46l64 -61q30 17 70.5 27t76.5 10q37 0 78 -11t70 -28l66 63l55 -46l-65 -61q24 -26 38.5 -63.5t14.5 -72.5q0 -37 -16.5 -77.5t-42.5 -69.5l71 -68l-53 -43l-70 66q-31 -20 -71.5 -32
t-74.5 -12q-27 0 -66.5 12t-76.5 32l-70 -66zM387 178v235q0 40 -16 64.5t-41 24.5q-26 0 -42.5 -24.5t-16.5 -64.5v-235q0 -41 15.5 -66t41.5 -25t42.5 25t16.5 66z" />
    <glyph glyph-name="yen" unicode="&#xa5;" horiz-adv-x="1041" 
d="M364 12q0 7 3.5 10t17.5 3q18 0 28 7.5t14 23.5h-97v60h99v15l-3 5h-96v60h65l-228 433q-23 46 -81 46q-14 0 -17.5 3t-3.5 10t3 9.5t12 2.5h358q9 0 12 -2.5t3 -9.5t-3.5 -10t-17.5 -3q-12 0 -16.5 -2t-4.5 -7q0 -7 16 -36l1 -2l210 -400l209 400q14 28 14 36q0 5 -6 8
t-16 3q-12 0 -16.5 3t-4.5 10q0 6 3 9t12 3h134q15 0 15 -12q0 -7 -4 -10t-17 -3q-25 0 -46 -12.5t-34 -34.5q-17 -29 -92.5 -173.5t-134.5 -258.5h96v-60h-100v-20h100v-60h-98q4 -16 14 -23.5t28 -7.5q14 0 17.5 -3t3.5 -10t-3 -9.5t-12 -2.5h-321q-9 0 -12 2.5t-3 9.5z
M558 564q0 32 21.5 54.5t52.5 22.5q28 0 47.5 -18t19.5 -43q0 -14 -7 -27.5t-19 -22.5q-4 -5 -9 -5h-2q-5 0 -8.5 3.5t-3.5 8.5q0 11 10 15q12 12 12 26q0 15 -11.5 25t-28.5 10q-20 0 -33.5 -14t-13.5 -35q0 -24 17 -41t41 -17q28 0 49 23t21 53t-22.5 51.5t-54.5 21.5
q-28 0 -53 -17.5t-37 -45.5q-4 -10 -8 -14t-9 -4t-9 4t-4 9q0 3 4 15q18 36 49.5 58t66.5 22q44 0 74.5 -29.5t30.5 -70.5q0 -42 -29.5 -73t-68.5 -31q-35 0 -60 25t-25 61z" />
    <glyph glyph-name="brokenbar" unicode="&#xa6;" horiz-adv-x="145" 
d="M33 705h80v-275h-80v275zM33 255h80v-260h-80v260z" />
    <glyph glyph-name="section" unicode="&#xa7;" horiz-adv-x="495" 
d="M116 1q-24 0 -42 -5q-6 0 -6 10v120q0 3 2.5 5t6.5 2q11 0 11 -11q0 -50 36 -81t95 -31q37 0 60 22.5t23 59.5q0 17 -23.5 37t-62.5 35q-68 27 -109.5 71t-41.5 89t23.5 79.5t62.5 45.5q-39 24 -62.5 59.5t-23.5 69.5q0 59 40.5 95.5t107.5 36.5q23 0 42 -3q18 -3 35 -3
h19q8 0 17.5 3t11.5 3t2 -4v-75q0 -5 -2.5 -8t-6.5 -3t-6.5 4t-2.5 11q0 24 -22 39t-57 15q-26 0 -42 -13t-16 -34q0 -13 10 -24.5t27 -17.5l115 -41q44 -21 71.5 -64.5t27.5 -93.5q0 -38 -16 -71.5t-42 -50.5q26 -22 42 -58.5t16 -73.5q0 -71 -55 -114t-145 -43
q-19 0 -120 11zM302 346q0 17 -23.5 36.5t-62.5 35.5l-15 6q-7 -6 -11.5 -15.5t-4.5 -20.5q0 -12 10.5 -23.5t26.5 -17.5l77 -28q3 11 3 27z" />
    <glyph glyph-name="dieresis" unicode="&#xa8;" horiz-adv-x="605" 
d="M145 486q0 49 -20.5 71.5t-65.5 22.5q-16 0 -21 2.5t-5 9.5q0 8 5.5 10.5t20.5 2.5q45 0 66 23t21 72q0 9 2.5 13t9.5 4t10 -3.5t3 -13.5q0 -52 20 -73.5t70 -21.5q13 0 17.5 -2.5t4.5 -10.5q0 -7 -4.5 -9.5t-17.5 -2.5q-50 0 -70.5 -21t-20.5 -73q0 -11 -2.5 -15.5
t-9.5 -4.5q-8 0 -10.5 4t-2.5 16zM435 486q0 49 -20.5 71.5t-65.5 22.5q-16 0 -21 2.5t-5 9.5q0 8 5.5 10.5t20.5 2.5q45 0 66 23t21 72q0 9 2.5 13t9.5 4t10 -3.5t3 -13.5q0 -52 20 -73.5t70 -21.5q13 0 17.5 -2.5t4.5 -10.5q0 -7 -4.5 -9.5t-17.5 -2.5q-50 0 -70.5 -21
t-20.5 -73q0 -11 -2.5 -15.5t-9.5 -4.5q-8 0 -10.5 4t-2.5 16z" />
    <glyph glyph-name="copyright" unicode="&#xa9;" horiz-adv-x="422" 
d="M65 487q0 73 44.5 118t117.5 45q74 0 118.5 -44.5t44.5 -118.5q0 -73 -45 -117.5t-118 -44.5t-117.5 44.5t-44.5 117.5zM342 487q0 52 -31.5 83.5t-83.5 31.5q-51 0 -82.5 -31.5t-31.5 -83.5q0 -51 31.5 -82.5t82.5 -31.5q52 0 83.5 31.5t31.5 82.5zM140 493
q0 37 28.5 60t75.5 23q23 0 37.5 -9t14.5 -23q0 -8 -4.5 -12.5t-11.5 -4.5q-5 0 -8.5 3.5t-3.5 8.5q0 11 7 11q7 2 5 5q-2 4 -9 7t-15 3q-14 0 -22.5 -20t-8.5 -52q0 -37 10 -59t26 -22q8 0 36 14q2 2 4.5 2.5t4.5 -1.5v-2q0 -2 -6 -7q-11 -8 -26 -13.5t-28 -5.5
q-48 0 -77 26t-29 68z" />
    <glyph glyph-name="ordfeminine" unicode="&#xaa;" horiz-adv-x="355" 
d="M33 559q0 35 24 56t64 21q13 0 34.5 -5t42.5 -13q3 0 3 9q0 30 -11 48t-30 18q-14 0 -39 -18q-13 -11 -19 -11q-5 0 -5 3q0 5 11 16q12 12 33.5 19.5t44.5 7.5q53 0 84.5 -26.5t31.5 -69.5v-91q0 -9 7 -13q14 -7 14 -10q0 -5 -7 -5h-115l-6 12v1q0 7 -2 7q-4 0 -20 -8
q-12 -7 -28 -11.5t-30 -4.5q-37 0 -59.5 18.5t-22.5 49.5zM200 553v31q0 14 -8 22.5t-22 8.5t-22.5 -9.5t-8.5 -25.5v-41q0 -8 7.5 -12.5t19.5 -4.5q15 0 24.5 8.5t9.5 22.5z" />
    <glyph glyph-name="guillemotleft" unicode="&#xab;" horiz-adv-x="351" 
d="M17 217l129 119l42 -49l-61 -70l61 -62l-43 -48zM162 217l129 119l42 -49l-61 -70l61 -62l-43 -48z" />
    <glyph glyph-name="logicalnot" unicode="&#xac;" horiz-adv-x="446" 
d="M307 270h-274v80h354v-254h-80v174z" />
    <glyph glyph-name="registered" unicode="&#xae;" horiz-adv-x="447" 
d="M65 518q0 78 48.5 126t127.5 48q78 0 126 -48t48 -126q0 -79 -48 -127.5t-126 -48.5q-79 0 -127.5 48.5t-48.5 127.5zM363 518q0 55 -33.5 88t-88.5 33q-56 0 -89.5 -33t-33.5 -88t34 -89t89 -34t88.5 34t33.5 89zM261 462q-8 14 -17 23t-15 9q-5 0 -5 -2v-31
q0 -6 4 -9.5t10 -3.5q5 0 5 -2q0 -3 -4 -3h-85l-3 1q0 4 4 4h1l1 0.5t3 0.5q11 0 11 12v115q0 7 -4.5 11t-12.5 4q-3 0 -3 3l2 2h100q31 0 50 -13t19 -35q0 -21 -15.5 -34t-41.5 -14q11 -1 25.5 -10.5t26.5 -23.5q7 -7 10 -7q4 0 6 5q5 8 5 0q0 -11 -9 -17.5t-24 -6.5
q-14 0 -26.5 6t-17.5 16zM270 529v35q0 12 -7 19.5t-18 7.5q-10 0 -15.5 -7.5t-5.5 -19.5v-35q0 -13 5.5 -20.5t15.5 -7.5q11 0 18 7.5t7 20.5z" />
    <glyph glyph-name="macron" unicode="&#xaf;" horiz-adv-x="537" 
d="M105 570h334v-80h-334v80z" />
    <glyph glyph-name="degree" unicode="&#xb0;" horiz-adv-x="274" 
d="M65 564q0 31 22.5 53t53.5 22q30 0 52 -22t22 -53t-22 -55t-52 -24q-31 0 -53.5 23.5t-22.5 55.5zM172 565q0 14 -10 24t-23 10q-14 0 -24 -10t-10 -24t10 -24t24 -10q13 0 23 10t10 24z" />
    <glyph glyph-name="plusminus" unicode="&#xb1;" horiz-adv-x="377" 
d="M151 247h-118v75h118v118h76v-118h118v-75h-118v-119h-76v119zM33 100h312v-75h-312v75z" />
    <glyph glyph-name="uni00B2" unicode="&#xb2;" horiz-adv-x="300" 
d="M130 557q22 19 36 37.5t14 29.5q0 17 -12.5 28t-32.5 11q-17 0 -27.5 -7.5t-10.5 -20.5q0 -9 7 -14.5t18 -5.5q10 0 25 5q-7 -15 -19 -24t-23 -9q-30 0 -48 14.5t-18 37.5q0 29 29.5 49t76.5 20q51 0 83 -25t32 -63q0 -19 -15.5 -40.5t-41.5 -37.5q-22 -14 -43 -32.5
t-33 -34.5h12q39 0 68 5.5t38 14.5q10 10 10 25q0 9 6 9q7 0 7 -6v-88h-235q0 20 26.5 53.5t70.5 68.5z" />
    <glyph glyph-name="uni00B3" unicode="&#xb3;" horiz-adv-x="280" 
d="M33 501q0 21 15 33.5t39 12.5q16 0 31.5 -8.5t25.5 -22.5q-15 5 -28 5q-12 0 -19 -5.5t-7 -13.5q0 -10 10 -16.5t27 -6.5q20 0 32.5 11.5t12.5 30.5q0 15 -12.5 25.5t-32.5 12.5l-36 4v23l30 7q20 5 32 14.5t12 21.5q0 17 -10.5 27.5t-27.5 10.5q-9 0 -17 -2
q-7 -4 -11 -10t-4 -11q0 -9 12 -15.5t32 -8.5q-8 -8 -22 -13.5t-27 -5.5q-22 0 -35.5 11.5t-13.5 30.5q0 26 24.5 44t62.5 18q50 0 80.5 -21.5t30.5 -54.5q0 -12 -12 -26.5t-31 -24.5q23 -6 37.5 -22t14.5 -35q0 -35 -33 -56.5t-88 -21.5q-42 0 -68 16t-26 42z" />
    <glyph glyph-name="acute" unicode="&#xb4;" horiz-adv-x="385" 
d="M103 529l103 173l83 -57l-128 -157z" />
    <glyph glyph-name="paragraph" unicode="&#xb6;" horiz-adv-x="532" 
d="M346 347q-29 -22 -67 -35t-72 -13q-53 0 -94 27t-63.5 75.5t-22.5 111.5q0 88 49.5 142.5t129.5 54.5q44 0 82 -16t57 -42v34q0 6 4 10t10 4h154v-700h-40v650h-28v-650h-99v347z" />
    <glyph glyph-name="periodcentered" unicode="&#xb7;" horiz-adv-x="374" 
d="M177 130q0 49 -20.5 71.5t-65.5 22.5q-16 0 -21 2.5t-5 9.5q0 8 5.5 10.5t20.5 2.5q45 0 66 23t21 72q0 9 2.5 13t9.5 4t10 -3.5t3 -13.5q0 -52 20 -73.5t70 -21.5q13 0 17.5 -2.5t4.5 -10.5q0 -7 -4.5 -9.5t-17.5 -2.5q-50 0 -70.5 -21t-20.5 -73q0 -11 -2.5 -15.5
t-9.5 -4.5q-8 0 -10.5 4t-2.5 16z" />
    <glyph glyph-name="cedilla" unicode="&#xb8;" horiz-adv-x="400" 
d="M105 -166q0 21 17 38.5t38 17.5q17 0 31.5 -15t16.5 -34q-5 5 -13 8t-12 3q-14 0 -14 -17q0 -16 19 -16q31 0 31 55q0 21 -10 38t-21 17q-10 0 -16 -14q-4 -8 -13.5 -12.5t-21.5 -4.5h-10q-2 2 -4 2h-7l13 105h52l-5 -46q9 3 26 3q100 0 100 -95q0 -23 -16.5 -44.5
t-43 -34.5t-54.5 -13q-34 0 -58.5 17.5t-24.5 41.5z" />
    <glyph glyph-name="uni00B9" unicode="&#xb9;" horiz-adv-x="240" 
d="M38 440q0 4 9 4q31 0 31 27v139q0 12 -20 12h-25v8q62 0 108 65q0 5 6 5h16q2 0 4.5 -1.5t2.5 -4.5v-223q0 -27 24 -27q14 0 14 -4q0 -5 -7 -5h-158q-5 0 -5 5z" />
    <glyph glyph-name="ordmasculine" unicode="&#xba;" horiz-adv-x="316" 
d="M33 599q0 47 35 76t93 29q56 0 89.5 -29t33.5 -77q0 -51 -33.5 -82t-89.5 -31q-58 0 -93 31.5t-35 82.5zM188 538v113q0 19 -7.5 31t-19.5 12q-13 0 -21 -12t-8 -31v-113q0 -20 7.5 -32t20.5 -12t20.5 12t7.5 32z" />
    <glyph glyph-name="guillemotright" unicode="&#xbb;" horiz-adv-x="380" 
d="M18 155l61 62l-61 70l42 49l129 -119l-128 -110zM163 155l61 62l-61 70l42 49l129 -119l-128 -110z" />
    <glyph glyph-name="onequarter" unicode="&#xbc;" horiz-adv-x="877" 
d="M97 297q0 3 3.5 5t8.5 2q19 0 30.5 11t11.5 30v215q0 8 -7.5 13.5t-19.5 5.5h-33v13q37 0 76.5 27.5t66.5 72.5q2 8 9 8h21q4 0 6.5 -2.5t2.5 -6.5v-345q0 -19 9 -30.5t24 -11.5q18 0 18 -6q0 -8 -9 -8h-210q-8 0 -8 7zM648 700h92l-490 -700h-92zM579 8q0 8 13 8
q20 0 32 25.5t12 66.5h-187v60q0 16 29 63.5t78 110.5q32 42 79 67.5t92 25.5v-259q27 0 43.5 12t16.5 31q0 7 6 7t6 -7v-153q0 -8 -6 -8t-6 8q0 19 -16.5 30t-43.5 11q0 -41 12 -66t32 -25q8 0 8 -7q0 -4 -5 -6.5t-12 -2.5h-162q-21 0 -21 8zM636 176v168l-111 -168h111z
" />
    <glyph glyph-name="onehalf" unicode="&#xbd;" horiz-adv-x="868" 
d="M97 298q0 6 12 6q19 0 30.5 11t11.5 30v215q0 8 -7.5 13.5t-19.5 5.5h-33v13q37 0 76.5 27.5t66.5 72.5q2 8 9 8h21q4 0 6.5 -2.5t2.5 -6.5v-345q0 -19 9 -30.5t24 -11.5q18 0 18 -6q0 -8 -9 -8h-210q-8 0 -8 8zM632 700h92l-490 -700h-92zM613 179q29 27 47 54t18 44
q0 26 -16 41.5t-42 15.5q-22 0 -35.5 -11t-13.5 -30q0 -13 9 -21t23 -8q16 0 32 7q-9 -22 -24 -35t-30 -13q-38 0 -61.5 21t-23.5 55q0 42 37.5 67.5t99.5 25.5q67 0 107.5 -33t40.5 -88q0 -28 -20 -59.5t-53 -55.5q-27 -20 -54.5 -46.5t-44.5 -50.5h16q50 0 88 8t49 21
q5 6 8.5 16.5t3.5 20.5q0 12 8 12t8 -8v-129h-300q0 28 33.5 77t89.5 102z" />
    <glyph glyph-name="threequarters" unicode="&#xbe;" horiz-adv-x="845" 
d="M624 700h92l-490 -700h-92zM45 380q0 32 20.5 52t53.5 20q24 0 46 -13.5t35 -35.5q-19 8 -40 8q-16 0 -25.5 -8t-9.5 -21q0 -16 14 -26t37 -10q28 0 45.5 18t17.5 47q0 24 -17.5 40.5t-45.5 19.5l-50 6v36l42 11q28 8 45 23t17 33q0 28 -15 44.5t-39 16.5q-10 0 -24 -4
q-10 -7 -15.5 -16t-5.5 -17q0 -14 17.5 -24t45.5 -13q-13 -14 -32 -22.5t-37 -8.5q-32 0 -51 18t-19 48q0 40 33.5 65t88.5 25q71 0 113.5 -30.5t42.5 -80.5q0 -19 -16.5 -41t-43.5 -39q32 -10 52 -34.5t20 -55.5q0 -55 -46.5 -88.5t-122.5 -33.5q-59 0 -95 25t-36 66z
M547 8q0 8 13 8q20 0 32 25.5t12 66.5h-187v60q0 16 29 63.5t78 110.5q32 42 79 67.5t92 25.5v-259q27 0 43.5 12t16.5 31q0 7 6 7t6 -7v-153q0 -8 -6 -8t-6 8q0 19 -16.5 30t-43.5 11q0 -41 12 -66t32 -25q8 0 8 -7q0 -4 -5 -6.5t-12 -2.5h-162q-21 0 -21 8zM604 176v168
l-111 -168h111z" />
    <glyph glyph-name="questiondown" unicode="&#xbf;" horiz-adv-x="449" 
d="M223 486q0 53 -21.5 76.5t-73.5 23.5q-11 0 -14 1.5t-3 6.5q0 4 3 5.5t14 1.5q53 0 74.5 23t21.5 76q0 10 1.5 12.5t5.5 2.5q5 0 6.5 -2.5t1.5 -12.5q0 -52 22 -75.5t69 -23.5q15 0 18 -1t3 -6t-3.5 -6.5t-17.5 -1.5q-47 0 -69.5 -24t-22.5 -76q0 -8 -1.5 -10t-5.5 -2
q-5 0 -6.5 2t-1.5 10zM65 107q0 40 30 84t71 89q25 28 36.5 44.5t16.5 37.5q2 8 4.5 22.5t5.5 22t8 7.5q15 0 15 -52l-1 -22q0 -32 -12 -59t-33 -58q-10 -15 -20 -39t-10 -48q0 -28 18 -48t45 -20q26 0 42 13.5t16 34.5q0 16 -9.5 27.5t-25.5 11.5q-10 0 -22 -5t-20 -13
q8 35 25 52.5t50 17.5q25 0 47 -14t35 -36t13 -44q0 -60 -44 -94t-131 -34q-64 0 -107 33t-43 89z" />
    <glyph glyph-name="Agrave" unicode="&#xc0;" horiz-adv-x="917" 
d="M902 12q0 -7 -3 -9.5t-12 -2.5h-364q-9 0 -12 2.5t-3 9.5t3.5 10t17.5 3q12 0 17 2.5t5 8.5q0 9 -14 35l-76 148h-231l-15 -27l-64 -119l-1 -2q-14 -26 -14 -35q0 -6 5 -8.5t17 -2.5q14 0 17.5 -3t3.5 -10t-3 -9.5t-12 -2.5h-134q-9 0 -12 2.5t-3 9.5t3.5 10t17.5 3
q58 0 81 46q174 324 346 639l337 -639q23 -46 81 -46q14 0 17.5 -3t3.5 -10zM445 249l-97 186l-102 -186h199zM337 910l83 57l103 -173l-58 -41z" />
    <glyph glyph-name="Aacute" unicode="&#xc1;" horiz-adv-x="913" 
d="M902 12q0 -7 -3 -9.5t-12 -2.5h-364q-9 0 -12 2.5t-3 9.5t3.5 10t17.5 3q12 0 17 2.5t5 8.5q0 9 -14 35l-76 148h-231l-15 -27l-64 -119l-1 -2q-14 -26 -14 -35q0 -6 5 -8.5t17 -2.5q14 0 17.5 -3t3.5 -10t-3 -9.5t-12 -2.5h-134q-9 0 -12 2.5t-3 9.5t3.5 10t17.5 3
q58 0 81 46q174 324 346 639l337 -639q23 -46 81 -46q14 0 17.5 -3t3.5 -10zM445 249l-97 186l-102 -186h199zM353 781l103 173l83 -57l-128 -157z" />
    <glyph glyph-name="Acircumflex" unicode="&#xc2;" horiz-adv-x="913" 
d="M902 12q0 -7 -3 -9.5t-12 -2.5h-364q-9 0 -12 2.5t-3 9.5t3.5 10t17.5 3q12 0 17 2.5t5 8.5q0 9 -14 35l-76 148h-231l-15 -27l-64 -119l-1 -2q-14 -26 -14 -35q0 -6 5 -8.5t17 -2.5q14 0 17.5 -3t3.5 -10t-3 -9.5t-12 -2.5h-134q-9 0 -12 2.5t-3 9.5t3.5 10t17.5 3
q58 0 81 46q174 324 346 639l337 -639q23 -46 81 -46q14 0 17.5 -3t3.5 -10zM445 249l-97 186l-102 -186h199zM319 797l89 108h102l89 -108l-83 -57l-57 96l-57 -96z" />
    <glyph glyph-name="Atilde" unicode="&#xc3;" horiz-adv-x="917" 
d="M902 12q0 -7 -3 -9.5t-12 -2.5h-364q-9 0 -12 2.5t-3 9.5t3.5 10t17.5 3q12 0 17 2.5t5 8.5q0 9 -14 35l-76 148h-231l-15 -27l-64 -119l-1 -2q-14 -26 -14 -35q0 -6 5 -8.5t17 -2.5q14 0 17.5 -3t3.5 -10t-3 -9.5t-12 -2.5h-134q-9 0 -12 2.5t-3 9.5t3.5 10t17.5 3
q58 0 81 46q174 324 346 639l337 -639q23 -46 81 -46q14 0 17.5 -3t3.5 -10zM445 249l-97 186l-102 -186h199zM413 919q35 0 52.5 -9.5t33.5 -26.5q9 -10 15.5 -14.5t17.5 -4.5q43 0 67.5 15t21.5 40h19q2 -74 -39 -119t-108 -45q-26 0 -40 11t-28 33q-10 17 -19.5 25.5
t-24.5 8.5q-38 0 -61 -21.5t-21 -56.5h-19q-1 73 36 118.5t97 45.5z" />
    <glyph glyph-name="Adieresis" unicode="&#xc4;" horiz-adv-x="917" 
d="M902 12q0 -7 -3 -9.5t-12 -2.5h-364q-9 0 -12 2.5t-3 9.5t3.5 10t17.5 3q12 0 17 2.5t5 8.5q0 9 -14 35l-76 148h-231l-15 -27l-64 -119l-1 -2q-14 -26 -14 -35q0 -6 5 -8.5t17 -2.5q14 0 17.5 -3t3.5 -10t-3 -9.5t-12 -2.5h-134q-9 0 -12 2.5t-3 9.5t3.5 10t17.5 3
q58 0 81 46q174 324 346 639l337 -639q23 -46 81 -46q14 0 17.5 -3t3.5 -10zM445 249l-97 186l-102 -186h199zM307 760q0 49 -20.5 71.5t-65.5 22.5q-16 0 -21 2.5t-5 9.5q0 8 5.5 10.5t20.5 2.5q45 0 66 23t21 72q0 9 2.5 13t9.5 4t10 -3.5t3 -13.5q0 -52 20 -73.5
t70 -21.5q13 0 17.5 -2.5t4.5 -10.5q0 -7 -4.5 -9.5t-17.5 -2.5q-50 0 -70.5 -21t-20.5 -73q0 -11 -2.5 -15.5t-9.5 -4.5q-8 0 -10.5 4t-2.5 16zM597 760q0 49 -20.5 71.5t-65.5 22.5q-16 0 -21 2.5t-5 9.5q0 8 5.5 10.5t20.5 2.5q45 0 66 23t21 72q0 9 2.5 13t9.5 4
t10 -3.5t3 -13.5q0 -52 20 -73.5t70 -21.5q13 0 17.5 -2.5t4.5 -10.5q0 -7 -4.5 -9.5t-17.5 -2.5q-50 0 -70.5 -21t-20.5 -73q0 -11 -2.5 -15.5t-9.5 -4.5q-8 0 -10.5 4t-2.5 16z" />
    <glyph glyph-name="Aring" unicode="&#xc5;" horiz-adv-x="917" 
d="M902 12q0 -7 -3 -9.5t-12 -2.5h-364q-9 0 -12 2.5t-3 9.5t3.5 10t17.5 3q12 0 17 2.5t5 8.5q0 9 -14 35l-76 148h-231l-15 -27l-64 -119l-1 -2q-14 -26 -14 -35q0 -6 5 -8.5t17 -2.5q14 0 17.5 -3t3.5 -10t-3 -9.5t-12 -2.5h-134q-9 0 -12 2.5t-3 9.5t3.5 10t17.5 3
q58 0 81 46q174 324 346 639l337 -639q23 -46 81 -46q14 0 17.5 -3t3.5 -10zM445 249l-97 186l-102 -186h199zM352 864q0 44 32 75.5t77 31.5q43 0 75 -31.5t32 -75.5q0 -30 -15 -56.5t-39.5 -42t-52.5 -15.5q-44 0 -76.5 34t-32.5 80zM501 861q0 17 -12.5 29t-28.5 12
q-17 0 -29 -12t-12 -29t12 -29.5t29 -12.5t29 12.5t12 29.5z" />
    <glyph glyph-name="AE" unicode="&#xc6;" horiz-adv-x="951" 
d="M65 12q0 7 3.5 10t17.5 3q55 0 76 48l200 455q0 58 -8.5 86t-29.5 28q-22 0 -54 -36q-1 1 -1.5 5t-0.5 8q0 20 23.5 38t51.5 18q9 0 19 -3v28h530v-161q0 -9 -4 -13.5t-10 -4.5q-15 0 -15 32q0 57 -41 87t-124 30q-53 0 -79 -12.5t-26 -37.5v-533q0 -35 19.5 -46.5
t54.5 -11.5q90 0 143 28.5t53 89.5q0 32 15 32q6 0 10 -4.5t4 -13.5v-161h-812q-9 0 -12 2.5t-3 9.5zM729 362q0 32 -20 52.5t-51 20.5q-17 0 -17 6t17 6q31 0 51 21t20 53q0 13 5 13q6 0 6 -15q0 -31 20 -51.5t51 -20.5q16 0 16 -6t-16 -6q-31 0 -51 -20t-20 -51
q0 -16 -6 -16q-5 0 -5 14zM362 439q-5 0 -10 -9l-80 -179q0 -3 -1 -4.5t-1 -3.5q0 -10 13 -10h79v206zM362 80v128h-97q-13 0 -17 -11l-53 -128q-3 -6 -3 -12q0 -17 23 -22t63 -5q36 0 52.5 2.5t24 13t7.5 34.5z" />
    <glyph glyph-name="Ccedilla" unicode="&#xc7;" horiz-adv-x="731" 
d="M650 56q-39 -30 -102 -48t-128 -18q-16 0 -46 2l-4 -33q9 3 26 3q100 0 100 -95q0 -23 -16.5 -44.5t-43 -34.5t-54.5 -13q-34 0 -58.5 17.5t-24.5 41.5q0 21 17 38.5t38 17.5q17 0 31.5 -15t16.5 -34q-5 5 -13 8t-12 3q-14 0 -14 -17q0 -16 19 -16q31 0 31 55
q0 21 -10 38t-21 17q-10 0 -16 -14q-4 -8 -13.5 -12.5t-21.5 -4.5h-10q-2 2 -4 2h-7l12 100q-119 27 -188 115t-69 215q0 113 44.5 199t125 133.5t185.5 47.5l114 -10l87 10q6 0 9.5 -4t3.5 -11v-146q0 -8 -3.5 -13t-9.5 -5q-8 0 -12.5 10.5t-4.5 26.5q0 52 -35.5 84
t-94.5 32q-67 0 -108 -40t-41 -105v-400q0 -53 35 -85.5t92 -32.5q35 0 85.5 16.5t96.5 43.5q13 10 27 10q5 0 8 -3q6 -6 0.5 -15t-19.5 -17z" />
    <glyph glyph-name="Egrave" unicode="&#xc8;" horiz-adv-x="714" 
d="M65 12q0 7 3.5 10t17.5 3q23 0 33.5 12.5t10.5 42.5v540q0 30 -10.5 42.5t-33.5 12.5q-14 0 -17.5 3t-3.5 10t3 9.5t12 2.5h579v-161q0 -8 -4.5 -13t-12.5 -5q-6 0 -9.5 9t-3.5 23q0 52 -45 84.5t-119 32.5q-47 0 -76 -13.5t-29 -36.5v-540q0 -22 29 -36t76 -14
q74 0 119 32.5t45 84.5q0 14 3.5 23t9.5 9q8 0 12.5 -5t4.5 -13v-161h-579q-9 0 -12 2.5t-3 9.5zM505 329q0 49 -20.5 71.5t-65.5 22.5q-16 0 -21 2.5t-5 9.5q0 8 5.5 10.5t20.5 2.5q45 0 66 23t21 72q0 9 2.5 13t9.5 4t10 -3.5t3 -13.5q0 -52 20 -73.5t70 -21.5
q13 0 17.5 -2.5t4.5 -10.5q0 -7 -4.5 -9.5t-17.5 -2.5q-50 0 -70.5 -21t-20.5 -73q0 -11 -2.5 -15.5t-9.5 -4.5q-8 0 -10.5 4t-2.5 16zM269 910l83 57l103 -173l-58 -41z" />
    <glyph glyph-name="Eacute" unicode="&#xc9;" horiz-adv-x="714" 
d="M65 12q0 7 3.5 10t17.5 3q23 0 33.5 12.5t10.5 42.5v540q0 30 -10.5 42.5t-33.5 12.5q-14 0 -17.5 3t-3.5 10t3 9.5t12 2.5h579v-161q0 -8 -4.5 -13t-12.5 -5q-6 0 -9.5 9t-3.5 23q0 52 -45 84.5t-119 32.5q-47 0 -76 -13.5t-29 -36.5v-540q0 -22 29 -36t76 -14
q74 0 119 32.5t45 84.5q0 14 3.5 23t9.5 9q8 0 12.5 -5t4.5 -13v-161h-579q-9 0 -12 2.5t-3 9.5zM505 329q0 49 -20.5 71.5t-65.5 22.5q-16 0 -21 2.5t-5 9.5q0 8 5.5 10.5t20.5 2.5q45 0 66 23t21 72q0 9 2.5 13t9.5 4t10 -3.5t3 -13.5q0 -52 20 -73.5t70 -21.5
q13 0 17.5 -2.5t4.5 -10.5q0 -7 -4.5 -9.5t-17.5 -2.5q-50 0 -70.5 -21t-20.5 -73q0 -11 -2.5 -15.5t-9.5 -4.5q-8 0 -10.5 4t-2.5 16zM269 794l103 173l83 -57l-128 -157z" />
    <glyph glyph-name="Ecircumflex" unicode="&#xca;" horiz-adv-x="714" 
d="M65 12q0 7 3.5 10t17.5 3q23 0 33.5 12.5t10.5 42.5v540q0 30 -10.5 42.5t-33.5 12.5q-14 0 -17.5 3t-3.5 10t3 9.5t12 2.5h579v-161q0 -8 -4.5 -13t-12.5 -5q-6 0 -9.5 9t-3.5 23q0 52 -45 84.5t-119 32.5q-47 0 -76 -13.5t-29 -36.5v-540q0 -22 29 -36t76 -14
q74 0 119 32.5t45 84.5q0 14 3.5 23t9.5 9q8 0 12.5 -5t4.5 -13v-161h-579q-9 0 -12 2.5t-3 9.5zM505 329q0 49 -20.5 71.5t-65.5 22.5q-16 0 -21 2.5t-5 9.5q0 8 5.5 10.5t20.5 2.5q45 0 66 23t21 72q0 9 2.5 13t9.5 4t10 -3.5t3 -13.5q0 -52 20 -73.5t70 -21.5
q13 0 17.5 -2.5t4.5 -10.5q0 -7 -4.5 -9.5t-17.5 -2.5q-50 0 -70.5 -21t-20.5 -73q0 -11 -2.5 -15.5t-9.5 -4.5q-8 0 -10.5 4t-2.5 16zM222 810l89 108h102l89 -108l-83 -57l-57 96l-57 -96z" />
    <glyph glyph-name="Edieresis" unicode="&#xcb;" horiz-adv-x="714" 
d="M65 12q0 7 3.5 10t17.5 3q23 0 33.5 12.5t10.5 42.5v540q0 30 -10.5 42.5t-33.5 12.5q-14 0 -17.5 3t-3.5 10t3 9.5t12 2.5h579v-161q0 -8 -4.5 -13t-12.5 -5q-6 0 -9.5 9t-3.5 23q0 52 -45 84.5t-119 32.5q-47 0 -76 -13.5t-29 -36.5v-540q0 -22 29 -36t76 -14
q74 0 119 32.5t45 84.5q0 14 3.5 23t9.5 9q8 0 12.5 -5t4.5 -13v-161h-579q-9 0 -12 2.5t-3 9.5zM505 329q0 49 -20.5 71.5t-65.5 22.5q-16 0 -21 2.5t-5 9.5q0 8 5.5 10.5t20.5 2.5q45 0 66 23t21 72q0 9 2.5 13t9.5 4t10 -3.5t3 -13.5q0 -52 20 -73.5t70 -21.5
q13 0 17.5 -2.5t4.5 -10.5q0 -7 -4.5 -9.5t-17.5 -2.5q-50 0 -70.5 -21t-20.5 -73q0 -11 -2.5 -15.5t-9.5 -4.5q-8 0 -10.5 4t-2.5 16zM204 760q0 49 -20.5 71.5t-65.5 22.5q-16 0 -21 2.5t-5 9.5q0 8 5.5 10.5t20.5 2.5q45 0 66 23t21 72q0 9 2.5 13t9.5 4t10 -3.5t3 -13.5
q0 -52 20 -73.5t70 -21.5q13 0 17.5 -2.5t4.5 -10.5q0 -7 -4.5 -9.5t-17.5 -2.5q-50 0 -70.5 -21t-20.5 -73q0 -11 -2.5 -15.5t-9.5 -4.5q-8 0 -10.5 4t-2.5 16zM494 760q0 49 -20.5 71.5t-65.5 22.5q-16 0 -21 2.5t-5 9.5q0 8 5.5 10.5t20.5 2.5q45 0 66 23t21 72
q0 9 2.5 13t9.5 4t10 -3.5t3 -13.5q0 -52 20 -73.5t70 -21.5q13 0 17.5 -2.5t4.5 -10.5q0 -7 -4.5 -9.5t-17.5 -2.5q-50 0 -70.5 -21t-20.5 -73q0 -11 -2.5 -15.5t-9.5 -4.5q-8 0 -10.5 4t-2.5 16z" />
    <glyph glyph-name="Igrave" unicode="&#xcc;" horiz-adv-x="484" 
d="M65 12q0 7 3.5 10t17.5 3q23 0 33.5 12.5t10.5 42.5v540q0 30 -10.5 42.5t-33.5 12.5q-14 0 -17.5 3t-3.5 10t3 9.5t12 2.5h330q9 0 12 -2.5t3 -9.5t-3.5 -10t-17.5 -3q-23 0 -33.5 -12.5t-10.5 -42.5v-540q0 -30 10.5 -42.5t33.5 -12.5q14 0 17.5 -3t3.5 -10t-3 -9.5
t-12 -2.5h-330q-9 0 -12 2.5t-3 9.5zM152 910l83 57l103 -173l-58 -41z" />
    <glyph glyph-name="Iacute" unicode="&#xcd;" horiz-adv-x="484" 
d="M65 12q0 7 3.5 10t17.5 3q23 0 33.5 12.5t10.5 42.5v540q0 30 -10.5 42.5t-33.5 12.5q-14 0 -17.5 3t-3.5 10t3 9.5t12 2.5h330q9 0 12 -2.5t3 -9.5t-3.5 -10t-17.5 -3q-23 0 -33.5 -12.5t-10.5 -42.5v-540q0 -30 10.5 -42.5t33.5 -12.5q14 0 17.5 -3t3.5 -10t-3 -9.5
t-12 -2.5h-330q-9 0 -12 2.5t-3 9.5zM172 794l103 173l83 -57l-128 -157z" />
    <glyph glyph-name="Icircumflex" unicode="&#xce;" horiz-adv-x="484" 
d="M65 12q0 7 3.5 10t17.5 3q23 0 33.5 12.5t10.5 42.5v540q0 30 -10.5 42.5t-33.5 12.5q-14 0 -17.5 3t-3.5 10t3 9.5t12 2.5h330q9 0 12 -2.5t3 -9.5t-3.5 -10t-17.5 -3q-23 0 -33.5 -12.5t-10.5 -42.5v-540q0 -30 10.5 -42.5t33.5 -12.5q14 0 17.5 -3t3.5 -10t-3 -9.5
t-12 -2.5h-330q-9 0 -12 2.5t-3 9.5zM105 810l89 108h102l89 -108l-83 -57l-57 96l-57 -96z" />
    <glyph glyph-name="Idieresis" unicode="&#xcf;" horiz-adv-x="484" 
d="M65 12q0 7 3.5 10t17.5 3q23 0 33.5 12.5t10.5 42.5v540q0 30 -10.5 42.5t-33.5 12.5q-14 0 -17.5 3t-3.5 10t3 9.5t12 2.5h330q9 0 12 -2.5t3 -9.5t-3.5 -10t-17.5 -3q-23 0 -33.5 -12.5t-10.5 -42.5v-540q0 -30 10.5 -42.5t33.5 -12.5q14 0 17.5 -3t3.5 -10t-3 -9.5
t-12 -2.5h-330q-9 0 -12 2.5t-3 9.5zM87 760q0 49 -20.5 71.5t-65.5 22.5q-16 0 -21 2.5t-5 9.5q0 8 5.5 10.5t20.5 2.5q45 0 66 23t21 72q0 9 2.5 13t9.5 4t10 -3.5t3 -13.5q0 -52 20 -73.5t70 -21.5q13 0 17.5 -2.5t4.5 -10.5q0 -7 -4.5 -9.5t-17.5 -2.5q-50 0 -70.5 -21
t-20.5 -73q0 -11 -2.5 -15.5t-9.5 -4.5q-8 0 -10.5 4t-2.5 16zM377 760q0 49 -20.5 71.5t-65.5 22.5q-16 0 -21 2.5t-5 9.5q0 8 5.5 10.5t20.5 2.5q45 0 66 23t21 72q0 9 2.5 13t9.5 4t10 -3.5t3 -13.5q0 -52 20 -73.5t70 -21.5q13 0 17.5 -2.5t4.5 -10.5q0 -7 -4.5 -9.5
t-17.5 -2.5q-50 0 -70.5 -21t-20.5 -73q0 -11 -2.5 -15.5t-9.5 -4.5q-8 0 -10.5 4t-2.5 16z" />
    <glyph glyph-name="Eth" unicode="&#xd0;" horiz-adv-x="946" 
d="M123 12q0 7 3.5 10t17.5 3q23 0 33.5 12.5t10.5 42.5v355h-123v50h123v135q0 30 -10.5 42.5t-33.5 12.5q-14 0 -17.5 3t-3.5 10t3 9.5t12 2.5h387q108 0 190.5 -42.5t128 -119.5t45.5 -178q0 -107 -48 -188.5t-135.5 -126.5t-202.5 -45h-365q-9 0 -12 2.5t-3 9.5z
M644 151v402q0 56 -34.5 90t-91.5 34q-45 0 -72.5 -15.5t-27.5 -41.5v-135h105v-50h-105v-355q0 -26 25 -42t66 -16q61 0 98 35.5t37 93.5z" />
    <glyph glyph-name="Ntilde" unicode="&#xd1;" horiz-adv-x="860" 
d="M524 180q-241 215 -349 312q-6 4 -8 4q-7 0 -7 -11v-405q0 -30 10.5 -42.5t33.5 -12.5q14 0 17.5 -3t3.5 -10t-3 -9.5t-12 -2.5h-130q-9 0 -12 2.5t-3 9.5t3.5 10t17.5 3q23 0 33.5 12.5t10.5 42.5v540q0 30 -10.5 42.5t-33.5 12.5q-14 0 -17.5 3t-3.5 10t3 9.5t12 2.5
h158q18 0 44.5 -10t39.5 -22l369 -330l8 -4q7 0 7 11v275q0 30 -10.5 42.5t-33.5 12.5q-14 0 -17.5 3t-3.5 10t3 9.5t12 2.5h130q9 0 12 -2.5t3 -9.5t-3.5 -10t-17.5 -3q-23 0 -33.5 -12.5t-10.5 -42.5v-630q0 2 -212 190zM386 919q35 0 52.5 -9.5t33.5 -26.5
q9 -10 15.5 -14.5t17.5 -4.5q43 0 67.5 15t21.5 40h19q2 -74 -39 -119t-108 -45q-26 0 -40 11t-28 33q-10 17 -19.5 25.5t-24.5 8.5q-38 0 -61 -21.5t-21 -56.5h-19q-1 73 36 118.5t97 45.5z" />
    <glyph glyph-name="Ograve" unicode="&#xd2;" horiz-adv-x="936" 
d="M65 341q0 109 52.5 192.5t144.5 130t208 46.5q121 0 213 -43.5t143 -123t51 -183.5q0 -110 -51 -194t-143 -130t-213 -46q-199 0 -302 94t-103 257zM627 155v394q0 64 -43 102.5t-114 38.5q-65 0 -105 -38.5t-40 -102.5v-394q0 -65 40 -105t105 -40q71 0 114 40t43 105z
M378 910l83 57l103 -173l-58 -41z" />
    <glyph glyph-name="Oacute" unicode="&#xd3;" horiz-adv-x="936" 
d="M65 341q0 109 52.5 192.5t144.5 130t208 46.5q121 0 213 -43.5t143 -123t51 -183.5q0 -110 -51 -194t-143 -130t-213 -46q-199 0 -302 94t-103 257zM627 155v394q0 64 -43 102.5t-114 38.5q-65 0 -105 -38.5t-40 -102.5v-394q0 -65 40 -105t105 -40q71 0 114 40t43 105z
M378 794l103 173l83 -57l-128 -157z" />
    <glyph glyph-name="Ocircumflex" unicode="&#xd4;" horiz-adv-x="936" 
d="M65 341q0 109 52.5 192.5t144.5 130t208 46.5q121 0 213 -43.5t143 -123t51 -183.5q0 -110 -51 -194t-143 -130t-213 -46q-199 0 -302 94t-103 257zM627 155v394q0 64 -43 102.5t-114 38.5q-65 0 -105 -38.5t-40 -102.5v-394q0 -65 40 -105t105 -40q71 0 114 40t43 105z
M331 810l89 108h102l89 -108l-83 -57l-57 96l-57 -96z" />
    <glyph glyph-name="Otilde" unicode="&#xd5;" horiz-adv-x="936" 
d="M424 909q32 0 48.5 -9t32.5 -25q11 -11 18.5 -16t19.5 -5q42 0 68 15t26 40h9q0 -70 -39 -112t-103 -42q-23 0 -35.5 10.5t-27.5 31.5q-11 18 -21.5 27t-27.5 9q-39 0 -63 -21.5t-24 -56.5h-9q0 69 35.5 111.5t92.5 42.5zM65 341q0 109 50.5 193t142.5 130t212 46
q121 0 213 -43.5t143 -123t51 -183.5q0 -110 -51 -194t-143 -130t-213 -46q-120 0 -212 43.5t-142.5 123.5t-50.5 184zM627 155v394q0 64 -43 102.5t-114 38.5q-65 0 -105 -38.5t-40 -102.5v-394q0 -65 40 -105t105 -40q71 0 114 40t43 105z" />
    <glyph glyph-name="Odieresis" unicode="&#xd6;" horiz-adv-x="936" 
d="M65 341q0 109 52.5 192.5t144.5 130t208 46.5q121 0 213 -43.5t143 -123t51 -183.5q0 -110 -51 -194t-143 -130t-213 -46q-199 0 -302 94t-103 257zM627 155v394q0 64 -43 102.5t-114 38.5q-65 0 -105 -38.5t-40 -102.5v-394q0 -65 40 -105t105 -40q71 0 114 40t43 105z
M313 760q0 49 -20.5 71.5t-65.5 22.5q-16 0 -21 2.5t-5 9.5q0 8 5.5 10.5t20.5 2.5q45 0 66 23t21 72q0 9 2.5 13t9.5 4t10 -3.5t3 -13.5q0 -52 20 -73.5t70 -21.5q13 0 17.5 -2.5t4.5 -10.5q0 -7 -4.5 -9.5t-17.5 -2.5q-50 0 -70.5 -21t-20.5 -73q0 -11 -2.5 -15.5
t-9.5 -4.5q-8 0 -10.5 4t-2.5 16zM603 760q0 49 -20.5 71.5t-65.5 22.5q-16 0 -21 2.5t-5 9.5q0 8 5.5 10.5t20.5 2.5q45 0 66 23t21 72q0 9 2.5 13t9.5 4t10 -3.5t3 -13.5q0 -52 20 -73.5t70 -21.5q13 0 17.5 -2.5t4.5 -10.5q0 -7 -4.5 -9.5t-17.5 -2.5q-50 0 -70.5 -21
t-20.5 -73q0 -11 -2.5 -15.5t-9.5 -4.5q-8 0 -10.5 4t-2.5 16z" />
    <glyph glyph-name="multiply" unicode="&#xd7;" horiz-adv-x="339" 
d="M33 199l84 84l-83 83l53 53l83 -83l83 83l54 -54l-83 -83l83 -83l-53 -53l-83 83l-84 -84z" />
    <glyph glyph-name="Oslash" unicode="&#xd8;" horiz-adv-x="936" 
d="M287 14l-10 -14h-92l31 44q-68 38 -109.5 119.5t-41.5 177.5q0 109 50.5 193t142.5 130t212 46q49 0 102 -7.5t91 -19.5l12 17h92l-34 -49q65 -38 104.5 -118.5t39.5 -172.5q0 -110 -51 -194t-143 -130t-213 -46q-46 0 -96.5 6.5t-86.5 17.5zM615 615q-14 34 -53.5 54.5
t-91.5 20.5q-65 0 -105 -38.5t-40 -102.5v-349zM627 155v345l-290 -415q13 -34 49.5 -54.5t83.5 -20.5q71 0 114 40t43 105z" />
    <glyph glyph-name="Ugrave" unicode="&#xd9;" horiz-adv-x="836" 
d="M132 265l-1 355q-1 30 -11.5 42.5t-33.5 12.5q-14 0 -17.5 3t-3.5 10t3 9.5t12 2.5h331q9 0 12 -2.5t3 -9.5t-3.5 -10t-17.5 -3q-23 0 -33.5 -12.5t-10.5 -42.5v-365q0 -92 45.5 -148t120.5 -56q82 0 132 51t50 135v383q0 30 -10.5 42.5t-33.5 12.5q-14 0 -17.5 3
t-3.5 10t3 9.5t12 2.5h130q9 0 12 -2.5t3 -9.5t-3.5 -10t-17.5 -3q-23 0 -33.5 -12.5t-10.5 -42.5v-385q0 -73 -33 -129t-93 -86.5t-139 -30.5q-102 0 -179.5 34.5t-120 97t-42.5 144.5zM371 910l83 57l103 -173l-58 -41z" />
    <glyph glyph-name="Uacute" unicode="&#xda;" horiz-adv-x="863" 
d="M132 265l-1 355q-1 30 -11.5 42.5t-33.5 12.5q-14 0 -17.5 3t-3.5 10t3 9.5t12 2.5h331q9 0 12 -2.5t3 -9.5t-3.5 -10t-17.5 -3q-23 0 -33.5 -12.5t-10.5 -42.5v-365q0 -92 45.5 -148t120.5 -56q82 0 132 51t50 135v383q0 30 -10.5 42.5t-33.5 12.5q-14 0 -17.5 3
t-3.5 10t3 9.5t12 2.5h130q9 0 12 -2.5t3 -9.5t-3.5 -10t-17.5 -3q-23 0 -33.5 -12.5t-10.5 -42.5v-385q0 -73 -33 -129t-93 -86.5t-139 -30.5q-102 0 -179.5 34.5t-120 97t-42.5 144.5zM403 794l103 173l83 -57l-128 -157z" />
    <glyph glyph-name="Ucircumflex" unicode="&#xdb;" horiz-adv-x="863" 
d="M415 913h98l84 -102l-74 -51l-59 99l-59 -99l-74 51zM132 265l-1 355q-1 30 -11.5 42.5t-33.5 12.5q-14 0 -17.5 3t-3.5 10t3 9.5t12 2.5h331q9 0 12 -2.5t3 -9.5t-3.5 -10t-17.5 -3q-23 0 -33.5 -12.5t-10.5 -42.5v-365q0 -92 45.5 -148t120.5 -56q82 0 132 51t50 135
v383q0 30 -10.5 42.5t-33.5 12.5q-14 0 -17.5 3t-3.5 10t3 9.5t12 2.5h130q9 0 12 -2.5t3 -9.5t-3.5 -10t-17.5 -3q-23 0 -33.5 -12.5t-10.5 -42.5v-385q0 -73 -33 -129t-93 -86.5t-139 -30.5q-102 0 -179.5 34.5t-120 97t-42.5 144.5z" />
    <glyph glyph-name="Udieresis" unicode="&#xdc;" horiz-adv-x="836" 
d="M132 265l-1 355q-1 30 -11.5 42.5t-33.5 12.5q-14 0 -17.5 3t-3.5 10t3 9.5t12 2.5h331q9 0 12 -2.5t3 -9.5t-3.5 -10t-17.5 -3q-23 0 -33.5 -12.5t-10.5 -42.5v-365q0 -92 45.5 -148t120.5 -56q82 0 132 51t50 135v383q0 30 -10.5 42.5t-33.5 12.5q-14 0 -17.5 3
t-3.5 10t3 9.5t12 2.5h130q9 0 12 -2.5t3 -9.5t-3.5 -10t-17.5 -3q-23 0 -33.5 -12.5t-10.5 -42.5v-385q0 -73 -33 -129t-93 -86.5t-139 -30.5q-102 0 -179.5 34.5t-120 97t-42.5 144.5zM306 760q0 49 -20.5 71.5t-65.5 22.5q-16 0 -21 2.5t-5 9.5q0 8 5.5 10.5t20.5 2.5
q45 0 66 23t21 72q0 9 2.5 13t9.5 4t10 -3.5t3 -13.5q0 -52 20 -73.5t70 -21.5q13 0 17.5 -2.5t4.5 -10.5q0 -7 -4.5 -9.5t-17.5 -2.5q-50 0 -70.5 -21t-20.5 -73q0 -11 -2.5 -15.5t-9.5 -4.5q-8 0 -10.5 4t-2.5 16zM596 760q0 49 -20.5 71.5t-65.5 22.5q-16 0 -21 2.5
t-5 9.5q0 8 5.5 10.5t20.5 2.5q45 0 66 23t21 72q0 9 2.5 13t9.5 4t10 -3.5t3 -13.5q0 -52 20 -73.5t70 -21.5q13 0 17.5 -2.5t4.5 -10.5q0 -7 -4.5 -9.5t-17.5 -2.5q-50 0 -70.5 -21t-20.5 -73q0 -11 -2.5 -15.5t-9.5 -4.5q-8 0 -10.5 4t-2.5 16z" />
    <glyph glyph-name="Yacute" unicode="&#xdd;" horiz-adv-x="947" 
d="M314 12q0 7 3.5 10t17.5 3q23 0 33.5 12.5t10.5 42.5v51l-262 498q-23 46 -81 46q-14 0 -17.5 3t-3.5 10t3 9.5t12 2.5h358q9 0 12 -2.5t3 -9.5t-3.5 -10t-17.5 -3q-12 0 -17 -2t-5 -7q0 -6 7.5 -19t9.5 -17l1 -2l210 -400l209 400q14 28 14 36q0 5 -6 8t-16 3
q-12 0 -16.5 3t-4.5 10q0 6 3 9t12 3h134q15 0 15 -12q0 -7 -4 -10t-17 -3q-26 0 -48 -12.5t-32 -34.5q-13 -25 -40 -76.5t-63 -122.5q-106 -200 -128 -244v-105q0 -30 10.5 -42.5t33.5 -12.5q14 0 17.5 -3t3.5 -10t-3 -9.5t-12 -2.5h-321q-9 0 -12 2.5t-3 9.5zM508 564
q0 32 21.5 54.5t52.5 22.5q28 0 47.5 -18t19.5 -43q0 -14 -7 -27.5t-19 -22.5q-4 -5 -9 -5h-2q-5 0 -8.5 3.5t-3.5 8.5q0 11 10 15q12 12 12 26q0 15 -11.5 25t-28.5 10q-20 0 -33.5 -14t-13.5 -35q0 -24 17 -41t41 -17q28 0 49 23t21 53t-22.5 51.5t-54.5 21.5
q-28 0 -53 -17.5t-37 -45.5q-4 -10 -8 -14t-9 -4t-9 4t-4 9q0 3 4 15q18 36 49.5 58t66.5 22q44 0 74.5 -29.5t30.5 -70.5q0 -42 -29.5 -73t-68.5 -31q-35 0 -60 25t-25 61zM385 794l103 173l83 -57l-128 -157z" />
    <glyph glyph-name="Thorn" unicode="&#xde;" horiz-adv-x="767" 
d="M65 12q0 7 3.5 10t17.5 3q23 0 33.5 12.5t10.5 42.5v540q0 30 -10.5 42.5t-33.5 12.5q-14 0 -17.5 3t-3.5 10t3 9.5t12 2.5h256q7 0 11 -4t4 -11v-125q19 26 70 42t116 16q59 0 104 -27t70 -76.5t25 -113.5q0 -76 -25 -135.5t-70.5 -93.5t-105.5 -37q-30 -1 -80.5 13
t-103.5 38v-106q0 -30 10.5 -42.5t33.5 -12.5q14 0 17.5 -3t3.5 -10t-3 -9.5t-12 -2.5h-321q-9 0 -12 2.5t-3 9.5zM496 247v238q0 35 -21 57t-55 22q-31 0 -50 -22t-19 -57v-238q0 -26 19 -42t50 -16q34 0 55 16t21 42z" />
    <glyph glyph-name="germandbls" unicode="&#xdf;" horiz-adv-x="842" 
d="M783 148q0 -67 -47.5 -107.5t-124.5 -40.5h-147l-41 -10q-8 0 -8 10v59q-22 -28 -58.5 -43.5t-83.5 -15.5h-147l-41 -10q-8 0 -8 10v141q0 12 8 12q4 0 6.5 -3.5t2.5 -8.5q0 -52 30 -84.5t78 -32.5q27 0 43.5 12t16.5 31q0 22 -15.5 40.5t-40.5 27.5q-61 20 -98 58.5
t-37 80.5q0 74 53.5 119t140.5 45h49l20 5q12 5 24 5q7 0 7 -10v-91q0 -4 -2 -6.5t-5 -2.5q-4 0 -6.5 4t-2.5 11q0 28 -20.5 44t-55.5 16q-26 0 -42.5 -10.5t-16.5 -26.5q0 -14 10 -24.5t27 -13.5q55 -10 97.5 -35t66.5 -62q-6 17 -6 33q0 74 53.5 119t140.5 45h49l21 5
q12 5 24 5q7 0 7 -10v-91q0 -4 -2 -6.5t-5 -2.5q-4 0 -6.5 4t-2.5 11q0 28 -21 44t-56 16q-26 0 -42 -10.5t-16 -26.5q0 -14 10 -24.5t26 -13.5q87 -15 140.5 -67.5t53.5 -122.5zM600 67q0 22 -15.5 40.5t-40.5 27.5q-73 25 -112 76q13 -27 13 -63q0 -26 -7 -46
q10 -36 37 -57t65 -21q28 0 44 11.5t16 31.5z" />
    <glyph glyph-name="agrave" unicode="&#xe0;" horiz-adv-x="687" 
d="M33 139q0 68 50.5 110t133.5 42q24 0 57 -7t65 -18l36 -13q5 0 5 6q0 66 -22 106.5t-57 40.5q-18 0 -46 -11t-55 -29q-13 -7 -23 -7q-8 0 -8 7q0 10 19 26q31 24 74.5 38.5t83.5 14.5q75 0 132.5 -25t89 -70.5t31.5 -104.5v-165q0 -30 10.5 -42.5t33.5 -12.5
q14 0 17.5 -3t3.5 -10t-3 -9.5t-12 -2.5h-256q-7 0 -11 4.5t-3 11.5v16q0 7 -5 7q5 0 -28 -14q-44 -16 -83 -25.5t-59 -9.5q-77 0 -124 41t-47 108zM379 111v74q0 28 -18.5 44.5t-49.5 16.5q-26 0 -42 -19.5t-16 -51.5v-84q0 -22 16 -35t42 -13q31 0 49.5 18.5t18.5 49.5z
M260 645l83 57l103 -173l-58 -41z" />
    <glyph glyph-name="aacute" unicode="&#xe1;" horiz-adv-x="687" 
d="M33 139q0 68 50.5 110t133.5 42q24 0 57 -7t65 -18l36 -13q5 0 5 6q0 66 -22 106.5t-57 40.5q-18 0 -46 -11t-55 -29q-13 -7 -23 -7q-8 0 -8 7q0 10 19 26q31 24 74.5 38.5t83.5 14.5q75 0 132.5 -25t89 -70.5t31.5 -104.5v-165q0 -30 10.5 -42.5t33.5 -12.5
q14 0 17.5 -3t3.5 -10t-3 -9.5t-12 -2.5h-256q-7 0 -11 4.5t-3 11.5v16q0 7 -5 7q5 0 -28 -14q-44 -16 -83 -25.5t-59 -9.5q-77 0 -124 41t-47 108zM379 111v74q0 28 -18.5 44.5t-49.5 16.5q-26 0 -42 -19.5t-16 -51.5v-84q0 -22 16 -35t42 -13q31 0 49.5 18.5t18.5 49.5z
M260 529l103 173l83 -57l-128 -157z" />
    <glyph glyph-name="acircumflex" unicode="&#xe2;" horiz-adv-x="687" 
d="M33 139q0 68 50.5 110t133.5 42q24 0 57 -7t65 -18l36 -13q5 0 5 6q0 66 -22 106.5t-57 40.5q-18 0 -46 -11t-55 -29q-13 -7 -23 -7q-8 0 -8 7q0 10 19 26q31 24 74.5 38.5t83.5 14.5q75 0 132.5 -25t89 -70.5t31.5 -104.5v-165q0 -30 10.5 -42.5t33.5 -12.5
q14 0 17.5 -3t3.5 -10t-3 -9.5t-12 -2.5h-256q-7 0 -11 4.5t-3 11.5v16q0 7 -5 7q5 0 -28 -14q-44 -16 -83 -25.5t-59 -9.5q-77 0 -124 41t-47 108zM379 111v74q0 28 -18.5 44.5t-49.5 16.5q-26 0 -42 -19.5t-16 -51.5v-84q0 -22 16 -35t42 -13q31 0 49.5 18.5t18.5 49.5z
M213 545l89 108h102l89 -108l-83 -57l-57 96l-57 -96z" />
    <glyph glyph-name="atilde" unicode="&#xe3;" horiz-adv-x="687" 
d="M33 139q0 68 50.5 110t133.5 42q24 0 57 -7t65 -18l36 -13q5 0 5 6q0 66 -22 106.5t-57 40.5q-18 0 -46 -11t-55 -29q-13 -7 -23 -7q-8 0 -8 7q0 10 19 26q31 24 74.5 38.5t83.5 14.5q75 0 132.5 -25t89 -70.5t31.5 -104.5v-165q0 -30 10.5 -42.5t33.5 -12.5
q14 0 17.5 -3t3.5 -10t-3 -9.5t-12 -2.5h-256q-7 0 -11 4.5t-3 11.5v16q0 7 -5 7q5 0 -28 -14q-44 -16 -83 -25.5t-59 -9.5q-77 0 -124 41t-47 108zM379 111v74q0 28 -18.5 44.5t-49.5 16.5q-26 0 -42 -19.5t-16 -51.5v-84q0 -22 16 -35t42 -13q31 0 49.5 18.5t18.5 49.5z
M306 654q35 0 52.5 -9.5t33.5 -26.5q9 -10 15.5 -14.5t17.5 -4.5q43 0 67.5 15t21.5 40h19q2 -74 -39 -119t-108 -45q-26 0 -40 11t-28 33q-10 17 -19.5 25.5t-24.5 8.5q-38 0 -61 -21.5t-21 -56.5h-19q-1 73 36 118.5t97 45.5z" />
    <glyph glyph-name="adieresis" unicode="&#xe4;" horiz-adv-x="687" 
d="M33 139q0 68 50.5 110t133.5 42q24 0 57 -7t65 -18l36 -13q5 0 5 6q0 66 -22 106.5t-57 40.5q-18 0 -46 -11t-55 -29q-13 -7 -23 -7q-8 0 -8 7q0 10 19 26q31 24 74.5 38.5t83.5 14.5q75 0 132.5 -25t89 -70.5t31.5 -104.5v-165q0 -30 10.5 -42.5t33.5 -12.5
q14 0 17.5 -3t3.5 -10t-3 -9.5t-12 -2.5h-256q-7 0 -11 4.5t-3 11.5v16q0 7 -5 7q5 0 -28 -14q-44 -16 -83 -25.5t-59 -9.5q-77 0 -124 41t-47 108zM379 111v74q0 28 -18.5 44.5t-49.5 16.5q-26 0 -42 -19.5t-16 -51.5v-84q0 -22 16 -35t42 -13q31 0 49.5 18.5t18.5 49.5z
M195 495q0 49 -20.5 71.5t-65.5 22.5q-16 0 -21 2.5t-5 9.5q0 8 5.5 10.5t20.5 2.5q45 0 66 23t21 72q0 9 2.5 13t9.5 4t10 -3.5t3 -13.5q0 -52 20 -73.5t70 -21.5q13 0 17.5 -2.5t4.5 -10.5q0 -7 -4.5 -9.5t-17.5 -2.5q-50 0 -70.5 -21t-20.5 -73q0 -11 -2.5 -15.5
t-9.5 -4.5q-8 0 -10.5 4t-2.5 16zM485 495q0 49 -20.5 71.5t-65.5 22.5q-16 0 -21 2.5t-5 9.5q0 8 5.5 10.5t20.5 2.5q45 0 66 23t21 72q0 9 2.5 13t9.5 4t10 -3.5t3 -13.5q0 -52 20 -73.5t70 -21.5q13 0 17.5 -2.5t4.5 -10.5q0 -7 -4.5 -9.5t-17.5 -2.5q-50 0 -70.5 -21
t-20.5 -73q0 -11 -2.5 -15.5t-9.5 -4.5q-8 0 -10.5 4t-2.5 16z" />
    <glyph glyph-name="aring" unicode="&#xe5;" horiz-adv-x="687" 
d="M33 139q0 68 50.5 110t133.5 42q24 0 57 -7t65 -18l36 -13q5 0 5 6q0 66 -22 106.5t-57 40.5q-18 0 -46 -11t-55 -29q-13 -7 -23 -7q-8 0 -8 7q0 10 19 26q31 24 74.5 38.5t83.5 14.5q75 0 132.5 -25t89 -70.5t31.5 -104.5v-165q0 -30 10.5 -42.5t33.5 -12.5
q14 0 17.5 -3t3.5 -10t-3 -9.5t-12 -2.5h-256q-7 0 -11 4.5t-3 11.5v16q0 7 -5 7q5 0 -28 -14q-44 -16 -83 -25.5t-59 -9.5q-77 0 -124 41t-47 108zM379 111v74q0 28 -18.5 44.5t-49.5 16.5q-26 0 -42 -19.5t-16 -51.5v-84q0 -22 16 -35t42 -13q31 0 49.5 18.5t18.5 49.5z
M245 599q0 44 32 75.5t77 31.5q43 0 75 -31.5t32 -75.5q0 -30 -15 -56.5t-39.5 -42t-52.5 -15.5q-44 0 -76.5 34t-32.5 80zM394 596q0 17 -12.5 29t-28.5 12q-17 0 -29 -12t-12 -29t12 -29.5t29 -12.5t29 12.5t12 29.5z" />
    <glyph glyph-name="ae" unicode="&#xe6;" horiz-adv-x="906" 
d="M33 139q0 68 50.5 110t133.5 42q23 0 57 -7t65 -18l36 -13q5 0 5 6q0 66 -22 106.5t-57 40.5q-19 0 -46.5 -11t-54.5 -29q-13 -7 -23 -7q-8 0 -8 7q0 5 5.5 12t13.5 14q31 24 74.5 38.5t83.5 14.5q35 0 74 -9.5t68 -24.5q29 15 69.5 24.5t77.5 9.5q71 0 125 -19t84 -53.5
t30 -79.5q0 -10 -4 -15.5t-10 -5.5h-236q-11 0 -18 -7t-7 -18v-161q0 -28 26 -44.5t69 -16.5q29 0 59 12.5t51 33.5q16 16 24 16t8 -5q0 -9 -18 -27q-26 -29 -77 -47t-107 -18q-51 0 -89 10h-152q-7 0 -11 4.5t-3 11.5v16q0 7 -5 7q2 0 -6.5 -4.5t-21.5 -9.5
q-44 -16 -83 -25.5t-59 -9.5q-77 0 -124 41t-47 108zM664 295q7 0 11 4t4 11v73q0 17 -10 27.5t-27 10.5q-20 0 -31.5 -10.5t-11.5 -27.5v-73q0 -7 4 -11t11 -4h50zM379 111v74q0 28 -18.5 44.5t-49.5 16.5q-26 0 -42 -19.5t-16 -51.5v-84q0 -22 16 -35t42 -13
q31 0 49.5 18.5t18.5 49.5z" />
    <glyph glyph-name="ccedilla" unicode="&#xe7;" horiz-adv-x="495" 
d="M207 -166q0 19 15.5 35t34.5 16q12 0 23.5 -10t16.5 -23q-10 5 -17 5q-9 0 -14 -6t-5 -16t6.5 -15.5t17.5 -5.5q36 0 36 60q0 25 -11.5 42.5t-24.5 17.5q-14 0 -21 -17q-3 -7 -12 -10.5t-18 -3.5h-8q-3 2 -7 2l11 91q-94 15 -145.5 72t-51.5 162q0 102 65 158.5t205 56.5
q62 0 97 -20.5t35 -64.5q0 -42 -39 -42q-32 0 -32 30q0 22 20 29q14 3 11 13q-6 26 -61 26q-80 0 -80 -186q0 -208 94 -208q27 0 90 37q11 7 16 7q4 0 7 -4l2 -5q0 -6 -17 -19q-68 -48 -139 -48q-24 0 -36 1l-4 -41q10 7 32 7q95 0 95 -90q0 -22 -15.5 -42t-41 -32.5
t-52.5 -12.5q-30 0 -54 15.5t-24 38.5z" />
    <glyph glyph-name="egrave" unicode="&#xe8;" horiz-adv-x="570" 
d="M33 203q0 89 38.5 144t99 79t128.5 24q70 0 124.5 -20t84.5 -56t30 -81q0 -10 -4 -15.5t-10 -5.5h-236q-11 0 -18 -7t-7 -18v-161q0 -28 26 -44.5t69 -16.5q29 0 59 12.5t51 33.5q16 16 24 16t8 -5q0 -9 -18 -27q-26 -29 -77 -47t-107 -18q-67 0 -128 28t-99 77t-38 108z
M328 295q7 0 11 4t4 11v73q0 17 -10 27.5t-27 10.5q-20 0 -31.5 -10.5t-11.5 -27.5v-73q0 -7 4 -11t11 -4h50zM191 645l83 57l103 -173l-58 -41z" />
    <glyph glyph-name="eacute" unicode="&#xe9;" horiz-adv-x="570" 
d="M33 203q0 89 38.5 144t99 79t128.5 24q70 0 124.5 -20t84.5 -56t30 -81q0 -10 -4 -15.5t-10 -5.5h-236q-11 0 -18 -7t-7 -18v-161q0 -28 26 -44.5t69 -16.5q29 0 59 12.5t51 33.5q16 16 24 16t8 -5q0 -9 -18 -27q-26 -29 -77 -47t-107 -18q-67 0 -128 28t-99 77t-38 108z
M328 295q7 0 11 4t4 11v73q0 17 -10 27.5t-27 10.5q-20 0 -31.5 -10.5t-11.5 -27.5v-73q0 -7 4 -11t11 -4h50zM191 529l103 173l83 -57l-128 -157z" />
    <glyph glyph-name="ecircumflex" unicode="&#xea;" horiz-adv-x="570" 
d="M33 203q0 89 38.5 144t99 79t128.5 24q70 0 124.5 -20t84.5 -56t30 -81q0 -10 -4 -15.5t-10 -5.5h-236q-11 0 -18 -7t-7 -18v-161q0 -28 26 -44.5t69 -16.5q29 0 59 12.5t51 33.5q16 16 24 16t8 -5q0 -9 -18 -27q-26 -29 -77 -47t-107 -18q-67 0 -128 28t-99 77t-38 108z
M328 295q7 0 11 4t4 11v73q0 17 -10 27.5t-27 10.5q-20 0 -31.5 -10.5t-11.5 -27.5v-73q0 -7 4 -11t11 -4h50zM144 545l89 108h102l89 -108l-83 -57l-57 96l-57 -96z" />
    <glyph glyph-name="edieresis" unicode="&#xeb;" horiz-adv-x="605" 
d="M52 203q0 89 38.5 144t99 79t128.5 24q70 0 124.5 -20t84.5 -56t30 -81q0 -10 -4 -15.5t-10 -5.5h-236q-11 0 -18 -7t-7 -18v-161q0 -28 26 -44.5t69 -16.5q29 0 59 12.5t51 33.5q16 16 24 16t8 -5q0 -9 -18 -27q-26 -29 -77 -47t-107 -18q-67 0 -128 28t-99 77t-38 108z
M347 295q7 0 11 4t4 11v73q0 17 -10 27.5t-27 10.5q-20 0 -31.5 -10.5t-11.5 -27.5v-73q0 -7 4 -11t11 -4h50zM145 495q0 49 -20.5 71.5t-65.5 22.5q-16 0 -21 2.5t-5 9.5q0 8 5.5 10.5t20.5 2.5q45 0 66 23t21 72q0 9 2.5 13t9.5 4t10 -3.5t3 -13.5q0 -52 20 -73.5
t70 -21.5q13 0 17.5 -2.5t4.5 -10.5q0 -7 -4.5 -9.5t-17.5 -2.5q-50 0 -70.5 -21t-20.5 -73q0 -11 -2.5 -15.5t-9.5 -4.5q-8 0 -10.5 4t-2.5 16zM435 495q0 49 -20.5 71.5t-65.5 22.5q-16 0 -21 2.5t-5 9.5q0 8 5.5 10.5t20.5 2.5q45 0 66 23t21 72q0 9 2.5 13t9.5 4
t10 -3.5t3 -13.5q0 -52 20 -73.5t70 -21.5q13 0 17.5 -2.5t4.5 -10.5q0 -7 -4.5 -9.5t-17.5 -2.5q-50 0 -70.5 -21t-20.5 -73q0 -11 -2.5 -15.5t-9.5 -4.5q-8 0 -10.5 4t-2.5 16z" />
    <glyph glyph-name="igrave" unicode="&#xec;" horiz-adv-x="415" 
d="M33 12q0 7 3.5 10t17.5 3q23 0 33.5 12.5t10.5 42.5v275q0 30 -10.5 42.5t-33.5 12.5q-14 0 -17.5 3t-3.5 10t3 9.5t12 2.5h250q9 0 14.5 -4t5.5 -11v-340q0 -30 10.5 -42.5t33.5 -12.5q14 0 17.5 -3t3.5 -10t-3 -9.5t-12 -2.5h-320q-9 0 -12 2.5t-3 9.5zM94 645l83 57
l103 -173l-58 -41z" />
    <glyph glyph-name="iacute" unicode="&#xed;" horiz-adv-x="415" 
d="M33 12q0 7 3.5 10t17.5 3q23 0 33.5 12.5t10.5 42.5v275q0 30 -10.5 42.5t-33.5 12.5q-14 0 -17.5 3t-3.5 10t3 9.5t12 2.5h250q9 0 14.5 -4t5.5 -11v-340q0 -30 10.5 -42.5t33.5 -12.5q14 0 17.5 -3t3.5 -10t-3 -9.5t-12 -2.5h-320q-9 0 -12 2.5t-3 9.5zM106 529
l103 173l83 -57l-128 -157z" />
    <glyph glyph-name="icircumflex" unicode="&#xee;" horiz-adv-x="415" 
d="M33 12q0 7 3.5 10t17.5 3q23 0 33.5 12.5t10.5 42.5v275q0 30 -10.5 42.5t-33.5 12.5q-14 0 -17.5 3t-3.5 10t3 9.5t12 2.5h250q9 0 14.5 -4t5.5 -11v-340q0 -30 10.5 -42.5t33.5 -12.5q14 0 17.5 -3t3.5 -10t-3 -9.5t-12 -2.5h-320q-9 0 -12 2.5t-3 9.5zM47 545l89 108
h102l89 -108l-83 -57l-57 96l-57 -96z" />
    <glyph glyph-name="idieresis" unicode="&#xef;" horiz-adv-x="415" 
d="M33 12q0 7 3.5 10t17.5 3q23 0 33.5 12.5t10.5 42.5v275q0 30 -10.5 42.5t-33.5 12.5q-14 0 -17.5 3t-3.5 10t3 9.5t12 2.5h250q9 0 14.5 -4t5.5 -11v-340q0 -30 10.5 -42.5t33.5 -12.5q14 0 17.5 -3t3.5 -10t-3 -9.5t-12 -2.5h-320q-9 0 -12 2.5t-3 9.5zM29 495
q0 49 -20.5 71.5t-65.5 22.5q-16 0 -21 2.5t-5 9.5q0 8 5.5 10.5t20.5 2.5q45 0 66 23t21 72q0 9 2.5 13t9.5 4t10 -3.5t3 -13.5q0 -52 20 -73.5t70 -21.5q13 0 17.5 -2.5t4.5 -10.5q0 -7 -4.5 -9.5t-17.5 -2.5q-50 0 -70.5 -21t-20.5 -73q0 -11 -2.5 -15.5t-9.5 -4.5
q-8 0 -10.5 4t-2.5 16zM319 495q0 49 -20.5 71.5t-65.5 22.5q-16 0 -21 2.5t-5 9.5q0 8 5.5 10.5t20.5 2.5q45 0 66 23t21 72q0 9 2.5 13t9.5 4t10 -3.5t3 -13.5q0 -52 20 -73.5t70 -21.5q13 0 17.5 -2.5t4.5 -10.5q0 -7 -4.5 -9.5t-17.5 -2.5q-50 0 -70.5 -21t-20.5 -73
q0 -11 -2.5 -15.5t-9.5 -4.5q-8 0 -10.5 4t-2.5 16z" />
    <glyph glyph-name="eth" unicode="&#xf0;" horiz-adv-x="533" 
d="M501 305q0 -93 -30 -164.5t-84 -111t-125 -39.5q-68 0 -120 34t-80.5 95.5t-28.5 142.5q0 73 29 129t82 86.5t122 30.5q0 10 -13 26t-34 33l-41 -58l-53 28l42 65q-10 3 -46 16q-5 1 -6.5 5.5t0.5 9.5l18 32q5 8 15 6l53 -17l38 59l52 -34l-33 -52q109 -56 176 -144.5
t67 -177.5zM327 355q0 31 -18 50t-47 19q-25 0 -40 -18.5t-15 -49.5v-221q0 -30 15 -48t40 -18q29 0 47 19.5t18 50.5v216z" />
    <glyph glyph-name="ntilde" unicode="&#xf1;" horiz-adv-x="773" 
d="M34 12q0 7 3.5 10t17.5 3q23 0 33.5 12.5t10.5 42.5l-1 275q0 30 -10.5 42.5t-33.5 12.5q-14 0 -17.5 3t-3.5 10t3 9.5t12 2.5h249q20 0 20 -15v-37q89 62 175 62q87 0 135.5 -43t48.5 -137v-185q0 -30 10.5 -42.5t33.5 -12.5q14 0 17.5 -3t3.5 -10t-3 -9.5t-12 -2.5
h-304q-9 0 -12 2.5t-3 9.5t3.5 10t17.5 3q23 0 33.5 12.5t10.5 42.5v185q0 116 -82 116q-71 0 -71 -56v-245q0 -30 10.5 -42.5t33.5 -12.5q14 0 17.5 -3t3.5 -10t-3 -9.5t-12 -2.5h-320q-9 0 -12 2.5t-3 9.5zM340 654q35 0 52.5 -9.5t33.5 -26.5q9 -10 15.5 -14.5t17.5 -4.5
q43 0 67.5 15t21.5 40h19q2 -74 -39 -119t-108 -45q-26 0 -40 11t-28 33q-10 17 -19.5 25.5t-24.5 8.5q-38 0 -61 -21.5t-21 -56.5h-19q-1 73 36 118.5t97 45.5z" />
    <glyph glyph-name="ograve" unicode="&#xf2;" horiz-adv-x="662" 
d="M33 233q0 57 30.5 105t96 77.5t165.5 29.5q134 0 208.5 -51.5t74.5 -161.5q0 -115 -68 -178.5t-215 -63.5q-140 0 -216 63t-76 180zM383 104v241q0 80 -58 80q-62 0 -62 -80v-241q0 -92 60 -92t60 92zM238 645l83 57l103 -173l-58 -41z" />
    <glyph glyph-name="oacute" unicode="&#xf3;" horiz-adv-x="662" 
d="M33 233q0 57 30.5 105t96 77.5t165.5 29.5q134 0 208.5 -51.5t74.5 -161.5q0 -115 -68 -178.5t-215 -63.5q-140 0 -216 63t-76 180zM383 104v241q0 80 -58 80q-62 0 -62 -80v-241q0 -92 60 -92t60 92zM238 529l103 173l83 -57l-128 -157z" />
    <glyph glyph-name="ocircumflex" unicode="&#xf4;" horiz-adv-x="662" 
d="M33 233q0 57 30.5 105t96 77.5t165.5 29.5q134 0 208.5 -51.5t74.5 -161.5q0 -115 -68 -178.5t-215 -63.5q-140 0 -216 63t-76 180zM383 104v241q0 80 -58 80q-62 0 -62 -80v-241q0 -92 60 -92t60 92zM191 545l89 108h102l89 -108l-83 -57l-57 96l-57 -96z" />
    <glyph glyph-name="otilde" unicode="&#xf5;" horiz-adv-x="662" 
d="M33 233q0 57 30.5 105t96 77.5t165.5 29.5q134 0 208.5 -51.5t74.5 -161.5q0 -115 -68 -178.5t-215 -63.5q-140 0 -216 63t-76 180zM383 104v241q0 80 -58 80q-62 0 -62 -80v-241q0 -92 60 -92t60 92zM284 654q35 0 52.5 -9.5t33.5 -26.5q9 -10 15.5 -14.5t17.5 -4.5
q43 0 67.5 15t21.5 40h19q2 -74 -39 -119t-108 -45q-26 0 -40 11t-28 33q-10 17 -19.5 25.5t-24.5 8.5q-38 0 -61 -21.5t-21 -56.5h-19q-1 73 36 118.5t97 45.5z" />
    <glyph glyph-name="odieresis" unicode="&#xf6;" horiz-adv-x="662" 
d="M33 233q0 57 30.5 105t96 77.5t165.5 29.5q134 0 208.5 -51.5t74.5 -161.5q0 -115 -68 -178.5t-215 -63.5q-140 0 -216 63t-76 180zM383 104v241q0 80 -58 80q-62 0 -62 -80v-241q0 -92 60 -92t60 92zM173 495q0 49 -20.5 71.5t-65.5 22.5q-16 0 -21 2.5t-5 9.5
q0 8 5.5 10.5t20.5 2.5q45 0 66 23t21 72q0 9 2.5 13t9.5 4t10 -3.5t3 -13.5q0 -52 20 -73.5t70 -21.5q13 0 17.5 -2.5t4.5 -10.5q0 -7 -4.5 -9.5t-17.5 -2.5q-50 0 -70.5 -21t-20.5 -73q0 -11 -2.5 -15.5t-9.5 -4.5q-8 0 -10.5 4t-2.5 16zM463 495q0 49 -20.5 71.5
t-65.5 22.5q-16 0 -21 2.5t-5 9.5q0 8 5.5 10.5t20.5 2.5q45 0 66 23t21 72q0 9 2.5 13t9.5 4t10 -3.5t3 -13.5q0 -52 20 -73.5t70 -21.5q13 0 17.5 -2.5t4.5 -10.5q0 -7 -4.5 -9.5t-17.5 -2.5q-50 0 -70.5 -21t-20.5 -73q0 -11 -2.5 -15.5t-9.5 -4.5q-8 0 -10.5 4t-2.5 16z
" />
    <glyph glyph-name="divide" unicode="&#xf7;" horiz-adv-x="399" 
d="M190 362q0 29 -18 46t-48 17q-16 0 -16 10q0 7 3 9t11 2q31 0 49.5 18t18.5 48q0 9 2 12.5t8 3.5q11 0 11 -16q0 -30 18 -48t49 -18q8 0 11.5 -2t3.5 -8q0 -11 -17 -11q-30 0 -47.5 -17.5t-17.5 -47.5q0 -16 -11 -16q-6 0 -8 4t-2 14zM33 333h334v-80h-334v80zM190 75
q0 29 -18 46t-48 17q-16 0 -16 10q0 11 14 11q31 0 49.5 18t18.5 48q0 9 2 12.5t8 3.5q11 0 11 -16q0 -30 18 -48t49 -18q8 0 11.5 -2t3.5 -8q0 -11 -17 -11q-30 0 -47.5 -17.5t-17.5 -47.5q0 -16 -11 -16q-6 0 -8 4t-2 14z" />
    <glyph glyph-name="oslash" unicode="&#xf8;" horiz-adv-x="586" 
d="M33 227q0 65 33 114.5t93 76.5t138 27q76 0 134.5 -27.5t90.5 -77t32 -114.5q0 -70 -32 -123.5t-90.5 -83t-134.5 -29.5q-78 0 -138 29.5t-93 83.5t-33 124zM354 355q-1 31 -16.5 50.5t-40.5 19.5q-26 0 -42.5 -24.5t-16.5 -64.5v-144zM354 101v125l-114 -161
q2 -25 17.5 -40t37.5 -15q26 0 42.5 25t16.5 66z" />
    <glyph glyph-name="ugrave" unicode="&#xf9;" horiz-adv-x="774" 
d="M98 170v185q0 30 -10.5 42.5t-33.5 12.5q-14 0 -17.5 3t-3.5 10t3 9.5t12 2.5h305q9 0 12 -2.5t3 -9.5t-3.5 -10t-17.5 -3q-23 0 -33.5 -12.5t-10.5 -42.5v-185q0 -116 82 -116q73 0 73 36l-2 265q0 29 -10 41.5t-32 12.5q-16 0 -20 3t-4 10t3 9.5t12 2.5l100 1h222
q9 0 12 -2.5t3 -9.5t-3.5 -10t-17.5 -3q-23 0 -33.5 -12.5t-10.5 -42.5v-275q0 -30 10.5 -42.5t33.5 -12.5q14 0 17.5 -3t3.5 -10t-3 -9.5t-12 -2.5h-249q-20 0 -20 27v21q-83 -58 -175 -58q-88 0 -136.5 43t-48.5 137zM293 645l83 57l103 -173l-58 -41z" />
    <glyph glyph-name="uacute" unicode="&#xfa;" horiz-adv-x="774" 
d="M98 170v185q0 30 -10.5 42.5t-33.5 12.5q-14 0 -17.5 3t-3.5 10t3 9.5t12 2.5h305q9 0 12 -2.5t3 -9.5t-3.5 -10t-17.5 -3q-23 0 -33.5 -12.5t-10.5 -42.5v-185q0 -116 82 -116q73 0 73 36l-2 265q0 29 -10 41.5t-32 12.5q-16 0 -20 3t-4 10t3 9.5t12 2.5l100 1h222
q9 0 12 -2.5t3 -9.5t-3.5 -10t-17.5 -3q-23 0 -33.5 -12.5t-10.5 -42.5v-275q0 -30 10.5 -42.5t33.5 -12.5q14 0 17.5 -3t3.5 -10t-3 -9.5t-12 -2.5h-249q-20 0 -20 27v21q-83 -58 -175 -58q-88 0 -136.5 43t-48.5 137zM293 529l103 173l83 -57l-128 -157z" />
    <glyph glyph-name="ucircumflex" unicode="&#xfb;" horiz-adv-x="774" 
d="M98 170v185q0 30 -10.5 42.5t-33.5 12.5q-14 0 -17.5 3t-3.5 10t3 9.5t12 2.5h305q9 0 12 -2.5t3 -9.5t-3.5 -10t-17.5 -3q-23 0 -33.5 -12.5t-10.5 -42.5v-185q0 -116 82 -116q73 0 73 36l-2 265q0 29 -10 41.5t-32 12.5q-16 0 -20 3t-4 10t3 9.5t12 2.5l100 1h222
q9 0 12 -2.5t3 -9.5t-3.5 -10t-17.5 -3q-23 0 -33.5 -12.5t-10.5 -42.5v-275q0 -30 10.5 -42.5t33.5 -12.5q14 0 17.5 -3t3.5 -10t-3 -9.5t-12 -2.5h-249q-20 0 -20 27v21q-83 -58 -175 -58q-88 0 -136.5 43t-48.5 137zM246 545l89 108h102l89 -108l-83 -57l-57 96l-57 -96z
" />
    <glyph glyph-name="udieresis" unicode="&#xfc;" horiz-adv-x="774" 
d="M98 170v185q0 30 -10.5 42.5t-33.5 12.5q-14 0 -17.5 3t-3.5 10t3 9.5t12 2.5h305q9 0 12 -2.5t3 -9.5t-3.5 -10t-17.5 -3q-23 0 -33.5 -12.5t-10.5 -42.5v-185q0 -116 82 -116q73 0 73 36l-2 265q0 29 -10 41.5t-32 12.5q-16 0 -20 3t-4 10t3 9.5t12 2.5l100 1h222
q9 0 12 -2.5t3 -9.5t-3.5 -10t-17.5 -3q-23 0 -33.5 -12.5t-10.5 -42.5v-275q0 -30 10.5 -42.5t33.5 -12.5q14 0 17.5 -3t3.5 -10t-3 -9.5t-12 -2.5h-249q-20 0 -20 27v21q-83 -58 -175 -58q-88 0 -136.5 43t-48.5 137zM228 495q0 49 -20.5 71.5t-65.5 22.5q-16 0 -21 2.5
t-5 9.5q0 8 5.5 10.5t20.5 2.5q45 0 66 23t21 72q0 9 2.5 13t9.5 4t10 -3.5t3 -13.5q0 -52 20 -73.5t70 -21.5q13 0 17.5 -2.5t4.5 -10.5q0 -7 -4.5 -9.5t-17.5 -2.5q-50 0 -70.5 -21t-20.5 -73q0 -11 -2.5 -15.5t-9.5 -4.5q-8 0 -10.5 4t-2.5 16zM518 495q0 49 -20.5 71.5
t-65.5 22.5q-16 0 -21 2.5t-5 9.5q0 8 5.5 10.5t20.5 2.5q45 0 66 23t21 72q0 9 2.5 13t9.5 4t10 -3.5t3 -13.5q0 -52 20 -73.5t70 -21.5q13 0 17.5 -2.5t4.5 -10.5q0 -7 -4.5 -9.5t-17.5 -2.5q-50 0 -70.5 -21t-20.5 -73q0 -11 -2.5 -15.5t-9.5 -4.5q-8 0 -10.5 4t-2.5 16z
" />
    <glyph glyph-name="yacute" unicode="&#xfd;" horiz-adv-x="637" 
d="M622 435q0 -9 -15 -20q-30 -21 -63 -60.5t-56 -82.5q-29 -53 -39 -94q-25 -96 -63.5 -167t-74.5 -89q-20 -10 -52 -16t-65 -6q-19 0 -54 8q-6 1 -9.5 5t-3.5 9q0 4 5.5 7t14.5 3q14 0 22 -1l29 -1q23 0 43.5 3.5t30.5 9.5q14 8 23 24t9 33q0 19 -178 364q-25 46 -81 46
q-14 0 -17.5 3t-3.5 10t3 9.5t12 2.5h347q9 0 12 -2.5t3 -9.5t-3.5 -10t-17.5 -3q-11 0 -16 -2t-5 -6t7 -18l-8 13l81 -153q46 84 80 128q15 19 38 37.5t45 30.5q6 3 11 3t8 -3q1 -1 1 -5zM376 366q-9 16 -10 18zM253 529l103 173l83 -57l-128 -157z" />
    <glyph glyph-name="thorn" unicode="&#xfe;" horiz-adv-x="698" 
d="M33 -288q0 7 3.5 10t17.5 3q23 0 33.5 12.5t10.5 42.5v840q0 30 -10.5 42.5t-33.5 12.5q-14 0 -17.5 3t-3.5 10t3 9.5t12 2.5h255q7 0 11 -4t4 -11v-261q21 28 63.5 45.5t92.5 17.5q59 0 104 -27t70 -76.5t25 -113.5q0 -70 -25 -123.5t-70.5 -83t-105.5 -29.5
q-39 0 -81.5 14t-72.5 37v-305q0 -30 10.5 -42.5t33.5 -12.5q14 0 17.5 -3t3.5 -10t-3 -9.5t-12 -2.5h-320q-9 0 -12 2.5t-3 9.5zM448 262q0 76 -18.5 122t-49.5 46q-28 0 -45 -36t-17 -94v-112q0 -48 16.5 -77t42.5 -29q32 0 51.5 49.5t19.5 130.5z" />
    <glyph glyph-name="ydieresis" unicode="&#xff;" horiz-adv-x="663" 
d="M631 435q0 -9 -15 -20q-30 -21 -63 -60.5t-56 -82.5q-29 -53 -39 -94q-25 -96 -63.5 -167t-74.5 -89q-20 -10 -52 -16t-65 -6q-19 0 -54 8q-6 1 -9.5 5t-3.5 9q0 4 5.5 7t14.5 3q14 0 22 -1l29 -1q23 0 43.5 3.5t30.5 9.5q14 8 23 24t9 33q0 19 -178 364q-25 46 -81 46
q-14 0 -17.5 3t-3.5 10t3 9.5t12 2.5h347q9 0 12 -2.5t3 -9.5t-3.5 -10t-17.5 -3q-11 0 -16 -2t-5 -6t7 -18l-8 13l81 -153q46 84 80 128q15 19 38 37.5t45 30.5q6 3 11 3t8 -3q1 -1 1 -5zM385 366q-9 16 -10 18zM191 495q0 49 -20.5 71.5t-65.5 22.5q-16 0 -21 2.5t-5 9.5
q0 8 5.5 10.5t20.5 2.5q45 0 66 23t21 72q0 9 2.5 13t9.5 4t10 -3.5t3 -13.5q0 -52 20 -73.5t70 -21.5q13 0 17.5 -2.5t4.5 -10.5q0 -7 -4.5 -9.5t-17.5 -2.5q-50 0 -70.5 -21t-20.5 -73q0 -11 -2.5 -15.5t-9.5 -4.5q-8 0 -10.5 4t-2.5 16zM481 495q0 49 -20.5 71.5
t-65.5 22.5q-16 0 -21 2.5t-5 9.5q0 8 5.5 10.5t20.5 2.5q45 0 66 23t21 72q0 9 2.5 13t9.5 4t10 -3.5t3 -13.5q0 -52 20 -73.5t70 -21.5q13 0 17.5 -2.5t4.5 -10.5q0 -7 -4.5 -9.5t-17.5 -2.5q-50 0 -70.5 -21t-20.5 -73q0 -11 -2.5 -15.5t-9.5 -4.5q-8 0 -10.5 4t-2.5 16z
" />
    <glyph glyph-name="Amacron" unicode="&#x100;" horiz-adv-x="917" 
d="M902 12q0 -7 -3 -9.5t-12 -2.5h-364q-9 0 -12 2.5t-3 9.5t3.5 10t17.5 3q12 0 17 2.5t5 8.5q0 9 -14 35l-76 148h-231l-15 -27l-64 -119l-1 -2q-14 -26 -14 -35q0 -6 5 -8.5t17 -2.5q14 0 17.5 -3t3.5 -10t-3 -9.5t-12 -2.5h-134q-9 0 -12 2.5t-3 9.5t3.5 10t17.5 3
q58 0 81 46q174 324 346 639l337 -639q23 -46 81 -46q14 0 17.5 -3t3.5 -10zM445 249l-97 186l-102 -186h199zM293 835h334v-80h-334v80z" />
    <glyph glyph-name="amacron" unicode="&#x101;" horiz-adv-x="696" 
d="M33 139q0 68 50.5 110t133.5 42q24 0 57 -7t65 -18l36 -13q5 0 5 6q0 66 -22 106.5t-57 40.5q-18 0 -46 -11t-55 -29q-13 -7 -23 -7q-8 0 -8 7q0 10 19 26q31 24 74.5 38.5t83.5 14.5q75 0 132.5 -25t89 -70.5t31.5 -104.5v-165q0 -30 10.5 -42.5t33.5 -12.5
q14 0 17.5 -3t3.5 -10t-3 -9.5t-12 -2.5h-256q-7 0 -11 4.5t-3 11.5v16q0 7 -5 7q5 0 -28 -14q-44 -16 -83 -25.5t-59 -9.5q-77 0 -124 41t-47 108zM379 111v74q0 28 -18.5 44.5t-49.5 16.5q-26 0 -42 -19.5t-16 -51.5v-84q0 -22 16 -35t42 -13q31 0 49.5 18.5t18.5 49.5z
M186 570h334v-80h-334v80z" />
    <glyph glyph-name="Abreve" unicode="&#x102;" horiz-adv-x="917" 
d="M902 12q0 -7 -3 -9.5t-12 -2.5h-364q-9 0 -12 2.5t-3 9.5t3.5 10t17.5 3q12 0 17 2.5t5 8.5q0 9 -14 35l-76 148h-231l-15 -27l-64 -119l-1 -2q-14 -26 -14 -35q0 -6 5 -8.5t17 -2.5q14 0 17.5 -3t3.5 -10t-3 -9.5t-12 -2.5h-134q-9 0 -12 2.5t-3 9.5t3.5 10t17.5 3
q58 0 81 46q174 324 346 639l337 -639q23 -46 81 -46q14 0 17.5 -3t3.5 -10zM445 249l-97 186l-102 -186h199zM330 899l5 5q2 -1 35.5 -30.5t88.5 -29.5t89 29.5t37 30.5l5 -5q0 -51 -24 -97.5t-107 -46.5q-82 0 -105.5 46.5t-23.5 97.5z" />
    <glyph glyph-name="abreve" unicode="&#x103;" horiz-adv-x="687" 
d="M33 139q0 68 50.5 110t133.5 42q24 0 57 -7t65 -18l36 -13q5 0 5 6q0 66 -22 106.5t-57 40.5q-18 0 -46 -11t-55 -29q-13 -7 -23 -7q-8 0 -8 7q0 10 19 26q31 24 74.5 38.5t83.5 14.5q75 0 132.5 -25t89 -70.5t31.5 -104.5v-165q0 -30 10.5 -42.5t33.5 -12.5
q14 0 17.5 -3t3.5 -10t-3 -9.5t-12 -2.5h-256q-7 0 -11 4.5t-3 11.5v16q0 7 -5 7q5 0 -28 -14q-44 -16 -83 -25.5t-59 -9.5q-77 0 -124 41t-47 108zM379 111v74q0 28 -18.5 44.5t-49.5 16.5q-26 0 -42 -19.5t-16 -51.5v-84q0 -22 16 -35t42 -13q31 0 49.5 18.5t18.5 49.5z
M223 634l5 5q2 -1 35.5 -30.5t88.5 -29.5t89 29.5t37 30.5l5 -5q0 -51 -24 -97.5t-107 -46.5q-82 0 -105.5 46.5t-23.5 97.5z" />
    <glyph glyph-name="Aogonek" unicode="&#x104;" horiz-adv-x="921" 
d="M926 -117l6 -8q-22 -16 -51.5 -25t-58.5 -9q-20 0 -34 16.5t-14 39.5q0 28 21 56t56 47h-314q-9 0 -12 2.5t-3 9.5t3.5 10t17.5 3q12 0 17 2.5t5 8.5q0 9 -14 35l-76 148h-231l-15 -27l-64 -119l-1 -2q-14 -26 -14 -35q0 -6 5 -8.5t17 -2.5q14 0 17.5 -3t3.5 -10t-3 -9.5
t-12 -2.5h-134q-9 0 -12 2.5t-3 9.5t3.5 10t17.5 3q58 0 81 46q174 324 346 639l337 -639q23 -46 81 -46q14 0 17.5 -3t3.5 -10v-3h16q-28 -12 -53 -41.5t-25 -47.5q0 -21 12.5 -31t40.5 -10q13 0 19 4zM459 249l-97 186l-102 -186h199z" />
    <glyph glyph-name="aogonek" unicode="&#x105;" horiz-adv-x="705" 
d="M667 -117l6 -8q-22 -16 -51.5 -25t-58.5 -9q-20 0 -34 16.5t-14 39.5q0 28 21 56t56 47h-199q-7 0 -11 4.5t-3 11.5v16q0 7 -5 7q5 0 -28 -14q-44 -16 -83 -25.5t-59 -9.5q-77 0 -124 41t-47 108q0 68 50.5 110t133.5 42q24 0 57 -7t65 -18l36 -13q5 0 5 6
q0 66 -22 106.5t-57 40.5q-18 0 -46 -11t-55 -29q-13 -7 -23 -7q-8 0 -8 7q0 10 19 26q31 24 74.5 38.5t83.5 14.5q75 0 132.5 -25t89 -70.5t31.5 -104.5v-165q0 -30 10.5 -42.5t33.5 -12.5q14 0 17.5 -3t3.5 -10v-3h9l-12 -6l-2 -1q-24 -16 -44 -41.5t-20 -40.5
q0 -21 12.5 -31t40.5 -10q13 0 19 4zM379 185q0 28 -18.5 44.5t-49.5 16.5q-26 0 -42 -19.5t-16 -51.5v-84q0 -22 16 -35t42 -13q31 0 49.5 18.5t18.5 49.5v74z" />
    <glyph glyph-name="Cacute" unicode="&#x106;" horiz-adv-x="697" 
d="M69 330q0 113 44.5 199t125 133.5t185.5 47.5l114 -10l87 10q6 0 9.5 -4t3.5 -11v-146q0 -8 -3.5 -13t-9.5 -5q-8 0 -12.5 10.5t-4.5 26.5q0 52 -35.5 84t-94.5 32q-67 0 -108 -40t-41 -105v-400q0 -53 35 -85.5t92 -32.5q35 0 85.5 16.5t96.5 43.5q13 10 27 10q5 0 8 -3
q6 -6 0.5 -15t-19.5 -17q-39 -30 -102 -48t-128 -18q-105 0 -185.5 42.5t-125 119.5t-44.5 178zM290 794l103 173l83 -57l-128 -157z" />
    <glyph glyph-name="cacute" unicode="&#x107;" horiz-adv-x="494" 
d="M33 230q0 64 33.5 112.5t95 75.5t141.5 27q59 0 95.5 -23.5t36.5 -61.5q0 -19 -11 -30.5t-28 -11.5q-14 0 -23 8.5t-9 21.5q0 10 5.5 18t14.5 11q6 2 9 5.5t2 7.5q-3 12 -19.5 19t-41.5 7q-36 0 -58 -51t-22 -135q0 -94 26 -151t68 -57q13 0 37.5 10t52.5 27q7 5 13.5 6
t9.5 -3q1 -1 1 -3q0 -3 -4.5 -9t-11.5 -12q-25 -22 -63 -35t-76 -13q-81 0 -143.5 30t-96.5 84.5t-34 125.5zM154 529l103 173l83 -57l-128 -157z" />
    <glyph glyph-name="Cdotaccent" unicode="&#x10a;" horiz-adv-x="697" 
d="M69 330q0 113 44.5 199t125 133.5t185.5 47.5l114 -10l87 10q6 0 9.5 -4t3.5 -11v-146q0 -8 -3.5 -13t-9.5 -5q-8 0 -12.5 10.5t-4.5 26.5q0 52 -35.5 84t-94.5 32q-67 0 -108 -40t-41 -105v-400q0 -53 35 -85.5t92 -32.5q35 0 85.5 16.5t96.5 43.5q13 10 27 10q5 0 8 -3
q6 -6 0.5 -15t-19.5 -17q-39 -30 -102 -48t-128 -18q-105 0 -185.5 42.5t-125 119.5t-44.5 178zM384 760q0 50 -20.5 72.5t-65.5 22.5q-16 0 -21 2.5t-5 9.5q0 8 5.5 10.5t20.5 2.5q45 0 66 23t21 72q0 9 2.5 13t9.5 4t10 -3.5t3 -13.5q0 -52 20 -73.5t70 -21.5
q13 0 17.5 -2.5t4.5 -10.5q0 -7 -4.5 -9.5t-17.5 -2.5q-50 0 -70.5 -21.5t-20.5 -73.5q0 -11 -2.5 -15.5t-9.5 -4.5q-8 0 -10.5 4t-2.5 16z" />
    <glyph glyph-name="cdotaccent" unicode="&#x10b;" horiz-adv-x="494" 
d="M33 230q0 64 33.5 112.5t95 75.5t141.5 27q59 0 95.5 -23.5t36.5 -61.5q0 -19 -11 -30.5t-28 -11.5q-14 0 -23 8.5t-9 21.5q0 10 5.5 18t14.5 11q6 2 9 5.5t2 7.5q-3 12 -19.5 19t-41.5 7q-36 0 -58 -51t-22 -135q0 -94 26 -151t68 -57q13 0 37.5 10t52.5 27q7 5 13.5 6
t9.5 -3q1 -1 1 -3q0 -3 -4.5 -9t-11.5 -12q-25 -22 -63 -35t-76 -13q-81 0 -143.5 30t-96.5 84.5t-34 125.5zM234 495q0 50 -20.5 72.5t-65.5 22.5q-16 0 -21 2.5t-5 9.5q0 8 5.5 10.5t20.5 2.5q45 0 66 23t21 72q0 9 2.5 13t9.5 4t10 -3.5t3 -13.5q0 -52 20 -73.5t70 -21.5
q13 0 17.5 -2.5t4.5 -10.5q0 -7 -4.5 -9.5t-17.5 -2.5q-50 0 -70.5 -21.5t-20.5 -73.5q0 -11 -2.5 -15.5t-9.5 -4.5q-8 0 -10.5 4t-2.5 16z" />
    <glyph glyph-name="Ccaron" unicode="&#x10c;" horiz-adv-x="697" 
d="M69 330q0 113 44.5 199t125 133.5t185.5 47.5l114 -10l87 10q6 0 9.5 -4t3.5 -11v-146q0 -8 -3.5 -13t-9.5 -5q-8 0 -12.5 10.5t-4.5 26.5q0 52 -35.5 84t-94.5 32q-67 0 -108 -40t-41 -105v-400q0 -53 35 -85.5t92 -32.5q35 0 85.5 16.5t96.5 43.5q13 10 27 10q5 0 8 -3
q6 -6 0.5 -15t-19.5 -17q-39 -30 -102 -48t-128 -18q-105 0 -185.5 42.5t-125 119.5t-44.5 178zM262 863l83 57l57 -96l57 96l83 -57l-89 -108h-102z" />
    <glyph glyph-name="ccaron" unicode="&#x10d;" horiz-adv-x="494" 
d="M33 230q0 64 33.5 112.5t95 75.5t141.5 27q59 0 95.5 -23.5t36.5 -61.5q0 -19 -11 -30.5t-28 -11.5q-14 0 -23 8.5t-9 21.5q0 10 5.5 18t14.5 11q6 2 9 5.5t2 7.5q-3 12 -19.5 19t-41.5 7q-36 0 -58 -51t-22 -135q0 -94 26 -151t68 -57q13 0 37.5 10t52.5 27q7 5 13.5 6
t9.5 -3q1 -1 1 -3q0 -3 -4.5 -9t-11.5 -12q-25 -22 -63 -35t-76 -13q-81 0 -143.5 30t-96.5 84.5t-34 125.5zM107 598l83 57l57 -96l57 96l83 -57l-89 -108h-102z" />
    <glyph glyph-name="Dcaron" unicode="&#x10e;" horiz-adv-x="836" 
d="M15 12q0 7 3.5 10t17.5 3q23 0 33.5 12.5t10.5 42.5v540q0 30 -10.5 42.5t-33.5 12.5q-14 0 -17.5 3t-3.5 10t3 9.5t12 2.5h387q108 0 190.5 -41t128 -116t45.5 -173q0 -110 -48 -194t-135.5 -130t-202.5 -46h-365q-9 0 -12 2.5t-3 9.5zM536 161v392q0 55 -33 88.5
t-87 33.5q-48 0 -77 -23.5t-29 -62.5v-469q0 -41 29 -65.5t77 -24.5q54 0 87 36t33 95zM255 863l83 57l57 -96l57 96l83 -57l-89 -108h-102z" />
    <glyph glyph-name="dcaron" unicode="&#x10f;" horiz-adv-x="740" 
d="M33 216q0 68 28 119.5t79 80t117 28.5q58 0 97.5 -8.5t68.5 -41.5v226q0 30 -10.5 42.5t-33.5 12.5q-14 0 -17.5 3t-3.5 10t3 9.5t12 2.5h249q8 0 13.5 -4t6.5 -11h1v-605q0 -30 10.5 -42.5t33.5 -12.5q14 0 17.5 -3t3.5 -10t-3 -9.5t-12 -2.5h-245q-11 0 -18 7t-7 18v18
q-17 -24 -59.5 -38.5t-94.5 -14.5q-70 0 -123.5 28t-83 79.5t-29.5 118.5zM423 98v245q0 51 -80 51q-31 0 -50.5 -16.5t-19.5 -43.5v-240q0 -25 19.5 -40t50.5 -15q36 0 58 16.5t22 42.5zM102 583l83 57l57 -96l57 96l83 -57l-89 -108h-102z" />
    <glyph glyph-name="Dcroat" unicode="&#x110;" horiz-adv-x="946" 
d="M123 12q0 7 3.5 10t17.5 3q23 0 33.5 12.5t10.5 42.5v355h-123v50h123v135q0 30 -10.5 42.5t-33.5 12.5q-14 0 -17.5 3t-3.5 10t3 9.5t12 2.5h387q108 0 190.5 -42.5t128 -119.5t45.5 -178q0 -107 -48 -188.5t-135.5 -126.5t-202.5 -45h-365q-9 0 -12 2.5t-3 9.5z
M644 151v402q0 56 -34.5 90t-91.5 34q-45 0 -72.5 -15.5t-27.5 -41.5v-135h105v-50h-105v-355q0 -26 25 -42t66 -16q61 0 98 35.5t37 93.5z" />
    <glyph glyph-name="dcroat" unicode="&#x111;" horiz-adv-x="741" 
d="M33 216q0 108 54 168t171 60q94 0 166 -50v131h-91v70h91v25q0 30 -10.5 42.5t-33.5 12.5q-14 0 -17.5 3t-3.5 10t3 9.5t12 2.5h249q17 0 20 -15h1v-90h43v-70h-43v-445q0 -30 10.5 -42.5t33.5 -12.5q14 0 17.5 -3t3.5 -10t-3 -9.5t-12 -2.5h-245q-25 0 -25 25v18
q-38 -53 -154 -53q-112 0 -174.5 54.5t-62.5 171.5zM424 98v235q0 61 -80 61q-70 0 -70 -60v-240q0 -55 70 -55q80 0 80 59z" />
    <glyph glyph-name="Emacron" unicode="&#x112;" horiz-adv-x="714" 
d="M65 12q0 7 3.5 10t17.5 3q23 0 33.5 12.5t10.5 42.5v540q0 30 -10.5 42.5t-33.5 12.5q-14 0 -17.5 3t-3.5 10t3 9.5t12 2.5h579v-161q0 -8 -4.5 -13t-12.5 -5q-6 0 -9.5 9t-3.5 23q0 52 -45 84.5t-119 32.5q-47 0 -76 -13.5t-29 -36.5v-540q0 -22 29 -36t76 -14
q74 0 119 32.5t45 84.5q0 14 3.5 23t9.5 9q8 0 12.5 -5t4.5 -13v-161h-579q-9 0 -12 2.5t-3 9.5zM505 329q0 49 -20.5 71.5t-65.5 22.5q-16 0 -21 2.5t-5 9.5q0 8 5.5 10.5t20.5 2.5q45 0 66 23t21 72q0 9 2.5 13t9.5 4t10 -3.5t3 -13.5q0 -52 20 -73.5t70 -21.5
q13 0 17.5 -2.5t4.5 -10.5q0 -7 -4.5 -9.5t-17.5 -2.5q-50 0 -70.5 -21t-20.5 -73q0 -11 -2.5 -15.5t-9.5 -4.5q-8 0 -10.5 4t-2.5 16zM195 835h334v-80h-334v80z" />
    <glyph glyph-name="emacron" unicode="&#x113;" horiz-adv-x="570" 
d="M33 203q0 89 38.5 144t99 79t128.5 24q70 0 124.5 -20t84.5 -56t30 -81q0 -10 -4 -15.5t-10 -5.5h-236q-11 0 -18 -7t-7 -18v-161q0 -28 26 -44.5t69 -16.5q29 0 59 12.5t51 33.5q16 16 24 16t8 -5q0 -9 -18 -27q-26 -29 -77 -47t-107 -18q-67 0 -128 28t-99 77t-38 108z
M328 295q7 0 11 4t4 11v73q0 17 -10 27.5t-27 10.5q-20 0 -31.5 -10.5t-11.5 -27.5v-73q0 -7 4 -11t11 -4h50zM117 570h334v-80h-334v80z" />
    <glyph glyph-name="Edotaccent" unicode="&#x116;" horiz-adv-x="714" 
d="M65 12q0 7 3.5 10t17.5 3q23 0 33.5 12.5t10.5 42.5v540q0 30 -10.5 42.5t-33.5 12.5q-14 0 -17.5 3t-3.5 10t3 9.5t12 2.5h579v-161q0 -8 -4.5 -13t-12.5 -5q-6 0 -9.5 9t-3.5 23q0 52 -45 84.5t-119 32.5q-47 0 -76 -13.5t-29 -36.5v-540q0 -22 29 -36t76 -14
q74 0 119 32.5t45 84.5q0 14 3.5 23t9.5 9q8 0 12.5 -5t4.5 -13v-161h-579q-9 0 -12 2.5t-3 9.5zM505 329q0 49 -20.5 71.5t-65.5 22.5q-16 0 -21 2.5t-5 9.5q0 8 5.5 10.5t20.5 2.5q45 0 66 23t21 72q0 9 2.5 13t9.5 4t10 -3.5t3 -13.5q0 -52 20 -73.5t70 -21.5
q13 0 17.5 -2.5t4.5 -10.5q0 -7 -4.5 -9.5t-17.5 -2.5q-50 0 -70.5 -21t-20.5 -73q0 -11 -2.5 -15.5t-9.5 -4.5q-8 0 -10.5 4t-2.5 16zM349 760q0 50 -20.5 72.5t-65.5 22.5q-16 0 -21 2.5t-5 9.5q0 8 5.5 10.5t20.5 2.5q45 0 66 23t21 72q0 9 2.5 13t9.5 4t10 -3.5t3 -13.5
q0 -52 20 -73.5t70 -21.5q13 0 17.5 -2.5t4.5 -10.5q0 -7 -4.5 -9.5t-17.5 -2.5q-50 0 -70.5 -21.5t-20.5 -73.5q0 -11 -2.5 -15.5t-9.5 -4.5q-8 0 -10.5 4t-2.5 16z" />
    <glyph glyph-name="edotaccent" unicode="&#x117;" horiz-adv-x="570" 
d="M33 203q0 89 38.5 144t99 79t128.5 24q70 0 124.5 -20t84.5 -56t30 -81q0 -10 -4 -15.5t-10 -5.5h-236q-11 0 -18 -7t-7 -18v-161q0 -28 26 -44.5t69 -16.5q29 0 59 12.5t51 33.5q16 16 24 16t8 -5q0 -9 -18 -27q-26 -29 -77 -47t-107 -18q-67 0 -128 28t-99 77t-38 108z
M328 295q7 0 11 4t4 11v73q0 17 -10 27.5t-27 10.5q-20 0 -31.5 -10.5t-11.5 -27.5v-73q0 -7 4 -11t11 -4h50zM271 495q0 50 -20.5 72.5t-65.5 22.5q-16 0 -21 2.5t-5 9.5q0 8 5.5 10.5t20.5 2.5q45 0 66 23t21 72q0 9 2.5 13t9.5 4t10 -3.5t3 -13.5q0 -52 20 -73.5
t70 -21.5q13 0 17.5 -2.5t4.5 -10.5q0 -7 -4.5 -9.5t-17.5 -2.5q-50 0 -70.5 -21.5t-20.5 -73.5q0 -11 -2.5 -15.5t-9.5 -4.5q-8 0 -10.5 4t-2.5 16z" />
    <glyph glyph-name="Eogonek" unicode="&#x118;" horiz-adv-x="737" 
d="M672 -120l6 -8q-22 -16 -51.5 -25t-58.5 -9q-20 0 -34 16.5t-14 39.5q0 30 23 59t60 47h-523q-9 0 -12 2.5t-3 9.5t3.5 10t17.5 3q23 0 33.5 12.5t10.5 42.5v540q0 30 -10.5 42.5t-33.5 12.5q-14 0 -17.5 3t-3.5 10t3 9.5t12 2.5h579v-161q0 -8 -4.5 -13t-12.5 -5
q-6 0 -9.5 9t-3.5 23q0 52 -45 84.5t-119 32.5q-47 0 -76 -13.5t-29 -36.5v-540q0 -22 29 -36t76 -14q74 0 119 32.5t45 84.5q0 14 3.5 23t9.5 9q8 0 12.5 -5t4.5 -13v-155h19q-28 -12 -53 -41.5t-25 -47.5q0 -21 12.5 -31t40.5 -10q13 0 19 4zM643 435q0 -7 -4.5 -9.5
t-17.5 -2.5q-50 0 -70.5 -21t-20.5 -73q0 -11 -2.5 -15.5t-9.5 -4.5q-8 0 -10.5 4t-2.5 16q0 49 -20.5 71.5t-65.5 22.5q-16 0 -21 2.5t-5 9.5q0 8 5.5 10.5t20.5 2.5q45 0 66 23t21 72q0 9 2.5 13t9.5 4t10 -3.5t3 -13.5q0 -52 20 -73.5t70 -21.5q13 0 17.5 -2.5t4.5 -10.5
z" />
    <glyph glyph-name="eogonek" unicode="&#x119;" horiz-adv-x="570" 
d="M538 293q0 -10 -4 -15.5t-10 -5.5h-236q-11 0 -18 -7t-7 -18v-161q0 -28 26 -44.5t69 -16.5q29 0 59 12.5t51 33.5q16 16 24 16t8 -5q0 -9 -18 -27q-26 -29 -74 -46h4q-28 -12 -53 -41.5t-25 -47.5q0 -21 12.5 -31t40.5 -10q13 0 19 4l6 -8q-22 -16 -51.5 -25t-58.5 -9
q-20 0 -34 16.5t-14 39.5q0 25 16.5 50t44.5 43h-17q-67 0 -128 28t-99 77t-38 108q0 89 38.5 144t99 79t128.5 24q70 0 124.5 -20t84.5 -56t30 -81zM343 383q0 17 -10 27.5t-27 10.5q-20 0 -31.5 -10.5t-11.5 -27.5v-73q0 -7 4 -11t11 -4h50q7 0 11 4t4 11v73z" />
    <glyph glyph-name="Ecaron" unicode="&#x11a;" horiz-adv-x="714" 
d="M65 12q0 7 3.5 10t17.5 3q23 0 33.5 12.5t10.5 42.5v540q0 30 -10.5 42.5t-33.5 12.5q-14 0 -17.5 3t-3.5 10t3 9.5t12 2.5h579v-161q0 -8 -4.5 -13t-12.5 -5q-6 0 -9.5 9t-3.5 23q0 52 -45 84.5t-119 32.5q-47 0 -76 -13.5t-29 -36.5v-540q0 -22 29 -36t76 -14
q74 0 119 32.5t45 84.5q0 14 3.5 23t9.5 9q8 0 12.5 -5t4.5 -13v-161h-579q-9 0 -12 2.5t-3 9.5zM505 329q0 49 -20.5 71.5t-65.5 22.5q-16 0 -21 2.5t-5 9.5q0 8 5.5 10.5t20.5 2.5q45 0 66 23t21 72q0 9 2.5 13t9.5 4t10 -3.5t3 -13.5q0 -52 20 -73.5t70 -21.5
q13 0 17.5 -2.5t4.5 -10.5q0 -7 -4.5 -9.5t-17.5 -2.5q-50 0 -70.5 -21t-20.5 -73q0 -11 -2.5 -15.5t-9.5 -4.5q-8 0 -10.5 4t-2.5 16zM222 863l83 57l57 -96l57 96l83 -57l-89 -108h-102z" />
    <glyph glyph-name="ecaron" unicode="&#x11b;" horiz-adv-x="570" 
d="M33 203q0 89 38.5 144t99 79t128.5 24q70 0 124.5 -20t84.5 -56t30 -81q0 -10 -4 -15.5t-10 -5.5h-236q-11 0 -18 -7t-7 -18v-161q0 -28 26 -44.5t69 -16.5q29 0 59 12.5t51 33.5q16 16 24 16t8 -5q0 -9 -18 -27q-26 -29 -77 -47t-107 -18q-67 0 -128 28t-99 77t-38 108z
M328 295q7 0 11 4t4 11v73q0 17 -10 27.5t-27 10.5q-20 0 -31.5 -10.5t-11.5 -27.5v-73q0 -7 4 -11t11 -4h50zM144 598l83 57l57 -96l57 96l83 -57l-89 -108h-102z" />
    <glyph glyph-name="Gbreve" unicode="&#x11e;" horiz-adv-x="874" 
d="M65 335q0 111 51 196t143.5 131.5t213.5 46.5q17 0 80 -9q9 0 37 4q23 4 35 4q15 0 24 -6.5t9 -17.5v-156q0 -16 -16 -16q-6 0 -10 8t-4 21q0 62 -41 100t-108 38q-69 0 -111.5 -53.5t-42.5 -140.5v-350q0 -52 36.5 -83.5t96.5 -31.5q53 0 85.5 29t32.5 77v193
q0 13 -11 18q-26 14 -45 19.5t-40 5.5q-46 0 -73 -23t-27 -62q0 -34 21.5 -56t54.5 -22q30 0 50 17t20 43q0 24 -16 42t-38 18q-18 0 -33 -12.5t-15 -28.5q0 -15 11 -27.5t28 -12.5h11q16 0 16 -10q0 -8 -9.5 -12t-23.5 -4q-25 0 -43 18.5t-18 44.5q0 29 23 50.5t54 21.5
q34 0 57.5 -25.5t23.5 -61.5q0 -38 -27.5 -63t-70.5 -25q-46 0 -75 27.5t-29 71.5q0 32 16 59.5t42.5 44t56.5 16.5q28 0 80 -8q94 -16 140 -16q24 0 55.5 7.5t59.5 20.5q11 0 11 -16q0 -23 -18 -75q-14 -44 -14 -67q0 -20 9 -47.5t23 -54.5q7 -12 11.5 -22.5t4.5 -16.5
q0 -4 -5.5 -7t-13.5 -3q-11 0 -28.5 4t-24.5 5q-18 0 -45.5 -11t-53.5 -28q-44 -30 -97.5 -48t-95.5 -18q-119 0 -209.5 43t-140.5 121.5t-50 180.5zM317 899l5 5q2 -1 35.5 -30.5t88.5 -29.5t89 29.5t37 30.5l5 -5q0 -51 -24 -97.5t-107 -46.5q-82 0 -105.5 46.5
t-23.5 97.5z" />
    <glyph glyph-name="gbreve" unicode="&#x11f;" horiz-adv-x="757" 
d="M209 -135q0 32 18.5 50.5t54.5 18.5q22 0 35.5 -8.5t13.5 -24.5q0 -10 -9 -10q-4 0 -9 6q-10 10 -26 10q-18 0 -28.5 -7.5t-10.5 -22.5q0 -18 17 -28.5t50 -10.5q59 0 92.5 27.5t33.5 81.5v89q-33 -22 -82.5 -34t-108.5 -12q-102 0 -161 55t-59 164q0 110 66 173t195 63
q47 0 86.5 -13.5t62.5 -39.5v28q0 15 15 15h255q9 0 12 -2.5t3 -9.5t-3.5 -10t-17.5 -3q-23 0 -33.5 -12.5t-10.5 -42.5v-304q0 -126 -71 -198.5t-210 -72.5q-79 0 -124.5 21.5t-45.5 63.5zM440 94v235q0 30 -20.5 47.5t-59.5 17.5q-33 0 -51.5 -15t-18.5 -45v-240
q0 -26 17.5 -40.5t52.5 -14.5q37 0 58.5 14t21.5 41zM244 634l5 5q2 -1 35.5 -30.5t88.5 -29.5t89 29.5t37 30.5l5 -5q0 -51 -24 -97.5t-107 -46.5q-82 0 -105.5 46.5t-23.5 97.5z" />
    <glyph glyph-name="Gdotaccent" unicode="&#x120;" horiz-adv-x="874" 
d="M65 335q0 111 51 196t143.5 131.5t213.5 46.5q17 0 80 -9q9 0 37 4q23 4 35 4q15 0 24 -6.5t9 -17.5v-156q0 -16 -16 -16q-6 0 -10 8t-4 21q0 62 -41 100t-108 38q-69 0 -111.5 -53.5t-42.5 -140.5v-350q0 -52 36.5 -83.5t96.5 -31.5q53 0 85.5 29t32.5 77v193
q0 13 -11 18q-26 14 -45 19.5t-40 5.5q-46 0 -73 -23t-27 -62q0 -34 21.5 -56t54.5 -22q30 0 50 17t20 43q0 24 -16 42t-38 18q-18 0 -33 -12.5t-15 -28.5q0 -15 11 -27.5t28 -12.5h11q16 0 16 -10q0 -8 -9.5 -12t-23.5 -4q-25 0 -43 18.5t-18 44.5q0 29 23 50.5t54 21.5
q34 0 57.5 -25.5t23.5 -61.5q0 -38 -27.5 -63t-70.5 -25q-46 0 -75 27.5t-29 71.5q0 32 16 59.5t42.5 44t56.5 16.5q28 0 80 -8q94 -16 140 -16q24 0 55.5 7.5t59.5 20.5q11 0 11 -16q0 -23 -18 -75q-14 -44 -14 -67q0 -20 9 -47.5t23 -54.5q7 -12 11.5 -22.5t4.5 -16.5
q0 -4 -5.5 -7t-13.5 -3q-11 0 -28.5 4t-24.5 5q-18 0 -45.5 -11t-53.5 -28q-44 -30 -97.5 -48t-95.5 -18q-119 0 -209.5 43t-140.5 121.5t-50 180.5zM434 760q0 50 -20.5 72.5t-65.5 22.5q-16 0 -21 2.5t-5 9.5q0 8 5.5 10.5t20.5 2.5q45 0 66 23t21 72q0 9 2.5 13t9.5 4
t10 -3.5t3 -13.5q0 -52 20 -73.5t70 -21.5q13 0 17.5 -2.5t4.5 -10.5q0 -7 -4.5 -9.5t-17.5 -2.5q-50 0 -70.5 -21.5t-20.5 -73.5q0 -11 -2.5 -15.5t-9.5 -4.5q-8 0 -10.5 4t-2.5 16z" />
    <glyph glyph-name="gdotaccent" unicode="&#x121;" horiz-adv-x="757" 
d="M209 -135q0 32 18.5 50.5t54.5 18.5q22 0 35.5 -8.5t13.5 -24.5q0 -10 -9 -10q-4 0 -9 6q-10 10 -26 10q-18 0 -28.5 -7.5t-10.5 -22.5q0 -18 17 -28.5t50 -10.5q59 0 92.5 27.5t33.5 81.5v89q-33 -22 -82.5 -34t-108.5 -12q-102 0 -161 55t-59 164q0 110 66 173t195 63
q47 0 86.5 -13.5t62.5 -39.5v28q0 15 15 15h255q9 0 12 -2.5t3 -9.5t-3.5 -10t-17.5 -3q-23 0 -33.5 -12.5t-10.5 -42.5v-304q0 -126 -71 -198.5t-210 -72.5q-79 0 -124.5 21.5t-45.5 63.5zM440 94v235q0 30 -20.5 47.5t-59.5 17.5q-33 0 -51.5 -15t-18.5 -45v-240
q0 -26 17.5 -40.5t52.5 -14.5q37 0 58.5 14t21.5 41zM361 495q0 50 -20.5 72.5t-65.5 22.5q-16 0 -21 2.5t-5 9.5q0 8 5.5 10.5t20.5 2.5q45 0 66 23t21 72q0 9 2.5 13t9.5 4t10 -3.5t3 -13.5q0 -52 20 -73.5t70 -21.5q13 0 17.5 -2.5t4.5 -10.5q0 -7 -4.5 -9.5t-17.5 -2.5
q-50 0 -70.5 -21.5t-20.5 -73.5q0 -11 -2.5 -15.5t-9.5 -4.5q-8 0 -10.5 4t-2.5 16z" />
    <glyph glyph-name="uni0122" unicode="&#x122;" horiz-adv-x="874" 
d="M65 335q0 111 51 196t143.5 131.5t213.5 46.5q17 0 80 -9q9 0 37 4q23 4 35 4q15 0 24 -6.5t9 -17.5v-156q0 -16 -16 -16q-6 0 -10 8t-4 21q0 62 -41 100t-108 38q-69 0 -111.5 -53.5t-42.5 -140.5v-350q0 -52 36.5 -83.5t96.5 -31.5q53 0 85.5 29t32.5 77v193
q0 13 -11 18q-26 14 -45 19.5t-40 5.5q-46 0 -73 -23t-27 -62q0 -34 21.5 -56t54.5 -22q30 0 50 17t20 43q0 24 -16 42t-38 18q-18 0 -33 -12.5t-15 -28.5q0 -15 11 -27.5t28 -12.5h11q16 0 16 -10q0 -8 -9.5 -12t-23.5 -4q-25 0 -43 18.5t-18 44.5q0 29 23 50.5t54 21.5
q34 0 57.5 -25.5t23.5 -61.5q0 -38 -27.5 -63t-70.5 -25q-46 0 -75 27.5t-29 71.5q0 32 16 59.5t42.5 44t56.5 16.5q28 0 80 -8q94 -16 140 -16q24 0 55.5 7.5t59.5 20.5q11 0 11 -16q0 -23 -18 -75q-14 -44 -14 -67q0 -20 9 -47.5t23 -54.5q7 -12 11.5 -22.5t4.5 -16.5
q0 -4 -5.5 -7t-13.5 -3q-11 0 -28.5 4t-24.5 5q-18 0 -45.5 -11t-53.5 -28q-44 -30 -97.5 -48t-95.5 -18q-119 0 -209.5 43t-140.5 121.5t-50 180.5zM430 -286q0 9 5 14l21 17q4 4 17.5 14.5t19.5 20.5t6 23t-5 16q-10 7 -39 9q-20 2 -40 6q-37 9 -37 32v75q0 14 6 22.5
t16 9.5q34 0 72.5 -22.5t64.5 -58.5t26 -74q0 -31 -25 -56.5t-69 -59.5q-6 -7 -19 -7q-20 0 -20 19z" />
    <glyph glyph-name="uni0123" unicode="&#x123;" horiz-adv-x="757" 
d="M209 -135q0 32 18.5 50.5t54.5 18.5q22 0 35.5 -8.5t13.5 -24.5q0 -10 -9 -10q-4 0 -9 6q-10 10 -26 10q-18 0 -28.5 -7.5t-10.5 -22.5q0 -18 17 -28.5t50 -10.5q59 0 92.5 27.5t33.5 81.5v89q-33 -22 -82.5 -34t-108.5 -12q-102 0 -161 55t-59 164q0 110 66 173t195 63
q47 0 86.5 -13.5t62.5 -39.5v28q0 15 15 15h255q9 0 12 -2.5t3 -9.5t-3.5 -10t-17.5 -3q-23 0 -33.5 -12.5t-10.5 -42.5v-304q0 -126 -71 -198.5t-210 -72.5q-79 0 -124.5 21.5t-45.5 63.5zM440 94v235q0 30 -20.5 47.5t-59.5 17.5q-33 0 -51.5 -15t-18.5 -45v-240
q0 -26 17.5 -40.5t52.5 -14.5q37 0 58.5 14t21.5 41zM281 639q0 51 103 130q6 7 19 7q20 0 20 -19q0 -9 -5 -14l-21 -17q-24 -20 -38 -36.5t-14 -35.5q0 -13 5 -16q10 -7 39 -9q20 -2 40 -6q37 -9 37 -32v-75q0 -14 -6 -22.5t-16 -9.5q-34 0 -72.5 22.5t-64.5 58.5t-26 74z
" />
    <glyph glyph-name="Hbar" unicode="&#x126;" horiz-adv-x="973" 
d="M65 12q0 7 3.5 10t17.5 3q23 0 33.5 12.5t10.5 42.5v502h-50v60h48q-3 18 -13 25.5t-29 7.5q-14 0 -17.5 3t-3.5 10t3 9.5t12 2.5h330q9 0 12 -2.5t3 -9.5t-3.5 -10t-17.5 -3q-18 0 -28.5 -7.5t-13.5 -25.5h265q-3 18 -13 25.5t-29 7.5q-14 0 -17.5 3t-3.5 10t3 9.5
t12 2.5h320q9 0 12 -2.5t3 -9.5t-3.5 -10t-17.5 -3q-18 0 -28.5 -7.5t-13.5 -25.5h49v-60h-51v-502q0 -30 10.5 -42.5t33.5 -12.5q14 0 17.5 -3t3.5 -10t-3 -9.5t-12 -2.5h-320q-9 0 -12 2.5t-3 9.5t3.5 10t17.5 3q23 0 33.5 12.5t10.5 42.5v502h-269v-502q0 -30 10.5 -42.5
t33.5 -12.5q14 0 17.5 -3t3.5 -10t-3 -9.5t-12 -2.5h-330q-9 0 -12 2.5t-3 9.5zM490 326q0 46 -27.5 73.5t-72.5 27.5q-21 0 -21 8t21 8q44 0 72 27.5t28 72.5q0 10 1 12.5t6 2.5t6.5 -3t1.5 -12q0 -45 26.5 -72.5t70.5 -27.5q11 0 14 -1.5t3 -6.5q0 -4 -3 -6t-14 -2
q-44 0 -70.5 -27.5t-26.5 -73.5q0 -8 -1.5 -10.5t-5.5 -2.5q-5 0 -6.5 2t-1.5 11z" />
    <glyph glyph-name="hbar" unicode="&#x127;" horiz-adv-x="772" 
d="M33 12q0 7 3.5 10t17.5 3q23 0 33.5 12.5t10.5 42.5v455h-50v60h50v25q0 30 -10.5 42.5t-33.5 12.5q-14 0 -17.5 3t-3.5 10t3 9.5t12 2.5h248q9 0 14.5 -4t5.5 -11v-90h50v-60h-50v-152q40 28 88 45t87 17q83 0 133.5 -49.5t50.5 -130.5v-185q0 -30 10.5 -42.5
t33.5 -12.5q14 0 17.5 -3t3.5 -10t-3 -9.5t-12 -2.5h-304q-9 0 -12 2.5t-3 9.5t3.5 10t17.5 3q23 0 33.5 12.5t10.5 42.5v185q0 52 -22.5 84t-59.5 32q-32 0 -51.5 -16t-19.5 -42v-243q0 -30 10.5 -42.5t33.5 -12.5q14 0 17.5 -3t3.5 -10t-3 -9.5t-12 -2.5h-320
q-9 0 -12 2.5t-3 9.5z" />
    <glyph glyph-name="Imacron" unicode="&#x12a;" horiz-adv-x="484" 
d="M65 12q0 7 3.5 10t17.5 3q23 0 33.5 12.5t10.5 42.5v540q0 30 -10.5 42.5t-33.5 12.5q-14 0 -17.5 3t-3.5 10t3 9.5t12 2.5h330q9 0 12 -2.5t3 -9.5t-3.5 -10t-17.5 -3q-23 0 -33.5 -12.5t-10.5 -42.5v-540q0 -30 10.5 -42.5t33.5 -12.5q14 0 17.5 -3t3.5 -10t-3 -9.5
t-12 -2.5h-330q-9 0 -12 2.5t-3 9.5zM78 835h334v-80h-334v80z" />
    <glyph glyph-name="imacron" unicode="&#x12b;" horiz-adv-x="415" 
d="M33 12q0 7 3.5 10t17.5 3q23 0 33.5 12.5t10.5 42.5v275q0 30 -10.5 42.5t-33.5 12.5q-14 0 -17.5 3t-3.5 10t3 9.5t12 2.5h250q9 0 14.5 -4t5.5 -11v-340q0 -30 10.5 -42.5t33.5 -12.5q14 0 17.5 -3t3.5 -10t-3 -9.5t-12 -2.5h-320q-9 0 -12 2.5t-3 9.5zM20 570h334v-80
h-334v80z" />
    <glyph glyph-name="Iogonek" unicode="&#x12e;" horiz-adv-x="499" 
d="M434 -117l6 -8q-22 -16 -51.5 -25t-58.5 -9q-20 0 -34 16.5t-14 39.5q0 28 21 56t56 47h-279q-9 0 -12 2.5t-3 9.5t3.5 10t17.5 3q23 0 33.5 12.5t10.5 42.5v540q0 30 -10.5 42.5t-33.5 12.5q-14 0 -17.5 3t-3.5 10t3 9.5t12 2.5h330q9 0 12 -2.5t3 -9.5t-3.5 -10
t-17.5 -3q-23 0 -33.5 -12.5t-10.5 -42.5v-540q0 -30 10.5 -42.5t33.5 -12.5q14 0 17.5 -3t3.5 -10v-3h15q-28 -12 -53 -41.5t-25 -47.5q0 -21 12.5 -31t40.5 -10q13 0 19 4z" />
    <glyph glyph-name="iogonek" unicode="&#x12f;" horiz-adv-x="429" 
d="M83 594q0 8 21 8q45 0 72.5 28.5t27.5 75.5q0 8 1.5 10t5.5 2q5 0 6.5 -2.5t1.5 -9.5q0 -47 26.5 -75t70.5 -28q11 0 14 -1.5t3 -6.5q0 -4 -3 -6t-14 -2q-44 0 -70 -27.5t-26 -73.5q0 -8 -1.5 -10.5t-5.5 -2.5q-5 0 -6.5 2t-1.5 11q0 46 -28 73t-73 27q-21 0 -21 8z
M397 -121q-22 -16 -51 -24.5t-56 -8.5q-20 0 -31.5 16t-11.5 35q0 26 21.5 55t61.5 48h-282q-9 0 -12 2.5t-3 9.5t3.5 10t17.5 3q23 0 33.5 12.5t10.5 42.5v275q0 30 -10 42.5t-33 12.5q-14 0 -17.5 3t-3.5 10t3 9.5t12 2.5h249q20 0 20 -15v-340q0 -30 10.5 -42.5
t33.5 -12.5q14 0 17.5 -3t3.5 -10q0 -9 -6 -11q-24 -17 -42 -41t-18 -40q0 -46 58 -46q15 0 22 5z" />
    <glyph glyph-name="Idotaccent" unicode="&#x130;" horiz-adv-x="484" 
d="M65 12q0 7 3.5 10t17.5 3q23 0 33.5 12.5t10.5 42.5v540q0 30 -10.5 42.5t-33.5 12.5q-14 0 -17.5 3t-3.5 10t3 9.5t12 2.5h330q9 0 12 -2.5t3 -9.5t-3.5 -10t-17.5 -3q-23 0 -33.5 -12.5t-10.5 -42.5v-540q0 -30 10.5 -42.5t33.5 -12.5q14 0 17.5 -3t3.5 -10t-3 -9.5
t-12 -2.5h-330q-9 0 -12 2.5t-3 9.5zM232 760q0 50 -20.5 72.5t-65.5 22.5q-16 0 -21 2.5t-5 9.5q0 8 5.5 10.5t20.5 2.5q45 0 66 23t21 72q0 9 2.5 13t9.5 4t10 -3.5t3 -13.5q0 -52 20 -73.5t70 -21.5q13 0 17.5 -2.5t4.5 -10.5q0 -7 -4.5 -9.5t-17.5 -2.5
q-50 0 -70.5 -21.5t-20.5 -73.5q0 -11 -2.5 -15.5t-9.5 -4.5q-8 0 -10.5 4t-2.5 16z" />
    <glyph glyph-name="dotlessi" unicode="&#x131;" horiz-adv-x="415" 
d="M33 12q0 7 3.5 10t17.5 3q23 0 33.5 12.5t10.5 42.5v275q0 30 -10.5 42.5t-33.5 12.5q-14 0 -17.5 3t-3.5 10t3 9.5t12 2.5h250q9 0 14.5 -4t5.5 -11v-340q0 -30 10.5 -42.5t33.5 -12.5q14 0 17.5 -3t3.5 -10t-3 -9.5t-12 -2.5h-320q-9 0 -12 2.5t-3 9.5z" />
    <glyph glyph-name="IJ" unicode="&#x132;" horiz-adv-x="953" 
d="M65 12q0 7 3.5 10t17.5 3q23 0 33.5 12.5t10.5 42.5v540q0 30 -10.5 42.5t-33.5 12.5q-14 0 -17.5 3t-3.5 10t3 9.5t12 2.5h330q9 0 12 -2.5t3 -9.5t-3.5 -10t-17.5 -3q-23 0 -33.5 -12.5t-10.5 -42.5v-540q0 -30 10.5 -42.5t33.5 -12.5q14 0 17.5 -3t3.5 -10t-3 -9.5
t-12 -2.5h-330q-9 0 -12 2.5t-3 9.5zM324 -46q0 10 4 15.5t10 5.5q7 0 11 -4t4 -11q0 -39 28 -62.5t74 -23.5q65 0 104.5 58t39.5 152v536q0 30 -10.5 42.5t-33.5 12.5q-14 0 -17.5 3t-3.5 10t3 9.5t12 2.5h330q9 0 12 -2.5t3 -9.5t-3.5 -10t-17.5 -3q-23 0 -33.5 -12.5
t-10.5 -42.5v-536q0 -89 -29.5 -156.5t-83 -104.5t-123.5 -37q-80 0 -141 21t-94.5 59t-33.5 88z" />
    <glyph glyph-name="ij" unicode="&#x133;" horiz-adv-x="685" 
d="M184 485q0 46 -28 73t-73 27q-21 0 -21 8q0 5 4.5 6.5t16.5 1.5q45 0 72.5 28.5t27.5 75.5q0 8 1.5 10t5.5 2q5 0 6.5 -2.5t1.5 -9.5q0 -47 26.5 -75t70.5 -28q11 0 14 -1.5t3 -6.5q0 -4 -3 -6t-14 -2q-44 0 -70 -27.5t-26 -73.5q0 -8 -1.5 -10.5t-5.5 -2.5q-5 0 -6.5 2
t-1.5 11zM525 485q0 46 -28 73t-73 27q-21 0 -21 8t21 8q45 0 72.5 28.5t27.5 75.5q0 8 1.5 10t5.5 2q5 0 6.5 -2.5t1.5 -9.5q0 -47 26.5 -75t70.5 -28q11 0 14 -1.5t3 -6.5q0 -4 -3 -6t-14 -2q-44 0 -70 -27.5t-26 -73.5q0 -8 -1.5 -10.5t-5.5 -2.5q-5 0 -6.5 2t-1.5 11z
M33 12q0 7 3.5 10t17.5 3q23 0 33.5 12.5t10.5 42.5v275q0 30 -10.5 42.5t-33.5 12.5q-14 0 -17.5 3t-3.5 10t3 9.5t12 2.5h250q9 0 14.5 -4t5.5 -11v-340q0 -30 10.5 -42.5t33.5 -12.5q14 0 17.5 -3t3.5 -10t-3 -9.5t-12 -2.5h-320q-9 0 -12 2.5t-3 9.5zM315 -81
q-10 15 -10 22q0 5 4 5q5 0 11 -5q21 -14 46 -14q65 0 65 86v342q0 55 -43 55q-21 0 -21 13q0 12 15 12h249q20 0 20 -15v-454q0 -123 -147 -123q-139 0 -189 76z" />
    <glyph glyph-name="uni0136" unicode="&#x136;" horiz-adv-x="963" 
d="M65 12q0 7 3.5 10t17.5 3q23 0 33.5 12.5t10.5 42.5v540q0 30 -10 42.5t-33 12.5q-14 0 -17.5 3t-3.5 10t3 9.5t12 2.5h328q9 0 12 -2.5t3 -9.5t-3.5 -10t-17.5 -3q-23 0 -33.5 -12.5t-10.5 -42.5v-165q0 -10 8 -16t22 -6q26 0 60 20t65 59q70 89 125.5 126.5t106.5 55.5
q21 8 33 8q6 0 9 -2t4 -9q3 -7 -3.5 -11.5t-32.5 -13.5q-107 -39 -156 -123q-3 -7 -3 -15q0 -10 6 -27l202 -429q24 -47 78 -47q14 0 17.5 -3t3.5 -10t-3 -9.5t-12 -2.5h-354q-9 0 -12 2.5t-3 9.5t3.5 10t17.5 3q23 0 23 11q0 8 -13 36l-140 297q-10 10 -17.5 15t-14.5 5
q-8 0 -13.5 -4.5t-5.5 -10.5v-294q0 -30 10.5 -42.5t33.5 -12.5q14 0 17.5 -3t3.5 -10t-3 -9.5t-12 -2.5h-330q-9 0 -12 2.5t-3 9.5zM448 -286q0 7 3 10l21 17q22 18 33.5 32t11.5 30q0 14 -7 20q-11 8 -42 10q-7 1 -16.5 2t-22.5 4q-18 4 -25.5 10.5t-7.5 16.5v75
q0 12 4.5 19t12.5 8q33 0 70.5 -21.5t62.5 -56.5t25 -72q0 -27 -26.5 -54.5t-65.5 -57.5q-6 -6 -16 -6q-15 0 -15 14z" />
    <glyph glyph-name="uni0137" unicode="&#x137;" horiz-adv-x="784" 
d="M33 12q0 7 3.5 10t17.5 3q23 0 33.5 12.5t10.5 42.5v490q0 30 -10.5 42.5t-33.5 12.5q-14 0 -17.5 3t-3.5 10t3 9.5t12 2.5h253q17 0 17 -15v-246q0 -35 30 -35q16 0 52 39q120 132 209 132q33 0 62 -19q13 -10 13 -18q0 -12 -15 -13q-8 0 -14 5q-22 15 -49 15
q-95 0 -95 -91q0 -25 8 -41l151 -292q25 -46 81 -46q14 0 17.5 -3t3.5 -10t-3 -9.5t-12 -2.5h-325q-9 0 -12 2.5t-3 9.5t3.5 10t17.5 3q22 0 22 10q0 8 -15 36q-28 53 -41 77l-55 104q-9 18 -17 18q-14 0 -14 -41v-149q0 -30 10.5 -42.5t33.5 -12.5q14 0 17.5 -3t3.5 -10
t-3 -9.5t-12 -2.5h-320q-9 0 -12 2.5t-3 9.5zM350 -286q0 9 5 14l21 17q4 4 17.5 14.5t19.5 20.5t6 23t-5 16q-10 7 -39 9q-20 2 -40 6q-37 9 -37 32v75q0 14 6 22.5t16 9.5q34 0 72.5 -22.5t64.5 -58.5t26 -74q0 -31 -25 -56.5t-69 -59.5q-6 -7 -19 -7q-20 0 -20 19z" />
    <glyph glyph-name="Lacute" unicode="&#x139;" horiz-adv-x="718" 
d="M65 12q0 7 3.5 10t17.5 3q23 0 33.5 12.5t10.5 42.5v540q0 30 -10.5 42.5t-33.5 12.5q-14 0 -17.5 3t-3.5 10t3 9.5t12 2.5h330q9 0 12 -2.5t3 -9.5t-3.5 -10t-17.5 -3q-23 0 -33.5 -12.5t-10.5 -42.5v-540q0 -22 35 -36t92 -14q64 0 103 34t39 89q0 12 4.5 19t11.5 7
q6 0 10 -5t4 -13v-161h-579q-9 0 -12 2.5t-3 9.5zM163 794l103 173l83 -57l-128 -157z" />
    <glyph glyph-name="lacute" unicode="&#x13a;" horiz-adv-x="392" 
d="M21 12q0 7 3.5 10t17.5 3q23 0 33.5 12.5t10.5 42.5v540q0 30 -10.5 42.5t-33.5 12.5q-14 0 -17.5 3t-3.5 10t3 9.5t12 2.5h245q25 0 25 -25v-595q0 -30 10.5 -42.5t33.5 -12.5q14 0 17.5 -3t3.5 -10t-3 -9.5t-12 -2.5h-320q-9 0 -12 2.5t-3 9.5zM103 794l103 173l83 -57
l-128 -157z" />
    <glyph glyph-name="uni013B" unicode="&#x13b;" horiz-adv-x="709" 
d="M65 12q0 7 3.5 10t17.5 3q23 0 33.5 12.5t10.5 42.5v540q0 30 -10.5 42.5t-33.5 12.5q-14 0 -17.5 3t-3.5 10t3 9.5t12 2.5h330q9 0 12 -2.5t3 -9.5t-3.5 -10t-17.5 -3q-23 0 -33.5 -12.5t-10.5 -42.5v-540q0 -22 35 -36t92 -14q64 0 103 34t39 89q0 12 4.5 19t11.5 7
q6 0 10 -5t4 -13v-161h-579q-9 0 -12 2.5t-3 9.5zM321 -286q0 9 5 14l21 17q4 4 17.5 14.5t19.5 20.5t6 23t-5 16q-10 7 -39 9q-20 2 -40 6q-37 9 -37 32v75q0 14 6 22.5t16 9.5q34 0 72.5 -22.5t64.5 -58.5t26 -74q0 -31 -25 -56.5t-69 -59.5q-6 -7 -19 -7q-20 0 -20 19z
" />
    <glyph glyph-name="uni013C" unicode="&#x13c;" horiz-adv-x="392" 
d="M21 12q0 7 3.5 10t17.5 3q23 0 33.5 12.5t10.5 42.5v540q0 30 -10.5 42.5t-33.5 12.5q-14 0 -17.5 3t-3.5 10t3 9.5t12 2.5h245q25 0 25 -25v-595q0 -30 10.5 -42.5t33.5 -12.5q14 0 17.5 -3t3.5 -10t-3 -9.5t-12 -2.5h-320q-9 0 -12 2.5t-3 9.5zM186 -286q0 9 5 14
l21 17q4 4 17.5 14.5t19.5 20.5t6 23t-5 16q-10 7 -39 9q-20 2 -40 6q-37 9 -37 32v75q0 14 6 22.5t16 9.5q34 0 72.5 -22.5t64.5 -58.5t26 -74q0 -31 -25 -56.5t-69 -59.5q-6 -7 -19 -7q-20 0 -20 19z" />
    <glyph glyph-name="Lcaron" unicode="&#x13d;" horiz-adv-x="718" 
d="M65 12q0 7 3.5 10t17.5 3q23 0 33.5 12.5t10.5 42.5v540q0 30 -10.5 42.5t-33.5 12.5q-14 0 -17.5 3t-3.5 10t3 9.5t12 2.5h330q9 0 12 -2.5t3 -9.5t-3.5 -10t-17.5 -3q-23 0 -33.5 -12.5t-10.5 -42.5v-540q0 -22 35 -36t92 -14q64 0 103 34t39 89q0 12 4.5 19t11.5 7
q6 0 10 -5t4 -13v-161h-579q-9 0 -12 2.5t-3 9.5zM96 863l83 57l57 -96l57 96l83 -57l-89 -108h-102z" />
    <glyph glyph-name="lcaron" unicode="&#x13e;" horiz-adv-x="392" 
d="M21 12q0 7 3.5 10t17.5 3q23 0 33.5 12.5t10.5 42.5v540q0 30 -10.5 42.5t-33.5 12.5q-14 0 -17.5 3t-3.5 10t3 9.5t12 2.5h245q25 0 25 -25v-595q0 -30 10.5 -42.5t33.5 -12.5q14 0 17.5 -3t3.5 -10t-3 -9.5t-12 -2.5h-320q-9 0 -12 2.5t-3 9.5zM56 863l83 57l57 -96
l57 96l83 -57l-89 -108h-102z" />
    <glyph glyph-name="Ldot" unicode="&#x13f;" horiz-adv-x="624" 
d="M15 12q0 7 3.5 10t17.5 3q23 0 33.5 12.5t10.5 42.5v540q0 30 -10.5 42.5t-33.5 12.5q-14 0 -17.5 3t-3.5 10t3 9.5t12 2.5h330q9 0 12 -2.5t3 -9.5t-3.5 -10t-17.5 -3q-23 0 -33.5 -12.5t-10.5 -42.5v-540q0 -24 33 -37t94 -13q68 0 105 32t37 91q0 16 4 21t12 5
q7 0 10.5 -3t3.5 -15v-161h-579q-9 0 -12 2.5t-3 9.5zM471 331q0 49 -20.5 71.5t-65.5 22.5q-16 0 -21 2.5t-5 9.5q0 8 5.5 10.5t20.5 2.5q45 0 66 23t21 72q0 9 2.5 13t9.5 4t10 -3.5t3 -13.5q0 -52 20 -73.5t70 -21.5q13 0 17.5 -2.5t4.5 -10.5q0 -7 -4.5 -9.5t-17.5 -2.5
q-50 0 -70.5 -21t-20.5 -73q0 -11 -2.5 -15.5t-9.5 -4.5q-8 0 -10.5 4t-2.5 16z" />
    <glyph glyph-name="ldot" unicode="&#x140;" horiz-adv-x="707" 
d="M65 12q0 7 3.5 10t17.5 3q23 0 33.5 12.5t10.5 42.5v540q0 30 -10.5 42.5t-33.5 12.5q-14 0 -17.5 3t-3.5 10t3 9.5t12 2.5h245q25 0 25 -25v-595q0 -30 10.5 -42.5t33.5 -12.5q14 0 17.5 -3t3.5 -10t-3 -9.5t-12 -2.5h-320q-9 0 -12 2.5t-3 9.5zM510 329
q0 49 -20.5 71.5t-65.5 22.5q-16 0 -21 2.5t-5 9.5q0 8 5.5 10.5t20.5 2.5q45 0 66 23t21 72q0 9 2.5 13t9.5 4t10 -3.5t3 -13.5q0 -52 20 -73.5t70 -21.5q13 0 17.5 -2.5t4.5 -10.5q0 -7 -4.5 -9.5t-17.5 -2.5q-50 0 -70.5 -21t-20.5 -73q0 -11 -2.5 -15.5t-9.5 -4.5
q-8 0 -10.5 4t-2.5 16z" />
    <glyph glyph-name="Lslash" unicode="&#x141;" horiz-adv-x="736" 
d="M83 12q0 7 3.5 10t17.5 3q23 0 33.5 12.5t10.5 42.5v266l-48 -28l-35 61l83 48v193q0 30 -10.5 42.5t-33.5 12.5q-14 0 -17.5 3t-3.5 10t3 9.5t12 2.5h330q9 0 12 -2.5t3 -9.5t-3.5 -10t-17.5 -3q-23 0 -33.5 -12.5t-10.5 -42.5v-61l47 26l35 -61l-82 -46v-398
q0 -22 35 -36t92 -14q64 0 103 34t39 89q0 12 4.5 19t11.5 7q6 0 10 -5t4 -13v-161h-579q-9 0 -12 2.5t-3 9.5z" />
    <glyph glyph-name="lslash" unicode="&#x142;" horiz-adv-x="451" 
d="M51 12q0 7 3.5 10t17.5 3q23 0 33.5 12.5t10.5 42.5v266l-48 -28l-35 61l83 48v193q0 30 -10.5 42.5t-33.5 12.5q-14 0 -17.5 3t-3.5 10t3 9.5t12 2.5h245q25 0 25 -25v-121l48 25l35 -61l-83 -46v-392q0 -30 10.5 -42.5t33.5 -12.5q14 0 17.5 -3t3.5 -10t-3 -9.5
t-12 -2.5h-320q-9 0 -12 2.5t-3 9.5z" />
    <glyph glyph-name="Nacute" unicode="&#x143;" horiz-adv-x="860" 
d="M524 180q-241 215 -349 312q-6 4 -8 4q-7 0 -7 -11v-405q0 -30 10.5 -42.5t33.5 -12.5q14 0 17.5 -3t3.5 -10t-3 -9.5t-12 -2.5h-130q-9 0 -12 2.5t-3 9.5t3.5 10t17.5 3q23 0 33.5 12.5t10.5 42.5v540q0 30 -10.5 42.5t-33.5 12.5q-14 0 -17.5 3t-3.5 10t3 9.5t12 2.5
h158q18 0 44.5 -10t39.5 -22l369 -330l8 -4q7 0 7 11v275q0 30 -10.5 42.5t-33.5 12.5q-14 0 -17.5 3t-3.5 10t3 9.5t12 2.5h130q9 0 12 -2.5t3 -9.5t-3.5 -10t-17.5 -3q-23 0 -33.5 -12.5t-10.5 -42.5v-630q0 2 -212 190zM340 794l103 173l83 -57l-128 -157z" />
    <glyph glyph-name="nacute" unicode="&#x144;" horiz-adv-x="773" 
d="M34 12q0 7 3.5 10t17.5 3q23 0 33.5 12.5t10.5 42.5l-1 275q0 30 -10.5 42.5t-33.5 12.5q-14 0 -17.5 3t-3.5 10t3 9.5t12 2.5h249q20 0 20 -15v-37q89 62 175 62q87 0 135.5 -43t48.5 -137v-185q0 -30 10.5 -42.5t33.5 -12.5q14 0 17.5 -3t3.5 -10t-3 -9.5t-12 -2.5
h-304q-9 0 -12 2.5t-3 9.5t3.5 10t17.5 3q23 0 33.5 12.5t10.5 42.5v185q0 116 -82 116q-71 0 -71 -56v-245q0 -30 10.5 -42.5t33.5 -12.5q14 0 17.5 -3t3.5 -10t-3 -9.5t-12 -2.5h-320q-9 0 -12 2.5t-3 9.5zM294 529l103 173l83 -57l-128 -157z" />
    <glyph glyph-name="uni0145" unicode="&#x145;" horiz-adv-x="860" 
d="M524 180q-241 215 -349 312q-6 4 -8 4q-7 0 -7 -11v-405q0 -30 10.5 -42.5t33.5 -12.5q14 0 17.5 -3t3.5 -10t-3 -9.5t-12 -2.5h-130q-9 0 -12 2.5t-3 9.5t3.5 10t17.5 3q23 0 33.5 12.5t10.5 42.5v540q0 30 -10.5 42.5t-33.5 12.5q-14 0 -17.5 3t-3.5 10t3 9.5t12 2.5
h158q18 0 44.5 -10t39.5 -22l369 -330l8 -4q7 0 7 11v275q0 30 -10.5 42.5t-33.5 12.5q-14 0 -17.5 3t-3.5 10t3 9.5t12 2.5h130q9 0 12 -2.5t3 -9.5t-3.5 -10t-17.5 -3q-23 0 -33.5 -12.5t-10.5 -42.5v-630q0 2 -212 190zM392 -286q0 9 5 14l21 17q4 4 17.5 14.5t19.5 20.5
t6 23t-5 16q-10 7 -39 9q-20 2 -40 6q-37 9 -37 32v75q0 14 6 22.5t16 9.5q34 0 72.5 -22.5t64.5 -58.5t26 -74q0 -31 -25 -56.5t-69 -59.5q-6 -7 -19 -7q-20 0 -20 19z" />
    <glyph glyph-name="uni0146" unicode="&#x146;" horiz-adv-x="773" 
d="M34 12q0 7 3.5 10t17.5 3q23 0 33.5 12.5t10.5 42.5l-1 275q0 30 -10.5 42.5t-33.5 12.5q-14 0 -17.5 3t-3.5 10t3 9.5t12 2.5h249q20 0 20 -15v-37q89 62 175 62q87 0 135.5 -43t48.5 -137v-185q0 -30 10.5 -42.5t33.5 -12.5q14 0 17.5 -3t3.5 -10t-3 -9.5t-12 -2.5
h-304q-9 0 -12 2.5t-3 9.5t3.5 10t17.5 3q23 0 33.5 12.5t10.5 42.5v185q0 116 -82 116q-71 0 -71 -56v-245q0 -30 10.5 -42.5t33.5 -12.5q14 0 17.5 -3t3.5 -10t-3 -9.5t-12 -2.5h-320q-9 0 -12 2.5t-3 9.5zM346 -286q0 9 5 14l21 17q4 4 17.5 14.5t19.5 20.5t6 23t-5 16
q-10 7 -39 9q-20 2 -40 6q-37 9 -37 32v75q0 14 6 22.5t16 9.5q34 0 72.5 -22.5t64.5 -58.5t26 -74q0 -31 -25 -56.5t-69 -59.5q-6 -7 -19 -7q-20 0 -20 19z" />
    <glyph glyph-name="Ncaron" unicode="&#x147;" horiz-adv-x="860" 
d="M524 180q-241 215 -349 312q-6 4 -8 4q-7 0 -7 -11v-405q0 -30 10.5 -42.5t33.5 -12.5q14 0 17.5 -3t3.5 -10t-3 -9.5t-12 -2.5h-130q-9 0 -12 2.5t-3 9.5t3.5 10t17.5 3q23 0 33.5 12.5t10.5 42.5v540q0 30 -10.5 42.5t-33.5 12.5q-14 0 -17.5 3t-3.5 10t3 9.5t12 2.5
h158q18 0 44.5 -10t39.5 -22l369 -330l8 -4q7 0 7 11v275q0 30 -10.5 42.5t-33.5 12.5q-14 0 -17.5 3t-3.5 10t3 9.5t12 2.5h130q9 0 12 -2.5t3 -9.5t-3.5 -10t-17.5 -3q-23 0 -33.5 -12.5t-10.5 -42.5v-630q0 2 -212 190zM293 863l83 57l57 -96l57 96l83 -57l-89 -108h-102
z" />
    <glyph glyph-name="ncaron" unicode="&#x148;" horiz-adv-x="773" 
d="M34 12q0 7 3.5 10t17.5 3q23 0 33.5 12.5t10.5 42.5l-1 275q0 30 -10.5 42.5t-33.5 12.5q-14 0 -17.5 3t-3.5 10t3 9.5t12 2.5h249q20 0 20 -15v-37q89 62 175 62q87 0 135.5 -43t48.5 -137v-185q0 -30 10.5 -42.5t33.5 -12.5q14 0 17.5 -3t3.5 -10t-3 -9.5t-12 -2.5
h-304q-9 0 -12 2.5t-3 9.5t3.5 10t17.5 3q23 0 33.5 12.5t10.5 42.5v185q0 116 -82 116q-71 0 -71 -56v-245q0 -30 10.5 -42.5t33.5 -12.5q14 0 17.5 -3t3.5 -10t-3 -9.5t-12 -2.5h-320q-9 0 -12 2.5t-3 9.5zM247 598l83 57l57 -96l57 96l83 -57l-89 -108h-102z" />
    <glyph glyph-name="Eng" unicode="&#x14a;" horiz-adv-x="930" 
d="M341 -46q0 13 3 17t11 4q9 0 12 -2.5t3 -12.5q0 -34 25 -50t77 -16q54 0 79 44.5t25 145.5v50q-34 30 -81.5 72.5t-107.5 96.5q-68 60 -212 189q-6 4 -8 4q-7 0 -7 -11v-405q0 -30 10.5 -42.5t33.5 -12.5q14 0 17.5 -3t3.5 -10t-3 -9.5t-12 -2.5h-130q-9 0 -12 2.5
t-3 9.5t3.5 10t17.5 3q23 0 33.5 12.5t10.5 42.5v540q0 30 -10.5 42.5t-33.5 12.5q-14 0 -17.5 3t-3.5 10t3 9.5t12 2.5h158q18 0 44.5 -10t39.5 -22l254 -227v179q0 30 -10.5 42.5t-33.5 12.5q-14 0 -17.5 3t-3.5 10t3 9.5t12 2.5h330q9 0 12 -2.5t3 -9.5t-3.5 -10
t-17.5 -3q-23 0 -33.5 -12.5t-10.5 -42.5v-536q0 -135 -64.5 -216.5t-181.5 -81.5q-70 0 -119.5 25t-74.5 63.5t-25 79.5z" />
    <glyph glyph-name="eng" unicode="&#x14b;" horiz-adv-x="704" 
d="M351 -81q-10 15 -10 22q0 5 4 5t11 -5q23 -14 46 -14q27 0 45 20t20 53v265q0 52 -22.5 84t-59.5 32q-30 0 -48.5 -10t-18.5 -26v-265q0 -30 10.5 -42.5t33.5 -12.5q14 0 17.5 -3t3.5 -10t-3 -9.5t-12 -2.5h-320q-9 0 -12 2.5t-3 9.5t3.5 10t17.5 3q23 0 33.5 12.5
t10.5 42.5v275q0 30 -10.5 42.5t-33.5 12.5q-14 0 -17.5 3t-3.5 10t3 9.5t12 2.5h247q10 0 16.5 -7.5t6.5 -19.5v-33q18 15 47.5 31.5t58.5 28.5q30 10 63 10q83 0 134 -49.5t51 -130.5v-299q0 -55 -36.5 -89t-95.5 -34q-62 0 -113.5 21t-75.5 55z" />
    <glyph glyph-name="Omacron" unicode="&#x14c;" horiz-adv-x="936" 
d="M65 341q0 109 52.5 192.5t144.5 130t208 46.5q121 0 213 -43.5t143 -123t51 -183.5q0 -110 -51 -194t-143 -130t-213 -46q-199 0 -302 94t-103 257zM627 155v394q0 64 -43 102.5t-114 38.5q-65 0 -105 -38.5t-40 -102.5v-394q0 -65 40 -105t105 -40q71 0 114 40t43 105z
M304 835h334v-80h-334v80z" />
    <glyph glyph-name="omacron" unicode="&#x14d;" horiz-adv-x="662" 
d="M33 233q0 57 30.5 105t96 77.5t165.5 29.5q134 0 208.5 -51.5t74.5 -161.5q0 -115 -68 -178.5t-215 -63.5q-140 0 -216 63t-76 180zM383 104v241q0 80 -58 80q-62 0 -62 -80v-241q0 -92 60 -92t60 92zM164 570h334v-80h-334v80z" />
    <glyph glyph-name="Ohungarumlaut" unicode="&#x150;" horiz-adv-x="936" 
d="M65 341q0 109 52.5 192.5t144.5 130t208 46.5q121 0 213 -43.5t143 -123t51 -183.5q0 -110 -51 -194t-143 -130t-213 -46q-199 0 -302 94t-103 257zM627 155v394q0 64 -43 102.5t-114 38.5q-65 0 -105 -38.5t-40 -102.5v-394q0 -65 40 -105t105 -40q71 0 114 40t43 105z
M292 787l117 152l81 -58l-145 -127zM452 787l117 152l81 -58l-145 -127z" />
    <glyph glyph-name="ohungarumlaut" unicode="&#x151;" horiz-adv-x="662" 
d="M33 233q0 57 30.5 105t96 77.5t165.5 29.5q134 0 208.5 -51.5t74.5 -161.5q0 -115 -68 -178.5t-215 -63.5q-140 0 -216 63t-76 180zM383 104v241q0 80 -58 80q-62 0 -62 -80v-241q0 -92 60 -92t60 92zM152 522l117 152l81 -58l-145 -127zM312 522l117 152l81 -58
l-145 -127z" />
    <glyph glyph-name="OE" unicode="&#x152;" horiz-adv-x="1214" 
d="M65 341q0 109 50.5 193t142.5 130t212 46q70 0 125 -10h560v-161q0 -8 -4.5 -13t-12.5 -5q-6 0 -9.5 9t-3.5 23q0 52 -45 84.5t-119 32.5q-47 0 -76 -13.5t-29 -36.5v-540q0 -22 29 -36t76 -14q74 0 119 32.5t45 84.5q0 14 3.5 23t9.5 9q8 0 12.5 -5t4.5 -13v-161h-562
q-53 -10 -123 -10q-120 0 -212 43.5t-142.5 123.5t-50.5 184zM627 155v394q0 64 -43 102.5t-114 38.5q-65 0 -105 -38.5t-40 -102.5v-394q0 -65 40 -105t105 -40q71 0 114 40t43 105zM998 329q0 52 -22 75.5t-69 23.5q-15 0 -18 1t-3 6t3.5 6.5t17.5 1.5q47 0 69.5 24
t22.5 76q0 8 1.5 10t5.5 2q5 0 6.5 -2t1.5 -10q0 -53 21.5 -76.5t73.5 -23.5q11 0 14 -1.5t3 -6.5q0 -4 -3 -5.5t-14 -1.5q-53 0 -74.5 -23t-21.5 -76q0 -10 -1.5 -12.5t-5.5 -2.5q-5 0 -6.5 2.5t-1.5 12.5z" />
    <glyph glyph-name="oe" unicode="&#x153;" horiz-adv-x="886" 
d="M33 227q0 65 33 114.5t93 76.5t138 27q36 0 77 -11t71 -28q29 17 69 27.5t76 10.5q71 0 125 -19t84 -53t30 -79q0 -10 -4 -15.5t-10 -5.5h-236q-11 0 -18 -7t-7 -18v-161q0 -28 26 -44.5t69 -16.5q29 0 59 12.5t51 33.5q16 16 24 16q5 0 5 -5q0 -10 -15 -27
q-26 -29 -77 -47t-107 -18q-38 0 -80.5 11t-73.5 29q-30 -18 -68 -29t-70 -11q-78 0 -138 29.5t-93 83.5t-33 124zM354 101v235q0 40 -16 64.5t-41 24.5q-26 0 -42.5 -24.5t-16.5 -64.5v-235q0 -41 15.5 -66t41.5 -25t42.5 25t16.5 66zM619 295q7 0 11 4t4 11v73
q0 17 -10 27.5t-27 10.5q-20 0 -31.5 -10.5t-11.5 -27.5v-73q0 -7 4 -11t11 -4h50z" />
    <glyph glyph-name="Racute" unicode="&#x154;" horiz-adv-x="903" 
d="M529 91q-42 76 -81.5 122t-61.5 46q-12 0 -19.5 -4t-7.5 -11v-164q0 -30 10.5 -42.5t33.5 -12.5q14 0 17.5 -3t3.5 -10t-3 -9.5t-12 -2.5h-329q-9 0 -12 2.5t-3 9.5t3.5 10t17.5 3q23 0 33.5 12.5t10.5 42.5v540q0 30 -10.5 42.5t-33.5 12.5q-14 0 -17.5 3t-3.5 10t3 9.5
t12 2.5h413q93 0 163.5 -26t109.5 -74t39 -110q0 -64 -31 -115t-88 -82t-132 -37q55 -7 105.5 -34.5t78.5 -66.5q26 -36 47.5 -58t30.5 -22q14 0 39 30l10 7q3 0 5 -4t2 -11q0 -48 -44.5 -77.5t-117.5 -29.5q-56 0 -106 27.5t-75 73.5zM565 390v162q0 55 -29 89t-76 34
q-45 0 -72.5 -34t-27.5 -89v-162q0 -56 27.5 -90t72.5 -34q47 0 76 34t29 90zM336 794l103 173l83 -57l-128 -157z" />
    <glyph glyph-name="racute" unicode="&#x155;" horiz-adv-x="533" 
d="M123 529l103 173l83 -57l-128 -157zM33 12q0 7 3.5 10t17.5 3q23 0 33.5 12.5t10.5 42.5v275q0 30 -10.5 42.5t-33.5 12.5q-14 0 -17.5 3t-3.5 10t3 9.5t12 2.5h270q35 10 78 10q47 0 76 -20t29 -52q0 -22 -13 -35t-34 -13q-9 0 -21 4.5t-22 13.5q-6 6 -3 11l4 2
q3 0 10 -5q8 -6 18 -6q14 0 22.5 6.5t8.5 19.5q0 20 -20 32t-52 12q-37 0 -59 -11.5t-22 -31.5v-292q0 -30 10.5 -42.5t33.5 -12.5q14 0 17.5 -3t3.5 -10t-3 -9.5t-12 -2.5h-320q-9 0 -12 2.5t-3 9.5z" />
    <glyph glyph-name="uni0156" unicode="&#x156;" horiz-adv-x="903" 
d="M529 91q-42 76 -81.5 122t-61.5 46q-12 0 -19.5 -4t-7.5 -11v-164q0 -30 10.5 -42.5t33.5 -12.5q14 0 17.5 -3t3.5 -10t-3 -9.5t-12 -2.5h-329q-9 0 -12 2.5t-3 9.5t3.5 10t17.5 3q23 0 33.5 12.5t10.5 42.5v540q0 30 -10.5 42.5t-33.5 12.5q-14 0 -17.5 3t-3.5 10t3 9.5
t12 2.5h413q93 0 163.5 -26t109.5 -74t39 -110q0 -64 -31 -115t-88 -82t-132 -37q55 -7 105.5 -34.5t78.5 -66.5q26 -36 47.5 -58t30.5 -22q14 0 39 30l10 7q3 0 5 -4t2 -11q0 -48 -44.5 -77.5t-117.5 -29.5q-56 0 -106 27.5t-75 73.5zM565 390v162q0 55 -29 89t-76 34
q-45 0 -72.5 -34t-27.5 -89v-162q0 -56 27.5 -90t72.5 -34q47 0 76 34t29 90zM428 -286q0 9 5 14l21 17q4 4 17.5 14.5t19.5 20.5t6 23t-5 16q-10 7 -39 9q-20 2 -40 6q-37 9 -37 32v75q0 14 6 22.5t16 9.5q34 0 72.5 -22.5t64.5 -58.5t26 -74q0 -31 -25 -56.5t-69 -59.5
q-6 -7 -19 -7q-20 0 -20 19z" />
    <glyph glyph-name="uni0157" unicode="&#x157;" horiz-adv-x="516" 
d="M33 12q0 7 3.5 10t17.5 3q23 0 33.5 12.5t10.5 42.5v275q0 30 -10.5 42.5t-33.5 12.5q-14 0 -17.5 3t-3.5 10t3 9.5t12 2.5h270q35 10 78 10q47 0 76 -20t29 -52q0 -22 -13 -35t-34 -13q-9 0 -21 4.5t-22 13.5q-6 6 -3 11l4 2q3 0 10 -5q8 -6 18 -6q14 0 22.5 6.5
t8.5 19.5q0 20 -20 32t-52 12q-37 0 -59 -11.5t-22 -31.5v-292q0 -30 10.5 -42.5t33.5 -12.5q14 0 17.5 -3t3.5 -10t-3 -9.5t-12 -2.5h-320q-9 0 -12 2.5t-3 9.5zM192 -286q0 9 5 14l21 17q4 4 17.5 14.5t19.5 20.5t6 23t-5 16q-10 7 -39 9q-20 2 -40 6q-37 9 -37 32v75
q0 14 6 22.5t16 9.5q34 0 72.5 -22.5t64.5 -58.5t26 -74q0 -31 -25 -56.5t-69 -59.5q-6 -7 -19 -7q-20 0 -20 19z" />
    <glyph glyph-name="Rcaron" unicode="&#x158;" horiz-adv-x="931" 
d="M529 91q-42 76 -81.5 122t-61.5 46q-12 0 -19.5 -4t-7.5 -11v-164q0 -30 10.5 -42.5t33.5 -12.5q14 0 17.5 -3t3.5 -10t-3 -9.5t-12 -2.5h-329q-9 0 -12 2.5t-3 9.5t3.5 10t17.5 3q23 0 33.5 12.5t10.5 42.5v540q0 30 -10.5 42.5t-33.5 12.5q-14 0 -17.5 3t-3.5 10t3 9.5
t12 2.5h413q93 0 163.5 -26t109.5 -74t39 -110q0 -64 -31 -115t-88 -82t-132 -37q55 -7 105.5 -34.5t78.5 -66.5q26 -36 47.5 -58t30.5 -22q14 0 39 30l10 7q3 0 5 -4t2 -11q0 -48 -44.5 -77.5t-117.5 -29.5q-56 0 -106 27.5t-75 73.5zM565 390v162q0 55 -29 89t-76 34
q-45 0 -72.5 -34t-27.5 -89v-162q0 -56 27.5 -90t72.5 -34q47 0 76 34t29 90zM289 863l83 57l57 -96l57 96l83 -57l-89 -108h-102z" />
    <glyph glyph-name="rcaron" unicode="&#x159;" horiz-adv-x="533" 
d="M33 12q0 7 3.5 10t17.5 3q23 0 33.5 12.5t10.5 42.5v275q0 30 -10.5 42.5t-33.5 12.5q-14 0 -17.5 3t-3.5 10t3 9.5t12 2.5h270q35 10 78 10q47 0 76 -20t29 -52q0 -22 -13 -35t-34 -13q-9 0 -21 4.5t-22 13.5q-6 6 -3 11l4 2q3 0 10 -5q8 -6 18 -6q14 0 22.5 6.5
t8.5 19.5q0 20 -20 32t-52 12q-37 0 -59 -11.5t-22 -31.5v-292q0 -30 10.5 -42.5t33.5 -12.5q14 0 17.5 -3t3.5 -10t-3 -9.5t-12 -2.5h-320q-9 0 -12 2.5t-3 9.5zM54 598l83 57l57 -96l57 96l83 -57l-89 -108h-102z" />
    <glyph glyph-name="Sacute" unicode="&#x15a;" horiz-adv-x="696" 
d="M144 7q-24 4 -30 4q-11 0 -35 -11q-10 0 -10 16v184q0 5 4 7.5t11 2.5t11 -4.5t4 -12.5q0 -78 55.5 -125.5t147.5 -47.5q58 0 93 35t35 92q0 30 -36.5 61t-96.5 51q-104 40 -168 110t-64 146q0 61 28.5 107.5t80.5 72t120 25.5l64 -5q32 -5 54 -5h29q7 0 23 4.5t22 5.5
q5 0 5 -6v-116q0 -8 -4 -13t-11 -5t-11 6.5t-4 17.5q0 37 -33.5 60t-88.5 23q-40 0 -64 -20t-24 -53q0 -21 15.5 -39t40.5 -26l177 -62q69 -33 111 -103t42 -151q0 -72 -38.5 -127t-108.5 -85.5t-162 -30.5q-46 0 -97 4.5t-87 12.5zM258 794l103 173l83 -57l-128 -157z" />
    <glyph glyph-name="sacute" unicode="&#x15b;" horiz-adv-x="504" 
d="M71 0v143q0 13 8 13q10 0 10 -13q0 -53 30 -85.5t79 -32.5q28 0 44.5 11.5t16.5 31.5q0 22 -15.5 41t-41.5 28q-62 21 -99.5 60t-37.5 82q0 75 54 120.5t143 45.5h50l21 5q12 5 24 5q7 0 7 -10v-92q0 -4 -2 -6.5t-5 -2.5q-4 0 -6.5 4t-2.5 11q0 28 -21.5 44.5t-56.5 16.5
q-26 0 -42.5 -10.5t-16.5 -27.5q0 -14 10 -24.5t27 -13.5q89 -17 143 -70t54 -123q0 -68 -48 -109.5t-127 -41.5h-149l-42 -10q-8 0 -8 10zM119 529l103 173l83 -57l-128 -157z" />
    <glyph glyph-name="Scedilla" unicode="&#x15e;" horiz-adv-x="696" 
d="M346 -10l-3 -31q9 3 26 3q100 0 100 -95q0 -23 -16.5 -44.5t-43 -34.5t-54.5 -13q-34 0 -58.5 17.5t-24.5 41.5q0 21 17 38.5t38 17.5q17 0 31.5 -15t16.5 -34q-5 5 -13 8t-12 3q-14 0 -14 -17q0 -16 19 -16q31 0 31 55q0 21 -10 38t-21 17q-10 0 -16 -14
q-4 -8 -13.5 -12.5t-21.5 -4.5h-10q-2 2 -4 2h-7l11 91q-86 3 -150 16q-24 4 -30 4q-11 0 -35 -11q-10 0 -10 16v184q0 5 4 7.5t11 2.5t11 -4.5t4 -12.5q0 -78 55.5 -125.5t147.5 -47.5q58 0 93 35t35 92q0 30 -36.5 61t-96.5 51q-104 40 -168 110t-64 146q0 61 28.5 107.5
t80.5 72t120 25.5l64 -5q32 -5 54 -5h29q7 0 23 4.5t22 5.5q5 0 5 -6v-116q0 -8 -4 -13t-11 -5t-11 6.5t-4 17.5q0 37 -33.5 60t-88.5 23q-40 0 -64 -20t-24 -53q0 -21 15.5 -39t40.5 -26l177 -62q69 -33 111 -103t42 -151q0 -70 -36 -123.5t-102 -85t-153 -34.5z" />
    <glyph glyph-name="scedilla" unicode="&#x15f;" horiz-adv-x="445" 
d="M227 0l-4 -41q9 3 26 3q100 0 100 -95q0 -23 -16.5 -44.5t-43 -34.5t-54.5 -13q-34 0 -58.5 17.5t-24.5 41.5q0 21 17 38.5t38 17.5q17 0 31.5 -15t16.5 -34q-5 5 -13 8t-12 3q-14 0 -14 -17q0 -16 19 -16q31 0 31 55q0 21 -10 38t-21 17q-10 0 -16 -14
q-4 -8 -13.5 -12.5t-21.5 -4.5h-10q-2 2 -4 2h-7l12 100h-86l-42 -10q-8 0 -8 10v143q0 13 8 13q10 0 10 -13q0 -53 30 -85.5t79 -32.5q28 0 44.5 11.5t16.5 31.5q0 22 -15.5 41t-41.5 28q-62 21 -99.5 60t-37.5 82q0 75 54 120.5t143 45.5h50l21 5q12 5 24 5q7 0 7 -10v-92
q0 -4 -2 -6.5t-5 -2.5q-4 0 -6.5 4t-2.5 11q0 28 -21.5 44.5t-56.5 16.5q-26 0 -42.5 -10.5t-16.5 -27.5q0 -14 10 -24.5t27 -13.5q89 -17 143 -70t54 -123q0 -68 -48 -109.5t-127 -41.5h-11z" />
    <glyph glyph-name="Scaron" unicode="&#x160;" horiz-adv-x="696" 
d="M144 7q-24 4 -30 4q-11 0 -35 -11q-10 0 -10 16v184q0 5 4 7.5t11 2.5t11 -4.5t4 -12.5q0 -78 55.5 -125.5t147.5 -47.5q58 0 93 35t35 92q0 30 -36.5 61t-96.5 51q-104 40 -168 110t-64 146q0 61 28.5 107.5t80.5 72t120 25.5l64 -5q32 -5 54 -5h29q7 0 23 4.5t22 5.5
q5 0 5 -6v-116q0 -8 -4 -13t-11 -5t-11 6.5t-4 17.5q0 37 -33.5 60t-88.5 23q-40 0 -64 -20t-24 -53q0 -21 15.5 -39t40.5 -26l177 -62q69 -33 111 -103t42 -151q0 -72 -38.5 -127t-108.5 -85.5t-162 -30.5q-46 0 -97 4.5t-87 12.5zM211 863l83 57l57 -96l57 96l83 -57
l-89 -108h-102z" />
    <glyph glyph-name="scaron" unicode="&#x161;" horiz-adv-x="504" 
d="M71 0v143q0 13 8 13q10 0 10 -13q0 -53 30 -85.5t79 -32.5q28 0 44.5 11.5t16.5 31.5q0 22 -15.5 41t-41.5 28q-62 21 -99.5 60t-37.5 82q0 75 54 120.5t143 45.5h50l21 5q12 5 24 5q7 0 7 -10v-92q0 -4 -2 -6.5t-5 -2.5q-4 0 -6.5 4t-2.5 11q0 28 -21.5 44.5t-56.5 16.5
q-26 0 -42.5 -10.5t-16.5 -27.5q0 -14 10 -24.5t27 -13.5q89 -17 143 -70t54 -123q0 -68 -48 -109.5t-127 -41.5h-149l-42 -10q-8 0 -8 10zM95 598l83 57l57 -96l57 96l83 -57l-89 -108h-102z" />
    <glyph glyph-name="uni0162" unicode="&#x162;" horiz-adv-x="879" 
d="M854 700v-161q0 -10 -3 -14t-11 -4q-9 0 -12 6t-3 26q0 62 -40 89.5t-125 27.5q-56 0 -80.5 -12t-24.5 -38v-540q0 -30 10.5 -42.5t33.5 -12.5q14 0 17.5 -3t3.5 -10t-3 -9.5t-12 -2.5h-148l-4 -41q9 3 26 3q100 0 100 -95q0 -23 -16.5 -44.5t-43 -34.5t-54.5 -13
q-34 0 -58.5 17.5t-24.5 41.5q0 21 17 38.5t38 17.5q17 0 31.5 -15t16.5 -34q-5 5 -13 8t-12 3q-14 0 -14 -17q0 -16 19 -16q31 0 31 55q0 21 -10 38t-21 17q-10 0 -16 -14q-4 -8 -13.5 -12.5t-21.5 -4.5h-10q-2 2 -4 2h-7l12 100h-130q-9 0 -12 2.5t-3 9.5t3.5 10t17.5 3
q23 0 33.5 12.5t10.5 42.5v540q0 27 -25.5 38.5t-79.5 11.5q-88 0 -126.5 -27t-38.5 -84q0 -24 -3.5 -31t-13.5 -7q-8 0 -10.5 4t-2.5 14v161h829z" />
    <glyph glyph-name="uni0163" unicode="&#x163;" horiz-adv-x="472" 
d="M440 90q0 -6 -8 -22q-21 -35 -67.5 -56.5t-102.5 -21.5q-13 0 -20 1l-3 -32q9 3 26 3q100 0 100 -95q0 -23 -16.5 -44.5t-43 -34.5t-54.5 -13q-34 0 -58.5 17.5t-24.5 41.5q0 21 17 38.5t38 17.5q17 0 31.5 -15t16.5 -34q-5 5 -13 8t-12 3q-14 0 -14 -17q0 -16 19 -16
q31 0 31 55q0 21 -10 38t-21 17q-10 0 -16 -14q-4 -8 -13.5 -12.5t-21.5 -4.5h-10q-2 2 -4 2h-7l12 100q-45 13 -70 42.5t-25 70.5v284q0 6 -7 9.5t-19 3.5q-24 0 -30.5 3t-6.5 9q0 7 4.5 10t21.5 3q53 0 118.5 58t121.5 152q3 8 8 8q8 0 8 -13v-166q0 -17 15 -28t39 -11
q17 0 21.5 -3t4.5 -10t-7.5 -10t-34.5 -3q-16 0 -26.5 -3.5t-10.5 -8.5v-259q0 -29 16.5 -46.5t44.5 -17.5q26 0 50 14q8 5 11 5q2 0 2 -3z" />
    <glyph glyph-name="Tcaron" unicode="&#x164;" horiz-adv-x="879" 
d="M260 12q0 7 3.5 10t17.5 3q23 0 33.5 12.5t10.5 42.5v540q0 27 -25.5 38.5t-79.5 11.5q-88 0 -126.5 -27t-38.5 -84q0 -24 -3.5 -31t-13.5 -7q-8 0 -10.5 4t-2.5 14v161h829v-161q0 -10 -3 -14t-11 -4q-9 0 -12 6t-3 26q0 62 -40 89.5t-125 27.5q-56 0 -80.5 -12
t-24.5 -38v-540q0 -30 10.5 -42.5t33.5 -12.5q14 0 17.5 -3t3.5 -10t-3 -9.5t-12 -2.5h-330q-9 0 -12 2.5t-3 9.5zM300 863l83 57l57 -96l57 96l83 -57l-89 -108h-102z" />
    <glyph glyph-name="tcaron" unicode="&#x165;" horiz-adv-x="455" 
d="M96 113v284q0 6 -7 9.5t-19 3.5q-24 0 -30.5 3t-6.5 9q0 7 4.5 10t21.5 3q53 0 118.5 58t121.5 152q3 8 8 8q8 0 8 -13v-166q0 -17 15 -28t39 -11q17 0 21.5 -3t4.5 -10t-7.5 -10t-34.5 -3q-16 0 -26.5 -3.5t-10.5 -8.5v-259q0 -29 16.5 -46.5t44.5 -17.5q26 0 50 14
q8 5 11 5q2 0 2 -3q0 -6 -8 -22q-21 -35 -67.5 -56.5t-102.5 -21.5q-75 0 -120.5 33.5t-45.5 89.5zM-42 598l83 57l57 -96l57 96l83 -57l-89 -108h-102z" />
    <glyph glyph-name="Tbar" unicode="&#x166;" horiz-adv-x="953" 
d="M300 12q0 7 3.5 10t17.5 3q23 0 33.5 12.5t10.5 42.5v335h-87v70h87v135q0 27 -25.5 38.5t-79.5 11.5q-88 0 -126.5 -27t-38.5 -84q0 -24 -3.5 -31t-13.5 -7q-7 0 -10 3.5t-3 14.5v161h829v-161q0 -11 -3 -14.5t-11 -3.5q-9 0 -12 5.5t-3 26.5q0 62 -40 89.5t-125 27.5
q-56 0 -80.5 -12t-24.5 -38v-135h87v-70h-87v-335q0 -30 10 -42.5t33 -12.5q14 0 17.5 -3t3.5 -10t-3 -9.5t-12 -2.5h-329q-9 0 -12 2.5t-3 9.5z" />
    <glyph glyph-name="tbar" unicode="&#x167;" horiz-adv-x="473" 
d="M96 113v145h-46v70h46v69q0 6 -7 9.5t-19 3.5q-23 0 -30 3t-7 9q0 7 4.5 10t21.5 3q53 0 118.5 58t121.5 152q3 8 8 8q8 0 8 -13v-166q0 -17 15 -28t39 -11q17 0 21.5 -3t4.5 -10t-7.5 -10t-34.5 -3q-16 0 -26.5 -3.5t-10.5 -8.5v-69h58v-70h-58v-120q0 -29 16.5 -46.5
t44.5 -17.5q26 0 50 14q7 5 10 5q4 0 4 -5q0 -6 -9 -20q-23 -35 -70 -56.5t-100 -21.5q-75 0 -120.5 33.5t-45.5 89.5z" />
    <glyph glyph-name="Umacron" unicode="&#x16a;" horiz-adv-x="836" 
d="M132 265l-1 355q-1 30 -11.5 42.5t-33.5 12.5q-14 0 -17.5 3t-3.5 10t3 9.5t12 2.5h331q9 0 12 -2.5t3 -9.5t-3.5 -10t-17.5 -3q-23 0 -33.5 -12.5t-10.5 -42.5v-365q0 -92 45.5 -148t120.5 -56q82 0 132 51t50 135v383q0 30 -10.5 42.5t-33.5 12.5q-14 0 -17.5 3
t-3.5 10t3 9.5t12 2.5h130q9 0 12 -2.5t3 -9.5t-3.5 -10t-17.5 -3q-23 0 -33.5 -12.5t-10.5 -42.5v-385q0 -73 -33 -129t-93 -86.5t-139 -30.5q-102 0 -179.5 34.5t-120 97t-42.5 144.5zM297 835h334v-80h-334v80z" />
    <glyph glyph-name="umacron" unicode="&#x16b;" horiz-adv-x="774" 
d="M98 170v185q0 30 -10.5 42.5t-33.5 12.5q-14 0 -17.5 3t-3.5 10t3 9.5t12 2.5h305q9 0 12 -2.5t3 -9.5t-3.5 -10t-17.5 -3q-23 0 -33.5 -12.5t-10.5 -42.5v-185q0 -116 82 -116q73 0 73 36l-2 265q0 29 -10 41.5t-32 12.5q-16 0 -20 3t-4 10t3 9.5t12 2.5l100 1h222
q9 0 12 -2.5t3 -9.5t-3.5 -10t-17.5 -3q-23 0 -33.5 -12.5t-10.5 -42.5v-275q0 -30 10.5 -42.5t33.5 -12.5q14 0 17.5 -3t3.5 -10t-3 -9.5t-12 -2.5h-249q-20 0 -20 27v21q-83 -58 -175 -58q-88 0 -136.5 43t-48.5 137zM219 570h334v-80h-334v80z" />
    <glyph glyph-name="Uring" unicode="&#x16e;" horiz-adv-x="836" 
d="M132 265l-1 355q-1 30 -11.5 42.5t-33.5 12.5q-14 0 -17.5 3t-3.5 10t3 9.5t12 2.5h331q9 0 12 -2.5t3 -9.5t-3.5 -10t-17.5 -3q-23 0 -33.5 -12.5t-10.5 -42.5v-365q0 -92 45.5 -148t120.5 -56q82 0 132 51t50 135v383q0 30 -10.5 42.5t-33.5 12.5q-14 0 -17.5 3
t-3.5 10t3 9.5t12 2.5h130q9 0 12 -2.5t3 -9.5t-3.5 -10t-17.5 -3q-23 0 -33.5 -12.5t-10.5 -42.5v-385q0 -73 -33 -129t-93 -86.5t-139 -30.5q-102 0 -179.5 34.5t-120 97t-42.5 144.5zM356 864q0 44 32 75.5t77 31.5q43 0 75 -31.5t32 -75.5q0 -30 -15 -56.5t-39.5 -42
t-52.5 -15.5q-44 0 -76.5 34t-32.5 80zM505 861q0 17 -12.5 29t-28.5 12q-17 0 -29 -12t-12 -29t12 -29.5t29 -12.5t29 12.5t12 29.5z" />
    <glyph glyph-name="uring" unicode="&#x16f;" horiz-adv-x="774" 
d="M98 170v185q0 30 -10.5 42.5t-33.5 12.5q-14 0 -17.5 3t-3.5 10t3 9.5t12 2.5h305q9 0 12 -2.5t3 -9.5t-3.5 -10t-17.5 -3q-23 0 -33.5 -12.5t-10.5 -42.5v-185q0 -116 82 -116q73 0 73 36l-2 265q0 29 -10 41.5t-32 12.5q-16 0 -20 3t-4 10t3 9.5t12 2.5l100 1h222
q9 0 12 -2.5t3 -9.5t-3.5 -10t-17.5 -3q-23 0 -33.5 -12.5t-10.5 -42.5v-275q0 -30 10.5 -42.5t33.5 -12.5q14 0 17.5 -3t3.5 -10t-3 -9.5t-12 -2.5h-249q-20 0 -20 27v21q-83 -58 -175 -58q-88 0 -136.5 43t-48.5 137zM278 599q0 44 32 75.5t77 31.5q43 0 75 -31.5
t32 -75.5q0 -30 -15 -56.5t-39.5 -42t-52.5 -15.5q-44 0 -76.5 34t-32.5 80zM427 596q0 17 -12.5 29t-28.5 12q-17 0 -29 -12t-12 -29t12 -29.5t29 -12.5t29 12.5t12 29.5z" />
    <glyph glyph-name="Uhungarumlaut" unicode="&#x170;" horiz-adv-x="836" 
d="M132 265l-1 355q-1 30 -11.5 42.5t-33.5 12.5q-14 0 -17.5 3t-3.5 10t3 9.5t12 2.5h331q9 0 12 -2.5t3 -9.5t-3.5 -10t-17.5 -3q-23 0 -33.5 -12.5t-10.5 -42.5v-365q0 -92 45.5 -148t120.5 -56q82 0 132 51t50 135v383q0 30 -10.5 42.5t-33.5 12.5q-14 0 -17.5 3
t-3.5 10t3 9.5t12 2.5h130q9 0 12 -2.5t3 -9.5t-3.5 -10t-17.5 -3q-23 0 -33.5 -12.5t-10.5 -42.5v-385q0 -73 -33 -129t-93 -86.5t-139 -30.5q-102 0 -179.5 34.5t-120 97t-42.5 144.5zM285 787l117 152l81 -58l-145 -127zM445 787l117 152l81 -58l-145 -127z" />
    <glyph glyph-name="uhungarumlaut" unicode="&#x171;" horiz-adv-x="774" 
d="M98 170v185q0 30 -10.5 42.5t-33.5 12.5q-14 0 -17.5 3t-3.5 10t3 9.5t12 2.5h305q9 0 12 -2.5t3 -9.5t-3.5 -10t-17.5 -3q-23 0 -33.5 -12.5t-10.5 -42.5v-185q0 -116 82 -116q73 0 73 36l-2 265q0 29 -10 41.5t-32 12.5q-16 0 -20 3t-4 10t3 9.5t12 2.5l100 1h222
q9 0 12 -2.5t3 -9.5t-3.5 -10t-17.5 -3q-23 0 -33.5 -12.5t-10.5 -42.5v-275q0 -30 10.5 -42.5t33.5 -12.5q14 0 17.5 -3t3.5 -10t-3 -9.5t-12 -2.5h-249q-20 0 -20 27v21q-83 -58 -175 -58q-88 0 -136.5 43t-48.5 137zM207 522l117 152l81 -58l-145 -127zM367 522l117 152
l81 -58l-145 -127z" />
    <glyph glyph-name="Uogonek" unicode="&#x172;" horiz-adv-x="836" 
d="M804 688q0 -7 -3.5 -10t-17.5 -3q-23 0 -33.5 -12.5t-10.5 -42.5v-385q0 -82 -41 -141.5t-113 -86.5q-27 -13 -51 -41.5t-24 -45.5q0 -21 12.5 -31t40.5 -10q13 0 19 4l6 -8q-22 -16 -51.5 -25t-58.5 -9q-20 0 -34 16.5t-14 39.5q0 25 16 49.5t43 42.5h-15
q-102 0 -179.5 34.5t-120 97t-42.5 144.5l-1 355q-1 30 -11.5 42.5t-33.5 12.5q-14 0 -17.5 3t-3.5 10t3 9.5t12 2.5h331q9 0 12 -2.5t3 -9.5t-3.5 -10t-17.5 -3q-23 0 -33.5 -12.5t-10.5 -42.5v-365q0 -92 45.5 -148t120.5 -56q82 0 132 51t50 135v383q0 30 -10.5 42.5
t-33.5 12.5q-14 0 -17.5 3t-3.5 10t3 9.5t12 2.5h130q9 0 12 -2.5t3 -9.5z" />
    <glyph glyph-name="uogonek" unicode="&#x173;" horiz-adv-x="774" 
d="M747 -117l6 -8q-22 -16 -51.5 -25t-58.5 -9q-20 0 -34 16.5t-14 39.5q0 28 21 56t56 47h-194q-20 0 -20 27v21q-83 -58 -175 -58q-88 0 -136.5 43t-48.5 137v185q0 30 -10.5 42.5t-33.5 12.5q-14 0 -17.5 3t-3.5 10t3 9.5t12 2.5h305q9 0 12 -2.5t3 -9.5t-3.5 -10
t-17.5 -3q-23 0 -33.5 -12.5t-10.5 -42.5v-185q0 -116 82 -116q73 0 73 36l-2 265q0 29 -10 41.5t-32 12.5q-16 0 -20 3t-4 10t3 9.5t12 2.5l100 1h222q9 0 12 -2.5t3 -9.5t-3.5 -10t-17.5 -3q-23 0 -33.5 -12.5t-10.5 -42.5v-275q0 -30 10.5 -42.5t33.5 -12.5q14 0 17.5 -3
t3.5 -10v-3h11q-28 -12 -53 -41.5t-25 -47.5q0 -21 12.5 -31t40.5 -10q13 0 19 4z" />
    <glyph glyph-name="Wcircumflex" unicode="&#x174;" horiz-adv-x="1154" 
d="M116 629q-23 46 -80 46q-14 0 -17.5 3t-3.5 10t3 9.5t12 2.5h804q9 0 12 -2.5t3 -9.5t-3.5 -10t-17.5 -3q-56 0 -78 -48l-24 -53q104 -200 153 -288l158 341q14 32 14 37q0 11 -23 11q-14 0 -17.5 3t-3.5 10t3 9.5t12 2.5h132q9 0 12 -2.5t3 -9.5t-3.5 -10t-17.5 -3
q-56 0 -78 -48l-295 -637l-171 322l-83 -178l-66 -144zM717 627q14 32 14 37q0 11 -25 11q-24 0 -24 -10q0 -8 15 -36l11 -21zM586 345l-150 284q-20 40 -64 45q-10 -1 -10 -9t15 -36q49 -94 100 -189.5t82 -153.5zM808 545q0 29 18.5 49t46.5 20q25 0 42.5 -16t17.5 -38
q0 -13 -6 -25t-17 -20q-4 -4 -8 -4h-2q-5 0 -8 3t-3 7q0 10 9 14q11 9 11 23q0 13 -10.5 22t-25.5 9q-17 0 -29 -12.5t-12 -31.5q0 -21 15 -36t36 -15q25 0 43.5 20.5t18.5 46.5q0 27 -20 46t-48 19q-25 0 -47.5 -15.5t-32.5 -40.5q-7 -16 -15 -16q-4 0 -8 4t-4 8q0 2 4 13
q16 32 43.5 51.5t59.5 19.5q39 0 66 -26t27 -63t-26 -64.5t-61 -27.5q-31 0 -53 22t-22 54zM506 810l89 108h102l89 -108l-83 -57l-57 96l-57 -96z" />
    <glyph glyph-name="wcircumflex" unicode="&#x175;" horiz-adv-x="1053" 
d="M1021 423q0 -7 -3.5 -10t-17.5 -3q-55 0 -76 -47l-189 -373l-208 373l-189 -373q-118 210 -203 374q-25 46 -81 46q-14 0 -17.5 3t-3.5 10t3 9.5t12 2.5h347q9 0 12 -2.5t3 -9.5t-3.5 -10t-17.5 -3q-12 0 -17 -2t-5 -7t6.5 -17t9.5 -19l57 -107l54 106q15 28 15 36
q0 10 -22 10q-14 0 -17.5 3t-3.5 10t3 9.5t12 2.5h308q9 0 12 -2.5t3 -9.5t-3.5 -10t-17.5 -3q-12 0 -17 -2t-5 -7q0 -6 7.5 -19t9.5 -17l59 -107l53 105q13 28 13 36q0 11 -23 11q-14 0 -17.5 3t-3.5 10t3 9.5t12 2.5h132q9 0 12 -2.5t3 -9.5zM924 362v1l2 3zM390 545
l89 108h102l89 -108l-83 -57l-57 96l-57 -96z" />
    <glyph glyph-name="Ycircumflex" unicode="&#x176;" horiz-adv-x="947" 
d="M314 12q0 7 3.5 10t17.5 3q23 0 33.5 12.5t10.5 42.5v51l-262 498q-23 46 -81 46q-14 0 -17.5 3t-3.5 10t3 9.5t12 2.5h358q9 0 12 -2.5t3 -9.5t-3.5 -10t-17.5 -3q-12 0 -17 -2t-5 -7q0 -6 7.5 -19t9.5 -17l1 -2l210 -400l209 400q14 28 14 36q0 5 -6 8t-16 3
q-12 0 -16.5 3t-4.5 10q0 6 3 9t12 3h134q15 0 15 -12q0 -7 -4 -10t-17 -3q-26 0 -48 -12.5t-32 -34.5q-13 -25 -40 -76.5t-63 -122.5q-106 -200 -128 -244v-105q0 -30 10.5 -42.5t33.5 -12.5q14 0 17.5 -3t3.5 -10t-3 -9.5t-12 -2.5h-321q-9 0 -12 2.5t-3 9.5zM508 564
q0 32 21.5 54.5t52.5 22.5q28 0 47.5 -18t19.5 -43q0 -14 -7 -27.5t-19 -22.5q-4 -5 -9 -5h-2q-5 0 -8.5 3.5t-3.5 8.5q0 11 10 15q12 12 12 26q0 15 -11.5 25t-28.5 10q-20 0 -33.5 -14t-13.5 -35q0 -24 17 -41t41 -17q28 0 49 23t21 53t-22.5 51.5t-54.5 21.5
q-28 0 -53 -17.5t-37 -45.5q-4 -10 -8 -14t-9 -4t-9 4t-4 9q0 3 4 15q18 36 49.5 58t66.5 22q44 0 74.5 -29.5t30.5 -70.5q0 -42 -29.5 -73t-68.5 -31q-35 0 -60 25t-25 61zM338 810l89 108h102l89 -108l-83 -57l-57 96l-57 -96z" />
    <glyph glyph-name="ycircumflex" unicode="&#x177;" horiz-adv-x="637" 
d="M622 435q0 -9 -15 -20q-30 -21 -63 -60.5t-56 -82.5q-29 -53 -39 -94q-25 -96 -63.5 -167t-74.5 -89q-20 -10 -52 -16t-65 -6q-19 0 -54 8q-6 1 -9.5 5t-3.5 9q0 4 5.5 7t14.5 3q14 0 22 -1l29 -1q23 0 43.5 3.5t30.5 9.5q14 8 23 24t9 33q0 19 -178 364q-25 46 -81 46
q-14 0 -17.5 3t-3.5 10t3 9.5t12 2.5h347q9 0 12 -2.5t3 -9.5t-3.5 -10t-17.5 -3q-11 0 -16 -2t-5 -6t7 -18l-8 13l81 -153q46 84 80 128q15 19 38 37.5t45 30.5q6 3 11 3t8 -3q1 -1 1 -5zM376 366q-9 16 -10 18zM176 545l89 108h102l89 -108l-83 -57l-57 96l-57 -96z" />
    <glyph glyph-name="Ydieresis" unicode="&#x178;" horiz-adv-x="947" 
d="M314 12q0 7 3.5 10t17.5 3q23 0 33.5 12.5t10.5 42.5v51l-262 498q-23 46 -81 46q-14 0 -17.5 3t-3.5 10t3 9.5t12 2.5h358q9 0 12 -2.5t3 -9.5t-3.5 -10t-17.5 -3q-12 0 -17 -2t-5 -7q0 -6 7.5 -19t9.5 -17l1 -2l210 -400l209 400q14 28 14 36q0 5 -6 8t-16 3
q-12 0 -16.5 3t-4.5 10q0 6 3 9t12 3h134q15 0 15 -12q0 -7 -4 -10t-17 -3q-26 0 -48 -12.5t-32 -34.5q-13 -25 -40 -76.5t-63 -122.5q-106 -200 -128 -244v-105q0 -30 10.5 -42.5t33.5 -12.5q14 0 17.5 -3t3.5 -10t-3 -9.5t-12 -2.5h-321q-9 0 -12 2.5t-3 9.5zM508 564
q0 32 21.5 54.5t52.5 22.5q28 0 47.5 -18t19.5 -43q0 -14 -7 -27.5t-19 -22.5q-4 -5 -9 -5h-2q-5 0 -8.5 3.5t-3.5 8.5q0 11 10 15q12 12 12 26q0 15 -11.5 25t-28.5 10q-20 0 -33.5 -14t-13.5 -35q0 -24 17 -41t41 -17q28 0 49 23t21 53t-22.5 51.5t-54.5 21.5
q-28 0 -53 -17.5t-37 -45.5q-4 -10 -8 -14t-9 -4t-9 4t-4 9q0 3 4 15q18 36 49.5 58t66.5 22q44 0 74.5 -29.5t30.5 -70.5q0 -42 -29.5 -73t-68.5 -31q-35 0 -60 25t-25 61zM387 760q0 49 -20.5 71.5t-65.5 22.5q-16 0 -21 2.5t-5 9.5q0 8 5.5 10.5t20.5 2.5q45 0 66 23
t21 72q0 9 2.5 13t9.5 4t10 -3.5t3 -13.5q0 -52 20 -73.5t70 -21.5q13 0 17.5 -2.5t4.5 -10.5q0 -7 -4.5 -9.5t-17.5 -2.5q-50 0 -70.5 -21t-20.5 -73q0 -11 -2.5 -15.5t-9.5 -4.5q-8 0 -10.5 4t-2.5 16zM677 760q0 49 -20.5 71.5t-65.5 22.5q-16 0 -21 2.5t-5 9.5
q0 8 5.5 10.5t20.5 2.5q45 0 66 23t21 72q0 9 2.5 13t9.5 4t10 -3.5t3 -13.5q0 -52 20 -73.5t70 -21.5q13 0 17.5 -2.5t4.5 -10.5q0 -7 -4.5 -9.5t-17.5 -2.5q-50 0 -70.5 -21t-20.5 -73q0 -11 -2.5 -15.5t-9.5 -4.5q-8 0 -10.5 4t-2.5 16z" />
    <glyph glyph-name="Zacute" unicode="&#x179;" horiz-adv-x="700" 
d="M306 0h-228q-8 0 -11 5t0 13l168 377h-91q-23 0 -37 5.5t-14 13.5q0 10 14 15.5t37 5.5h107q80 188 80 171q0 31 -31 50t-82 19t-82.5 -21t-31.5 -55q0 -18 12.5 -29t32.5 -11q17 0 33 16q6 6 9 6q4 0 2 -9q-5 -19 -21 -30t-37 -11q-30 0 -48.5 19t-18.5 50
q0 49 42.5 79.5t111.5 30.5q39 0 65 -11t27 -11q36 -10 74 -16t65 -6l123 29q18 5 30 5q11 0 14 -5q3 -3 -115 -260h80q25 0 40.5 -5.5t15.5 -14.5t-15.5 -14.5t-40.5 -5.5h-97l-154 -345q22 -12 47.5 -19t45.5 -7q82 0 132.5 38.5t50.5 100.5q0 8 4 12.5t11 4.5t11 -2.5
t4 -7.5v-154q0 -16 -10 -16q-20 11 -35 11q-10 0 -30 -4q-23 -6 -61.5 -9.5t-79.5 -3.5h-43q-43 0 -75 6zM299 794l103 173l83 -57l-128 -157z" />
    <glyph glyph-name="zacute" unicode="&#x17a;" horiz-adv-x="582" 
d="M504 0h-405q-5 0 -8 2.5t-3 5.5q0 2 1.5 3.5t1.5 3.5l98 211h-58q-18 0 -22 2.5t-4 11.5q0 8 4 9.5t22 1.5h69l52 113q6 12 6 18q0 8 -7 15q-10 10 -34.5 17t-46.5 7q-30 0 -52.5 -14.5t-22.5 -35.5q0 -13 8.5 -20.5t22.5 -7.5q10 0 20 8q5 4 8 4.5t5 -1.5t2 -3
q0 -2 -6 -8q-17 -20 -43 -20q-20 0 -33.5 13.5t-13.5 36.5q0 32 30.5 52t77.5 20q42 0 78 -10q17 -4 63.5 -10t71.5 -6q47 0 122 16q8 2 11 -2q2 -2 3 -5t-1 -7l-78 -171h57q17 0 21 -2t4 -10q0 -9 -4 -11t-21 -2h-70q-44 -99 -80 -173q0 -8 9 -12q18 -10 59 -10
q50 0 78 14.5t28 40.5q0 11 2.5 14t10.5 3t10.5 -2t2.5 -8v-92q0 -10 -11 -10q-15 0 -35 10zM238 529l103 173l83 -57l-128 -157z" />
    <glyph glyph-name="Zdotaccent" unicode="&#x17b;" horiz-adv-x="700" 
d="M306 0h-228q-8 0 -11 5t0 13l168 377h-91q-23 0 -37 5.5t-14 13.5q0 10 14 15.5t37 5.5h107q80 188 80 171q0 31 -31 50t-82 19t-82.5 -21t-31.5 -55q0 -18 12.5 -29t32.5 -11q17 0 33 16q6 6 9 6q4 0 2 -9q-5 -19 -21 -30t-37 -11q-30 0 -48.5 19t-18.5 50
q0 49 42.5 79.5t111.5 30.5q39 0 65 -11t27 -11q36 -10 74 -16t65 -6l123 29q18 5 30 5q11 0 14 -5q3 -3 -115 -260h80q25 0 40.5 -5.5t15.5 -14.5t-15.5 -14.5t-40.5 -5.5h-97l-154 -345q22 -12 47.5 -19t45.5 -7q82 0 132.5 38.5t50.5 100.5q0 8 4 12.5t11 4.5t11 -2.5
t4 -7.5v-154q0 -16 -10 -16q-20 11 -35 11q-10 0 -30 -4q-23 -6 -61.5 -9.5t-79.5 -3.5h-43q-43 0 -75 6zM379 760q0 50 -20.5 72.5t-65.5 22.5q-16 0 -21 2.5t-5 9.5q0 8 5.5 10.5t20.5 2.5q45 0 66 23t21 72q0 9 2.5 13t9.5 4t10 -3.5t3 -13.5q0 -52 20 -73.5t70 -21.5
q13 0 17.5 -2.5t4.5 -10.5q0 -7 -4.5 -9.5t-17.5 -2.5q-50 0 -70.5 -21.5t-20.5 -73.5q0 -11 -2.5 -15.5t-9.5 -4.5q-8 0 -10.5 4t-2.5 16z" />
    <glyph glyph-name="zdotaccent" unicode="&#x17c;" horiz-adv-x="582" 
d="M504 0h-405q-5 0 -8 2.5t-3 5.5q0 2 1.5 3.5t1.5 3.5l98 211h-58q-18 0 -22 2.5t-4 11.5q0 8 4 9.5t22 1.5h69l52 113q6 12 6 18q0 8 -7 15q-10 10 -34.5 17t-46.5 7q-30 0 -52.5 -14.5t-22.5 -35.5q0 -13 8.5 -20.5t22.5 -7.5q10 0 20 8q5 4 8 4.5t5 -1.5t2 -3
q0 -2 -6 -8q-17 -20 -43 -20q-20 0 -33.5 13.5t-13.5 36.5q0 32 30.5 52t77.5 20q42 0 78 -10q17 -4 63.5 -10t71.5 -6q47 0 122 16q8 2 11 -2q2 -2 3 -5t-1 -7l-78 -171h57q17 0 21 -2t4 -10q0 -9 -4 -11t-21 -2h-70q-44 -99 -80 -173q0 -8 9 -12q18 -10 59 -10
q50 0 78 14.5t28 40.5q0 11 2.5 14t10.5 3t10.5 -2t2.5 -8v-92q0 -10 -11 -10q-15 0 -35 10zM278 495q0 50 -20.5 72.5t-65.5 22.5q-16 0 -21 2.5t-5 9.5q0 8 5.5 10.5t20.5 2.5q45 0 66 23t21 72q0 9 2.5 13t9.5 4t10 -3.5t3 -13.5q0 -52 20 -73.5t70 -21.5q13 0 17.5 -2.5
t4.5 -10.5q0 -7 -4.5 -9.5t-17.5 -2.5q-50 0 -70.5 -21.5t-20.5 -73.5q0 -11 -2.5 -15.5t-9.5 -4.5q-8 0 -10.5 4t-2.5 16z" />
    <glyph glyph-name="Zcaron" unicode="&#x17d;" horiz-adv-x="700" 
d="M306 0h-228q-8 0 -11 5t0 13l168 377h-91q-23 0 -37 5.5t-14 13.5q0 10 14 15.5t37 5.5h107q80 188 80 171q0 31 -31 50t-82 19t-82.5 -21t-31.5 -55q0 -18 12.5 -29t32.5 -11q17 0 33 16q6 6 9 6q4 0 2 -9q-5 -19 -21 -30t-37 -11q-30 0 -48.5 19t-18.5 50
q0 49 42.5 79.5t111.5 30.5q39 0 65 -11t27 -11q36 -10 74 -16t65 -6l123 29q18 5 30 5q11 0 14 -5q3 -3 -115 -260h80q25 0 40.5 -5.5t15.5 -14.5t-15.5 -14.5t-40.5 -5.5h-97l-154 -345q22 -12 47.5 -19t45.5 -7q82 0 132.5 38.5t50.5 100.5q0 8 4 12.5t11 4.5t11 -2.5
t4 -7.5v-154q0 -16 -10 -16q-20 11 -35 11q-10 0 -30 -4q-23 -6 -61.5 -9.5t-79.5 -3.5h-43q-43 0 -75 6zM252 863l83 57l57 -96l57 96l83 -57l-89 -108h-102z" />
    <glyph glyph-name="zcaron" unicode="&#x17e;" horiz-adv-x="550" 
d="M473 0h-405q-5 0 -8 2.5t-3 5.5q0 2 1.5 3.5t1.5 3.5l98 211h-58q-18 0 -22 2.5t-4 11.5q0 8 4 9.5t22 1.5h69l52 113q6 12 6 18q0 8 -7 15q-10 10 -34.5 17t-46.5 7q-30 0 -52.5 -14.5t-22.5 -35.5q0 -13 8.5 -20.5t22.5 -7.5q10 0 20 8q5 4 8 4.5t5 -1.5t2 -3
q0 -2 -6 -8q-17 -20 -43 -20q-20 0 -33.5 13.5t-13.5 36.5q0 32 30.5 52t77.5 20q42 0 78 -10q17 -4 63.5 -10t71.5 -6q47 0 122 16q8 2 11 -2q2 -2 3 -5t-1 -7l-78 -171h57q17 0 21 -2t4 -10q0 -9 -4 -11t-21 -2h-70q-44 -99 -80 -173q0 -8 9 -12q18 -10 59 -10
q50 0 78 14.5t28 40.5q0 11 2.5 14t10.5 3t10.5 -2t2.5 -8v-92q0 -10 -11 -10q-15 0 -35 10zM119 598l83 57l57 -96l57 96l83 -57l-89 -108h-102z" />
    <glyph glyph-name="florin" unicode="&#x192;" horiz-adv-x="549" 
d="M33 76q0 22 12 22q17 0 17 -23q0 -19 16.5 -30t41.5 -11q30 0 55 39.5t31 98.5l21 213h-132v50h137l10 98q9 83 43 130t113 47q59 0 89 -24.5t30 -61.5q0 -22 -12 -22q-17 0 -17 23q0 19 -16.5 30t-41.5 11q-30 0 -55 -39.5t-31 -98.5l-9 -93h128v-50h-133l-22 -218
q-9 -83 -43 -130t-113 -47q-59 0 -89 24.5t-30 61.5z" />
    <glyph glyph-name="uni0218" unicode="&#x218;" horiz-adv-x="696" 
d="M144 7q-24 4 -30 4q-11 0 -35 -11q-10 0 -10 16v184q0 5 4 7.5t11 2.5t11 -4.5t4 -12.5q0 -78 55.5 -125.5t147.5 -47.5q58 0 93 35t35 92q0 30 -36.5 61t-96.5 51q-104 40 -168 110t-64 146q0 61 28.5 107.5t80.5 72t120 25.5l64 -5q32 -5 54 -5h29q7 0 23 4.5t22 5.5
q5 0 5 -6v-116q0 -8 -4 -13t-11 -5t-11 6.5t-4 17.5q0 37 -33.5 60t-88.5 23q-40 0 -64 -20t-24 -53q0 -21 15.5 -39t40.5 -26l177 -62q69 -33 111 -103t42 -151q0 -72 -38.5 -127t-108.5 -85.5t-162 -30.5q-46 0 -97 4.5t-87 12.5zM330 -286q0 9 5 14l21 17q4 4 17.5 14.5
t19.5 20.5t6 23t-5 16q-10 7 -39 9q-20 2 -40 6q-37 9 -37 32v75q0 14 6 22.5t16 9.5q34 0 72.5 -22.5t64.5 -58.5t26 -74q0 -31 -25 -56.5t-69 -59.5q-6 -7 -19 -7q-20 0 -20 19z" />
    <glyph glyph-name="uni0219" unicode="&#x219;" horiz-adv-x="504" 
d="M71 0v143q0 13 8 13q10 0 10 -13q0 -53 30 -85.5t79 -32.5q28 0 44.5 11.5t16.5 31.5q0 22 -15.5 41t-41.5 28q-62 21 -99.5 60t-37.5 82q0 75 54 120.5t143 45.5h50l21 5q12 5 24 5q7 0 7 -10v-92q0 -4 -2 -6.5t-5 -2.5q-4 0 -6.5 4t-2.5 11q0 28 -21.5 44.5t-56.5 16.5
q-26 0 -42.5 -10.5t-16.5 -27.5q0 -14 10 -24.5t27 -13.5q89 -17 143 -70t54 -123q0 -68 -48 -109.5t-127 -41.5h-149l-42 -10q-8 0 -8 10zM242 -286q0 9 5 14l21 17q4 4 17.5 14.5t19.5 20.5t6 23t-5 16q-10 7 -39 9q-20 2 -40 6q-37 9 -37 32v75q0 14 6 22.5t16 9.5
q34 0 72.5 -22.5t64.5 -58.5t26 -74q0 -31 -25 -56.5t-69 -59.5q-6 -7 -19 -7q-20 0 -20 19z" />
    <glyph glyph-name="uni021A" unicode="&#x21a;" horiz-adv-x="879" 
d="M260 12q0 7 3.5 10t17.5 3q23 0 33.5 12.5t10.5 42.5v540q0 27 -25.5 38.5t-79.5 11.5q-88 0 -126.5 -27t-38.5 -84q0 -24 -3.5 -31t-13.5 -7q-8 0 -10.5 4t-2.5 14v161h829v-161q0 -10 -3 -14t-11 -4q-9 0 -12 6t-3 26q0 62 -40 89.5t-125 27.5q-56 0 -80.5 -12
t-24.5 -38v-540q0 -30 10.5 -42.5t33.5 -12.5q14 0 17.5 -3t3.5 -10t-3 -9.5t-12 -2.5h-330q-9 0 -12 2.5t-3 9.5zM440 -286q0 9 5 14l21 17q4 4 17.5 14.5t19.5 20.5t6 23t-5 16q-10 7 -39 9q-20 2 -40 6q-37 9 -37 32v75q0 14 6 22.5t16 9.5q34 0 72.5 -22.5t64.5 -58.5
t26 -74q0 -31 -25 -56.5t-69 -59.5q-6 -7 -19 -7q-20 0 -20 19z" />
    <glyph glyph-name="uni021B" unicode="&#x21b;" horiz-adv-x="472" 
d="M96 113v284q0 6 -7 9.5t-19 3.5q-24 0 -30.5 3t-6.5 9q0 7 4.5 10t21.5 3q53 0 118.5 58t121.5 152q3 8 8 8q8 0 8 -13v-166q0 -17 15 -28t39 -11q17 0 21.5 -3t4.5 -10t-7.5 -10t-34.5 -3q-16 0 -26.5 -3.5t-10.5 -8.5v-259q0 -29 16.5 -46.5t44.5 -17.5q26 0 50 14
q8 5 11 5q2 0 2 -3q0 -6 -8 -22q-21 -35 -67.5 -56.5t-102.5 -21.5q-75 0 -120.5 33.5t-45.5 89.5zM226 -286q0 9 5 14l21 17q4 4 17.5 14.5t19.5 20.5t6 23t-5 16q-10 7 -39 9q-20 2 -40 6q-37 9 -37 32v75q0 14 6 22.5t16 9.5q34 0 72.5 -22.5t64.5 -58.5t26 -74
q0 -31 -25 -56.5t-69 -59.5q-6 -7 -19 -7q-20 0 -20 19z" />
    <glyph glyph-name="uni0237" unicode="&#x237;" horiz-adv-x="388" 
d="M20 -81q-10 15 -10 22q0 5 4 5t11 -5q23 -14 46 -14q29 0 47 23.5t18 62.5v342q0 30 -10.5 42.5t-33.5 12.5q-14 0 -17.5 3t-3.5 10t3 9.5t12 2.5h250q9 0 14.5 -4t5.5 -11v-454q0 -55 -40.5 -89t-106.5 -34q-63 0 -115 21t-74 55z" />
    <glyph glyph-name="circumflex" unicode="&#x2c6;" horiz-adv-x="479" 
d="M96 545l89 108h102l89 -108l-83 -57l-57 96l-57 -96z" />
    <glyph glyph-name="caron" unicode="&#x2c7;" horiz-adv-x="479" 
d="M96 598l83 57l57 -96l57 96l83 -57l-89 -108h-102z" />
    <glyph glyph-name="breve" unicode="&#x2d8;" horiz-adv-x="463" 
d="M105 634l5 5q2 -1 35.5 -30.5t88.5 -29.5t89 29.5t37 30.5l5 -5q0 -51 -24 -97.5t-107 -46.5q-82 0 -105.5 46.5t-23.5 97.5z" />
    <glyph glyph-name="dotaccent" unicode="&#x2d9;" horiz-adv-x="325" 
d="M155 485q0 43 -26.5 69t-69.5 26q-26 0 -26 13t26 13q43 0 69 27.5t26 71.5q0 9 2.5 13t9.5 4q13 0 13 -17q0 -45 25 -71.5t67 -26.5q13 0 17.5 -2.5t4.5 -10.5q0 -7 -5 -10t-17 -3q-42 0 -66.5 -26t-24.5 -70q0 -10 -2.5 -14t-9.5 -4q-8 0 -10.5 4t-2.5 14z" />
    <glyph glyph-name="ring" unicode="&#x2da;" horiz-adv-x="419" 
d="M95 599q0 44 32 75.5t77 31.5q43 0 75 -31.5t32 -75.5q0 -30 -15 -56.5t-39.5 -42t-52.5 -15.5q-44 0 -76.5 34t-32.5 80zM244 596q0 17 -12.5 29t-28.5 12q-17 0 -29 -12t-12 -29t12 -29.5t29 -12.5t29 12.5t12 29.5z" />
    <glyph glyph-name="ogonek" unicode="&#x2db;" horiz-adv-x="363" 
d="M105 -103q0 32 27 63.5t69 48.5h62q-28 -12 -53 -41.5t-25 -47.5q0 -21 12.5 -31t40.5 -10q13 0 19 4l6 -8q-22 -16 -51.5 -25t-58.5 -9q-20 0 -34 16.5t-14 39.5z" />
    <glyph glyph-name="tilde" unicode="&#x2dc;" horiz-adv-x="563" 
d="M238 654q35 0 52.5 -9.5t33.5 -26.5q9 -10 15.5 -14.5t17.5 -4.5q43 0 67.5 15t21.5 40h19q2 -74 -39 -119t-108 -45q-26 0 -40 11t-28 33q-10 17 -19.5 25.5t-24.5 8.5q-38 0 -61 -21.5t-21 -56.5h-19q-1 73 36 118.5t97 45.5z" />
    <glyph glyph-name="hungarumlaut" unicode="&#x2dd;" horiz-adv-x="556" 
d="M103 522l117 152l81 -58l-145 -127zM263 522l117 152l81 -58l-145 -127z" />
    <glyph glyph-name="gravecomb" unicode="&#x300;" 
d="M-282 645l83 57l103 -173l-58 -41z" />
    <glyph glyph-name="acutecomb" unicode="&#x301;" 
d="M-282 529l103 173l83 -57l-128 -157z" />
    <glyph glyph-name="uni0302" unicode="&#x302;" 
d="M-383 545l89 108h102l89 -108l-83 -57l-57 96l-57 -96z" />
    <glyph glyph-name="tildecomb" unicode="&#x303;" 
d="M-325 654q35 0 52.5 -9.5t33.5 -26.5q9 -10 15.5 -14.5t17.5 -4.5q43 0 67.5 15t21.5 40h19q2 -74 -39 -119t-108 -45q-26 0 -40 11t-28 33q-10 17 -19.5 25.5t-24.5 8.5q-38 0 -61 -21.5t-21 -56.5h-19q-1 73 36 118.5t97 45.5z" />
    <glyph glyph-name="uni0304" unicode="&#x304;" 
d="M-432 570h334v-80h-334v80z" />
    <glyph glyph-name="uni0306" unicode="&#x306;" 
d="M-358 634l5 5q2 -1 35.5 -30.5t88.5 -29.5t89 29.5t37 30.5l5 -5q0 -51 -24 -97.5t-107 -46.5q-82 0 -105.5 46.5t-23.5 97.5z" />
    <glyph glyph-name="uni0307" unicode="&#x307;" 
d="M-170 495q0 50 -20.5 72.5t-65.5 22.5q-16 0 -21 2.5t-5 9.5q0 8 5.5 10.5t20.5 2.5q45 0 66 23t21 72q0 9 2.5 13t9.5 4t10 -3.5t3 -13.5q0 -52 20 -73.5t70 -21.5q13 0 17.5 -2.5t4.5 -10.5q0 -7 -4.5 -9.5t-17.5 -2.5q-50 0 -70.5 -21.5t-20.5 -73.5q0 -11 -2.5 -15.5
t-9.5 -4.5q-8 0 -10.5 4t-2.5 16z" />
    <glyph glyph-name="uni0308" unicode="&#x308;" 
d="M-460 495q0 49 -20.5 71.5t-65.5 22.5q-16 0 -21 2.5t-5 9.5q0 8 5.5 10.5t20.5 2.5q45 0 66 23t21 72q0 9 2.5 13t9.5 4t10 -3.5t3 -13.5q0 -52 20 -73.5t70 -21.5q13 0 17.5 -2.5t4.5 -10.5q0 -7 -4.5 -9.5t-17.5 -2.5q-50 0 -70.5 -21t-20.5 -73q0 -11 -2.5 -15.5
t-9.5 -4.5q-8 0 -10.5 4t-2.5 16zM-170 495q0 49 -20.5 71.5t-65.5 22.5q-16 0 -21 2.5t-5 9.5q0 8 5.5 10.5t20.5 2.5q45 0 66 23t21 72q0 9 2.5 13t9.5 4t10 -3.5t3 -13.5q0 -52 20 -73.5t70 -21.5q13 0 17.5 -2.5t4.5 -10.5q0 -7 -4.5 -9.5t-17.5 -2.5q-50 0 -70.5 -21
t-20.5 -73q0 -11 -2.5 -15.5t-9.5 -4.5q-8 0 -10.5 4t-2.5 16z" />
    <glyph glyph-name="uni030A" unicode="&#x30a;" 
d="M-324 599q0 44 32 75.5t77 31.5q43 0 75 -31.5t32 -75.5q0 -30 -15 -56.5t-39.5 -42t-52.5 -15.5q-44 0 -76.5 34t-32.5 80zM-175 596q0 17 -12.5 29t-28.5 12q-17 0 -29 -12t-12 -29t12 -29.5t29 -12.5t29 12.5t12 29.5z" />
    <glyph glyph-name="uni030B" unicode="&#x30b;" 
d="M-453 522l117 152l81 -58l-145 -127zM-293 522l117 152l81 -58l-145 -127z" />
    <glyph glyph-name="uni030C" unicode="&#x30c;" 
d="M-383 598l83 57l57 -96l57 96l83 -57l-89 -108h-102z" />
    <glyph glyph-name="uni0312" unicode="&#x312;" 
d="M-283 639q0 51 103 130q6 7 19 7q20 0 20 -19q0 -9 -5 -14l-21 -17q-24 -20 -38 -36.5t-14 -35.5q0 -13 5 -16q10 -7 39 -9q20 -2 40 -6q37 -9 37 -32v-75q0 -14 -6 -22.5t-16 -9.5q-34 0 -72.5 22.5t-64.5 58.5t-26 74z" />
    <glyph glyph-name="uni0326" unicode="&#x326;" 
d="M-231 -286q0 9 5 14l21 17q4 4 17.5 14.5t19.5 20.5t6 23t-5 16q-10 7 -39 9q-20 2 -40 6q-37 9 -37 32v75q0 14 6 22.5t16 9.5q34 0 72.5 -22.5t64.5 -58.5t26 -74q0 -31 -25 -56.5t-69 -59.5q-6 -7 -19 -7q-20 0 -20 19z" />
    <glyph glyph-name="uni0327" unicode="&#x327;" 
d="M-295 -166q0 21 17 38.5t38 17.5q17 0 31.5 -15t16.5 -34q-5 5 -13 8t-12 3q-14 0 -14 -17q0 -16 19 -16q31 0 31 55q0 21 -10 38t-21 17q-10 0 -16 -14q-4 -8 -13.5 -12.5t-21.5 -4.5h-10q-2 2 -4 2h-7l13 105h52l-5 -46q9 3 26 3q100 0 100 -95q0 -23 -16.5 -44.5
t-43 -34.5t-54.5 -13q-34 0 -58.5 17.5t-24.5 41.5z" />
    <glyph glyph-name="uni0328" unicode="&#x328;" 
d="M-258 -103q0 32 27 63.5t69 48.5h62q-28 -12 -53 -41.5t-25 -47.5q0 -21 12.5 -31t40.5 -10q13 0 19 4l6 -8q-22 -16 -51.5 -25t-58.5 -9q-20 0 -34 16.5t-14 39.5z" />
    <glyph glyph-name="Wgrave" unicode="&#x1e80;" horiz-adv-x="1154" 
d="M116 629q-23 46 -80 46q-14 0 -17.5 3t-3.5 10t3 9.5t12 2.5h804q9 0 12 -2.5t3 -9.5t-3.5 -10t-17.5 -3q-56 0 -78 -48l-24 -53q104 -200 153 -288l158 341q14 32 14 37q0 11 -23 11q-14 0 -17.5 3t-3.5 10t3 9.5t12 2.5h132q9 0 12 -2.5t3 -9.5t-3.5 -10t-17.5 -3
q-56 0 -78 -48l-295 -637l-171 322l-83 -178l-66 -144zM717 627q14 32 14 37q0 11 -25 11q-24 0 -24 -10q0 -8 15 -36l11 -21zM586 345l-150 284q-20 40 -64 45q-10 -1 -10 -9t15 -36q49 -94 100 -189.5t82 -153.5zM808 545q0 29 18.5 49t46.5 20q25 0 42.5 -16t17.5 -38
q0 -13 -6 -25t-17 -20q-4 -4 -8 -4h-2q-5 0 -8 3t-3 7q0 10 9 14q11 9 11 23q0 13 -10.5 22t-25.5 9q-17 0 -29 -12.5t-12 -31.5q0 -21 15 -36t36 -15q25 0 43.5 20.5t18.5 46.5q0 27 -20 46t-48 19q-25 0 -47.5 -15.5t-32.5 -40.5q-7 -16 -15 -16q-4 0 -8 4t-4 8q0 2 4 13
q16 32 43.5 51.5t59.5 19.5q39 0 66 -26t27 -63t-26 -64.5t-61 -27.5q-31 0 -53 22t-22 54zM523 910l83 57l103 -173l-58 -41z" />
    <glyph glyph-name="wgrave" unicode="&#x1e81;" horiz-adv-x="1053" 
d="M1021 423q0 -7 -3.5 -10t-17.5 -3q-55 0 -76 -47l-189 -373l-208 373l-189 -373q-118 210 -203 374q-25 46 -81 46q-14 0 -17.5 3t-3.5 10t3 9.5t12 2.5h347q9 0 12 -2.5t3 -9.5t-3.5 -10t-17.5 -3q-12 0 -17 -2t-5 -7t6.5 -17t9.5 -19l57 -107l54 106q15 28 15 36
q0 10 -22 10q-14 0 -17.5 3t-3.5 10t3 9.5t12 2.5h308q9 0 12 -2.5t3 -9.5t-3.5 -10t-17.5 -3q-12 0 -17 -2t-5 -7q0 -6 7.5 -19t9.5 -17l59 -107l53 105q13 28 13 36q0 11 -23 11q-14 0 -17.5 3t-3.5 10t3 9.5t12 2.5h132q9 0 12 -2.5t3 -9.5zM924 362v1l2 3zM437 645
l83 57l103 -173l-58 -41z" />
    <glyph glyph-name="Wacute" unicode="&#x1e82;" horiz-adv-x="1154" 
d="M116 629q-23 46 -80 46q-14 0 -17.5 3t-3.5 10t3 9.5t12 2.5h804q9 0 12 -2.5t3 -9.5t-3.5 -10t-17.5 -3q-56 0 -78 -48l-24 -53q104 -200 153 -288l158 341q14 32 14 37q0 11 -23 11q-14 0 -17.5 3t-3.5 10t3 9.5t12 2.5h132q9 0 12 -2.5t3 -9.5t-3.5 -10t-17.5 -3
q-56 0 -78 -48l-295 -637l-171 322l-83 -178l-66 -144zM717 627q14 32 14 37q0 11 -25 11q-24 0 -24 -10q0 -8 15 -36l11 -21zM586 345l-150 284q-20 40 -64 45q-10 -1 -10 -9t15 -36q49 -94 100 -189.5t82 -153.5zM808 545q0 29 18.5 49t46.5 20q25 0 42.5 -16t17.5 -38
q0 -13 -6 -25t-17 -20q-4 -4 -8 -4h-2q-5 0 -8 3t-3 7q0 10 9 14q11 9 11 23q0 13 -10.5 22t-25.5 9q-17 0 -29 -12.5t-12 -31.5q0 -21 15 -36t36 -15q25 0 43.5 20.5t18.5 46.5q0 27 -20 46t-48 19q-25 0 -47.5 -15.5t-32.5 -40.5q-7 -16 -15 -16q-4 0 -8 4t-4 8q0 2 4 13
q16 32 43.5 51.5t59.5 19.5q39 0 66 -26t27 -63t-26 -64.5t-61 -27.5q-31 0 -53 22t-22 54zM553 794l103 173l83 -57l-128 -157z" />
    <glyph glyph-name="wacute" unicode="&#x1e83;" horiz-adv-x="1053" 
d="M1021 423q0 -7 -3.5 -10t-17.5 -3q-55 0 -76 -47l-189 -373l-208 373l-189 -373q-118 210 -203 374q-25 46 -81 46q-14 0 -17.5 3t-3.5 10t3 9.5t12 2.5h347q9 0 12 -2.5t3 -9.5t-3.5 -10t-17.5 -3q-12 0 -17 -2t-5 -7t6.5 -17t9.5 -19l57 -107l54 106q15 28 15 36
q0 10 -22 10q-14 0 -17.5 3t-3.5 10t3 9.5t12 2.5h308q9 0 12 -2.5t3 -9.5t-3.5 -10t-17.5 -3q-12 0 -17 -2t-5 -7q0 -6 7.5 -19t9.5 -17l59 -107l53 105q13 28 13 36q0 11 -23 11q-14 0 -17.5 3t-3.5 10t3 9.5t12 2.5h132q9 0 12 -2.5t3 -9.5zM924 362v1l2 3zM437 529
l103 173l83 -57l-128 -157z" />
    <glyph glyph-name="Wdieresis" unicode="&#x1e84;" horiz-adv-x="1154" 
d="M116 629q-23 46 -80 46q-14 0 -17.5 3t-3.5 10t3 9.5t12 2.5h804q9 0 12 -2.5t3 -9.5t-3.5 -10t-17.5 -3q-56 0 -78 -48l-24 -53q104 -200 153 -288l158 341q14 32 14 37q0 11 -23 11q-14 0 -17.5 3t-3.5 10t3 9.5t12 2.5h132q9 0 12 -2.5t3 -9.5t-3.5 -10t-17.5 -3
q-56 0 -78 -48l-295 -637l-171 322l-83 -178l-66 -144zM717 627q14 32 14 37q0 11 -25 11q-24 0 -24 -10q0 -8 15 -36l11 -21zM586 345l-150 284q-20 40 -64 45q-10 -1 -10 -9t15 -36q49 -94 100 -189.5t82 -153.5zM808 545q0 29 18.5 49t46.5 20q25 0 42.5 -16t17.5 -38
q0 -13 -6 -25t-17 -20q-4 -4 -8 -4h-2q-5 0 -8 3t-3 7q0 10 9 14q11 9 11 23q0 13 -10.5 22t-25.5 9q-17 0 -29 -12.5t-12 -31.5q0 -21 15 -36t36 -15q25 0 43.5 20.5t18.5 46.5q0 27 -20 46t-48 19q-25 0 -47.5 -15.5t-32.5 -40.5q-7 -16 -15 -16q-4 0 -8 4t-4 8q0 2 4 13
q16 32 43.5 51.5t59.5 19.5q39 0 66 -26t27 -63t-26 -64.5t-61 -27.5q-31 0 -53 22t-22 54zM488 760q0 49 -20.5 71.5t-65.5 22.5q-16 0 -21 2.5t-5 9.5q0 8 5.5 10.5t20.5 2.5q45 0 66 23t21 72q0 9 2.5 13t9.5 4t10 -3.5t3 -13.5q0 -52 20 -73.5t70 -21.5q13 0 17.5 -2.5
t4.5 -10.5q0 -7 -4.5 -9.5t-17.5 -2.5q-50 0 -70.5 -21t-20.5 -73q0 -11 -2.5 -15.5t-9.5 -4.5q-8 0 -10.5 4t-2.5 16zM778 760q0 49 -20.5 71.5t-65.5 22.5q-16 0 -21 2.5t-5 9.5q0 8 5.5 10.5t20.5 2.5q45 0 66 23t21 72q0 9 2.5 13t9.5 4t10 -3.5t3 -13.5q0 -52 20 -73.5
t70 -21.5q13 0 17.5 -2.5t4.5 -10.5q0 -7 -4.5 -9.5t-17.5 -2.5q-50 0 -70.5 -21t-20.5 -73q0 -11 -2.5 -15.5t-9.5 -4.5q-8 0 -10.5 4t-2.5 16z" />
    <glyph glyph-name="wdieresis" unicode="&#x1e85;" horiz-adv-x="1053" 
d="M1021 423q0 -7 -3.5 -10t-17.5 -3q-55 0 -76 -47l-189 -373l-208 373l-189 -373q-118 210 -203 374q-25 46 -81 46q-14 0 -17.5 3t-3.5 10t3 9.5t12 2.5h347q9 0 12 -2.5t3 -9.5t-3.5 -10t-17.5 -3q-12 0 -17 -2t-5 -7t6.5 -17t9.5 -19l57 -107l54 106q15 28 15 36
q0 10 -22 10q-14 0 -17.5 3t-3.5 10t3 9.5t12 2.5h308q9 0 12 -2.5t3 -9.5t-3.5 -10t-17.5 -3q-12 0 -17 -2t-5 -7q0 -6 7.5 -19t9.5 -17l59 -107l53 105q13 28 13 36q0 11 -23 11q-14 0 -17.5 3t-3.5 10t3 9.5t12 2.5h132q9 0 12 -2.5t3 -9.5zM924 362v1l2 3zM372 495
q0 49 -20.5 71.5t-65.5 22.5q-16 0 -21 2.5t-5 9.5q0 8 5.5 10.5t20.5 2.5q45 0 66 23t21 72q0 9 2.5 13t9.5 4t10 -3.5t3 -13.5q0 -52 20 -73.5t70 -21.5q13 0 17.5 -2.5t4.5 -10.5q0 -7 -4.5 -9.5t-17.5 -2.5q-50 0 -70.5 -21t-20.5 -73q0 -11 -2.5 -15.5t-9.5 -4.5
q-8 0 -10.5 4t-2.5 16zM662 495q0 49 -20.5 71.5t-65.5 22.5q-16 0 -21 2.5t-5 9.5q0 8 5.5 10.5t20.5 2.5q45 0 66 23t21 72q0 9 2.5 13t9.5 4t10 -3.5t3 -13.5q0 -52 20 -73.5t70 -21.5q13 0 17.5 -2.5t4.5 -10.5q0 -7 -4.5 -9.5t-17.5 -2.5q-50 0 -70.5 -21t-20.5 -73
q0 -11 -2.5 -15.5t-9.5 -4.5q-8 0 -10.5 4t-2.5 16z" />
    <glyph glyph-name="uni1E9E" unicode="&#x1e9e;" horiz-adv-x="762" 
d="M349 0v3q0 9 20 11q28 1 52.5 12.5t36.5 30.5q6 19 9.5 51t3.5 65q0 83 -30.5 134t-80.5 51q-10 0 -10 8q0 10 10 10q42 0 67.5 45.5t25.5 119.5q0 67 -19 108t-50 41q-26 0 -42.5 -35t-16.5 -93v-557q0 -7 -4 -11t-11 -4h-235q-10 0 -10 13q0 5 3 8.5t7 3.5h30v547
q0 44 35 77.5t98 52t146 18.5q84 0 148.5 -21t100 -59t35.5 -88q0 -75 -57 -121t-151 -46q-5 0 -8 -2.5t-3 -6.5q0 -8 11 -8q72 0 127 -22t85.5 -62t30.5 -92q0 -57 -42.5 -101t-119.5 -68.5t-177 -24.5q-7 0 -11 3.5t-4 8.5z" />
    <glyph glyph-name="Ygrave" unicode="&#x1ef2;" horiz-adv-x="947" 
d="M314 12q0 7 3.5 10t17.5 3q23 0 33.5 12.5t10.5 42.5v51l-262 498q-23 46 -81 46q-14 0 -17.5 3t-3.5 10t3 9.5t12 2.5h358q9 0 12 -2.5t3 -9.5t-3.5 -10t-17.5 -3q-12 0 -17 -2t-5 -7q0 -6 7.5 -19t9.5 -17l1 -2l210 -400l209 400q14 28 14 36q0 5 -6 8t-16 3
q-12 0 -16.5 3t-4.5 10q0 6 3 9t12 3h134q15 0 15 -12q0 -7 -4 -10t-17 -3q-26 0 -48 -12.5t-32 -34.5q-13 -25 -40 -76.5t-63 -122.5q-106 -200 -128 -244v-105q0 -30 10.5 -42.5t33.5 -12.5q14 0 17.5 -3t3.5 -10t-3 -9.5t-12 -2.5h-321q-9 0 -12 2.5t-3 9.5zM508 564
q0 32 21.5 54.5t52.5 22.5q28 0 47.5 -18t19.5 -43q0 -14 -7 -27.5t-19 -22.5q-4 -5 -9 -5h-2q-5 0 -8.5 3.5t-3.5 8.5q0 11 10 15q12 12 12 26q0 15 -11.5 25t-28.5 10q-20 0 -33.5 -14t-13.5 -35q0 -24 17 -41t41 -17q28 0 49 23t21 53t-22.5 51.5t-54.5 21.5
q-28 0 -53 -17.5t-37 -45.5q-4 -10 -8 -14t-9 -4t-9 4t-4 9q0 3 4 15q18 36 49.5 58t66.5 22q44 0 74.5 -29.5t30.5 -70.5q0 -42 -29.5 -73t-68.5 -31q-35 0 -60 25t-25 61zM385 910l83 57l103 -173l-58 -41z" />
    <glyph glyph-name="ygrave" unicode="&#x1ef3;" horiz-adv-x="663" 
d="M631 435q0 -9 -15 -20q-30 -21 -63 -60.5t-56 -82.5q-29 -53 -39 -94q-25 -96 -63.5 -167t-74.5 -89q-20 -10 -52 -16t-65 -6q-19 0 -54 8q-6 1 -9.5 5t-3.5 9q0 4 5.5 7t14.5 3q14 0 22 -1l29 -1q23 0 43.5 3.5t30.5 9.5q14 8 23 24t9 33q0 19 -178 364q-25 46 -81 46
q-14 0 -17.5 3t-3.5 10t3 9.5t12 2.5h347q9 0 12 -2.5t3 -9.5t-3.5 -10t-17.5 -3q-11 0 -16 -2t-5 -6t7 -18l-8 13l81 -153q46 84 80 128q15 19 38 37.5t45 30.5q6 3 11 3t8 -3q1 -1 1 -5zM385 366q-9 16 -10 18zM232 645l83 57l103 -173l-58 -41z" />
    <glyph glyph-name="endash" unicode="&#x2013;" horiz-adv-x="594" 
d="M15 325h520v-70h-520v70z" />
    <glyph glyph-name="emdash" unicode="&#x2014;" horiz-adv-x="1110" 
d="M65 325h986v-70h-986v70z" />
    <glyph glyph-name="quoteleft" unicode="&#x2018;" horiz-adv-x="277" 
d="M139 487q-103 79 -103 130q0 38 26 74t64.5 58.5t72.5 22.5q10 -1 16 -9.5t6 -22.5v-75q0 -23 -37 -32q-20 -4 -40 -6q-29 -2 -39 -9q-5 -3 -5 -16q0 -19 14 -35.5t38 -36.5l21 -17q5 -5 5 -14q0 -19 -20 -19q-13 0 -19 7z" />
    <glyph glyph-name="quoteright" unicode="&#x2019;" horiz-adv-x="235" 
d="M68 499q0 9 5 14l21 17q24 20 38 36.5t14 35.5q0 13 -5 16q-10 7 -39 9q-20 2 -40 6q-37 9 -37 32v75q0 14 6 22.5t16 9.5q34 0 72.5 -22.5t64.5 -58.5t26 -74q0 -51 -103 -130q-6 -7 -19 -7q-20 0 -20 19z" />
    <glyph glyph-name="quotesinglbase" unicode="&#x201a;" horiz-adv-x="235" 
d="M68 -139q0 9 5 14l21 17q24 20 38 36.5t14 35.5q0 13 -5 16q-10 7 -39 9q-20 2 -40 6q-37 9 -37 32v75q0 14 6 22.5t16 9.5q34 0 72.5 -22.5t64.5 -58.5t26 -74q0 -51 -103 -130q-6 -7 -19 -7q-20 0 -20 19z" />
    <glyph glyph-name="quotedblleft" unicode="&#x201c;" horiz-adv-x="405" 
d="M88 487q-103 79 -103 130q0 38 26 74t64.5 58.5t72.5 22.5q10 -1 16 -9.5t6 -22.5v-75q0 -23 -37 -32q-20 -4 -40 -6q-29 -2 -39 -9q-5 -3 -5 -16q0 -19 14 -35.5t38 -36.5l21 -17q5 -5 5 -14q0 -19 -20 -19q-13 0 -19 7zM308 487q-103 79 -103 130q0 38 26 74t64.5 58.5
t72.5 22.5q10 -1 16 -9.5t6 -22.5v-75q0 -23 -37 -32q-20 -4 -40 -6q-29 -2 -39 -9q-5 -3 -5 -16q0 -19 14 -35.5t38 -36.5l21 -17q5 -5 5 -14q0 -19 -20 -19q-13 0 -19 7z" />
    <glyph glyph-name="quotedblright" unicode="&#x201d;" horiz-adv-x="516" 
d="M99 499q0 9 5 14l21 17q24 20 38 36.5t14 35.5q0 13 -5 16q-10 7 -39 9q-20 2 -40 6q-37 9 -37 32v75q0 14 6 22.5t16 9.5q34 0 72.5 -22.5t64.5 -58.5t26 -74q0 -51 -103 -130q-6 -7 -19 -7q-20 0 -20 19zM319 499q0 9 5 14l21 17q24 20 38 36.5t14 35.5q0 13 -5 16
q-10 7 -39 9q-20 2 -40 6q-37 9 -37 32v75q0 14 6 22.5t16 9.5q34 0 72.5 -22.5t64.5 -58.5t26 -74q0 -51 -103 -130q-6 -7 -19 -7q-20 0 -20 19z" />
    <glyph glyph-name="quotedblbase" unicode="&#x201e;" horiz-adv-x="468" 
d="M63 -139q0 9 5 14l21 17q24 20 38 36.5t14 35.5q0 13 -5 16q-10 7 -39 9q-20 2 -40 6q-37 9 -37 32v75q0 14 6 22.5t16 9.5q34 0 72.5 -22.5t64.5 -58.5t26 -74q0 -51 -103 -130q-6 -7 -19 -7q-20 0 -20 19zM283 -139q0 9 5 14l21 17q24 20 38 36.5t14 35.5q0 13 -5 16
q-10 7 -39 9q-20 2 -40 6q-37 9 -37 32v75q0 14 6 22.5t16 9.5q34 0 72.5 -22.5t64.5 -58.5t26 -74q0 -51 -103 -130q-6 -7 -19 -7q-20 0 -20 19z" />
    <glyph glyph-name="dagger" unicode="&#x2020;" horiz-adv-x="345" 
d="M133 315h-100v75h100v100h80v-100h100v-75h-100v-320h-80v320z" />
    <glyph glyph-name="daggerdbl" unicode="&#x2021;" horiz-adv-x="345" 
d="M133 160h-100v75h100v80h-100v75h100v100h80v-100h100v-75h-100v-80h100v-75h-100v-165h-80v165z" />
    <glyph glyph-name="bullet" unicode="&#x2022;" horiz-adv-x="343" 
d="M146 192q0 49 -20.5 71.5t-65.5 22.5q-16 0 -21 2.5t-5 9.5q0 8 5.5 10.5t20.5 2.5q45 0 66 23t21 72q0 9 2.5 13t9.5 4t10 -3.5t3 -13.5q0 -52 20 -73.5t70 -21.5q13 0 17.5 -2.5t4.5 -10.5q0 -7 -4.5 -9.5t-17.5 -2.5q-50 0 -70.5 -21t-20.5 -73q0 -11 -2.5 -15.5
t-9.5 -4.5q-8 0 -10.5 4t-2.5 16z" />
    <glyph glyph-name="ellipsis" unicode="&#x2026;" horiz-adv-x="954" 
d="M177 0q0 49 -20.5 71.5t-65.5 22.5q-16 0 -21 2.5t-5 9.5q0 8 5.5 10.5t20.5 2.5q45 0 66 23t21 72q0 9 2.5 13t9.5 4t10 -3.5t3 -13.5q0 -52 20 -73.5t70 -21.5q13 0 17.5 -2.5t4.5 -10.5q0 -7 -4.5 -9.5t-17.5 -2.5q-50 0 -70.5 -21t-20.5 -73q0 -11 -2.5 -15.5
t-9.5 -4.5q-8 0 -10.5 4t-2.5 16zM467 0q0 49 -20.5 71.5t-65.5 22.5q-16 0 -21 2.5t-5 9.5q0 8 5.5 10.5t20.5 2.5q45 0 66 23t21 72q0 9 2.5 13t9.5 4t10 -3.5t3 -13.5q0 -52 20 -73.5t70 -21.5q13 0 17.5 -2.5t4.5 -10.5q0 -7 -4.5 -9.5t-17.5 -2.5q-50 0 -70.5 -21
t-20.5 -73q0 -11 -2.5 -15.5t-9.5 -4.5q-8 0 -10.5 4t-2.5 16zM757 0q0 49 -20.5 71.5t-65.5 22.5q-16 0 -21 2.5t-5 9.5q0 8 5.5 10.5t20.5 2.5q45 0 66 23t21 72q0 9 2.5 13t9.5 4t10 -3.5t3 -13.5q0 -52 20 -73.5t70 -21.5q13 0 17.5 -2.5t4.5 -10.5q0 -7 -4.5 -9.5
t-17.5 -2.5q-50 0 -70.5 -21t-20.5 -73q0 -11 -2.5 -15.5t-9.5 -4.5q-8 0 -10.5 4t-2.5 16z" />
    <glyph glyph-name="perthousand" unicode="&#x2030;" horiz-adv-x="1205" 
d="M33 519q0 84 49.5 135t129.5 51q79 0 127.5 -51t48.5 -135q0 -87 -45.5 -140.5t-120.5 -53.5q-85 0 -137 53.5t-52 140.5zM619 700h92l-490 -700h-92zM279 519q0 59 -17.5 94.5t-45.5 35.5t-45 -36t-17 -94q0 -60 17 -96.5t45 -36.5t45.5 36.5t17.5 96.5zM448 189
q0 84 48.5 135t127.5 51q78 0 126 -51t48 -135q0 -87 -45 -140.5t-118 -53.5q-84 0 -135.5 53.5t-51.5 140.5zM823 189q0 84 48.5 135t127.5 51q78 0 126 -51t48 -135q0 -87 -45 -140.5t-118 -53.5q-84 0 -135.5 53.5t-51.5 140.5zM691 189q0 59 -17.5 94.5t-45.5 35.5
t-44.5 -35.5t-16.5 -94.5q0 -60 16.5 -96.5t44.5 -36.5t45.5 36.5t17.5 96.5zM1066 189q0 59 -17.5 94.5t-45.5 35.5t-44.5 -35.5t-16.5 -94.5q0 -60 16.5 -96.5t44.5 -36.5t45.5 36.5t17.5 96.5z" />
    <glyph glyph-name="guilsinglleft" unicode="&#x2039;" horiz-adv-x="206" 
d="M17 217l129 119l42 -49l-61 -70l61 -62l-43 -48z" />
    <glyph glyph-name="guilsinglright" unicode="&#x203a;" horiz-adv-x="234" 
d="M18 155l61 62l-61 70l42 49l129 -119l-128 -110z" />
    <glyph glyph-name="fraction" unicode="&#x2044;" horiz-adv-x="706" 
d="M555 700h92l-490 -700h-92z" />
    <glyph glyph-name="peseta" unicode="&#x20a7;" horiz-adv-x="915" 
d="M65 12q0 7 3.5 10t17.5 3q23 0 33.5 12.5t10.5 42.5v355h-50v70h50v115q0 30 -10.5 42.5t-33.5 12.5q-14 0 -17.5 3t-3.5 10t3 9.5t12 2.5h414q82 0 149 -24.5t109 -68.5t52 -102h52v-70h-50q-6 -74 -46 -130.5t-106.5 -87.5t-149.5 -31q-48 0 -88 12.5t-56 33.5v-152
q0 -30 10.5 -42.5t33.5 -12.5q14 0 17.5 -3t3.5 -10t-3 -9.5t-12 -2.5h-330q-9 0 -12 2.5t-3 9.5zM566 560q0 49 -27.5 79.5t-71.5 30.5q-48 0 -77.5 -30.5t-29.5 -79.5v-55h206v55zM566 376v59h-206v-59q0 -70 29.5 -112.5t77.5 -42.5q44 0 71.5 42.5t27.5 112.5z" />
    <glyph glyph-name="Euro" unicode="&#x20ac;" horiz-adv-x="786" 
d="M151 235h-86v70h74l-1 25l1 25h-74v70h86q0 85 42.5 149.5t120.5 100t179 35.5l34 -2l80 -8l87 10q6 0 9.5 -4t3.5 -11v-146q0 -8 -3.5 -13t-9.5 -5q-8 0 -12.5 10.5t-4.5 26.5q0 52 -35.5 84t-94.5 32q-67 0 -108 -40t-41 -105v-114h80v-70h-80v-50h80v-70h-80v-96
q0 -53 35 -85t92 -32q41 0 85.5 14.5t78.5 38.5q22 15 30 15t8 -8q0 -14 -26 -34q-34 -26 -91 -42t-117 -16q-101 0 -179 30.5t-120.5 86t-42.5 128.5z" />
    <glyph glyph-name="uni2113" unicode="&#x2113;" horiz-adv-x="422" 
d="M161 71l-9 -13q-27 -35 -46.5 -51t-36.5 -16q-14 0 -25 8t-11 18q0 15 23.5 47t46.5 56l30 40l-6 28v26q0 121 30.5 236.5t79.5 187.5t99 72q27 0 40.5 -21t13.5 -59q0 -126 -29.5 -225t-97.5 -196q-26 -36 -46 -69q0 -17 14 -37t35 -34t38 -14q31 0 50 -6t19 -23
t-17.5 -26.5t-48.5 -9.5q-44 0 -82 21t-64 60zM301 572q-38 -55 -60.5 -120.5t-22.5 -133.5v-24q38 56 59 127.5t24 150.5z" />
    <glyph glyph-name="trademark" unicode="&#x2122;" horiz-adv-x="615" 
d="M94 497q0 4 4 7t9 3q12 0 12 9v153q0 8 -22 8q-20 0 -30.5 -6.5t-10.5 -17.5q0 -20 -11 -20q-5 0 -8.5 4.5t-3.5 9.5v53h253v-53q0 -6 -3.5 -10t-9.5 -4q-10 0 -10 18q0 26 -41 26q-22 0 -22 -8v-153q0 -5 2.5 -7t9.5 -2q5 0 9 -3t4 -7q0 -5 -3.5 -8.5t-7.5 -3.5h-108
q-5 0 -8.5 3.5t-3.5 8.5zM303 497q0 3 3 6t7 3q3 0 6.5 4.5t3.5 6.5v151q0 10 -7 10q-13 0 -13 11q0 5 4 8t9 3h71q6 -6 31 -40l23 -28q11 11 31.5 33.5t30.5 34.5h66q5 0 8.5 -3.5t3.5 -8.5q0 -4 -5 -7t-12 -3q-6 0 -7.5 -2t-1.5 -8v-151q0 -6 3 -8.5t11 -2.5q6 0 10 -3
t4 -7q0 -11 -14 -11h-110q-11 0 -11 12q0 4 4 6.5t9 2.5q6 0 9.5 3t3.5 8v111l-47 -54q-7 -5 -12 -5t-10 5l-57 60v-117q0 -2 4.5 -6.5t6.5 -4.5q4 0 7.5 -3t3.5 -6q0 -12 -13 -12h-42q-5 0 -8.5 3.5t-3.5 8.5z" />
    <glyph glyph-name="arrowleft" unicode="&#x2190;" horiz-adv-x="764" 
d="M33 316v65l332 141l24 -65l-136 -58h479v-94h-479l132 -62l-24 -65z" />
    <glyph glyph-name="arrowup" unicode="&#x2191;" horiz-adv-x="409" 
d="M156 479l-58 -136l-65 24l141 332h65l138 -328l-65 -24l-62 132v-479h-94v479z" />
    <glyph glyph-name="arrowright" unicode="&#x2192;" horiz-adv-x="764" 
d="M380 243l132 62h-479v94h479l-136 58l24 65l332 -141v-65l-328 -138z" />
    <glyph glyph-name="arrowdown" unicode="&#x2193;" horiz-adv-x="409" 
d="M33 332l65 24l58 -136v479h94v-479l62 132l65 -24l-138 -328h-65z" />
    <glyph glyph-name="arrowboth" unicode="&#x2194;" horiz-adv-x="785" 
d="M33 236v63l325 136l23 -64l-129 -61h284l-130 61l24 64l323 -136v-63l-327 -139l-24 64l134 57h-284l133 -57l-23 -64z" />
    <glyph glyph-name="arrowupdn" unicode="&#x2195;" horiz-adv-x="403" 
d="M33 317l64 24l57 -134v284l-57 -133l-64 23l139 329h63l136 -325l-64 -23l-61 129v-284l61 130l64 -24l-136 -323h-63z" />
    <glyph glyph-name="partialdiff" unicode="&#x2202;" horiz-adv-x="587" 
d="M56 262q0 73 29 129t82 86.5t122 30.5q0 17 -29.5 44t-77.5 54q-16 7 -50 18q-7 2 -7 7q-1 2 -0.5 4t2.5 4l16 30q5 8 15 6l51 -15q94 -39 165 -96.5t110.5 -124.5t39.5 -134q0 -94 -31 -165t-88 -110.5t-132 -39.5q-64 0 -113.5 34t-76.5 95.5t-27 142.5zM312 81l28 325
q2 30 -8 49t-26 19q-19 0 -32.5 -23.5t-16.5 -61.5l-27 -299q-2 -32 8 -51.5t30 -19.5q17 0 29 17t15 45z" />
    <glyph glyph-name="emptyset" unicode="&#x2205;" horiz-adv-x="741" 
d="M211 52l-36 -52h-92l74 106q-41 51 -66.5 123.5t-25.5 139.5q0 101 38.5 178.5t108 120t161.5 42.5q40 0 85 -16.5t80 -43.5l35 50h92l-72 -103q40 -47 64.5 -116.5t24.5 -136.5q0 -105 -38.5 -185.5t-108.5 -124.5t-162 -44q-37 0 -81.5 17t-80.5 45zM467 548
q-14 38 -39.5 61.5t-54.5 23.5q-35 0 -61 -34.5t-40.5 -97.5t-14.5 -146q0 -30 4 -100zM491 355q0 47 -4 91l-205 -294q13 -38 38 -61t53 -23q35 0 62 36t41.5 101t14.5 150z" />
    <glyph glyph-name="product" unicode="&#x220f;" horiz-adv-x="627" 
d="M152 485h-87v116h503v-116h-87v-578h-106v578h-107v-578h-116v578z" />
    <glyph glyph-name="summation" unicode="&#x2211;" horiz-adv-x="628" 
d="M231 228l-166 340h504v-93h-343l120 -247l-118 -247h336v-103h-499z" />
    <glyph glyph-name="minus" unicode="&#x2212;" horiz-adv-x="399" 
d="M33 290h334v-80h-334v80z" />
    <glyph glyph-name="radical" unicode="&#x221a;" horiz-adv-x="736" 
d="M65 275l86 40l98 -197l146 529h282v-90h-213l-156 -565h-103z" />
    <glyph glyph-name="infinity" unicode="&#x221e;" horiz-adv-x="1096" 
d="M65 219q0 64 32.5 113.5t91.5 76.5t137 27q72 0 135 -32t93 -84q32 52 96 84t136 32q75 0 132 -25.5t88 -71.5t31 -106q0 -69 -33.5 -122t-94.5 -82t-141 -29q-71 0 -132 36t-90 94q-36 -59 -101.5 -94.5t-136.5 -35.5q-72 0 -127 27.5t-85.5 77t-30.5 114.5zM519 222
q0 38 -56 61.5t-148 23.5q-89 0 -143.5 -23t-54.5 -61q0 -35 54.5 -57t143.5 -22q92 0 148 21.5t56 56.5zM979 222q0 38 -56 61.5t-148 23.5q-89 0 -143.5 -23t-54.5 -61q0 -35 54.5 -57t143.5 -22q92 0 148 21.5t56 56.5z" />
    <glyph glyph-name="integral" unicode="&#x222b;" horiz-adv-x="630" 
d="M33 76q0 10 3.5 16t9.5 6q8 -1 12.5 -7t3.5 -16q-2 -16 10 -27.5t33 -14.5q33 -3 58 35t32 104l38 361q8 80 67.5 128.5t148.5 48.5q67 0 108 -23.5t41 -62.5q0 -10 -3.5 -16t-8.5 -6q-9 0 -14 6t-4 17q2 19 -11 30t-36 11q-32 0 -56 -38t-30 -100l-38 -361
q-8 -80 -68 -128.5t-149 -48.5q-66 0 -106.5 23.5t-40.5 62.5z" />
    <glyph glyph-name="approxequal" unicode="&#x2248;" horiz-adv-x="485" 
d="M173 440q44 0 72 -10t56 -27q15 -9 24.5 -13.5t19.5 -4.5q43 0 67.5 15t21.5 40h19q1 -44 -22.5 -82t-64.5 -60t-89 -22q-44 0 -65 13.5t-39 37.5q-9 14 -17 20.5t-22 6.5q-38 0 -61 -21.5t-21 -56.5h-19q-1 74 37 119t103 45zM173 240q43 0 71 -10t57 -27
q15 -9 24.5 -13.5t19.5 -4.5q43 0 67.5 15t21.5 40h19q1 -44 -22.5 -82t-64.5 -60t-89 -22q-41 0 -62 13.5t-38 36.5q-13 15 -21.5 21.5t-21.5 6.5q-38 0 -61 -21.5t-21 -56.5h-19q-1 74 37 119t103 45z" />
    <glyph glyph-name="notequal" unicode="&#x2260;" horiz-adv-x="466" 
d="M112 190h-49v80h107l29 40h-136v80h194l72 100h105l-72 -100h35v-80h-93l-29 -40h122v-80h-180l-79 -110h-105z" />
    <glyph glyph-name="lessequal" unicode="&#x2264;" horiz-adv-x="433" 
d="M33 264v73l340 113l28 -74l-232 -70l227 -78l-27 -74zM41 130h334v-80h-334v80z" />
    <glyph glyph-name="greaterequal" unicode="&#x2265;" horiz-adv-x="433" 
d="M38 228l227 78l-232 70l28 74l340 -113v-73l-336 -110zM59 130h334v-80h-334v80z" />
    <glyph glyph-name="lozenge" unicode="&#x25ca;" horiz-adv-x="463" 
d="M65 351l108 349h108l123 -349l-123 -351h-108zM313 351l-79 217l-82 -217l82 -219z" />
    <glyph glyph-name="i.loclTRK" horiz-adv-x="415" 
d="M33 12q0 7 3.5 10t17.5 3q23 0 33.5 12.5t10.5 42.5v275q0 30 -10.5 42.5t-33.5 12.5q-14 0 -17.5 3t-3.5 10t3 9.5t12 2.5h250q9 0 14.5 -4t5.5 -11v-340q0 -30 10.5 -42.5t33.5 -12.5q14 0 17.5 -3t3.5 -10t-3 -9.5t-12 -2.5h-320q-9 0 -12 2.5t-3 9.5zM174 495
q0 50 -20.5 72.5t-65.5 22.5q-16 0 -21 2.5t-5 9.5q0 8 5.5 10.5t20.5 2.5q45 0 66 23t21 72q0 9 2.5 13t9.5 4t10 -3.5t3 -13.5q0 -52 20 -73.5t70 -21.5q13 0 17.5 -2.5t4.5 -10.5q0 -7 -4.5 -9.5t-17.5 -2.5q-50 0 -70.5 -21.5t-20.5 -73.5q0 -11 -2.5 -15.5t-9.5 -4.5
q-8 0 -10.5 4t-2.5 16z" />
    <glyph glyph-name="A_A" horiz-adv-x="1504" 
d="M65 12q0 7 3.5 10t17.5 3q58 0 81 46q174 324 346 639l243 -461q165 306 250 461l337 -639q23 -46 81 -46q14 0 17.5 -3t3.5 -10t-3 -9.5t-12 -2.5h-364q-9 0 -12 2.5t-3 9.5t3.5 10t17.5 3q12 0 17 2.5t5 8.5q0 9 -14 35l-76 148h-231l-1 -1l78 -147q23 -46 81 -46
q14 0 17.5 -3t3.5 -10t-3 -9.5t-12 -2.5h-364q-9 0 -12 2.5t-3 9.5t3.5 10t17.5 3q12 0 17 2.5t5 8.5q0 9 -14 35l-76 148h-231l-15 -27l-64 -119l-1 -2q-14 -26 -14 -35q0 -6 5 -8.5t17 -2.5q14 0 17.5 -3t3.5 -10t-3 -9.5t-12 -2.5h-134q-9 0 -12 2.5t-3 9.5zM495 249
l-97 186l-102 -186h199zM988 249l-97 186l-102 -186h199z" />
    <glyph glyph-name="A_C" horiz-adv-x="1233" 
d="M826 0h-253q-9 0 -12 2.5t-3 9.5t3.5 10t17.5 3q12 0 17 2.5t5 8.5q0 9 -14 35l-76 148h-231q-2 -3 -23.5 -41.5t-55.5 -104.5l-1 -2q-14 -26 -14 -35q0 -6 5 -8.5t17 -2.5q14 0 17.5 -3t3.5 -10t-3 -9.5t-12 -2.5h-134q-9 0 -12 2.5t-3 9.5t3.5 10t17.5 3q58 0 81 46
q174 324 346 639l97 -184q43 87 124.5 135.5t187.5 48.5l114 -10l87 10q6 0 9.5 -4t3.5 -11v-146q0 -8 -3.5 -13t-9.5 -5q-8 0 -12.5 10.5t-4.5 26.5q0 52 -35.5 84t-94.5 32q-67 0 -108 -40t-41 -105v-400q0 -18 4 -31q24 -47 29 -52q10 -16 34.5 -25.5t59.5 -9.5
t85.5 16.5t96.5 43.5q13 10 27 10q5 0 8 -3q6 -6 0.5 -15t-19.5 -17q-39 -30 -102 -48t-128 -18q-53 0 -96 10zM489 249l-97 186l-102 -186h199z" />
    <glyph glyph-name="A_G" horiz-adv-x="1394" 
d="M864 0h-291q-9 0 -12 2.5t-3 9.5t3.5 10t17.5 3q12 0 17 2.5t5 8.5q0 9 -14 35l-76 148h-231l-15 -27l-64 -119l-1 -2q-14 -26 -14 -35q0 -6 5 -8.5t17 -2.5q14 0 17.5 -3t3.5 -10t-3 -9.5t-12 -2.5h-134q-9 0 -12 2.5t-3 9.5t3.5 10t17.5 3q58 0 81 46q174 324 346 639
l101 -192q48 90 143.5 140.5t221.5 50.5q17 0 80 -9q9 0 37 4q23 4 35 4q15 0 24 -6.5t9 -17.5v-156q0 -16 -16 -16q-6 0 -10 8t-4 21q0 62 -41 100t-108 38q-69 0 -111.5 -53.5t-42.5 -140.5v-350q0 -21 8 -42l11 -22q18 -27 45 -39t69 -12q53 0 85.5 29t32.5 77v193
q0 13 -11 18q-26 14 -45 19.5t-40 5.5q-46 0 -73 -23t-27 -62q0 -34 21.5 -56t54.5 -22q30 0 50 17t20 43q0 24 -16 42t-38 18q-18 0 -33 -12.5t-15 -28.5q0 -15 11 -27.5t28 -12.5h11q16 0 16 -10q0 -8 -9.5 -12t-23.5 -4q-25 0 -43 18.5t-18 44.5q0 29 23 50.5t54 21.5
q34 0 57.5 -25.5t23.5 -61.5q0 -38 -27.5 -63t-70.5 -25q-46 0 -75 27.5t-29 71.5q0 32 16 59.5t42.5 44t56.5 16.5q28 0 80 -8q105 -16 140 -16q24 0 55.5 7.5t59.5 20.5q11 0 11 -16q0 -17 -18 -75q-14 -44 -14 -67q0 -20 9 -47.5t23 -54.5q7 -12 11.5 -22.5t4.5 -16.5
q0 -4 -5.5 -7t-13.5 -3q-11 0 -28.5 4t-24.5 5q-18 0 -45.5 -10.5t-53.5 -28.5q-44 -30 -97.5 -48t-95.5 -18q-60 0 -107 10zM495 249l-97 186l-102 -186h199z" />
    <glyph glyph-name="A_H" horiz-adv-x="1470" 
d="M561 12q0 7 3.5 10t17.5 3q22 0 22 10l-96 184h-231l-79 -146q-14 -26 -14 -36q0 -11 23 -11q14 0 17.5 -3t3.5 -10t-2.5 -9.5t-12.5 -2.5h-133q-9 0 -12 2.5t-3 9.5t3.5 10t17.5 3q51 0 78 48l87 160l260 476l116 -221v131q0 30 -10 42.5t-33 12.5q-14 0 -17.5 3
t-3.5 10t3 9.5t12 2.5h329q9 0 12 -2.5t3 -9.5t-3.5 -10t-17.5 -3q-23 0 -33.5 -12.5t-10.5 -42.5v-540q0 -16 3 -28q24 -27 68 -27q14 0 17.5 -3t3.5 -10t-2.5 -9.5t-12.5 -2.5h-358q-10 0 -12.5 2.5t-2.5 9.5zM1061 12q0 7 3.5 10t17.5 3q23 0 33.5 12.5t10.5 42.5v540
q0 30 -10 42.5t-33 12.5q-14 0 -17.5 3t-3.5 10t3 9.5t12 2.5h319q9 0 12 -2.5t3 -9.5t-3.5 -10t-17.5 -3q-23 0 -33.5 -12.5t-10.5 -42.5v-540q0 -30 10 -42.5t33 -12.5q14 0 17.5 -3t3.5 -10t-3 -9.5t-12 -2.5h-319q-9 0 -12 2.5t-3 9.5zM987 326q0 46 -27.5 73.5
t-72.5 27.5q-21 0 -21 8t21 8q44 0 72 27.5t28 72.5q0 10 1 12.5t6 2.5t6.5 -3t1.5 -12q0 -45 26.5 -72.5t70.5 -27.5q11 0 14 -1.5t3 -6.5q0 -4 -3 -6t-14 -2q-44 0 -70.5 -27.5t-26.5 -73.5q0 -8 -1.5 -10.5t-5.5 -2.5q-5 0 -6.5 2t-1.5 11zM492 250l-97 185l-101 -185
h198z" />
    <glyph glyph-name="A_K" horiz-adv-x="1454" 
d="M556 12q0 7 3.5 10t17.5 3q9 0 18.5 2.5t9.5 7.5l-97 184h-231l-79 -146q-14 -26 -14 -36q0 -11 23 -11q14 0 17.5 -3t3.5 -10t-3 -9.5t-12 -2.5h-133q-9 0 -12 2.5t-3 9.5t3.5 10t17.5 3q51 0 78 48l96 176q157 293 250 460l111 -211v121q0 30 -10 42.5t-33 12.5
q-14 0 -17.5 3t-3.5 10t3 9.5t12 2.5h328q9 0 12 -2.5t3 -9.5t-3.5 -10t-17.5 -3q-23 0 -33.5 -12.5t-10.5 -42.5v-165q0 -10 8 -16t22 -6q26 0 60 20t65 59q62 79 123.5 121.5t108.5 60.5q21 8 33 8q6 0 8.5 -2t4.5 -9q3 -7 -3.5 -11.5t-32.5 -13.5q-107 -39 -156 -123
q-3 -7 -3 -15q0 -10 6 -27l202 -429q22 -47 78 -47q14 0 17.5 -3t3.5 -10t-3 -9.5t-12 -2.5h-354q-9 0 -12 2.5t-3 9.5t3.5 10t17.5 3q23 0 23 11q0 8 -13 36l-140 297q-10 10 -17.5 15t-14.5 5q-8 0 -13.5 -4.5t-5.5 -10.5v-313q24 -36 76 -36q14 0 17.5 -3t3.5 -10
t-2.5 -9.5t-12.5 -2.5h-362q-9 0 -12 2.5t-3 9.5zM492 249l-97 186l-102 -186h199z" />
    </font>
</defs>
</svg>
